<svg xmlns="http://www.w3.org/2000/svg" xmlns:xlink="http://www.w3.org/1999/xlink" xmlns:lucid="lucid" width="372.81" height="214.56"><g transform="translate(-388.2607740247285 -360.71769399648844)" lucid:page-tab-id="v2Sh~p5HqFNX"><path d="M739.45 547.46l-48.1-43.3" stroke="#6f7681" stroke-width="3" fill="none"/><path d="M751.17 558l-13.7-6.1 6.2-6.88z" stroke="#6f7681" stroke-width="3" fill="#6f7681"/><path d="M691.38 504.18l-1.14-1.03M734.15 503.15h-42.4" stroke="#6f7681" stroke-width="3" fill="none"/><path d="M749.92 503.15l-14.27 4.64v-9.28z" stroke="#6f7681" stroke-width="3" fill="#6f7681"/><path d="M691.78 503.15h-1.54M739.45 458.85l-48.1 43.3" stroke="#6f7681" stroke-width="3" fill="none"/><path d="M751.17 448.3l-7.5 13-6.2-6.9z" stroke="#6f7681" stroke-width="3" fill="#6f7681"/><path d="M691.38 502.12l-1.14 1.03" stroke="#6f7681" stroke-width="3" fill="none"/><path d="M754.77 567.78a6 6 0 0 1-6 6H723.5a6 6 0 0 1-6-6v-13.05a6 6 0 0 1 6-6h25.27a6 6 0 0 1 6 6zM754.77 509.68a6 6 0 0 1-6 6H723.5a6 6 0 0 1-6-6v-13.05a6 6 0 0 1 6-6h25.27a6 6 0 0 1 6 6z" stroke="#000" stroke-opacity="0" stroke-width="3" fill-opacity="0"/><path d="M735.72 548.73a6 6 0 0 1-6-6V511a6 6 0 0 1 6-6h13.05a6 6 0 0 1 6 6v31.73a6 6 0 0 1-6 6z" stroke="#000" stroke-opacity="0" stroke-width="3" fill-opacity="0"/><use xlink:href="#a" transform="matrix(6.123233995736766e-17,-1,1,6.123233995736766e-17,734.7214556949853,543.7305466468881) translate(1.567901234567902 17.77777777777778)"/><use xlink:href="#b" transform="matrix(6.123233995736766e-17,-1,1,6.123233995736766e-17,734.7214556949853,543.7305466468881) translate(13.91358024691358 17.77777777777778)"/><use xlink:href="#c" transform="matrix(6.123233995736766e-17,-1,1,6.123233995736766e-17,734.7214556949853,543.7305466468881) translate(26.25925925925926 17.77777777777778)"/><path d="M754.77 451.57a6 6 0 0 1-6 6H723.5a6 6 0 0 1-6-6v-13.05a6 6 0 0 1 6-6h25.27a6 6 0 0 1 6 6z" stroke="#000" stroke-opacity="0" stroke-width="3" fill-opacity="0"/><path d="M393.88 446l48.1 43.3" stroke="#6f7681" stroke-width="3" fill="none"/><path d="M394.9 444.93l-1.98 2.2-.16-.15V443z" stroke="#6f7681" stroke-width=".05" fill="#6f7681"/><path d="M453.7 499.85l-13.72-6.1 6.2-6.9z" stroke="#6f7681" stroke-width="3" fill="#6f7681"/><path d="M394.26 503.1h42.42" stroke="#6f7681" stroke-width="3" fill="none"/><path d="M394.3 504.57h-1.54v-2.95h1.54z" stroke="#6f7681" stroke-width=".05" fill="#6f7681"/><path d="M452.44 503.1l-14.26 4.63v-9.27z" stroke="#6f7681" stroke-width="3" fill="#6f7681"/><path d="M393.88 560.2l48.1-43.3M393.9 560.17l-1.14 1.03" stroke="#6f7681" stroke-width="3" fill="none"/><path d="M453.7 506.34l-7.5 13-6.22-6.9z" stroke="#6f7681" stroke-width="3" fill="#6f7681"/><path d="M392.76 438.46a6 6 0 0 1 6-6h25.26a6 6 0 0 1 6 6v13.06a6 6 0 0 1-6 6h-25.26a6 6 0 0 1-6-6zM392.76 496.57a6 6 0 0 1 6-6h25.26a6 6 0 0 1 6 6v13.05a6 6 0 0 1-6 6h-25.26a6 6 0 0 1-6-6z" stroke="#000" stroke-opacity="0" stroke-width="3" fill-opacity="0"/><path d="M411.8 504.95a6 6 0 0 1 6 6v31.72a6 6 0 0 1-6 6h-13.04a6 6 0 0 1-6-6v-31.72a6 6 0 0 1 6-6z" stroke="#000" stroke-opacity="0" stroke-width="3" fill-opacity="0"/><use xlink:href="#a" transform="matrix(6.123233995736766e-17,1,-1,6.123233995736766e-17,412.81248338135083,509.9533652873954) translate(1.567901234567902 17.77777777777778)"/><use xlink:href="#b" transform="matrix(6.123233995736766e-17,1,-1,6.123233995736766e-17,412.81248338135083,509.9533652873954) translate(13.91358024691358 17.77777777777778)"/><use xlink:href="#c" transform="matrix(6.123233995736766e-17,1,-1,6.123233995736766e-17,412.81248338135083,509.9533652873954) translate(26.25925925925926 17.77777777777778)"/><path d="M392.76 467.52a6 6 0 0 1 6-6h25.26a6 6 0 0 1 6 6v13.05a6 6 0 0 1-6 6h-25.26a6 6 0 0 1-6-6z" stroke="#000" stroke-opacity="0" stroke-width="3" fill-opacity="0"/><use xlink:href="#d" transform="matrix(1,0,0,1,397.76072402472715,466.5172246768031) translate(14 17.77777777777778)"/><path d="M510.4 534.84c-8.75 0-15.85-14.2-15.85-31.7s7.1-31.68 15.85-31.68h126.74c8.75 0 15.84 14.2 15.84 31.7s-7.1 31.68-15.84 31.68z" fill="#fff"/><path d="M500.15 527.16l-.92-1.53-2.2-5.47-.86-3.72m-1.2-7.55l-.42-5.75.45-5.73m1.17-7.56l.95-4 2.2-5.4.82-1.32m4.9-5.82l1.48-.9 1.36-.56 1.3-.3 1.22-.1h6.33m8.45 0h12.68m8.45 0H559m8.45 0h12.67m8.45 0h12.68m8.45 0h12.67m8.45 0h6.34l1.27.1 1.3.32 1.38.57 1.4.87m4.9 5.82l.92 1.53 2.2 5.47.86 3.72m1.2 7.56l.42 5.73-.44 5.74m-1.17 7.54l-.96 4.02-2.2 5.37-.8 1.34m-4.9 5.82l-1.48.88-1.37.56-1.3.3-1.2.1h-6.35m-8.45 0h-12.67m-8.45 0h-12.68m-8.45 0h-12.67m-8.45 0H546.3m-8.44 0h-12.68m-8.45 0h-6.33l-1.28-.1-1.3-.3-1.37-.6-1.4-.86" stroke="#3a414a" stroke-width="4" fill="none"/><path d="M637.14 534.84c-8.75 0-15.84-14.2-15.84-31.7s7.1-31.68 15.84-31.68" fill="none"/><path d="M637.14 534.84l-1.28-.1-1.3-.3-1.36-.6-1.4-.86m-4.9-5.82l-.93-1.53-2.2-5.47-.86-3.72m-1.18-7.55l-.42-5.75.44-5.73m1.17-7.56l.96-4 2.2-5.4.83-1.32m4.9-5.82l1.46-.9 1.37-.56 1.3-.3 1.2-.1" stroke="#3a414a" stroke-width="4" fill="none"/><path d="M690.24 509.68a6 6 0 0 1-6 6h-25.26a6 6 0 0 1-6-6v-13.05a6 6 0 0 1 6-6h25.26a6 6 0 0 1 6 6z" stroke="#000" stroke-opacity="0" stroke-width="3" fill-opacity="0"/><path d="M661.15 503.15h-4.67" stroke="#ffe342" stroke-width="7" fill="none"/><path d="M678.9 503.15l-14.25 4.64v-9.28z" stroke="#ffe342" stroke-width="7" fill="#ffe342"/><path d="M656.57 506.63h-3.6v-6.95h3.6z" stroke="#ffe342" stroke-width=".05" fill="#ffe342"/><path d="M631.98 513.84a6 6 0 0 1-6-6v-9.5a6 6 0 0 1 6-6h9.5a6 6 0 0 1 6 6v9.5a6 6 0 0 1-6 6z" stroke="#3a414a" stroke-width="3" fill="#ffe342"/><path d="M392.76 366.72a6 6 0 0 1 6-6h350a6 6 0 0 1 6 6v13.05a6 6 0 0 1-6 6h-350a6 6 0 0 1-6-6z" fill="none"/><use xlink:href="#e" transform="matrix(1,0,0,1,392.76072402472755,360.71769399648844) translate(61.48046875000003 22.200520833333336)"/><path d="M392.76 398.8a6 6 0 0 1 6-6H531a6 6 0 0 1 6 6v38.82a6 6 0 0 1-6 6H398.76a6 6 0 0 1-6-6z" fill="none"/><use xlink:href="#f" transform="matrix(1,0,0,1,392.760724024727,392.80777026537146) translate(0 18.826822916666668)"/><use xlink:href="#g" transform="matrix(1,0,0,1,392.760724024727,392.80777026537146) translate(0 44.00043402777778)"/><path d="M583.72 503.15c0 11.52-9.34 20.86-20.86 20.86S542 514.68 542 503.16c0-11.52 9.34-20.85 20.86-20.85s20.86 9.33 20.86 20.85z" stroke="#000" stroke-opacity="0" stroke-width="2" fill="#ced4db"/><use xlink:href="#h" transform="matrix(1,0,0,1,547.0009759676554,487.2948637117384) translate(-10.671006944444443 21.91362847222222)"/><path d="M457.3 496.57a6 6 0 0 1 6-6h25.25a6 6 0 0 1 6 6v13.05a6 6 0 0 1-6 6H463.3a6 6 0 0 1-6-6z" stroke="#000" stroke-opacity="0" stroke-width="3" fill-opacity="0"/><path d="M460.8 503.1h4.66M460.88 503.1h-3.6" stroke="#9391ff" stroke-width="7" fill="none"/><path d="M483.23 503.1l-14.27 4.63v-9.27z" stroke="#9391ff" stroke-width="7" fill="#9391ff"/><path d="M583.72 418.2c0 11.53-9.34 20.87-20.86 20.87S542 429.73 542 418.2c0-11.5 9.34-20.85 20.86-20.85s20.86 9.34 20.86 20.86z" stroke="#000" stroke-opacity="0" stroke-width="2" fill="#ffe342"/><use xlink:href="#i" transform="matrix(1,0,0,1,547.0009759676554,402.3539236691428) translate(-4.003255208333332 21.91362847222222)"/><path d="M562.58 440.54l-.67 1.56-5.52 7.8-.1.7.07.53.2.5.43.54.04.04 1.83 1.42 2.07 1.15 2.1 1.04.2.1 2.62 1.6 1.53 2.03.08.3-.13 1.26-.83 1.16-1.3 1.12-1.5 1.1-.22.2" stroke="#979ea8" stroke-width="3" stroke-linejoin="round" fill="none"/><path d="M562.86 439.07l1.5-.1-.25 1.83-2.9-.4.2-1.5z" stroke="#979ea8" stroke-width=".05" fill="#979ea8"/><path d="M564.96 477.8l-6.2-13.67 9.2-1.04z" stroke="#979ea8" stroke-width="3" fill="#979ea8"/><path d="M614.43 398.8a6 6 0 0 1 6-6h132.24a6 6 0 0 1 6 6v38.82a6 6 0 0 1-6 6H620.43a6 6 0 0 1-6-6z" fill="none"/><use xlink:href="#f" transform="matrix(1,0,0,1,614.427594030827,392.80777026537146) translate(11.644965277777743 18.50043402777778)"/><use xlink:href="#j" transform="matrix(1,0,0,1,614.427594030827,392.80777026537146) translate(78.32248263888889 43.674045138888886)"/><path d="M499.28 547.2a6 6 0 0 1 6-6h140.7a6 6 0 0 1 6 6v9.5a6 6 0 0 1-6 6h-140.7a6 6 0 0 1-6-6z" fill="none"/><use xlink:href="#k" transform="matrix(1,0,0,1,499.27890867898464,541.189654801214) translate(29.825737847222214 18.50043402777778)"/><path d="M657.97 562.7a6 6 0 0 1-6-6v-9.5a6 6 0 0 1 6-6h31a6 6 0 0 1 6 6v9.5a6 6 0 0 1-6 6z" stroke="#e81313" stroke-width="3" fill="#fff"/><path d="M679.47 562.7a6 6 0 0 1-6-6v-9.5a6 6 0 0 1 6-6h9.5a6 6 0 0 1 6 6v9.5a6 6 0 0 1-6 6z" stroke="#e81313" stroke-width="3" fill="#fff"/><g><path d="M657.97 562.7a6 6 0 0 1-6-6v-9.5a6 6 0 0 1 6-6h9.5a6 6 0 0 1 6 6v9.5a6 6 0 0 1-6 6z" stroke="#e81313" stroke-width="3" fill="#fff"/></g><g><path d="M462.28 562.7a6 6 0 0 1-6-6v-9.5a6 6 0 0 1 6-6h31a6 6 0 0 1 6 6v9.5a6 6 0 0 1-6 6z" stroke="#e81313" stroke-width="3" fill="#fff"/></g><g><path d="M483.78 562.7a6 6 0 0 1-6-6v-9.5a6 6 0 0 1 6-6h9.5a6 6 0 0 1 6 6v9.5a6 6 0 0 1-6 6z" stroke="#e81313" stroke-width="3" fill="#fff"/></g><g><path d="M462.28 562.7a6 6 0 0 1-6-6v-9.5a6 6 0 0 1 6-6h9.5a6 6 0 0 1 6 6v9.5a6 6 0 0 1-6 6z" stroke="#e81313" stroke-width="3" fill="#fff"/></g><path d="M463.4 500.28a6 6 0 0 1 6-6h9.37a6 6 0 0 1 6 6v5.74a6 6 0 0 1-6 6h-9.37a6 6 0 0 1-6-6z" fill-opacity="0"/><g><use xlink:href="#l" transform="matrix(1,0,0,1,463.3958073935131,494.2835723226881) translate(0 14.800347222222223)"/></g><path d="M659.87 499.26a6 6 0 0 1 6-6h9.37a6 6 0 0 1 6 6V505a6 6 0 0 1-6 6h-9.38a6 6 0 0 1-6-6z" fill-opacity="0"/><g><use xlink:href="#m" transform="matrix(1,0,0,1,659.8651225789094,493.25856176172647) translate(0 14.800347222222223)"/></g><defs><path fill="#6f7681" d="M24 0v-54h51V0H24" id="n"/><use transform="matrix(0.06172839506172839,0,0,0.06172839506172839,0,0)" xlink:href="#n" id="a"/><use transform="matrix(0.06172839506172839,0,0,0.06172839506172839,0,0)" xlink:href="#n" id="b"/><use transform="matrix(0.06172839506172839,0,0,0.06172839506172839,0,0)" xlink:href="#n" id="c"/><path d="M711 13c-250 0-386-99-385-349l2-556H161v-190h181l88-282h176v282h385v190H606v530c-10 130 45 186 174 184 91-2 176-11 255-27v186C933-1 833 13 711 13" id="o"/><path d="M427-171c3 195 2 397 2 596H148V-846c1-83-4-168-8-236h272c10 49 14 118 15 176h4c59-114 151-197 316-197 291 0 385 259 385 560 0 243-65 433-220 521-50 28-109 42-176 42-162-2-253-78-309-191zm69-661c-91 113-92 463-1 586 46 62 145 101 225 54 96-57 118-191 119-351 0-123-18-215-53-276-46-82-128-115-220-74-25 12-48 33-70 61" id="p"/><path d="M794-190h353V0H118v-190h395v-702H223v-190h571v892zM513-1277v-207h281v207H513" id="q"/><path d="M1113-274C1038-96 884 20 626 20c-352 0-526-209-526-566 0-358 185-556 530-556 358 0 496 251 499 615H395c5 180 68 319 245 319 102 0 186-45 208-129zM857-663c-6-177-128-307-315-247-94 30-141 121-145 247h460" id="r"/><path d="M-5 220v-96h1238v96H-5" id="s"/><path d="M1109-360C1066-122 902 20 624 20c-347 0-514-209-514-555 0-353 168-567 518-567 270 0 425 136 473 361l-283 14c-16-106-75-183-196-182-75 0-130 31-165 93s-52 152-52 270c0 249 74 374 221 374 120 0 188-82 201-201" id="t"/><path d="M616-1102c361 0 521 202 521 560 0 354-171 562-527 562C259 20 92-192 92-542c0-351 169-560 524-560zm-9 930c200-2 236-165 236-370 0-199-27-367-223-367-195 0-233 146-233 367 0 129 18 223 55 282s92 88 165 88" id="u"/><path d="M768-1103c247 0 336 167 336 416V0H824v-619c-3-164-24-273-171-273-164 0-229 142-229 312V0H143c-4-359 9-736-8-1082h268c7 63 12 146 13 215h4c67-145 160-236 348-236" id="v"/><path d="M874 0L612-392 348 0H49l406-559-387-523h303l241 354 240-354h305L770-562 1179 0H874" id="w"/><g id="e"><use transform="matrix(0.013020833333333334,0,0,0.013020833333333334,0,0)" xlink:href="#o"/><use transform="matrix(0.013020833333333334,0,0,0.013020833333333334,16.002604166666668,0)" xlink:href="#p"/><use transform="matrix(0.013020833333333334,0,0,0.013020833333333334,32.005208333333336,0)" xlink:href="#q"/><use transform="matrix(0.013020833333333334,0,0,0.013020833333333334,48.0078125,0)" xlink:href="#p"/><use transform="matrix(0.013020833333333334,0,0,0.013020833333333334,64.01041666666667,0)" xlink:href="#r"/><use transform="matrix(0.013020833333333334,0,0,0.013020833333333334,80.01302083333334,0)" xlink:href="#s"/><use transform="matrix(0.013020833333333334,0,0,0.013020833333333334,96.01562500000001,0)" xlink:href="#t"/><use transform="matrix(0.013020833333333334,0,0,0.013020833333333334,112.0182291666667,0)" xlink:href="#u"/><use transform="matrix(0.013020833333333334,0,0,0.013020833333333334,128.02083333333334,0)" xlink:href="#v"/><use transform="matrix(0.013020833333333334,0,0,0.013020833333333334,144.0234375,0)" xlink:href="#o"/><use transform="matrix(0.013020833333333334,0,0,0.013020833333333334,160.02604166666666,0)" xlink:href="#r"/><use transform="matrix(0.013020833333333334,0,0,0.013020833333333334,176.02864583333331,0)" xlink:href="#w"/><use transform="matrix(0.013020833333333334,0,0,0.013020833333333334,192.03124999999997,0)" xlink:href="#o"/><use transform="matrix(0.013020833333333334,0,0,0.013020833333333334,208.03385416666663,0)" xlink:href="#s"/><use transform="matrix(0.013020833333333334,0,0,0.013020833333333334,224.0364583333333,0)" xlink:href="#o"/></g><g id="f"><use transform="matrix(0.010850694444444444,0,0,0.010850694444444444,0,0)" xlink:href="#o"/><use transform="matrix(0.010850694444444444,0,0,0.010850694444444444,13.335503472222221,0)" xlink:href="#p"/><use transform="matrix(0.010850694444444444,0,0,0.010850694444444444,26.671006944444443,0)" xlink:href="#q"/><use transform="matrix(0.010850694444444444,0,0,0.010850694444444444,40.006510416666664,0)" xlink:href="#p"/><use transform="matrix(0.010850694444444444,0,0,0.010850694444444444,53.342013888888886,0)" xlink:href="#r"/><use transform="matrix(0.010850694444444444,0,0,0.010850694444444444,66.67751736111111,0)" xlink:href="#s"/><use transform="matrix(0.010850694444444444,0,0,0.010850694444444444,80.01302083333334,0)" xlink:href="#r"/><use transform="matrix(0.010850694444444444,0,0,0.010850694444444444,93.34852430555557,0)" xlink:href="#p"/><use transform="matrix(0.010850694444444444,0,0,0.010850694444444444,106.6840277777778,0)" xlink:href="#s"/><use transform="matrix(0.010850694444444444,0,0,0.010850694444444444,120.01953125000003,0)" xlink:href="#o"/></g><path d="M745-142h380V0H143v-142h422v-798H246v-142h499v940zM545-1292v-192h200v192H545" id="x"/><path d="M706-1102c241 0 344 136 343 381V0H868v-695c1-168-57-273-220-268-190 6-283 138-283 336V0H185c-3-360 6-732-6-1082h170c4 54 7 126 8 185h3c63-121 164-204 346-205" id="y"/><path d="M873-819c-18-114-119-146-250-146-163 0-245 50-245 151 0 151 170 148 294 185 182 54 388 94 388 320 0 240-189 325-439 329-245 4-410-69-454-268l159-31c24 133 136 168 295 165 144-2 270-31 270-171 0-164-195-160-331-202-167-52-350-87-350-299 0-218 173-315 413-313 220 2 373 77 412 260" id="z"/><path d="M410 425v-1909h547v139H590V286h367v139H410" id="A"/><path d="M270 425V286h367v-1631H270v-139h547V425H270" id="B"/><g id="g"><use transform="matrix(0.010850694444444444,0,0,0.010850694444444444,0,0)" xlink:href="#x"/><use transform="matrix(0.010850694444444444,0,0,0.010850694444444444,13.335503472222221,0)" xlink:href="#y"/><use transform="matrix(0.010850694444444444,0,0,0.010850694444444444,26.671006944444443,0)" xlink:href="#z"/><use transform="matrix(0.010850694444444444,0,0,0.010850694444444444,40.006510416666664,0)" xlink:href="#A"/><use transform="matrix(0.010850694444444444,0,0,0.010850694444444444,53.342013888888886,0)" xlink:href="#B"/></g><path d="M713 0H515L10-1349h201C345-955 498-579 615-168c116-411 269-787 402-1181h201" id="C"/><path d="M650-1214c-281 0-336 244-336 533 0 295 60 546 347 546 188 0 263-142 322-282l159 65C1058-155 935 20 659 20c-401 0-546-295-546-701 0-407 135-689 536-689 264 0 391 146 466 335l-168 65c-47-129-127-244-297-244" id="D"/><path d="M622-1349c296 4 497 117 497 404 0 282-193 424-485 431H353V0H162v-1349h460zm-15 684c195-3 320-88 320-277 0-184-129-255-328-254H353v531h254" id="E"/><path d="M604-135c236 0 291-142 291-376v-838h190v859c5 340-142 510-480 510-326 0-463-164-463-492v-877h191v851c-3 222 46 363 271 363" id="F"/><g id="h"><use transform="matrix(0.010850694444444444,0,0,0.010850694444444444,0,0)" xlink:href="#C"/><use transform="matrix(0.010850694444444444,0,0,0.010850694444444444,13.335503472222221,0)" xlink:href="#D"/><use transform="matrix(0.010850694444444444,0,0,0.010850694444444444,26.671006944444443,0)" xlink:href="#E"/><use transform="matrix(0.010850694444444444,0,0,0.010850694444444444,40.006510416666664,0)" xlink:href="#F"/></g><path d="M905-908c13-56 29-125 48-174h266c-77 338-140 703-210 1049-59 291-240 467-582 467-225 0-379-78-391-291l288-33c-3 116 117 168 228 126 156-59 177-265 215-447h-2C688-90 572-12 398-12c-208 0-292-137-292-347 0-323 117-590 342-701 55-27 116-39 183-39 149 2 237 70 269 191h5zM465-711c-59 139-139 509 90 504 122-3 180-83 226-177 66-136 144-522-88-522-130 0-185 94-228 195" id="G"/><path d="M1074-360C991-138 813 15 515 20 220 25 64-146 97-454c33-303 170-518 413-610 69-26 145-38 227-38 250 0 397 117 403 361l-286 14c6-112-45-182-160-182-75 0-135 32-183 93-64 81-123 271-123 431 0 142 55 213 166 213 129 0 207-88 241-201" id="H"/><path d="M878-785c2-107-76-132-183-131-119 2-205 19-222 111-16 90 70 102 145 121 212 54 501 76 442 368C1012-80 798 20 511 20 263 20 83-39 68-270l255-37c-3 153 168 150 315 135 82-9 147-41 159-118 16-101-81-113-165-134-152-39-331-58-402-177-56-94-15-240 36-311 90-126 249-191 465-191 227 0 393 72 401 292" id="I"/><g id="i"><use transform="matrix(0.010850694444444444,0,0,0.010850694444444444,0,0)" xlink:href="#G"/><use transform="matrix(0.010850694444444444,0,0,0.010850694444444444,13.335503472222221,0)" xlink:href="#H"/><use transform="matrix(0.010850694444444444,0,0,0.010850694444444444,26.671006944444443,0)" xlink:href="#I"/></g><path d="M615-1102c343 0 484 203 482 560-1 347-147 562-488 562-336 0-475-219-479-562-4-349 156-560 485-560zm-8 989c240 0 301-180 301-429 0-245-55-427-290-427-236 0-299 181-299 427 0 243 61 429 288 429" id="J"/><path d="M682 16c-209 0-323-80-324-285v-671H190v-142h170l58-282h120v282h432v142H538v652c2 114 60 155 182 155 106 0 209-16 297-34v137C921-4 806 16 682 16" id="K"/><g id="j"><use transform="matrix(0.010850694444444444,0,0,0.010850694444444444,0,0)" xlink:href="#J"/><use transform="matrix(0.010850694444444444,0,0,0.010850694444444444,13.335503472222221,0)" xlink:href="#K"/><use transform="matrix(0.010850694444444444,0,0,0.010850694444444444,26.671006944444443,0)" xlink:href="#z"/><use transform="matrix(0.010850694444444444,0,0,0.010850694444444444,40.006510416666664,0)" xlink:href="#A"/><use transform="matrix(0.010850694444444444,0,0,0.010850694444444444,53.342013888888886,0)" xlink:href="#B"/></g><path fill="#e81313" d="M873-819c-18-114-119-146-250-146-163 0-245 50-245 151 0 151 170 148 294 185 182 54 388 94 388 320 0 240-189 325-439 329-245 4-410-69-454-268l159-31c24 133 136 168 295 165 144-2 270-31 270-171 0-164-195-160-331-202-167-52-350-87-350-299 0-218 173-315 413-313 220 2 373 77 412 260" id="L"/><path fill="#e81313" d="M745-142h380V0H143v-142h422v-798H246v-142h499v940zM545-1292v-192h200v192H545" id="M"/><path fill="#e81313" d="M1048-32c-2 300-135 456-433 456-222-1-358-88-400-267l184-25c22 99 100 157 222 156 184-2 248-125 248-315 0-64 3-133-2-194C807-100 706-13 524-12c-306 0-381-228-381-537 0-318 85-550 400-550 164 0 271 83 325 202h3c1-60 3-134 12-185h171c-13 339-4 702-6 1050zM585-145c210-8 284-178 284-406 0-192-52-331-177-392-33-16-69-22-104-22-223 2-259 184-259 414 0 229 31 415 256 406" id="N"/><path fill="#e81313" d="M706-1102c241 0 344 136 343 381V0H868v-695c1-168-57-273-220-268-190 6-283 138-283 336V0H185c-3-360 6-732-6-1082h170c4 54 7 126 8 185h3c63-121 164-204 346-205" id="O"/><path fill="#e81313" d="M1000-272c3 95 12 159 101 161 21 0 41-3 59-7V-6c-44 10-86 16-139 16-141 2-191-84-197-217h-6C748-76 648 20 446 20c-207 0-318-120-318-322 0-266 194-348 454-354l236-4c12-191-40-305-222-305-140 0-220 47-232 172l-188-17c33-204 181-292 423-292 255 0 401 118 401 364v466zm-683-27c0 109 63 184 175 182 166-3 259-96 306-217 24-65 20-120 20-200-232 7-501-28-501 235" id="P"/><path fill="#e81313" d="M736-142h380V0H134v-142h422v-1200H267v-142h469v1342" id="Q"/><g id="k"><use transform="matrix(0.010850694444444444,0,0,0.010850694444444444,0,0)" xlink:href="#L"/><use transform="matrix(0.010850694444444444,0,0,0.010850694444444444,13.335503472222221,0)" xlink:href="#M"/><use transform="matrix(0.010850694444444444,0,0,0.010850694444444444,26.671006944444443,0)" xlink:href="#N"/><use transform="matrix(0.010850694444444444,0,0,0.010850694444444444,40.006510416666664,0)" xlink:href="#O"/><use transform="matrix(0.010850694444444444,0,0,0.010850694444444444,53.342013888888886,0)" xlink:href="#P"/><use transform="matrix(0.010850694444444444,0,0,0.010850694444444444,66.67751736111111,0)" xlink:href="#Q"/><use transform="matrix(0.010850694444444444,0,0,0.010850694444444444,80.01302083333334,0)" xlink:href="#L"/></g><g id="l"><use transform="matrix(0.008680555555555556,0,0,0.008680555555555556,0,0)" xlink:href="#q"/><use transform="matrix(0.008680555555555556,0,0,0.008680555555555556,10.668402777777779,0)" xlink:href="#v"/></g><g id="m"><use transform="matrix(0.008680555555555556,0,0,0.008680555555555556,0,0)" xlink:href="#u"/><use transform="matrix(0.008680555555555556,0,0,0.008680555555555556,10.668402777777779,0)" xlink:href="#o"/></g></defs></g></svg>