<svg xmlns="http://www.w3.org/2000/svg" xmlns:xlink="http://www.w3.org/1999/xlink" xmlns:lucid="lucid" width="646.61" height="288.46"><g transform="translate(-484.0275114741887 -203.65965699784599)" lucid:page-tab-id="EdmidapTjWSt"><path d="M540.63 287.7c-8.75 0-15.84-14.2-15.84-31.7s7.08-31.7 15.83-31.7h126.74c8.75 0 15.84 14.2 15.84 31.7s-7.08 31.7-15.83 31.7z" fill="#fff"/><path d="M530.38 280l-.92-1.52-2.2-5.47-.86-3.7m-1.2-7.56l-.4-5.74.43-5.73m1.17-7.56l.95-4 2.2-5.38.83-1.33m4.9-5.83l1.47-.9 1.37-.56 1.3-.3 1.2-.1h6.35m8.44 0h12.7m8.44 0h12.67m8.46 0h12.68m8.45 0h12.66m8.45 0h12.68m8.45 0h6.34l1.27.1 1.3.33 1.37.57 1.42.87m4.9 5.82l.92 1.52 2.2 5.47.86 3.7m1.2 7.56l.4 5.74-.43 5.73m-1.17 7.56l-.95 4-2.2 5.38-.83 1.33m-4.9 5.83l-1.47.9-1.37.56-1.3.3-1.2.1h-6.35m-8.45 0H639.9m-8.44 0H618.8m-8.46 0h-12.68m-8.45 0h-12.66m-8.45 0h-12.7m-8.43 0h-6.34l-1.28-.1-1.3-.33-1.36-.57-1.42-.87" stroke="#3a414a" stroke-width="4" fill="none"/><path d="M667.37 287.7c-8.75 0-15.84-14.2-15.84-31.7s7.1-31.7 15.84-31.7" fill="none"/><path d="M667.37 287.7l-1.27-.1-1.3-.33-1.37-.57-1.4-.87m-4.9-5.82l-.92-1.52L654 273l-.85-3.7m-1.2-7.56l-.42-5.74.44-5.73m1.17-7.56l.96-4 2.2-5.38.82-1.33m4.9-5.83l1.47-.9 1.36-.56 1.3-.3 1.2-.1" stroke="#3a414a" stroke-width="4" fill="none"/><path d="M720.47 262.53a6 6 0 0 1-6 6H689.2a6 6 0 0 1-6-6v-13.06a6 6 0 0 1 6-6h25.27a6 6 0 0 1 6 6z" stroke="#000" stroke-opacity="0" stroke-width="3" fill-opacity="0"/><path d="M691.38 256h-4.67" stroke="#3a414a" stroke-width="7" fill="none"/><path d="M709.15 256l-14.27 4.63v-9.26z" stroke="#3a414a" stroke-width="7" fill="#3a414a"/><path d="M686.8 259.48h-3.6v-6.96h3.6z" stroke="#3a414a" stroke-width=".05" fill="#3a414a"/><path d="M662.2 266.1a6 6 0 0 1-6-6v-9.5a6 6 0 0 1 6-6h9.5a6 6 0 0 1 6 6v9.5a6 6 0 0 1-6 6z" stroke="#3a414a" stroke-width="3" fill="#ffe342"/><path d="M678.2 255.35h-22.5" stroke="#3a414a" stroke-width="2" fill="none"/><path d="M679.2 256.32h-1v-1.95h1zM655.74 256.32h-1.03v-1.95h1.04z" stroke="#3a414a" stroke-width=".05" fill="#3a414a"/><path d="M661.92 256a5.7 5.7 0 0 1-5.7-5.7 5.7 5.7 0 0 1 5.7-5.7h10.1a5.7 5.7 0 0 1 5.7 5.7 5.7 5.7 0 0 1-5.7 5.7zM661.92 267.4a5.7 5.7 0 0 1-5.7-5.7 5.7 5.7 0 0 1 5.7-5.7h10.1a5.7 5.7 0 0 1 5.7 5.7 5.7 5.7 0 0 1-5.7 5.7z" stroke="#3a414a" stroke-width="3" fill="#ffe342"/><path d="M613.95 256c0 11.52-9.34 20.86-20.86 20.86-11.53 0-20.87-9.34-20.87-20.86s9.34-20.86 20.86-20.86c11.5 0 20.85 9.34 20.85 20.86z" stroke="#000" stroke-opacity="0" stroke-width="2" fill="#ffe342"/><use xlink:href="#a" transform="matrix(1,0,0,1,577.2340064295456,240.14195609978543) translate(9.33224826388889 22.50043402777778)"/><path d="M487.53 249.42a6 6 0 0 1 6-6h25.26a6 6 0 0 1 6 6v13.05a6 6 0 0 1-6 6h-25.27a6 6 0 0 1-6-6z" stroke="#000" stroke-opacity="0" stroke-width="3" fill-opacity="0"/><path d="M491.03 255.94h4.66M491.12 255.94h-3.6" stroke="#3a414a" stroke-width="7" fill="none"/><path d="M513.46 255.94l-14.27 4.64v-9.27z" stroke="#3a414a" stroke-width="7" fill="#3a414a"/><path d="M678.2 255.94h-22.5M678.2 255.94h1M655.74 255.94h-1.03" stroke="#3a414a" stroke-width="2" fill="none"/><path d="M947.3 287.63c-8.75 0-15.85-14.2-15.85-31.7s7.1-31.68 15.85-31.68h126.74c8.75 0 15.84 14.2 15.84 31.7s-7.1 31.68-15.84 31.68z" fill="#fff"/><path d="M937.05 279.95l-.92-1.53-2.2-5.47-.86-3.72m-1.2-7.55l-.42-5.74.45-5.73m1.17-7.55l.95-4 2.2-5.4.82-1.32m4.9-5.82l1.48-.9 1.36-.55 1.3-.3 1.22-.1h6.33m8.45 0h12.68m8.45 0h12.68m8.45 0H1017m8.45 0h12.68m8.45 0h12.67m8.45 0h6.34l1.27.1 1.3.32 1.38.57 1.4.87m4.9 5.83l.92 1.53 2.2 5.47.86 3.72m1.2 7.56l.42 5.74-.44 5.74m-1.17 7.55l-.96 4.02-2.2 5.37-.8 1.34m-4.9 5.82l-1.48.9-1.37.55-1.3.3-1.2.1h-6.35m-8.45 0h-12.67m-8.45 0h-12.68m-8.45 0h-12.67m-8.45 0H983.2m-8.44 0h-12.68m-8.45 0h-6.33l-1.28-.1-1.3-.32-1.37-.56-1.4-.87" stroke="#3a414a" stroke-width="4" fill="none"/><path d="M1074.04 287.63c-8.75 0-15.84-14.2-15.84-31.7s7.1-31.68 15.84-31.68" fill="none"/><path d="M1074.04 287.63l-1.28-.1-1.3-.32-1.36-.56-1.4-.87m-4.9-5.82l-.93-1.53-2.2-5.47-.86-3.72m-1.18-7.55l-.42-5.74.44-5.73m1.17-7.55l.96-4 2.2-5.4.83-1.32m4.9-5.82l1.46-.9 1.37-.55 1.3-.3 1.2-.1" stroke="#3a414a" stroke-width="4" fill="none"/><path d="M1127.14 262.47a6 6 0 0 1-6 6h-25.26a6 6 0 0 1-6-6v-13.05a6 6 0 0 1 6-6h25.26a6 6 0 0 1 6 6z" stroke="#000" stroke-opacity="0" stroke-width="3" fill-opacity="0"/><path d="M1098.05 255.94h-4.67" stroke="#3a414a" stroke-width="7" fill="none"/><path d="M1115.8 255.94l-14.25 4.64v-9.27z" stroke="#3a414a" stroke-width="7" fill="#3a414a"/><path d="M1093.47 259.42h-3.6v-6.95h3.6z" stroke="#3a414a" stroke-width=".05" fill="#3a414a"/><path d="M1068.88 266.63a6 6 0 0 1-6-6v-9.5a6 6 0 0 1 6-6h9.5a6 6 0 0 1 6 6v9.5a6 6 0 0 1-6 6z" stroke="#3a414a" stroke-width="3" fill="#fff"/><path d="M1020.62 255.94c0 11.52-9.34 20.86-20.86 20.86s-20.86-9.34-20.86-20.86 9.34-20.86 20.86-20.86 20.86 9.34 20.86 20.86z" stroke="#000" stroke-opacity="0" stroke-width="2" fill="#ff80df"/><use xlink:href="#b" transform="matrix(1,0,0,1,983.9006730962122,240.0839121996021) translate(9.33224826388889 22.50043402777778)"/><path d="M894.2 249.36a6 6 0 0 1 6-6h25.25a6 6 0 0 1 6 6v13.05a6 6 0 0 1-6 6H900.2a6 6 0 0 1-6-6z" stroke="#000" stroke-opacity="0" stroke-width="3" fill-opacity="0"/><path d="M897.7 255.88h4.66M897.78 255.88h-3.6" stroke="#3a414a" stroke-width="7" fill="none"/><path d="M920.13 255.88l-14.27 4.64v-9.27z" stroke="#3a414a" stroke-width="7" fill="#3a414a"/><path d="M875.7 255.88H721.46" stroke="#6db1ff" stroke-width="2" fill="none"/><path d="M890.96 255.88l-14.27 4.64v-9.27z" stroke="#6db1ff" stroke-width="2" fill="#6db1ff"/><path d="M721.5 256.86h-1.03v-1.95h1.03z" stroke="#6db1ff" stroke-width=".05" fill="#6db1ff"/><path d="M687.46 226.85a6 6 0 0 1 6-6H726a6 6 0 0 1 6 6v9.74a6 6 0 0 1-6 6h-32.54a6 6 0 0 1-6-6z" fill="#ffe342"/><use xlink:href="#c" transform="matrix(1,0,0,1,687.4587384393718,220.84843677544842) translate(0 14.800347222222223)"/><path d="M838.4 226.85a6 6 0 0 1 6-6h44.25a6 6 0 0 1 6 6v9.74a6 6 0 0 1-6 6H844.4a6 6 0 0 1-6-6z" fill="#ff80df"/><use xlink:href="#d" transform="matrix(1,0,0,1,838.4127490504713,220.84843677544842) translate(0 14.800347222222223)"/><path d="M797.86 362.06a6 6 0 0 1-6-6v-32.6a6 6 0 0 1 6-6h9.5a6 6 0 0 1 6 6v32.6a6 6 0 0 1-6 6z" stroke="#3a414a" stroke-width="3" fill="#fff"/><path d="M797.56 362.06a5.7 5.7 0 0 1-5.7-5.7 5.7 5.7 0 0 1 5.7-5.7h10.1a5.7 5.7 0 0 1 5.7 5.7 5.7 5.7 0 0 1-5.7 5.7zM797.56 327.85a5.7 5.7 0 0 1-5.7-5.7 5.7 5.7 0 0 1 5.7-5.7h10.1a5.7 5.7 0 0 1 5.7 5.7 5.7 5.7 0 0 1-5.7 5.7zM797.56 339.25a5.7 5.7 0 0 1-5.7-5.7 5.7 5.7 0 0 1 5.7-5.7h10.1a5.7 5.7 0 0 1 5.7 5.7 5.7 5.7 0 0 1-5.7 5.7zM797.56 350.66a5.7 5.7 0 0 1-5.7-5.7 5.7 5.7 0 0 1 5.7-5.7h10.1a5.7 5.7 0 0 1 5.7 5.7 5.7 5.7 0 0 1-5.7 5.7z" stroke="#3a414a" stroke-width="3" fill="#ffe342"/><path d="M829.36 362.06a6 6 0 0 1-6-6v-32.6a6 6 0 0 1 6-6h9.5a6 6 0 0 1 6 6v32.6a6 6 0 0 1-6 6z" stroke="#3a414a" stroke-width="3" fill="#fff"/><path d="M829.06 362.06a5.7 5.7 0 0 1-5.7-5.7 5.7 5.7 0 0 1 5.7-5.7h10.1a5.7 5.7 0 0 1 5.7 5.7 5.7 5.7 0 0 1-5.7 5.7z" stroke="#3a414a" stroke-width="3" fill="#ffe342"/><path d="M829.06 327.85a5.7 5.7 0 0 1-5.7-5.7 5.7 5.7 0 0 1 5.7-5.7h10.1a5.7 5.7 0 0 1 5.7 5.7 5.7 5.7 0 0 1-5.7 5.7zM829.06 339.25a5.7 5.7 0 0 1-5.7-5.7 5.7 5.7 0 0 1 5.7-5.7h10.1a5.7 5.7 0 0 1 5.7 5.7 5.7 5.7 0 0 1-5.7 5.7zM829.06 350.66a5.7 5.7 0 0 1-5.7-5.7 5.7 5.7 0 0 1 5.7-5.7h10.1a5.7 5.7 0 0 1 5.7 5.7 5.7 5.7 0 0 1-5.7 5.7zM766.36 362.06a6 6 0 0 1-6-6v-32.6a6 6 0 0 1 6-6h9.5a6 6 0 0 1 6 6v32.6a6 6 0 0 1-6 6z" stroke="#3a414a" stroke-width="3" fill="#fff"/><path d="M766.06 362.06a5.7 5.7 0 0 1-5.7-5.7 5.7 5.7 0 0 1 5.7-5.7h10.1a5.7 5.7 0 0 1 5.7 5.7 5.7 5.7 0 0 1-5.7 5.7z" stroke="#3a414a" stroke-width="3" fill="#fff"/><path d="M766.06 327.85a5.7 5.7 0 0 1-5.7-5.7 5.7 5.7 0 0 1 5.7-5.7h10.1a5.7 5.7 0 0 1 5.7 5.7 5.7 5.7 0 0 1-5.7 5.7zM766.06 339.25a5.7 5.7 0 0 1-5.7-5.7 5.7 5.7 0 0 1 5.7-5.7h10.1a5.7 5.7 0 0 1 5.7 5.7 5.7 5.7 0 0 1-5.7 5.7z" stroke="#3a414a" stroke-width="3" fill="#ffe342"/><path d="M766.06 350.66a5.7 5.7 0 0 1-5.7-5.7 5.7 5.7 0 0 1 5.7-5.7h10.1a5.7 5.7 0 0 1 5.7 5.7 5.7 5.7 0 0 1-5.7 5.7zM860.86 362.06a6 6 0 0 1-6-6v-32.6a6 6 0 0 1 6-6h9.5a6 6 0 0 1 6 6v32.6a6 6 0 0 1-6 6z" stroke="#3a414a" stroke-width="3" fill="#fff"/><path d="M860.56 362.06a5.7 5.7 0 0 1-5.7-5.7 5.7 5.7 0 0 1 5.7-5.7h10.1a5.7 5.7 0 0 1 5.7 5.7 5.7 5.7 0 0 1-5.7 5.7zM860.56 327.85a5.7 5.7 0 0 1-5.7-5.7 5.7 5.7 0 0 1 5.7-5.7h10.1a5.7 5.7 0 0 1 5.7 5.7 5.7 5.7 0 0 1-5.7 5.7zM860.56 339.25a5.7 5.7 0 0 1-5.7-5.7 5.7 5.7 0 0 1 5.7-5.7h10.1a5.7 5.7 0 0 1 5.7 5.7 5.7 5.7 0 0 1-5.7 5.7z" stroke="#3a414a" stroke-width="3" fill="#ffe342"/><path d="M860.56 350.66a5.7 5.7 0 0 1-5.7-5.7 5.7 5.7 0 0 1 5.7-5.7h10.1a5.7 5.7 0 0 1 5.7 5.7 5.7 5.7 0 0 1-5.7 5.7zM797.86 420.76a6 6 0 0 1-6-6v-32.62a6 6 0 0 1 6-6h9.5a6 6 0 0 1 6 6v32.62a6 6 0 0 1-6 6z" stroke="#3a414a" stroke-width="3" fill="#fff"/><path d="M797.56 420.76a5.7 5.7 0 0 1-5.7-5.7 5.7 5.7 0 0 1 5.7-5.7h10.1a5.7 5.7 0 0 1 5.7 5.7 5.7 5.7 0 0 1-5.7 5.7z" stroke="#3a414a" stroke-width="3" fill="#ffe342"/><path d="M797.56 386.55a5.7 5.7 0 0 1-5.7-5.7 5.7 5.7 0 0 1 5.7-5.7h10.1a5.7 5.7 0 0 1 5.7 5.7 5.7 5.7 0 0 1-5.7 5.7zM797.56 397.95a5.7 5.7 0 0 1-5.7-5.7 5.7 5.7 0 0 1 5.7-5.7h10.1a5.7 5.7 0 0 1 5.7 5.7 5.7 5.7 0 0 1-5.7 5.7zM797.56 409.36a5.7 5.7 0 0 1-5.7-5.7 5.7 5.7 0 0 1 5.7-5.7h10.1a5.7 5.7 0 0 1 5.7 5.7 5.7 5.7 0 0 1-5.7 5.7z" stroke="#3a414a" stroke-width="3" fill="#ff80df"/><path d="M861.15 420.76a6 6 0 0 1-6-6v-32.62a6 6 0 0 1 6-6h9.5a6 6 0 0 1 6 6v32.62a6 6 0 0 1-6 6z" stroke="#3a414a" stroke-width="3" fill="#fff"/><path d="M860.85 420.76a5.7 5.7 0 0 1-5.7-5.7 5.7 5.7 0 0 1 5.7-5.7h10.1a5.7 5.7 0 0 1 5.7 5.7 5.7 5.7 0 0 1-5.7 5.7zM860.85 386.55a5.7 5.7 0 0 1-5.7-5.7 5.7 5.7 0 0 1 5.7-5.7h10.1a5.7 5.7 0 0 1 5.7 5.7 5.7 5.7 0 0 1-5.7 5.7zM860.85 397.95a5.7 5.7 0 0 1-5.7-5.7 5.7 5.7 0 0 1 5.7-5.7h10.1a5.7 5.7 0 0 1 5.7 5.7 5.7 5.7 0 0 1-5.7 5.7z" stroke="#3a414a" stroke-width="3" fill="#ff80df"/><path d="M860.85 409.36a5.7 5.7 0 0 1-5.7-5.7 5.7 5.7 0 0 1 5.7-5.7h10.1a5.7 5.7 0 0 1 5.7 5.7 5.7 5.7 0 0 1-5.7 5.7zM734.86 362.56a6 6 0 0 1-6-6v-32.6a6 6 0 0 1 6-6h9.5a6 6 0 0 1 6 6v32.6a6 6 0 0 1-6 6z" stroke="#3a414a" stroke-width="3" fill="#fff"/><path d="M734.56 362.56a5.7 5.7 0 0 1-5.7-5.7 5.7 5.7 0 0 1 5.7-5.7h10.1a5.7 5.7 0 0 1 5.7 5.7 5.7 5.7 0 0 1-5.7 5.7zM734.56 328.35a5.7 5.7 0 0 1-5.7-5.7 5.7 5.7 0 0 1 5.7-5.7h10.1a5.7 5.7 0 0 1 5.7 5.7 5.7 5.7 0 0 1-5.7 5.7zM734.56 339.75a5.7 5.7 0 0 1-5.7-5.7 5.7 5.7 0 0 1 5.7-5.7h10.1a5.7 5.7 0 0 1 5.7 5.7 5.7 5.7 0 0 1-5.7 5.7zM734.56 351.16a5.7 5.7 0 0 1-5.7-5.7 5.7 5.7 0 0 1 5.7-5.7h10.1a5.7 5.7 0 0 1 5.7 5.7 5.7 5.7 0 0 1-5.7 5.7z" stroke="#3a414a" stroke-width="3" fill="#fff"/><path d="M571.66 321a6 6 0 0 1 6-6H873.1a6 6 0 0 1 6 6v149.5a6 6 0 0 1-6 6H577.65a6 6 0 0 1-6-6z" fill="none"/><use xlink:href="#e" transform="matrix(1,0,0,1,571.6587384393717,315.0107421715352) translate(0 14.800347222222223)"/><use xlink:href="#f" transform="matrix(1,0,0,1,571.6587384393717,315.0107421715352) translate(85.34722222222223 14.800347222222223)"/><use xlink:href="#g" transform="matrix(1,0,0,1,571.6587384393717,315.0107421715352) translate(0 34.939236111111114)"/><use xlink:href="#g" transform="matrix(1,0,0,1,571.6587384393717,315.0107421715352) translate(0 55.078125)"/><use xlink:href="#h" transform="matrix(1,0,0,1,571.6587384393717,315.0107421715352) translate(0 75.2170138888889)"/><use xlink:href="#i" transform="matrix(1,0,0,1,571.6587384393717,315.0107421715352) translate(42.673611111111114 75.2170138888889)"/><use xlink:href="#g" transform="matrix(1,0,0,1,571.6587384393717,315.0107421715352) translate(0 95.35590277777779)"/><use xlink:href="#g" transform="matrix(1,0,0,1,571.6587384393717,315.0107421715352) translate(0 115.49479166666667)"/><use xlink:href="#j" transform="matrix(1,0,0,1,571.6587384393717,315.0107421715352) translate(0 135.63368055555554)"/><use xlink:href="#k" transform="matrix(1,0,0,1,571.6587384393717,315.0107421715352) translate(160.02604166666663 135.63368055555554)"/><use xlink:href="#l" transform="matrix(1,0,0,1,571.6587384393717,315.0107421715352) translate(192.03124999999997 135.63368055555554)"/><use xlink:href="#m" transform="matrix(1,0,0,1,571.6587384393717,315.0107421715352) translate(224.03645833333331 135.63368055555554)"/><use xlink:href="#l" transform="matrix(1,0,0,1,571.6587384393717,315.0107421715352) translate(256.04166666666663 135.63368055555554)"/><use xlink:href="#n" transform="matrix(1,0,0,1,571.6587384393717,315.0107421715352) translate(288.04687499999994 135.63368055555554)"/><use xlink:href="#o" transform="matrix(1,0,0,1,571.6587384393717,315.0107421715352) translate(0 155.77256944444446)"/><use xlink:href="#p" transform="matrix(1,0,0,1,571.6587384393717,315.0107421715352) translate(160.02604166666663 155.77256944444446)"/><use xlink:href="#q" transform="matrix(1,0,0,1,571.6587384393717,315.0107421715352) translate(192.03124999999997 155.77256944444446)"/><use xlink:href="#r" transform="matrix(1,0,0,1,571.6587384393717,315.0107421715352) translate(224.03645833333331 155.77256944444446)"/><use xlink:href="#s" transform="matrix(1,0,0,1,571.6587384393717,315.0107421715352) translate(256.04166666666663 155.77256944444446)"/><use xlink:href="#t" transform="matrix(1,0,0,1,571.6587384393717,315.0107421715352) translate(288.04687499999994 155.77256944444446)"/><use xlink:href="#u" transform="matrix(1,0,0,1,571.6587384393717,315.0107421715352) translate(0 175.91145833333334)"/><path d="M836.9 255.35c0 27.03-20.9 48.94-46.7 48.94-25.8 0-46.7-21.92-46.7-48.95s20.9-48.95 46.7-48.95c25.8 0 46.7 21.92 46.7 48.95z" stroke="#3a414a" stroke-width="2" fill="#6db1ff"/><path d="M779.45 215.16a6 6 0 0 1 6-6h9.5a6 6 0 0 1 6 6v9.5a6 6 0 0 1-6 6h-9.5a6 6 0 0 1-6-6zM811.9 218.78a6 6 0 0 1 8.5 0l6.7 6.72a6 6 0 0 1 0 8.48l-6.7 6.72a6 6 0 0 1-8.5 0l-6.7-6.72a6 6 0 0 1 0-8.48z" stroke="#3a414a" stroke-width="3" fill="#cfe4ff"/><path d="M814.1 250.94a6 6 0 0 1 6-6h9.5a6 6 0 0 1 6 6v9.5a6 6 0 0 1-6 6h-9.5a6 6 0 0 1-6-6zM827.1 277.4a6 6 0 0 1 0 8.5l-6.7 6.7a6 6 0 0 1-8.5 0l-6.7-6.7a6 6 0 0 1 0-8.5l6.7-6.7a6 6 0 0 1 8.5 0zM800.95 296.23a6 6 0 0 1-6 6h-9.5a6 6 0 0 1-6-6v-9.5a6 6 0 0 1 6-6h9.5a6 6 0 0 1 6 6zM768.5 292.6a6 6 0 0 1-8.5 0l-6.7-6.7a6 6 0 0 1 0-8.5l6.7-6.7a6 6 0 0 1 8.5 0l6.7 6.7a6 6 0 0 1 0 8.5z" stroke="#3a414a" stroke-width="3" fill="#fff"/><path d="M766.3 260.44a6 6 0 0 1-6 6h-9.5a6 6 0 0 1-6-6v-9.5a6 6 0 0 1 6-6h9.5a6 6 0 0 1 6 6zM753.3 233.98a6 6 0 0 1 0-8.48l6.7-6.72a6 6 0 0 1 8.5 0l6.7 6.72a6 6 0 0 1 0 8.48l-6.7 6.72a6 6 0 0 1-8.5 0z" stroke="#3a414a" stroke-width="3" fill="#cfe4ff"/><path d="M814.1 255.7c0 13.82-10.7 25.03-23.9 25.03s-23.9-11.2-23.9-25.04c0-13.83 10.7-25.04 23.9-25.04s23.9 11.2 23.9 25.03z" stroke="#3a414a" stroke-width="2" fill="#fff"/><path d="M780.28 215.16a6 6 0 0 1 6-6h9.5a6 6 0 0 1 6 6v9.5a6 6 0 0 1-6 6h-9.5a6 6 0 0 1-6-6z" stroke="#3a414a" stroke-width="3" fill="#ffe342"/><path d="M791.03 231.16v-22.5" stroke="#3a414a" stroke-width="2" fill="none"/><path d="M792 232.16h-1.95v-1.03H792zM792 208.7h-1.95v-1.04H792z" stroke="#3a414a" stroke-width=".05" fill="#3a414a"/><path d="M790.38 214.86a5.7 5.7 0 0 1 5.7-5.7 5.7 5.7 0 0 1 5.7 5.7v10.1a5.7 5.7 0 0 1-5.7 5.7 5.7 5.7 0 0 1-5.7-5.7zM778.97 214.86a5.7 5.7 0 0 1 5.7-5.7 5.7 5.7 0 0 1 5.7 5.7v10.1a5.7 5.7 0 0 1-5.7 5.7 5.7 5.7 0 0 1-5.7-5.7z" stroke="#3a414a" stroke-width="3" fill="#ffe342"/><g><path d="M819.47 241.22a6 6 0 0 1-8.5 0l-6.7-6.72a6 6 0 0 1 0-8.48l6.7-6.72a6 6 0 0 1 8.5 0l6.72 6.72a6 6 0 0 1 0 8.48z" stroke="#3a414a" stroke-width="3" fill="#ffe342"/></g><path d="M823.18 222.3l-15.9 15.9" stroke="#3a414a" stroke-width="2" fill="none"/><path d="M824.58 222.3l-.73.7-1.38-1.37.73-.72zM807.98 238.88l-.73.73-1.37-1.37.72-.72z" stroke="#3a414a" stroke-width=".05" fill="#3a414a"/><g><path d="M812.12 234.3a5.7 5.7 0 0 1-8.06 0 5.7 5.7 0 0 1 0-8.07l7.14-7.14a5.7 5.7 0 0 1 8.06 0 5.7 5.7 0 0 1 0 8.05z" stroke="#3a414a" stroke-width="3" fill="#ffe342"/></g><g><path d="M820.18 242.35a5.7 5.7 0 0 1-8.06 0 5.7 5.7 0 0 1 0-8.06l7.14-7.15a5.7 5.7 0 0 1 8.06 0 5.7 5.7 0 0 1 0 8.06z" stroke="#3a414a" stroke-width="3" fill="#ffe342"/></g><g><path d="M760.3 245.25a6 6 0 0 1 6 6v9.5a6 6 0 0 1-6 6h-9.5a6 6 0 0 1-6-6v-9.5a6 6 0 0 1 6-6z" stroke="#3a414a" stroke-width="3" fill="#ffe342"/></g><path d="M744.3 256h22.5" stroke="#3a414a" stroke-width="2" fill="none"/><path d="M744.34 256.98h-1.03v-1.96h1.04zM767.8 256.98h-1v-1.96h1z" stroke="#3a414a" stroke-width=".05" fill="#3a414a"/><g><path d="M760.6 255.35a5.7 5.7 0 0 1 5.7 5.7 5.7 5.7 0 0 1-5.7 5.7h-10.1a5.7 5.7 0 0 1-5.7-5.7 5.7 5.7 0 0 1 5.7-5.7z" stroke="#3a414a" stroke-width="3" fill="#ffe342"/></g><g><path d="M760.6 243.94a5.7 5.7 0 0 1 5.7 5.7 5.7 5.7 0 0 1-5.7 5.7h-10.1a5.7 5.7 0 0 1-5.7-5.7 5.7 5.7 0 0 1 5.7-5.7z" stroke="#3a414a" stroke-width="3" fill="#ffe342"/></g><g><path d="M754.7 233.5a6 6 0 0 1 0-8.48l6.72-6.72a6 6 0 0 1 8.48 0l6.72 6.72a6 6 0 0 1 0 8.48l-6.72 6.72a6 6 0 0 1-8.48 0z" stroke="#3a414a" stroke-width="3" fill="#ffe342"/></g><path d="M773.62 237.2l-15.9-15.9" stroke="#3a414a" stroke-width="2" fill="none"/><path d="M775 237.23l-1.37 1.38-.72-.72 1.4-1.37zM758.4 220.63l-1.36 1.38-.73-.7 1.4-1.4z" stroke="#3a414a" stroke-width=".05" fill="#3a414a"/><g><path d="M761.63 226.15a5.7 5.7 0 0 1 0-8.06 5.7 5.7 0 0 1 8.06 0l7.13 7.13a5.7 5.7 0 0 1 0 8.06 5.7 5.7 0 0 1-8.06 0z" stroke="#3a414a" stroke-width="3" fill="#ffe342"/></g><g><path d="M753.57 234.22a5.7 5.7 0 0 1 0-8.07 5.7 5.7 0 0 1 8.06 0l7.14 7.14a5.7 5.7 0 0 1 0 8.05 5.7 5.7 0 0 1-8.06 0z" stroke="#3a414a" stroke-width="3" fill="#ffe342"/></g><path d="M894.2 321a6 6 0 0 1 6-6h218a6 6 0 0 1 6 6v35.56a6 6 0 0 1-6 6h-218a6 6 0 0 1-6-6z" fill="none"/><g><use xlink:href="#v" transform="matrix(1,0,0,1,894.1941281409403,315.0107421715352) translate(0 14.800347222222223)"/><use xlink:href="#w" transform="matrix(1,0,0,1,894.1941281409403,315.0107421715352) translate(0 34.939236111111114)"/><use xlink:href="#x" transform="matrix(1,0,0,1,894.1941281409403,315.0107421715352) translate(0 55.078125)"/></g><defs><path d="M1124 0H830l-28-330H346L190 0h-295l705-1349h344zM737-1167c-87 211-191 412-286 615h332c-17-203-41-400-46-615" id="y"/><use transform="matrix(0.010850694444444444,0,0,0.010850694444444444,0,0)" xlink:href="#y" id="a"/><path d="M869-709c191 18 328 116 287 324C1106-131 911 0 614 0H32l262-1349h525c212 4 385 55 385 261 0 222-137 338-335 379zM696-811c124 2 196-74 201-206 6-158-206-103-350-113l-62 319h211zm-69 592c156-1 242-87 242-238 0-188-251-125-427-136l-72 374h257" id="z"/><use transform="matrix(0.010850694444444444,0,0,0.010850694444444444,0,0)" xlink:href="#z" id="b"/><path d="M429-1484c1 190-1 388 0 572 54-116 155-191 317-191 300 0 386 257 386 563 0 241-73 429-226 518-49 28-106 42-169 42-162 0-251-81-306-196h-4c-1 59-5 127-15 176H140c4-67 9-153 8-236v-1248h281zm66 648c-93 114-92 466 1 585 35 45 77 79 142 79 64 0 112-31 148-92 69-115 68-440-2-561-39-68-131-111-221-70-25 11-46 32-68 59" id="A"/><path d="M1229 0H935l-92-330H387L295 0H0l443-1349h344zM615-1167c-46 213-110 412-166 615h332c-56-204-119-401-166-615" id="B"/><path d="M101-842v-223h1027v223H101zm0 551v-221h1027v221H101" id="C"/><path d="M135-968c34-256 187-402 480-402 217 0 371 75 441 220 45 93 40 219-8 308-114 212-348 323-508 488-38 39-66 80-85 123h654V0H123v-195c112-245 321-399 515-560 57-48 107-96 142-157 14-26 22-53 22-80-1-104-73-156-185-154-131 2-181 74-199 194" id="D"/><g id="c"><use transform="matrix(0.008680555555555556,0,0,0.008680555555555556,0,0)" xlink:href="#A"/><use transform="matrix(0.008680555555555556,0,0,0.008680555555555556,10.668402777777779,0)" xlink:href="#B"/><use transform="matrix(0.008680555555555556,0,0,0.008680555555555556,21.336805555555557,0)" xlink:href="#C"/><use transform="matrix(0.008680555555555556,0,0,0.008680555555555556,32.005208333333336,0)" xlink:href="#D"/></g><path d="M1109-360C1066-122 902 20 624 20c-347 0-514-209-514-555 0-353 168-567 518-567 270 0 425 136 473 361l-283 14c-16-106-75-183-196-182-75 0-130 31-165 93s-52 152-52 270c0 249 74 374 221 374 120 0 188-82 201-201" id="E"/><path d="M836-709c204 20 350 118 350 324C1186-112 992 0 719 0H137v-1349h525c258 3 443 87 443 339 0 176-107 269-269 301zM643-811c107 0 165-53 165-159 0-113-61-160-167-160H432v319h211zm46 592c128-1 201-59 200-191-1-128-80-183-207-183H432v374h257" id="F"/><path d="M788-691c191 26 337 112 337 315 0 286-214 399-510 399-306 0-483-128-522-391l286-25c18 124 91 190 235 188 132-2 223-58 223-188 0-176-191-182-378-179v-227c176 5 345-9 345-176 0-115-82-171-200-171s-198 55-206 169l-281-20c34-252 213-373 492-373 224 0 381 74 451 224 20 43 29 89 29 136 0 195-130 279-301 315v4" id="G"/><g id="d"><use transform="matrix(0.008680555555555556,0,0,0.008680555555555556,0,0)" xlink:href="#E"/><use transform="matrix(0.008680555555555556,0,0,0.008680555555555556,10.668402777777779,0)" xlink:href="#B"/><use transform="matrix(0.008680555555555556,0,0,0.008680555555555556,21.336805555555557,0)" xlink:href="#F"/><use transform="matrix(0.008680555555555556,0,0,0.008680555555555556,32.005208333333336,0)" xlink:href="#C"/><use transform="matrix(0.008680555555555556,0,0,0.008680555555555556,42.673611111111114,0)" xlink:href="#G"/></g><path d="M616-1102c361 0 521 202 521 560 0 354-171 562-527 562C259 20 92-192 92-542c0-351 169-560 524-560zm-9 930c200-2 236-165 236-370 0-199-27-367-223-367-195 0-233 146-233 367 0 129 18 223 55 282s92 88 165 88" id="H"/><path d="M768-1103c247 0 336 167 336 416V0H824v-619c-3-164-24-273-171-273-164 0-229 142-229 312V0H143c-4-359 9-736-8-1082h268c7 63 12 146 13 215h4c67-145 160-236 348-236" id="I"/><path d="M622-916c-112 2-200 14-200 111 0 90 89 101 168 121 234 58 514 77 514 368C1104-4 751 54 434 5 267-21 161-112 121-270l247-37c24 111 113 145 252 141 114-3 226-12 226-124 0-101-103-113-192-134-225-54-490-76-490-351 0-247 201-328 458-328 245 0 413 88 457 292l-249 26c-16-98-92-133-208-131" id="J"/><path d="M471 20c-247 0-336-169-336-415v-687h281v607c4 148 31 285 172 285 152 0 207-150 207-312v-580h281c4 359-9 736 8 1082H816c-7-63-11-146-12-215h-5C736-76 644 20 471 20" id="K"/><path d="M934-1102c199 0 220 177 220 381V0H926c-2-260 10-533-4-785-4-72-14-138-83-138-34 0-61 27-81 81s-29 134-29 241V0H501c-2-260 9-533-5-785-4-72-13-138-82-138-46 0-65 47-80 93-21 67-30 155-30 248V0H75c-3-360 6-732-6-1082h209c6 50 3 123 8 175 36-100 83-195 216-195 135 0 166 79 196 196 42-105 93-196 236-196" id="L"/><path d="M1113-274C1038-96 884 20 626 20c-352 0-526-209-526-566 0-358 185-556 530-556 358 0 496 251 499 615H395c5 180 68 319 245 319 102 0 186-45 208-129zM857-663c-6-177-128-307-315-247-94 30-141 121-145 247h460" id="M"/><g id="e"><use transform="matrix(0.008680555555555556,0,0,0.008680555555555556,0,0)" xlink:href="#E"/><use transform="matrix(0.008680555555555556,0,0,0.008680555555555556,10.668402777777779,0)" xlink:href="#H"/><use transform="matrix(0.008680555555555556,0,0,0.008680555555555556,21.336805555555557,0)" xlink:href="#I"/><use transform="matrix(0.008680555555555556,0,0,0.008680555555555556,32.005208333333336,0)" xlink:href="#J"/><use transform="matrix(0.008680555555555556,0,0,0.008680555555555556,42.673611111111114,0)" xlink:href="#K"/><use transform="matrix(0.008680555555555556,0,0,0.008680555555555556,53.34201388888889,0)" xlink:href="#L"/><use transform="matrix(0.008680555555555556,0,0,0.008680555555555556,64.01041666666667,0)" xlink:href="#M"/></g><path d="M844-1321c-130 0-195 53-191 182v57h443v190H653V0H373v-892H117v-190h256v-83c5-247 162-348 422-349 120-1 232 13 327 28v184c-84-10-183-19-278-19" id="N"/><path d="M470 0v-305h289V0H470zm0-780v-305h289v305H470" id="O"/><g id="f"><use transform="matrix(0.008680555555555556,0,0,0.008680555555555556,0,0)" xlink:href="#A"/><use transform="matrix(0.008680555555555556,0,0,0.008680555555555556,10.668402777777779,0)" xlink:href="#K"/><use transform="matrix(0.008680555555555556,0,0,0.008680555555555556,21.336805555555557,0)" xlink:href="#N"/><use transform="matrix(0.008680555555555556,0,0,0.008680555555555556,32.005208333333336,0)" xlink:href="#O"/></g><g id="h"><use transform="matrix(0.008680555555555556,0,0,0.008680555555555556,0,0)" xlink:href="#E"/><use transform="matrix(0.008680555555555556,0,0,0.008680555555555556,10.668402777777779,0)" xlink:href="#B"/><use transform="matrix(0.008680555555555556,0,0,0.008680555555555556,21.336805555555557,0)" xlink:href="#F"/></g><path d="M427-171c3 195 2 397 2 596H148V-846c1-83-4-168-8-236h272c10 49 14 118 15 176h4c59-114 151-197 316-197 291 0 385 259 385 560 0 243-65 433-220 521-50 28-109 42-176 42-162-2-253-78-309-191zm69-661c-91 113-92 463-1 586 46 62 145 101 225 54 96-57 118-191 119-351 0-123-18-215-53-276-46-82-128-115-220-74-25 12-48 33-70 61" id="P"/><path d="M711 13c-250 0-386-99-385-349l2-556H161v-190h181l88-282h176v282h385v190H606v530c-10 130 45 186 174 184 91-2 176-11 255-27v186C933-1 833 13 711 13" id="Q"/><path d="M794-190h353V0H118v-190h395v-702H223v-190h571v892zM513-1277v-207h281v207H513" id="R"/><g id="i"><use transform="matrix(0.008680555555555556,0,0,0.008680555555555556,0,0)" xlink:href="#E"/><use transform="matrix(0.008680555555555556,0,0,0.008680555555555556,10.668402777777779,0)" xlink:href="#H"/><use transform="matrix(0.008680555555555556,0,0,0.008680555555555556,21.336805555555557,0)" xlink:href="#I"/><use transform="matrix(0.008680555555555556,0,0,0.008680555555555556,32.005208333333336,0)" xlink:href="#J"/><use transform="matrix(0.008680555555555556,0,0,0.008680555555555556,42.673611111111114,0)" xlink:href="#K"/><use transform="matrix(0.008680555555555556,0,0,0.008680555555555556,53.34201388888889,0)" xlink:href="#L"/><use transform="matrix(0.008680555555555556,0,0,0.008680555555555556,64.01041666666667,0)" xlink:href="#P"/><use transform="matrix(0.008680555555555556,0,0,0.008680555555555556,74.67881944444446,0)" xlink:href="#Q"/><use transform="matrix(0.008680555555555556,0,0,0.008680555555555556,85.34722222222223,0)" xlink:href="#R"/><use transform="matrix(0.008680555555555556,0,0,0.008680555555555556,96.015625,0)" xlink:href="#H"/><use transform="matrix(0.008680555555555556,0,0,0.008680555555555556,106.68402777777777,0)" xlink:href="#I"/><use transform="matrix(0.008680555555555556,0,0,0.008680555555555556,117.35243055555554,0)" xlink:href="#O"/></g><path d="M875-1102c70 0 148 7 206 17v237c-110-17-267-37-359 15-123 69-192 207-192 395V0H250c-10-367 32-789-52-1082h271c19 69 36 149 46 228h4c52-151 151-250 356-248" id="S"/><path d="M775-193C708-75 621 20 439 20 226 20 106-93 106-306c0-251 170-341 417-346l223-4c4-143-12-264-148-264-103 0-141 58-150 153l-293-14c37-219 194-321 455-321 263 0 418 130 417 390v392c1 84 5 161 89 160 21 0 42-2 62-6v152c-57 15-108 27-180 26-145 0-202-73-217-205h-6zm-256 17c168 0 234-139 227-325-166 4-347-25-347 173 0 94 33 152 120 152" id="T"/><path d="M802-909c-3-189-2-383-2-575h281v1248c-1 83 4 168 8 236H817c-9-50-14-117-15-176h-4C735-49 651 20 482 20 191 20 97-238 97-539c0-243 66-432 221-519 50-28 108-42 175-42 162 2 253 78 309 191zm-70 658c91-113 93-462 2-584-46-61-145-100-224-53-96 56-119 190-120 349 0 123 17 214 52 275 46 82 130 115 222 74 25-12 46-33 68-61" id="U"/><path d="M-5 220v-96h1238v96H-5" id="V"/><path d="M794-190h353V0H118v-190h395v-1104H223v-190h571v1294" id="W"/><path d="M496 0v-299h235V0H496zm0-783v-299h235v299H496" id="X"/><g id="j"><use transform="matrix(0.008680555555555556,0,0,0.008680555555555556,0,0)" xlink:href="#S"/><use transform="matrix(0.008680555555555556,0,0,0.008680555555555556,10.668402777777779,0)" xlink:href="#M"/><use transform="matrix(0.008680555555555556,0,0,0.008680555555555556,21.336805555555557,0)" xlink:href="#T"/><use transform="matrix(0.008680555555555556,0,0,0.008680555555555556,32.005208333333336,0)" xlink:href="#U"/><use transform="matrix(0.008680555555555556,0,0,0.008680555555555556,42.673611111111114,0)" xlink:href="#J"/><use transform="matrix(0.008680555555555556,0,0,0.008680555555555556,53.34201388888889,0)" xlink:href="#V"/><use transform="matrix(0.008680555555555556,0,0,0.008680555555555556,64.01041666666667,0)" xlink:href="#W"/><use transform="matrix(0.008680555555555556,0,0,0.008680555555555556,74.67881944444446,0)" xlink:href="#M"/><use transform="matrix(0.008680555555555556,0,0,0.008680555555555556,85.34722222222223,0)" xlink:href="#N"/><use transform="matrix(0.008680555555555556,0,0,0.008680555555555556,96.015625,0)" xlink:href="#Q"/><use transform="matrix(0.008680555555555556,0,0,0.008680555555555556,106.68402777777777,0)" xlink:href="#X"/></g><path d="M611-1370c266 0 451 106 451 368 0 147-77 243-154 327-132 144-316 255-451 395-42 44-75 87-96 134h723V0H144v-117c124-264 387-411 582-603 73-72 151-147 151-271 0-161-104-231-266-231-163 0-249 90-268 238l-184-17c35-233 185-369 452-369" id="Y"/><use transform="matrix(0.008680555555555556,0,0,0.008680555555555556,0,0)" xlink:href="#Y" id="k"/><path d="M148-1120c216-7 379-89 463-229h166v1204h353V0H157v-145h439v-1021c-79 124-254 184-448 194v-148" id="Z"/><use transform="matrix(0.008680555555555556,0,0,0.008680555555555556,0,0)" xlink:href="#Z" id="l"/><path d="M1065-1013c47 164 49 500-1 665C999-130 875 20 611 20c-377 0-484-300-487-695-2-245 41-425 141-551 77-98 191-144 352-144 261 0 386 140 448 357zM741-155c199-92 203-504 159-785-26-168-96-284-283-284-281 0-308 256-311 549-2 181 18 324 80 428 46 77 115 118 227 120 47 0 90-10 128-28" id="aa"/><use transform="matrix(0.008680555555555556,0,0,0.008680555555555556,0,0)" xlink:href="#aa" id="m"/><use transform="matrix(0.008680555555555556,0,0,0.008680555555555556,0,0)" xlink:href="#aa" id="n"/><g id="o"><use transform="matrix(0.008680555555555556,0,0,0.008680555555555556,0,0)" xlink:href="#I"/><use transform="matrix(0.008680555555555556,0,0,0.008680555555555556,10.668402777777779,0)" xlink:href="#K"/><use transform="matrix(0.008680555555555556,0,0,0.008680555555555556,21.336805555555557,0)" xlink:href="#L"/><use transform="matrix(0.008680555555555556,0,0,0.008680555555555556,32.005208333333336,0)" xlink:href="#V"/><use transform="matrix(0.008680555555555556,0,0,0.008680555555555556,42.673611111111114,0)" xlink:href="#J"/><use transform="matrix(0.008680555555555556,0,0,0.008680555555555556,53.34201388888889,0)" xlink:href="#T"/><use transform="matrix(0.008680555555555556,0,0,0.008680555555555556,64.01041666666667,0)" xlink:href="#L"/><use transform="matrix(0.008680555555555556,0,0,0.008680555555555556,74.67881944444446,0)" xlink:href="#P"/><use transform="matrix(0.008680555555555556,0,0,0.008680555555555556,85.34722222222223,0)" xlink:href="#W"/><use transform="matrix(0.008680555555555556,0,0,0.008680555555555556,96.015625,0)" xlink:href="#M"/><use transform="matrix(0.008680555555555556,0,0,0.008680555555555556,106.68402777777777,0)" xlink:href="#J"/><use transform="matrix(0.008680555555555556,0,0,0.008680555555555556,117.35243055555554,0)" xlink:href="#X"/></g><use transform="matrix(0.008680555555555556,0,0,0.008680555555555556,0,0)" xlink:href="#aa" id="p"/><use transform="matrix(0.008680555555555556,0,0,0.008680555555555556,0,0)" xlink:href="#Y" id="q"/><path d="M937-319V0H757v-319H103v-140l635-890h199v888h188v142H937zm-180-835L257-461h500v-693" id="ab"/><use transform="matrix(0.008680555555555556,0,0,0.008680555555555556,0,0)" xlink:href="#ab" id="r"/><use transform="matrix(0.008680555555555556,0,0,0.008680555555555556,0,0)" xlink:href="#Z" id="s"/><path d="M1060-1016c0 191-128 285-295 323v4c154 18 262 91 313 209 14 35 21 72 21 110 0 277-194 390-478 390-292 0-457-129-493-382l186-17c24 161 121 250 307 250 172 1 298-80 291-247-8-208-220-239-446-233v-156c217 9 409-34 409-232 0-152-102-225-264-225-159 0-264 88-278 233l-181-14c33-239 196-367 461-367 264 0 447 102 447 354" id="ac"/><use transform="matrix(0.008680555555555556,0,0,0.008680555555555556,0,0)" xlink:href="#ac" id="t"/><path d="M726-190h353L1042 0H13l37-190h395l215-1104H370l36-190h571" id="ad"/><path d="M1061-274C957-107 790 19 517 20 218 21 54-146 88-462c35-319 185-528 448-611 67-21 135-29 203-29 270 2 398 150 401 417 0 72-9 133-21 198H385c-33 166 14 324 183 319 116-3 193-49 233-129zM881-663c35-185-91-308-267-247-105 37-165 127-193 247h460" id="ae"/><path d="M877-1103c184-4 269 96 271 273 0 43-5 91-15 143L999 0H719l120-619c29-130 29-284-118-273-178 13-258 152-289 312L319 0H38c66-362 146-710 202-1082h268c-5 70-17 151-28 215h4c91-138 196-231 393-236" id="af"/><path d="M584-193c0 251 61 432 150 618H453C364 245 305 68 305-181c0-590 228-980 519-1303h281C818-1158 584-780 584-193" id="ag"/><path d="M1074-360C991-138 813 15 515 20 220 25 64-146 97-454c33-303 170-518 413-610 69-26 145-38 227-38 250 0 397 117 403 361l-286 14c6-112-45-182-160-182-75 0-135 32-183 93-64 81-123 271-123 431 0 142 55 213 166 213 129 0 207-88 241-201" id="ah"/><path d="M725-1102c305 0 463 153 426 468-36 300-163 518-405 612-72 28-154 42-245 42C201 22 46-148 80-460c32-293 164-506 400-600 72-28 153-42 245-42zM432-707c-57 152-149 543 103 535 249-8 288-238 323-464 24-154-11-278-166-273-150 5-217 88-260 202" id="ai"/><path d="M878-785c2-107-76-132-183-131-119 2-205 19-222 111-16 90 70 102 145 121 212 54 501 76 442 368C1012-80 798 20 511 20 263 20 83-39 68-270l255-37c-3 153 168 150 315 135 82-9 147-41 159-118 16-101-81-113-165-134-152-39-331-58-402-177-56-94-15-240 36-311 90-126 249-191 465-191 227 0 393 72 401 292" id="aj"/><path d="M362 20C180 20 93-74 92-253c0-45 5-92 15-142l133-687h281L403-475c-25 128-21 296 117 285 166-13 238-158 268-312l112-580h281C1114-721 1035-372 979 0H711c6-69 19-150 30-215h-5C648-80 546 20 362 20" id="ak"/><path d="M966-761c11-69 20-163-53-162-34 0-66 27-96 81s-55 134-76 241L624 0H396c48-253 104-503 145-761 11-69 20-166-53-162-50 3-75 49-98 93-36 67-60 156-78 248L199 0H-30c67-361 144-713 204-1082h209c-6 55-18 122-28 175h2c54-95 112-192 254-195 127-2 153 72 158 196 61-99 122-196 274-196 124 0 168 64 168 192 0 67-10 125-22 189L1049 0H821c48-253 104-503 145-761" id="al"/><path d="M-153 220l19-96h1238l-19 96H-153" id="am"/><path d="M356-176c-12 58-30 126-49 176H35c16-68 38-154 54-236l242-1248h281c-38 191-72 384-113 572h2c73-110 181-188 354-191 248-4 322 202 293 457-33 283-138 514-343 624-54 29-114 42-177 42-150-2-235-73-268-196h-4zm483-364c32-163 38-378-131-372-124 4-181 90-228 188-68 142-150 552 86 552 64 0 120-31 167-92s82-154 106-276" id="an"/><path d="M1270-1302c-135-12-348-49-437 30-47 42-62 115-75 190h443l-37 190H721L548 0H268l173-892H185l37-190h256c31-276 190-432 506-432 119 0 229 13 322 28" id="ao"/><path d="M920-880c0 590-229 982-520 1305H119C407 100 641-278 641-866c0-253-60-432-151-618h281c84 170 149 355 149 604" id="ap"/><path d="M101-842v-223h1027v223H101zm0 551v-221h1027v221H101" id="aq"/><g id="v"><use transform="matrix(0.008680555555555556,0,0,0.008680555555555556,0,0)" xlink:href="#ad"/><use transform="matrix(0.008680555555555556,0,0,0.008680555555555556,10.668402777777779,0)" xlink:href="#ae"/><use transform="matrix(0.008680555555555556,0,0,0.008680555555555556,21.336805555555557,0)" xlink:href="#af"/><use transform="matrix(0.008680555555555556,0,0,0.008680555555555556,32.005208333333336,0)" xlink:href="#ag"/><use transform="matrix(0.008680555555555556,0,0,0.008680555555555556,42.673611111111114,0)" xlink:href="#ah"/><use transform="matrix(0.008680555555555556,0,0,0.008680555555555556,53.34201388888889,0)" xlink:href="#ai"/><use transform="matrix(0.008680555555555556,0,0,0.008680555555555556,64.01041666666667,0)" xlink:href="#af"/><use transform="matrix(0.008680555555555556,0,0,0.008680555555555556,74.67881944444446,0)" xlink:href="#aj"/><use transform="matrix(0.008680555555555556,0,0,0.008680555555555556,85.34722222222223,0)" xlink:href="#ak"/><use transform="matrix(0.008680555555555556,0,0,0.008680555555555556,96.015625,0)" xlink:href="#al"/><use transform="matrix(0.008680555555555556,0,0,0.008680555555555556,106.68402777777777,0)" xlink:href="#ae"/><use transform="matrix(0.008680555555555556,0,0,0.008680555555555556,117.35243055555554,0)" xlink:href="#am"/><use transform="matrix(0.008680555555555556,0,0,0.008680555555555556,128.02083333333331,0)" xlink:href="#an"/><use transform="matrix(0.008680555555555556,0,0,0.008680555555555556,138.6892361111111,0)" xlink:href="#ak"/><use transform="matrix(0.008680555555555556,0,0,0.008680555555555556,149.35763888888886,0)" xlink:href="#ao"/><use transform="matrix(0.008680555555555556,0,0,0.008680555555555556,160.02604166666663,0)" xlink:href="#ap"/><use transform="matrix(0.008680555555555556,0,0,0.008680555555555556,170.6944444444444,0)" xlink:href="#aq"/></g><path d="M726-190h353L1042 0H13l37-190h395l136-702H291l37-190h571zm-70-1087l40-207h281l-40 207H656" id="ar"/><path d="M-20 20l1113-1504h228L212 20H-20" id="as"/><path d="M836-1209l255-104 30 197-262 61 145 213-208 121-97-252-198 252-162-123 231-211-238-61 106-197 219 104 35-274h215" id="at"/><path d="M33 0l39-199 702-680H245l39-203h849l-39 201-698 676h616L972 0H33" id="au"/><g id="w"><use transform="matrix(0.008680555555555556,0,0,0.008680555555555556,0,0)" xlink:href="#ah"/><use transform="matrix(0.008680555555555556,0,0,0.008680555555555556,10.668402777777779,0)" xlink:href="#ae"/><use transform="matrix(0.008680555555555556,0,0,0.008680555555555556,21.336805555555557,0)" xlink:href="#ar"/><use transform="matrix(0.008680555555555556,0,0,0.008680555555555556,32.005208333333336,0)" xlink:href="#ad"/><use transform="matrix(0.008680555555555556,0,0,0.008680555555555556,42.673611111111114,0)" xlink:href="#ag"/><use transform="matrix(0.008680555555555556,0,0,0.008680555555555556,53.34201388888889,0)" xlink:href="#ah"/><use transform="matrix(0.008680555555555556,0,0,0.008680555555555556,64.01041666666667,0)" xlink:href="#y"/><use transform="matrix(0.008680555555555556,0,0,0.008680555555555556,74.67881944444446,0)" xlink:href="#z"/><use transform="matrix(0.008680555555555556,0,0,0.008680555555555556,85.34722222222223,0)" xlink:href="#as"/><use transform="matrix(0.008680555555555556,0,0,0.008680555555555556,96.015625,0)" xlink:href="#an"/><use transform="matrix(0.008680555555555556,0,0,0.008680555555555556,106.68402777777777,0)" xlink:href="#y"/><use transform="matrix(0.008680555555555556,0,0,0.008680555555555556,117.35243055555554,0)" xlink:href="#ap"/><use transform="matrix(0.008680555555555556,0,0,0.008680555555555556,128.02083333333331,0)" xlink:href="#at"/><use transform="matrix(0.008680555555555556,0,0,0.008680555555555556,138.6892361111111,0)" xlink:href="#ar"/><use transform="matrix(0.008680555555555556,0,0,0.008680555555555556,149.35763888888886,0)" xlink:href="#af"/><use transform="matrix(0.008680555555555556,0,0,0.008680555555555556,160.02604166666663,0)" xlink:href="#am"/><use transform="matrix(0.008680555555555556,0,0,0.008680555555555556,170.6944444444444,0)" xlink:href="#aj"/><use transform="matrix(0.008680555555555556,0,0,0.008680555555555556,181.36284722222217,0)" xlink:href="#au"/></g></defs></g></svg>