<svg xmlns="http://www.w3.org/2000/svg" xmlns:xlink="http://www.w3.org/1999/xlink" xmlns:lucid="lucid" width="483.85" height="366.83"><g transform="translate(-483.65689695736285 -302.4603152011905)" lucid:page-tab-id="TmD93icxy53X"><path d="M938.56 323.72a6 6 0 0 1 6-6h16.95a6 6 0 0 1 6 6V659a6 6 0 0 1-6 6h-16.94a6 6 0 0 1-6-6z" fill="none"/><path d="M938.56 665c5.53 0 10-4.47 10-10V501.37c0-5.52 4.48-10 10-10-5.52 0-10-4.47-10-10V327.72c0-5.52-4.47-10-10-10" stroke="#000" stroke-width="5" fill="none"/><g fill="none"><path d="M512.6 660.8a6 6 0 0 1-6 6h-16.94a6 6 0 0 1-6-6V323.7a6 6 0 0 1 6-6h16.94a6 6 0 0 1 6 6z"/><path d="M512.6 317.72c-5.52 0-10 4.48-10 10v154.54c0 5.52-4.47 10-10 10 5.53 0 10 4.47 10 10V656.8c0 5.5 4.48 10 10 10" stroke="#000" stroke-width="5"/></g><path d="M512.6 308.46a6 6 0 0 1 6-6h413.96a6 6 0 0 1 6 6v13.05a6 6 0 0 1-6 6H518.6a6 6 0 0 1-6-6z" fill="none"/><use xlink:href="#a" transform="matrix(1,0,0,1,512.6032872361334,302.4603152011905) translate(132.98697916666669 22.200520833333336)"/><g fill="none"><path d="M533.96 630.7a6 6 0 0 1-6 6H511a6 6 0 0 1-6-6V351.74a6 6 0 0 1 6-6h16.96a6 6 0 0 1 6 6z"/><path d="M533.96 345.73c-5.53 0-10 4.47-10 10v125.5c0 5.5-4.48 10-10 10 5.52 0 10 4.46 10 10V626.7c0 5.53 4.47 10 10 10" stroke="#6f7681" stroke-width="5"/></g><path d="M670.95 351.73a6 6 0 0 1 6-6h16.94a6 6 0 0 1 6 6V630.7a6 6 0 0 1-6 6h-16.95a6 6 0 0 1-6-6z" fill="none"/><path d="M670.95 636.7c5.52 0 10-4.47 10-10V501.23c0-5.53 4.47-10 10-10-5.53 0-10-4.48-10-10v-125.5c0-5.52-4.48-10-10-10" stroke="#6f7681" stroke-width="5" fill="none"/><path d="M565.45 638.2a6 6 0 0 1-6-6v-9.5a6 6 0 0 1 6-6h74a6 6 0 0 1 6 6v9.5a6 6 0 0 1-6 6z" stroke="#3a414a" stroke-width="3" fill="#b8f5ed"/><path d="M608.45 638.2a6 6 0 0 1-6-6v-9.5a6 6 0 0 1 6-6h31a6 6 0 0 1 6 6v9.5a6 6 0 0 1-6 6z" stroke="#3a414a" stroke-width="3" fill="#b8f5ed"/><path d="M629.95 638.2a6 6 0 0 1-6-6v-9.5a6 6 0 0 1 6-6h9.5a6 6 0 0 1 6 6v9.5a6 6 0 0 1-6 6zM608.45 638.2a6 6 0 0 1-6-6v-9.5a6 6 0 0 1 6-6h9.5a6 6 0 0 1 6 6v9.5a6 6 0 0 1-6 6zM586.95 638.2a6 6 0 0 1-6-6v-9.5a6 6 0 0 1 6-6h9.5a6 6 0 0 1 6 6v9.5a6 6 0 0 1-6 6zM565.45 638.2a6 6 0 0 1-6-6v-9.5a6 6 0 0 1 6-6h9.5a6 6 0 0 1 6 6v9.5a6 6 0 0 1-6 6z" stroke="#3a414a" stroke-width="3" fill="#b8f5ed"/><path d="M532.23 581.88a6 6 0 0 1 6-6h128.44a6 6 0 0 1 6 6v32.83a6 6 0 0 1-6 6H538.23a6 6 0 0 1-6-6z" fill="none"/><use xlink:href="#b" transform="matrix(1,0,0,1,532.2314197459502,575.8828826881481) translate(23.82573784722223 28.41362847222222)"/><use xlink:href="#c" transform="matrix(1,0,0,1,532.2314197459502,575.8828826881481) translate(77.16775173611111 28.41362847222222)"/><path d="M649.5 377.55a6 6 0 0 1 6-6h16.94a6 6 0 0 1 6 6V568.3a6 6 0 0 1-6 6H655.5a6 6 0 0 1-6-6z" fill="none"/><path d="M649.5 574.3c5.5 0 10-4.47 10-10v-81.37c0-5.53 4.47-10 10-10-5.53 0-10-4.48-10-10v-81.38c0-5.53-4.5-10-10-10" stroke="#6db1ff" stroke-width="5" fill="none"/><g fill="none"><path d="M555.75 567.73a6 6 0 0 1-6 6H532.8a6 6 0 0 1-6-6V377.55a6 6 0 0 1 6-6h16.95a6 6 0 0 1 6 6z"/><path d="M555.75 371.55c-5.52 0-10 4.47-10 10v81.1c0 5.5-4.48 10-10 10 5.52 0 10 4.46 10 10v81.08c0 5.52 4.48 10 10 10" stroke="#6db1ff" stroke-width="5"/></g><path d="M649.32 452.96c0 27.03-20.9 48.95-46.7 48.95-25.8 0-46.7-21.9-46.7-48.94 0-27.03 20.9-48.94 46.7-48.94 25.8 0 46.7 21.9 46.7 48.94z" stroke="#3a414a" stroke-width="2" fill="#6db1ff"/><path d="M591.87 412.78a6 6 0 0 1 6-6h9.5a6 6 0 0 1 6 6v9.5a6 6 0 0 1-6 6h-9.5a6 6 0 0 1-6-6zM624.33 416.4a6 6 0 0 1 8.48 0l6.73 6.72a6 6 0 0 1 0 8.48l-6.72 6.72a6 6 0 0 1-8.47 0l-6.72-6.72a6 6 0 0 1 0-8.48zM626.5 448.56a6 6 0 0 1 6-6h9.5a6 6 0 0 1 6 6v9.5a6 6 0 0 1-6 6h-9.5a6 6 0 0 1-6-6zM639.53 475.02a6 6 0 0 1 0 8.5l-6.7 6.7a6 6 0 0 1-8.5 0l-6.72-6.7a6 6 0 0 1 0-8.5l6.73-6.72a6 6 0 0 1 8.5 0zM613.37 493.85a6 6 0 0 1-6 6h-9.5a6 6 0 0 1-6-6v-9.5a6 6 0 0 1 6-6h9.5a6 6 0 0 1 6 6zM580.9 490.22a6 6 0 0 1-8.48 0l-6.7-6.7a6 6 0 0 1 0-8.5l6.7-6.72a6 6 0 0 1 8.5 0l6.7 6.72a6 6 0 0 1 0 8.5zM578.73 458.06a6 6 0 0 1-6 6h-9.5a6 6 0 0 1-6-6v-9.5a6 6 0 0 1 6-6h9.5a6 6 0 0 1 6 6zM565.7 431.6a6 6 0 0 1 0-8.48l6.72-6.72a6 6 0 0 1 8.5 0l6.7 6.72a6 6 0 0 1 0 8.48l-6.7 6.72a6 6 0 0 1-8.5 0z" stroke="#3a414a" stroke-width="3" fill="#cfe4ff"/><path d="M626.5 453.3c0 13.84-10.7 25.05-23.88 25.05-13.2 0-23.9-11.2-23.9-25.04 0-13.8 10.7-25.02 23.9-25.02s23.9 11.2 23.9 25.03z" stroke="#3a414a" stroke-width="2" fill="#fff"/><path d="M581.12 536.73a6 6 0 0 1 6-6h31a6 6 0 0 1 6 6v31a6 6 0 0 1-6 6h-31a6 6 0 0 1-6-6z" stroke="#3a414a" stroke-width="3" fill="#cfe4ff"/><path d="M581.12 558.23a6 6 0 0 1 6-6h9.5a6 6 0 0 1 6 6v9.5a6 6 0 0 1-6 6h-9.5a6 6 0 0 1-6-6zM581.12 536.73a6 6 0 0 1 6-6h9.5a6 6 0 0 1 6 6v9.5a6 6 0 0 1-6 6h-9.5a6 6 0 0 1-6-6zM602.62 536.73a6 6 0 0 1 6-6h9.5a6 6 0 0 1 6 6v9.5a6 6 0 0 1-6 6h-9.5a6 6 0 0 1-6-6zM602.62 558.23a6 6 0 0 1 6-6h9.5a6 6 0 0 1 6 6v9.5a6 6 0 0 1-6 6h-9.5a6 6 0 0 1-6-6z" stroke="#3a414a" stroke-width="3" fill="#cfe4ff"/><path d="M583.42 552.23h38.4" stroke="#3a414a" stroke-width="3" fill="none"/><path d="M581.05 550.64l.76.9.9.76 1 .62h.02v.52h-2.95v-3.25zM624.47 553.44h-2.95v-.52l1-.62.9-.77.77-.9.27-.44z" stroke="#3a414a" stroke-width=".05" fill="#3a414a"/><path d="M551.75 377.55a6 6 0 0 1 6-6h89.74a6 6 0 0 1 6 6v20.47a6 6 0 0 1-6 6h-89.75a6 6 0 0 1-6-6z" fill="none"/><use xlink:href="#d" transform="matrix(1,0,0,1,551.7483300920413,371.54804667018857) translate(4.325737847222214 18.50043402777778)"/><path d="M533.96 351.12a6 6 0 0 1 6-6H668.4a6 6 0 0 1 6 6v29.3a6 6 0 0 1-6 6H539.96a6 6 0 0 1-6-6z" fill="none"/><use xlink:href="#e" transform="matrix(1,0,0,1,533.9568482106471,345.12021547317386) translate(10.490234375 18.50043402777778)"/><use xlink:href="#f" transform="matrix(1,0,0,1,533.9568482106471,345.12021547317386) translate(77.16775173611111 18.50043402777778)"/><path d="M699.9 350.68a6 6 0 0 1 6-6h226.66a6 6 0 0 1 6 6V659a6 6 0 0 1-6 6H705.9a6 6 0 0 1-6-6z" fill="none"/><use xlink:href="#g" transform="matrix(1,0,0,1,699.8942873855634,344.683008792651) translate(0 18.50043402777778)"/><use xlink:href="#h" transform="matrix(1,0,0,1,699.8942873855634,344.683008792651) translate(0 43.674045138888886)"/><use xlink:href="#i" transform="matrix(1,0,0,1,699.8942873855634,344.683008792651) translate(80.01302083333334 43.674045138888886)"/><use xlink:href="#j" transform="matrix(1,0,0,1,699.8942873855634,344.683008792651) translate(18 68.84765625)"/><use xlink:href="#k" transform="matrix(1,0,0,1,699.8942873855634,344.683008792651) translate(178.0260416666667 68.84765625)"/><use xlink:href="#l" transform="matrix(1,0,0,1,699.8942873855634,344.683008792651) translate(36.01 94.02126736111111)"/><use xlink:href="#m" transform="matrix(1,0,0,1,699.8942873855634,344.683008792651) translate(36.01 119.19487847222223)"/><use xlink:href="#n" transform="matrix(1,0,0,1,699.8942873855634,344.683008792651) translate(18 144.36848958333334)"/><use xlink:href="#o" transform="matrix(1,0,0,1,699.8942873855634,344.683008792651) translate(18 169.54210069444443)"/><use xlink:href="#k" transform="matrix(1,0,0,1,699.8942873855634,344.683008792651) translate(204.69704861111117 169.54210069444443)"/><use xlink:href="#p" transform="matrix(1,0,0,1,699.8942873855634,344.683008792651) translate(36.01 194.71571180555554)"/><use xlink:href="#q" transform="matrix(1,0,0,1,699.8942873855634,344.683008792651) translate(36.01 219.88932291666666)"/><use xlink:href="#r" transform="matrix(1,0,0,1,699.8942873855634,344.683008792651) translate(36.01 245.06293402777777)"/><use xlink:href="#s" transform="matrix(1,0,0,1,699.8942873855634,344.683008792651) translate(18 270.2365451388889)"/><use xlink:href="#t" transform="matrix(1,0,0,1,699.8942873855634,344.683008792651) translate(0 295.41015625)"/><path d="M735.62 451.94a6 6 0 0 1 6-6h42.73a6 6 0 0 1 6 6v13.4a6 6 0 0 1-6 6h-42.73a6 6 0 0 1-6-6z" fill="#6f7681"/><use xlink:href="#u" transform="matrix(1,0,0,1,735.6208214358578,445.9399815961163) translate(0 18.50043402777778)"/><path d="M830.08 425.16a6 6 0 0 1 6-6h25.8a6 6 0 0 1 6 6v13.4a6 6 0 0 1-6 6h-25.8a6 6 0 0 1-6-6z" fill="#ffe342"/><g><use xlink:href="#v" transform="matrix(1,0,0,1,830.0769851157818,419.155996626926) translate(0 18.50043402777778)"/></g><path d="M749.42 425.54a6 6 0 0 1 6-6h53.8a6 6 0 0 1 6 6v13.4a6 6 0 0 1-6 6h-53.8a6 6 0 0 1-6-6z" fill="#ff80df"/><g><use xlink:href="#w" transform="matrix(1,0,0,1,749.420821435858,419.53464435092) translate(0 18.50043402777778)"/></g><path d="M543.66 349.78a6 6 0 0 1 6-6h42.73a6 6 0 0 1 6 6v13.4a6 6 0 0 1-6 6h-42.74a6 6 0 0 1-6-6z" fill="#6f7681"/><g><use xlink:href="#u" transform="matrix(1,0,0,1,543.6588964389337,343.7833578126588) translate(0 18.50043402777778)"/></g><path d="M736.43 528.3a6 6 0 0 1 6-6h42.74a6 6 0 0 1 6 6v13.4a6 6 0 0 1-6 6h-42.74a6 6 0 0 1-6-6z" fill="#6f7681"/><g><use xlink:href="#u" transform="matrix(1,0,0,1,736.4351851851852,522.2973313774019) translate(0 18.50043402777778)"/></g><path d="M750 577.1a6 6 0 0 1 6-6h25.8a6 6 0 0 1 6 6v13.4a6 6 0 0 1-6 6H756a6 6 0 0 1-6-6z" fill="#ffe342"/><g><use xlink:href="#v" transform="matrix(1,0,0,1,750,571.0973313774018) translate(0 18.50043402777778)"/></g><path d="M803.2 577.9a6 6 0 0 1 6-6H863a6 6 0 0 1 6 6v13.4a6 6 0 0 1-6 6h-53.8a6 6 0 0 1-6-6z" fill="#ff80df"/><g><use xlink:href="#w" transform="matrix(1,0,0,1,803.2,571.8973313774019) translate(0 18.50043402777778)"/></g><g><path d="M887 367.24a6 6 0 0 1-6-6v-9.5a6 6 0 0 1 6-6h31a6 6 0 0 1 6 6v9.5a6 6 0 0 1-6 6z" stroke="#3a414a" stroke-width="3" fill="#fff"/></g><g><path d="M908.5 367.24a6 6 0 0 1-6-6v-9.5a6 6 0 0 1 6-6h9.5a6 6 0 0 1 6 6v9.5a6 6 0 0 1-6 6z" stroke="#3a414a" stroke-width="3" fill="#fff"/></g><g><path d="M887 367.24a6 6 0 0 1-6-6v-9.5a6 6 0 0 1 6-6h9.5a6 6 0 0 1 6 6v9.5a6 6 0 0 1-6 6z" stroke="#3a414a" stroke-width="3" fill="#fff"/></g><defs><path d="M711 13c-250 0-386-99-385-349l2-556H161v-190h181l88-282h176v282h385v190H606v530c-10 130 45 186 174 184 91-2 176-11 255-27v186C933-1 833 13 711 13" id="x"/><path d="M427-171c3 195 2 397 2 596H148V-846c1-83-4-168-8-236h272c10 49 14 118 15 176h4c59-114 151-197 316-197 291 0 385 259 385 560 0 243-65 433-220 521-50 28-109 42-176 42-162-2-253-78-309-191zm69-661c-91 113-92 463-1 586 46 62 145 101 225 54 96-57 118-191 119-351 0-123-18-215-53-276-46-82-128-115-220-74-25 12-48 33-70 61" id="y"/><path d="M794-190h353V0H118v-190h395v-702H223v-190h571v892zM513-1277v-207h281v207H513" id="z"/><path d="M1113-274C1038-96 884 20 626 20c-352 0-526-209-526-566 0-358 185-556 530-556 358 0 496 251 499 615H395c5 180 68 319 245 319 102 0 186-45 208-129zM857-663c-6-177-128-307-315-247-94 30-141 121-145 247h460" id="A"/><path d="M-5 220v-96h1238v96H-5" id="B"/><g id="a"><use transform="matrix(0.013020833333333334,0,0,0.013020833333333334,0,0)" xlink:href="#x"/><use transform="matrix(0.013020833333333334,0,0,0.013020833333333334,16.002604166666668,0)" xlink:href="#y"/><use transform="matrix(0.013020833333333334,0,0,0.013020833333333334,32.005208333333336,0)" xlink:href="#z"/><use transform="matrix(0.013020833333333334,0,0,0.013020833333333334,48.0078125,0)" xlink:href="#y"/><use transform="matrix(0.013020833333333334,0,0,0.013020833333333334,64.01041666666667,0)" xlink:href="#A"/><use transform="matrix(0.013020833333333334,0,0,0.013020833333333334,80.01302083333334,0)" xlink:href="#B"/><use transform="matrix(0.013020833333333334,0,0,0.013020833333333334,96.01562500000001,0)" xlink:href="#A"/><use transform="matrix(0.013020833333333334,0,0,0.013020833333333334,112.0182291666667,0)" xlink:href="#y"/><use transform="matrix(0.013020833333333334,0,0,0.013020833333333334,128.02083333333334,0)" xlink:href="#B"/><use transform="matrix(0.013020833333333334,0,0,0.013020833333333334,144.0234375,0)" xlink:href="#x"/></g><path fill="#008573" d="M865-914c-3-187-2-380-2-570h180v1261c0 76 1 155 6 223H877c-8-49-9-116-10-174h-5C801-44 708 26 530 26c-135 0-234-46-297-139s-95-232-95-419c0-377 131-566 392-566 176 0 271 63 335 184zm-286-51c-222 0-255 197-255 427 0 229 31 425 253 425 237 0 286-195 286-441 0-238-52-411-284-411" id="C"/><path fill="#008573" d="M617-1102c355 0 481 238 477 599H322c5 222 84 388 301 388 144 0 244-59 284-166l158 45C1002-72 854 20 623 20c-342 0-490-220-490-568 0-346 151-554 484-554zm291 461c-18-192-90-328-289-328-194 0-287 128-295 328h584" id="D"/><path fill="#008573" d="M715 0H502L69-1082h202c94 253 197 500 285 758 19 57 36 126 52 183 96-335 234-626 350-941h201" id="E"/><g id="b"><use transform="matrix(0.010850694444444444,0,0,0.010850694444444444,0,0)" xlink:href="#C"/><use transform="matrix(0.010850694444444444,0,0,0.010850694444444444,13.335503472222221,0)" xlink:href="#D"/><use transform="matrix(0.010850694444444444,0,0,0.010850694444444444,26.671006944444443,0)" xlink:href="#E"/></g><path fill="#008573" d="M365-904c58-129 161-200 334-200 130 0 228 46 293 138s98 233 98 420c0 189-34 331-102 425S824 20 698 20c-170 0-275-64-336-184 0 55-3 116-9 164H179c5-68 6-147 6-223v-1261h180c-2 193 4 394-4 580h4zm283 791c221 0 256-197 256-427 0-229-34-425-254-425-236 0-285 195-285 441 0 237 53 411 283 411" id="F"/><path fill="#008573" d="M528 20c-247 0-343-132-343-381v-721h180v686c-4 177 45 284 224 277 194-8 279-136 279-336v-627h181c3 360-6 732 6 1082H885c-4-54-7-126-8-185h-3C809-64 714 20 528 20" id="G"/><path fill="#008573" d="M839-1335c-182-6-269 67-259 253h491v142H580V0H400v-940H138v-142h262c-15-293 132-408 418-402 94 2 200 7 281 21v145c-75-10-177-14-260-17" id="H"/><g id="c"><use transform="matrix(0.010850694444444444,0,0,0.010850694444444444,0,0)" xlink:href="#F"/><use transform="matrix(0.010850694444444444,0,0,0.010850694444444444,13.335503472222221,0)" xlink:href="#G"/><use transform="matrix(0.010850694444444444,0,0,0.010850694444444444,26.671006944444443,0)" xlink:href="#H"/></g><path fill="#1071e5" d="M873-819c-18-114-119-146-250-146-163 0-245 50-245 151 0 151 170 148 294 185 182 54 388 94 388 320 0 240-189 325-439 329-245 4-410-69-454-268l159-31c24 133 136 168 295 165 144-2 270-31 270-171 0-164-195-160-331-202-167-52-350-87-350-299 0-218 173-315 413-313 220 2 373 77 412 260" id="I"/><path fill="#1071e5" d="M648-963c-190 6-283 138-283 336V0H185v-1484h181c-2 197 6 404-9 587h3c62-120 159-205 339-205 242 0 351 135 350 381V0H868v-695c1-168-57-273-220-268" id="J"/><path fill="#1071e5" d="M904-1102c199 0 220 177 220 381V0H956v-686c-3-114 0-215-60-264-70-33-125-4-158 71-26 56-39 140-39 252V0H531v-686c-3-114-1-215-61-264-78-41-136 24-157 84-24 69-39 159-39 259V0H105c-3-360 6-732-6-1082h149c6 50 3 123 8 175 36-100 83-195 216-195 135 0 166 79 196 196 42-105 93-196 236-196" id="K"/><path fill="#1071e5" d="M631 20c-350 0-501-215-501-562 0-355 162-560 502-560 250 0 399 118 446 323l-192 14c-23-124-109-196-262-196-242 0-305 171-305 415 1 245 61 427 304 427 151 0 248-77 267-215l190 12C1039-107 883 20 631 20" id="L"/><path fill="#1071e5" d="M615-1102c343 0 484 203 482 560-1 347-147 562-488 562-336 0-475-219-479-562-4-349 156-560 485-560zm-8 989c240 0 301-180 301-429 0-245-55-427-290-427-236 0-299 181-299 427 0 243 61 429 288 429" id="M"/><g id="d"><use transform="matrix(0.010850694444444444,0,0,0.010850694444444444,0,0)" xlink:href="#I"/><use transform="matrix(0.010850694444444444,0,0,0.010850694444444444,13.335503472222221,0)" xlink:href="#J"/><use transform="matrix(0.010850694444444444,0,0,0.010850694444444444,26.671006944444443,0)" xlink:href="#K"/><use transform="matrix(0.010850694444444444,0,0,0.010850694444444444,40.006510416666664,0)" xlink:href="#L"/><use transform="matrix(0.010850694444444444,0,0,0.010850694444444444,53.342013888888886,0)" xlink:href="#M"/><use transform="matrix(0.010850694444444444,0,0,0.010850694444444444,66.67751736111111,0)" xlink:href="#K"/><use transform="matrix(0.010850694444444444,0,0,0.010850694444444444,80.01302083333334,0)" xlink:href="#K"/></g><path d="M631 20c-350 0-501-215-501-562 0-355 162-560 502-560 250 0 399 118 446 323l-192 14c-23-124-109-196-262-196-242 0-305 171-305 415 1 245 61 427 304 427 151 0 248-77 267-215l190 12C1039-107 883 20 631 20" id="N"/><path d="M615-1102c343 0 484 203 482 560-1 347-147 562-488 562-336 0-475-219-479-562-4-349 156-560 485-560zm-8 989c240 0 301-180 301-429 0-245-55-427-290-427-236 0-299 181-299 427 0 243 61 429 288 429" id="O"/><path d="M904-1102c199 0 220 177 220 381V0H956v-686c-3-114 0-215-60-264-70-33-125-4-158 71-26 56-39 140-39 252V0H531v-686c-3-114-1-215-61-264-78-41-136 24-157 84-24 69-39 159-39 259V0H105c-3-360 6-732-6-1082h149c6 50 3 123 8 175 36-100 83-195 216-195 135 0 166 79 196 196 42-105 93-196 236-196" id="P"/><g id="e"><use transform="matrix(0.010850694444444444,0,0,0.010850694444444444,0,0)" xlink:href="#N"/><use transform="matrix(0.010850694444444444,0,0,0.010850694444444444,13.335503472222221,0)" xlink:href="#O"/><use transform="matrix(0.010850694444444444,0,0,0.010850694444444444,26.671006944444443,0)" xlink:href="#P"/><use transform="matrix(0.010850694444444444,0,0,0.010850694444444444,40.006510416666664,0)" xlink:href="#P"/></g><path d="M682 16c-209 0-323-80-324-285v-671H190v-142h170l58-282h120v282h432v142H538v652c2 114 60 155 182 155 106 0 209-16 297-34v137C921-4 806 16 682 16" id="Q"/><path d="M168 279c222 39 310-114 368-290L66-1082h192c120 299 249 590 362 896 115-301 235-597 351-896h190L705 0c-65 164-130 320-275 396-67 36-177 35-262 18V279" id="R"/><path d="M698-1104c312 3 392 244 392 558 0 315-82 566-392 566-169 0-277-65-331-184h-5c8 188 2 394 4 589H185V-858c0-76-1-156-6-224h175c6 52 9 120 10 178h4c58-122 150-202 330-200zm-49 991c225 0 255-203 255-433 0-225-32-419-253-419-236 0-285 192-285 441 0 237 53 411 283 411" id="S"/><path d="M617-1102c355 0 481 238 477 599H322c5 222 84 388 301 388 144 0 244-59 284-166l158 45C1002-72 854 20 623 20c-342 0-490-220-490-568 0-346 151-554 484-554zm291 461c-18-192-90-328-289-328-194 0-287 128-295 328h584" id="T"/><g id="f"><use transform="matrix(0.010850694444444444,0,0,0.010850694444444444,0,0)" xlink:href="#Q"/><use transform="matrix(0.010850694444444444,0,0,0.010850694444444444,13.335503472222221,0)" xlink:href="#R"/><use transform="matrix(0.010850694444444444,0,0,0.010850694444444444,26.671006944444443,0)" xlink:href="#S"/><use transform="matrix(0.010850694444444444,0,0,0.010850694444444444,40.006510416666664,0)" xlink:href="#T"/></g><path d="M934-1102c199 0 220 177 220 381V0H926c-2-260 10-533-4-785-4-72-14-138-83-138-34 0-61 27-81 81s-29 134-29 241V0H501c-2-260 9-533-5-785-4-72-13-138-82-138-46 0-65 47-80 93-21 67-30 155-30 248V0H75c-3-360 6-732-6-1082h209c6 50 3 123 8 175 36-100 83-195 216-195 135 0 166 79 196 196 42-105 93-196 236-196" id="U"/><path d="M775-193C708-75 621 20 439 20 226 20 106-93 106-306c0-251 170-341 417-346l223-4c4-143-12-264-148-264-103 0-141 58-150 153l-293-14c37-219 194-321 455-321 263 0 418 130 417 390v392c1 84 5 161 89 160 21 0 42-2 62-6v152c-57 15-108 27-180 26-145 0-202-73-217-205h-6zm-256 17c168 0 234-139 227-325-166 4-347-25-347 173 0 94 33 152 120 152" id="V"/><path d="M875-1102c70 0 148 7 206 17v237c-110-17-267-37-359 15-123 69-192 207-192 395V0H250c-10-367 32-789-52-1082h271c19 69 36 149 46 228h4c52-151 151-250 356-248" id="W"/><path d="M622-916c-112 2-200 14-200 111 0 90 89 101 168 121 234 58 514 77 514 368C1104-4 751 54 434 5 267-21 161-112 121-270l247-37c24 111 113 145 252 141 114-3 226-12 226-124 0-101-103-113-192-134-225-54-490-76-490-351 0-247 201-328 458-328 245 0 413 88 457 292l-249 26c-16-98-92-133-208-131" id="X"/><path d="M424-1484c-2 206 5 424-8 618h4c67-145 160-234 348-236 251-3 335 167 336 416V0H824v-621c0-150-23-276-173-270-163 7-227 142-227 312V0H143v-1484h281" id="Y"/><path d="M794-190h353V0H118v-190h395v-1104H223v-190h571v1294" id="Z"/><path d="M429-1484c1 190-1 388 0 572 54-116 155-191 317-191 300 0 386 257 386 563 0 241-73 429-226 518-49 28-106 42-169 42-162 0-251-81-306-196h-4c-1 59-5 127-15 176H140c4-67 9-153 8-236v-1248h281zm66 648c-93 114-92 466 1 585 35 45 77 79 142 79 64 0 112-31 148-92 69-115 68-440-2-561-39-68-131-111-221-70-25 11-46 32-68 59" id="aa"/><path d="M471 20c-247 0-336-169-336-415v-687h281v607c4 148 31 285 172 285 152 0 207-150 207-312v-580h281c4 359-9 736 8 1082H816c-7-63-11-146-12-215h-5C736-76 644 20 471 20" id="ab"/><path d="M844-1321c-130 0-195 53-191 182v57h443v190H653V0H373v-892H117v-190h256v-83c5-247 162-348 422-349 120-1 232 13 327 28v184c-84-10-183-19-278-19" id="ac"/><path d="M74-941c43-271 218-429 531-429 230 0 395 77 473 228 37 73 48 181 18 263-67 190-287 233-382 394-14 23-20 50-21 79H426c12-222 175-299 304-402 50-40 100-83 100-166 0-120-96-170-221-170-147 0-229 84-250 215zM418 0v-270h289V0H418" id="ad"/><g id="g"><use transform="matrix(0.010850694444444444,0,0,0.010850694444444444,0,0)" xlink:href="#U"/><use transform="matrix(0.010850694444444444,0,0,0.010850694444444444,13.335503472222221,0)" xlink:href="#V"/><use transform="matrix(0.010850694444444444,0,0,0.010850694444444444,26.671006944444443,0)" xlink:href="#W"/><use transform="matrix(0.010850694444444444,0,0,0.010850694444444444,40.006510416666664,0)" xlink:href="#X"/><use transform="matrix(0.010850694444444444,0,0,0.010850694444444444,53.342013888888886,0)" xlink:href="#Y"/><use transform="matrix(0.010850694444444444,0,0,0.010850694444444444,66.67751736111111,0)" xlink:href="#V"/><use transform="matrix(0.010850694444444444,0,0,0.010850694444444444,80.01302083333334,0)" xlink:href="#Z"/><use transform="matrix(0.010850694444444444,0,0,0.010850694444444444,93.34852430555557,0)" xlink:href="#Z"/><use transform="matrix(0.010850694444444444,0,0,0.010850694444444444,106.6840277777778,0)" xlink:href="#B"/><use transform="matrix(0.010850694444444444,0,0,0.010850694444444444,120.01953125000003,0)" xlink:href="#aa"/><use transform="matrix(0.010850694444444444,0,0,0.010850694444444444,133.35503472222226,0)" xlink:href="#ab"/><use transform="matrix(0.010850694444444444,0,0,0.010850694444444444,146.69053819444449,0)" xlink:href="#ac"/><use transform="matrix(0.010850694444444444,0,0,0.010850694444444444,160.0260416666667,0)" xlink:href="#ad"/></g><path d="M528 20c-247 0-343-132-343-381v-721h180v686c-4 177 45 284 224 277 194-8 279-136 279-336v-627h181c3 360-6 732 6 1082H885c-4-54-7-126-8-185h-3C809-64 714 20 528 20" id="ae"/><path d="M706-1102c241 0 344 136 343 381V0H868v-695c1-168-57-273-220-268-190 6-283 138-283 336V0H185c-3-360 6-732-6-1082h170c4 54 7 126 8 185h3c63-121 164-204 346-205" id="af"/><path d="M745-142h380V0H143v-142h422v-798H246v-142h499v940zM545-1292v-192h200v192H545" id="ag"/><g id="h"><use transform="matrix(0.010850694444444444,0,0,0.010850694444444444,0,0)" xlink:href="#ae"/><use transform="matrix(0.010850694444444444,0,0,0.010850694444444444,13.335503472222221,0)" xlink:href="#af"/><use transform="matrix(0.010850694444444444,0,0,0.010850694444444444,26.671006944444443,0)" xlink:href="#ag"/><use transform="matrix(0.010850694444444444,0,0,0.010850694444444444,40.006510416666664,0)" xlink:href="#O"/><use transform="matrix(0.010850694444444444,0,0,0.010850694444444444,53.342013888888886,0)" xlink:href="#af"/></g><path d="M677 91c1 136 41 195 171 195h213v139H796c-186-8-294-116-294-303v-351c-3-164-120-222-275-232v-137c155-10 275-69 275-231v-352c6-189 106-303 294-303h265v139H848c-126-3-171 67-171 195v346c-5 158-108 234-231 274 128 36 231 115 231 274V91" id="ah"/><use transform="matrix(0.010850694444444444,0,0,0.010850694444444444,0,0)" xlink:href="#ah" id="i"/><path d="M470 0v-305h289V0H470" id="ai"/><g id="j"><use transform="matrix(0.010850694444444444,0,0,0.010850694444444444,0,0)" xlink:href="#ai"/><use transform="matrix(0.010850694444444444,0,0,0.010850694444444444,13.335503472222221,0)" xlink:href="#U"/><use transform="matrix(0.010850694444444444,0,0,0.010850694444444444,26.671006944444443,0)" xlink:href="#V"/><use transform="matrix(0.010850694444444444,0,0,0.010850694444444444,40.006510416666664,0)" xlink:href="#W"/><use transform="matrix(0.010850694444444444,0,0,0.010850694444444444,53.342013888888886,0)" xlink:href="#X"/><use transform="matrix(0.010850694444444444,0,0,0.010850694444444444,66.67751736111111,0)" xlink:href="#Y"/><use transform="matrix(0.010850694444444444,0,0,0.010850694444444444,80.01302083333334,0)" xlink:href="#V"/><use transform="matrix(0.010850694444444444,0,0,0.010850694444444444,93.34852430555557,0)" xlink:href="#Z"/><use transform="matrix(0.010850694444444444,0,0,0.010850694444444444,106.6840277777778,0)" xlink:href="#Z"/><use transform="matrix(0.010850694444444444,0,0,0.010850694444444444,120.01953125000003,0)" xlink:href="#B"/><use transform="matrix(0.010850694444444444,0,0,0.010850694444444444,133.35503472222226,0)" xlink:href="#ac"/></g><path d="M410 425v-1909h547v139H590V286h367v139H410" id="aj"/><use transform="matrix(0.010850694444444444,0,0,0.010850694444444444,0,0)" xlink:href="#aj" id="k"/><path d="M839-1102c70 0 148 7 206 17v167c-112-18-268-36-363 15-129 69-208 203-208 395V0H294c-10-367 32-789-52-1082h171c21 75 41 161 48 250h5c67-152 152-270 373-270" id="ak"/><path d="M1000-272c3 95 12 159 101 161 21 0 41-3 59-7V-6c-44 10-86 16-139 16-141 2-191-84-197-217h-6C748-76 648 20 446 20c-207 0-318-120-318-322 0-266 194-348 454-354l236-4c12-191-40-305-222-305-140 0-220 47-232 172l-188-17c33-204 181-292 423-292 255 0 401 118 401 364v466zm-683-27c0 109 63 184 175 182 166-3 259-96 306-217 24-65 20-120 20-200-232 7-501-28-501 235" id="al"/><path d="M259 363l169-662h265L382 363H259" id="am"/><path d="M1048-32c-2 300-135 456-433 456-222-1-358-88-400-267l184-25c22 99 100 157 222 156 184-2 248-125 248-315 0-64 3-133-2-194C807-100 706-13 524-12c-306 0-381-228-381-537 0-318 85-550 400-550 164 0 271 83 325 202h3c1-60 3-134 12-185h171c-13 339-4 702-6 1050zM585-145c210-8 284-178 284-406 0-192-52-331-177-392-33-16-69-22-104-22-223 2-259 184-259 414 0 229 31 415 256 406" id="an"/><path d="M873-819c-18-114-119-146-250-146-163 0-245 50-245 151 0 151 170 148 294 185 182 54 388 94 388 320 0 240-189 325-439 329-245 4-410-69-454-268l159-31c24 133 136 168 295 165 144-2 270-31 270-171 0-164-195-160-331-202-167-52-350-87-350-299 0-218 173-315 413-313 220 2 373 77 412 260" id="ao"/><path d="M726 122c-7 187-108 303-294 303H167V286h213c129-2 172-59 172-195v-347c5-160 106-236 230-276-125-36-230-116-230-272v-346c2-128-45-195-172-195H167v-139h265c187 7 294 114 294 303v352c4 162 120 221 275 231v137c-155 10-275 68-275 232v351" id="ap"/><path d="M-5 220v-96h1238v96H-5" id="aq"/><path d="M285-1169c8 382 2 780 4 1169H129v-1349h237c86 239 188 461 253 720 69-258 169-481 255-720h225V0H937c2-390-5-788 6-1169-75 255-170 488-259 729H547c-90-240-185-475-262-729" id="ar"/><path d="M671-1188l264-103 45 132-282 73 185 250-119 72-150-258-156 256-119-72 189-248-280-73 45-134 267 107-12-297h136" id="as"/><g id="l"><use transform="matrix(0.010850694444444444,0,0,0.010850694444444444,0,0)" xlink:href="#ah"/><use transform="matrix(0.010850694444444444,0,0,0.010850694444444444,13.335503472222221,0)" xlink:href="#ag"/><use transform="matrix(0.010850694444444444,0,0,0.010850694444444444,26.671006944444443,0)" xlink:href="#af"/><use transform="matrix(0.010850694444444444,0,0,0.010850694444444444,40.006510416666664,0)" xlink:href="#Q"/><use transform="matrix(0.010850694444444444,0,0,0.010850694444444444,53.342013888888886,0)" xlink:href="#ak"/><use transform="matrix(0.010850694444444444,0,0,0.010850694444444444,66.67751736111111,0)" xlink:href="#al"/><use transform="matrix(0.010850694444444444,0,0,0.010850694444444444,80.01302083333334,0)" xlink:href="#am"/><use transform="matrix(0.010850694444444444,0,0,0.010850694444444444,93.34852430555557,0)" xlink:href="#an"/><use transform="matrix(0.010850694444444444,0,0,0.010850694444444444,106.6840277777778,0)" xlink:href="#N"/><use transform="matrix(0.010850694444444444,0,0,0.010850694444444444,120.01953125000003,0)" xlink:href="#ao"/><use transform="matrix(0.010850694444444444,0,0,0.010850694444444444,133.35503472222226,0)" xlink:href="#ap"/><use transform="matrix(0.010850694444444444,0,0,0.010850694444444444,146.69053819444449,0)" xlink:href="#aq"/><use transform="matrix(0.010850694444444444,0,0,0.010850694444444444,160.0260416666667,0)" xlink:href="#ar"/><use transform="matrix(0.010850694444444444,0,0,0.010850694444444444,173.36154513888894,0)" xlink:href="#as"/><use transform="matrix(0.010850694444444444,0,0,0.010850694444444444,186.69704861111117,0)" xlink:href="#am"/></g><path d="M1018 0H814c-67-224-138-444-200-673C552-442 476-224 407 0H204L21-1082h178c43 310 105 601 126 933 54-225 128-425 193-638h193c63 212 134 415 185 638 22-336 90-622 136-933h176" id="at"/><g id="m"><use transform="matrix(0.010850694444444444,0,0,0.010850694444444444,0,0)" xlink:href="#N"/><use transform="matrix(0.010850694444444444,0,0,0.010850694444444444,13.335503472222221,0)" xlink:href="#O"/><use transform="matrix(0.010850694444444444,0,0,0.010850694444444444,26.671006944444443,0)" xlink:href="#P"/><use transform="matrix(0.010850694444444444,0,0,0.010850694444444444,40.006510416666664,0)" xlink:href="#P"/><use transform="matrix(0.010850694444444444,0,0,0.010850694444444444,53.342013888888886,0)" xlink:href="#aq"/><use transform="matrix(0.010850694444444444,0,0,0.010850694444444444,66.67751736111111,0)" xlink:href="#at"/><use transform="matrix(0.010850694444444444,0,0,0.010850694444444444,80.01302083333334,0)" xlink:href="#ak"/><use transform="matrix(0.010850694444444444,0,0,0.010850694444444444,93.34852430555557,0)" xlink:href="#al"/><use transform="matrix(0.010850694444444444,0,0,0.010850694444444444,106.6840277777778,0)" xlink:href="#S"/><use transform="matrix(0.010850694444444444,0,0,0.010850694444444444,120.01953125000003,0)" xlink:href="#ao"/><use transform="matrix(0.010850694444444444,0,0,0.010850694444444444,133.35503472222226,0)" xlink:href="#as"/></g><path d="M270 425V286h367v-1631H270v-139h547V425H270" id="au"/><g id="n"><use transform="matrix(0.010850694444444444,0,0,0.010850694444444444,0,0)" xlink:href="#au"/><use transform="matrix(0.010850694444444444,0,0,0.010850694444444444,13.335503472222221,0)" xlink:href="#am"/></g><path d="M768-1103c247 0 336 167 336 416V0H824v-619c-3-164-24-273-171-273-164 0-229 142-229 312V0H143c-4-359 9-736-8-1082h268c7 63 12 146 13 215h4c67-145 160-236 348-236" id="av"/><g id="o"><use transform="matrix(0.010850694444444444,0,0,0.010850694444444444,0,0)" xlink:href="#ai"/><use transform="matrix(0.010850694444444444,0,0,0.010850694444444444,13.335503472222221,0)" xlink:href="#ab"/><use transform="matrix(0.010850694444444444,0,0,0.010850694444444444,26.671006944444443,0)" xlink:href="#av"/><use transform="matrix(0.010850694444444444,0,0,0.010850694444444444,40.006510416666664,0)" xlink:href="#U"/><use transform="matrix(0.010850694444444444,0,0,0.010850694444444444,53.342013888888886,0)" xlink:href="#V"/><use transform="matrix(0.010850694444444444,0,0,0.010850694444444444,66.67751736111111,0)" xlink:href="#W"/><use transform="matrix(0.010850694444444444,0,0,0.010850694444444444,80.01302083333334,0)" xlink:href="#X"/><use transform="matrix(0.010850694444444444,0,0,0.010850694444444444,93.34852430555557,0)" xlink:href="#Y"/><use transform="matrix(0.010850694444444444,0,0,0.010850694444444444,106.6840277777778,0)" xlink:href="#V"/><use transform="matrix(0.010850694444444444,0,0,0.010850694444444444,120.01953125000003,0)" xlink:href="#Z"/><use transform="matrix(0.010850694444444444,0,0,0.010850694444444444,133.35503472222226,0)" xlink:href="#Z"/><use transform="matrix(0.010850694444444444,0,0,0.010850694444444444,146.69053819444449,0)" xlink:href="#B"/><use transform="matrix(0.010850694444444444,0,0,0.010850694444444444,160.0260416666667,0)" xlink:href="#ac"/></g><g id="p"><use transform="matrix(0.010850694444444444,0,0,0.010850694444444444,0,0)" xlink:href="#N"/><use transform="matrix(0.010850694444444444,0,0,0.010850694444444444,13.335503472222221,0)" xlink:href="#O"/><use transform="matrix(0.010850694444444444,0,0,0.010850694444444444,26.671006944444443,0)" xlink:href="#P"/><use transform="matrix(0.010850694444444444,0,0,0.010850694444444444,40.006510416666664,0)" xlink:href="#P"/><use transform="matrix(0.010850694444444444,0,0,0.010850694444444444,53.342013888888886,0)" xlink:href="#aq"/><use transform="matrix(0.010850694444444444,0,0,0.010850694444444444,66.67751736111111,0)" xlink:href="#ae"/><use transform="matrix(0.010850694444444444,0,0,0.010850694444444444,80.01302083333334,0)" xlink:href="#af"/><use transform="matrix(0.010850694444444444,0,0,0.010850694444444444,93.34852430555557,0)" xlink:href="#at"/><use transform="matrix(0.010850694444444444,0,0,0.010850694444444444,106.6840277777778,0)" xlink:href="#ak"/><use transform="matrix(0.010850694444444444,0,0,0.010850694444444444,120.01953125000003,0)" xlink:href="#al"/><use transform="matrix(0.010850694444444444,0,0,0.010850694444444444,133.35503472222226,0)" xlink:href="#S"/><use transform="matrix(0.010850694444444444,0,0,0.010850694444444444,146.69053819444449,0)" xlink:href="#ao"/><use transform="matrix(0.010850694444444444,0,0,0.010850694444444444,160.0260416666667,0)" xlink:href="#as"/><use transform="matrix(0.010850694444444444,0,0,0.010850694444444444,173.36154513888894,0)" xlink:href="#am"/></g><path d="M715 0H502L69-1082h202c94 253 197 500 285 758 19 57 36 126 52 183 96-335 234-626 350-941h201" id="aw"/><path d="M594-1370c273 0 479 100 479 368 0 320-313 334-421 548-13 28-20 60-21 97H456c9-310 312-328 416-543 13-27 19-59 19-94 0-165-127-226-295-226-189 0-295 102-318 272L94-960c39-259 205-410 500-410zM448 0v-201h195V0H448" id="ax"/><g id="q"><use transform="matrix(0.010850694444444444,0,0,0.010850694444444444,0,0)" xlink:href="#N"/><use transform="matrix(0.010850694444444444,0,0,0.010850694444444444,13.335503472222221,0)" xlink:href="#O"/><use transform="matrix(0.010850694444444444,0,0,0.010850694444444444,26.671006944444443,0)" xlink:href="#af"/><use transform="matrix(0.010850694444444444,0,0,0.010850694444444444,40.006510416666664,0)" xlink:href="#aw"/><use transform="matrix(0.010850694444444444,0,0,0.010850694444444444,53.342013888888886,0)" xlink:href="#T"/><use transform="matrix(0.010850694444444444,0,0,0.010850694444444444,66.67751736111111,0)" xlink:href="#ak"/><use transform="matrix(0.010850694444444444,0,0,0.010850694444444444,80.01302083333334,0)" xlink:href="#Q"/><use transform="matrix(0.010850694444444444,0,0,0.010850694444444444,93.34852430555557,0)" xlink:href="#ax"/><use transform="matrix(0.010850694444444444,0,0,0.010850694444444444,106.6840277777778,0)" xlink:href="#am"/></g><path d="M604-135c236 0 291-142 291-376v-838h190v859c5 340-142 510-480 510-326 0-463-164-463-492v-877h191v851c-3 222 46 363 271 363" id="ay"/><g id="r"><use transform="matrix(0.010850694444444444,0,0,0.010850694444444444,0,0)" xlink:href="#ah"/><use transform="matrix(0.010850694444444444,0,0,0.010850694444444444,13.335503472222221,0)" xlink:href="#an"/><use transform="matrix(0.010850694444444444,0,0,0.010850694444444444,26.671006944444443,0)" xlink:href="#N"/><use transform="matrix(0.010850694444444444,0,0,0.010850694444444444,40.006510416666664,0)" xlink:href="#ao"/><use transform="matrix(0.010850694444444444,0,0,0.010850694444444444,53.342013888888886,0)" xlink:href="#am"/><use transform="matrix(0.010850694444444444,0,0,0.010850694444444444,66.67751736111111,0)" xlink:href="#ag"/><use transform="matrix(0.010850694444444444,0,0,0.010850694444444444,80.01302083333334,0)" xlink:href="#af"/><use transform="matrix(0.010850694444444444,0,0,0.010850694444444444,93.34852430555557,0)" xlink:href="#Q"/><use transform="matrix(0.010850694444444444,0,0,0.010850694444444444,106.6840277777778,0)" xlink:href="#ak"/><use transform="matrix(0.010850694444444444,0,0,0.010850694444444444,120.01953125000003,0)" xlink:href="#al"/><use transform="matrix(0.010850694444444444,0,0,0.010850694444444444,133.35503472222226,0)" xlink:href="#ap"/><use transform="matrix(0.010850694444444444,0,0,0.010850694444444444,146.69053819444449,0)" xlink:href="#aq"/><use transform="matrix(0.010850694444444444,0,0,0.010850694444444444,160.0260416666667,0)" xlink:href="#ay"/><use transform="matrix(0.010850694444444444,0,0,0.010850694444444444,173.36154513888894,0)" xlink:href="#as"/></g><use transform="matrix(0.010850694444444444,0,0,0.010850694444444444,0,0)" xlink:href="#au" id="s"/><path d="M496-783v-299h235v299H496zM352 363l169-662h265L475 363H352" id="az"/><g id="t"><use transform="matrix(0.010850694444444444,0,0,0.010850694444444444,0,0)" xlink:href="#ap"/><use transform="matrix(0.010850694444444444,0,0,0.010850694444444444,13.335503472222221,0)" xlink:href="#az"/></g><g id="u"><use transform="matrix(0.010850694444444444,0,0,0.010850694444444444,0,0)" xlink:href="#N"/><use transform="matrix(0.010850694444444444,0,0,0.010850694444444444,13.335503472222221,0)" xlink:href="#O"/><use transform="matrix(0.010850694444444444,0,0,0.010850694444444444,26.671006944444443,0)" xlink:href="#P"/><use transform="matrix(0.010850694444444444,0,0,0.010850694444444444,40.006510416666664,0)" xlink:href="#P"/></g><g id="v"><use transform="matrix(0.010850694444444444,0,0,0.010850694444444444,0,0)" xlink:href="#an"/><use transform="matrix(0.010850694444444444,0,0,0.010850694444444444,13.335503472222221,0)" xlink:href="#N"/><use transform="matrix(0.010850694444444444,0,0,0.010850694444444444,26.671006944444443,0)" xlink:href="#ao"/></g><g id="w"><use transform="matrix(0.010850694444444444,0,0,0.010850694444444444,0,0)" xlink:href="#ag"/><use transform="matrix(0.010850694444444444,0,0,0.010850694444444444,13.335503472222221,0)" xlink:href="#af"/><use transform="matrix(0.010850694444444444,0,0,0.010850694444444444,26.671006944444443,0)" xlink:href="#Q"/><use transform="matrix(0.010850694444444444,0,0,0.010850694444444444,40.006510416666664,0)" xlink:href="#ak"/><use transform="matrix(0.010850694444444444,0,0,0.010850694444444444,53.342013888888886,0)" xlink:href="#al"/></g></defs></g></svg>