<svg xmlns="http://www.w3.org/2000/svg" xmlns:xlink="http://www.w3.org/1999/xlink" xmlns:lucid="lucid" width="834.9" height="293.89"><g transform="translate(-270.71536910140543 -393.5706544910218)" lucid:page-tab-id="sszhamPSBTjZ"><path d="M853.85 529.67l-48.1-43.3" stroke="#6f7681" stroke-width="3" fill="none"/><path d="M865.57 540.22l-13.7-6.1 6.2-6.9z" stroke="#6f7681" stroke-width="3" fill="#6f7681"/><path d="M805.78 486.4l-1.14-1.04M853.85 441.06l-48.1 43.3" stroke="#6f7681" stroke-width="3" fill="none"/><path d="M865.57 430.5l-7.5 13-6.2-6.9z" stroke="#6f7681" stroke-width="3" fill="#6f7681"/><path d="M805.78 484.33l-1.14 1.03" stroke="#6f7681" stroke-width="3" fill="none"/><path d="M869.17 550a6 6 0 0 1-6 6H837.9a6 6 0 0 1-6-6v-13.06a6 6 0 0 1 6-6h25.27a6 6 0 0 1 6 6zM869.17 491.9a6 6 0 0 1-6 6H837.9a6 6 0 0 1-6-6v-13.06a6 6 0 0 1 6-6h25.27a6 6 0 0 1 6 6zM869.17 433.78a6 6 0 0 1-6 6H837.9a6 6 0 0 1-6-6v-13.05a6 6 0 0 1 6-6h25.27a6 6 0 0 1 6 6z" stroke="#000" stroke-opacity="0" stroke-width="3" fill-opacity="0"/><path d="M508.27 428.2l48.1 43.3" stroke="#6f7681" stroke-width="3" fill="none"/><path d="M509.3 427.13l-1.98 2.2-.16-.14v-3.98z" stroke="#6f7681" stroke-width=".05" fill="#6f7681"/><path d="M568.1 482.06l-13.72-6.1 6.2-6.9z" stroke="#6f7681" stroke-width="3" fill="#6f7681"/><path d="M508.27 542.4l48.1-43.3M508.3 542.38l-1.14 1.03" stroke="#6f7681" stroke-width="3" fill="none"/><path d="M568.1 488.55l-7.5 13-6.22-6.9z" stroke="#6f7681" stroke-width="3" fill="#6f7681"/><path d="M507.16 420.68a6 6 0 0 1 6-6h25.26a6 6 0 0 1 6 6v13.05a6 6 0 0 1-6 6h-25.26a6 6 0 0 1-6-6zM507.16 449.73a6 6 0 0 1 6-6h25.26a6 6 0 0 1 6 6v13.05a6 6 0 0 1-6 6h-25.26a6 6 0 0 1-6-6z" stroke="#000" stroke-opacity="0" stroke-width="3" fill-opacity="0"/><use xlink:href="#a" transform="matrix(1,0,0,1,512.1603961532252,448.72667234829083) translate(14 18.50043402777778)"/><path d="M624.8 517.05c-8.75 0-15.85-14.2-15.85-31.7s7.1-31.68 15.84-31.68h126.74c8.75 0 15.84 14.2 15.84 31.7s-7.1 31.68-15.84 31.68z" fill="#fff"/><path d="M614.55 509.37l-.92-1.53-2.2-5.47-.86-3.72m-1.2-7.55l-.42-5.74.45-5.73m1.17-7.56l.95-4 2.2-5.4.82-1.32m4.9-5.82l1.48-.9 1.36-.56 1.3-.3 1.2-.1h6.35m8.45 0h12.68m8.45 0h12.68m8.45 0h12.67m8.45 0h12.68m8.45 0h12.67m8.45 0h6.34l1.27.1 1.3.32 1.38.56 1.4.87m4.9 5.82l.92 1.53 2.2 5.47.86 3.72m1.2 7.56l.42 5.73-.44 5.74m-1.17 7.55l-.96 4.02-2.2 5.37-.8 1.34m-4.9 5.82l-1.48.9-1.37.55-1.3.3-1.2.1h-6.35m-8.45 0h-12.67m-8.45 0h-12.68m-8.45 0h-12.67m-8.45 0H660.7m-8.44 0h-12.68m-8.45 0h-6.34l-1.28-.1-1.3-.32-1.37-.57-1.4-.87" stroke="#3a414a" stroke-width="4" fill="none"/><path d="M751.54 517.05c-8.75 0-15.85-14.2-15.85-31.7s7.1-31.68 15.84-31.68" fill="none"/><path d="M751.54 517.05l-1.28-.1-1.3-.32-1.36-.57-1.4-.87m-4.9-5.83l-.93-1.53-2.2-5.47-.86-3.72m-1.18-7.55l-.43-5.74.44-5.73m1.17-7.56l.96-4 2.2-5.4.83-1.32m4.9-5.82l1.46-.9 1.37-.56 1.3-.3 1.2-.1" stroke="#3a414a" stroke-width="4" fill="none"/><path d="M804.64 491.9a6 6 0 0 1-6 6h-25.26a6 6 0 0 1-6-6v-13.06a6 6 0 0 1 6-6h25.26a6 6 0 0 1 6 6z" stroke="#000" stroke-opacity="0" stroke-width="3" fill-opacity="0"/><path d="M775.55 485.36h-4.67" stroke="#3a414a" stroke-width="7" fill="none"/><path d="M793.3 485.36L779.06 490v-9.27z" stroke="#3a414a" stroke-width="7" fill="#3a414a"/><path d="M770.97 488.84h-3.6v-6.95h3.6z" stroke="#3a414a" stroke-width=".05" fill="#3a414a"/><path d="M746.38 496.05a6 6 0 0 1-6-6v-9.5a6 6 0 0 1 6-6h9.5a6 6 0 0 1 6 6v9.5a6 6 0 0 1-6 6z" stroke="#3a414a" stroke-width="3" fill="#fff"/><path d="M698.12 485.36c0 11.52-9.34 20.86-20.86 20.86s-20.86-9.34-20.86-20.86 9.34-20.86 20.86-20.86 20.86 9.34 20.86 20.86z" stroke="#000" stroke-opacity="0" stroke-width="2" fill="#ffe342"/><use xlink:href="#b" transform="matrix(1,0,0,1,661.4006480961535,469.50431138322614) translate(9.33224826388889 22.50043402777778)"/><path d="M571.7 478.78a6 6 0 0 1 6-6h25.25a6 6 0 0 1 6 6v13.05a6 6 0 0 1-6 6H577.7a6 6 0 0 1-6-6z" stroke="#000" stroke-opacity="0" stroke-width="3" fill-opacity="0"/><path d="M575.2 485.3h4.66M575.28 485.3h-3.6" stroke="#3a414a" stroke-width="7" fill="none"/><path d="M597.63 485.3l-14.27 4.64v-9.27z" stroke="#3a414a" stroke-width="7" fill="#3a414a"/><path d="M327.32 458.95c-8.75 0-15.85-14.2-15.85-31.7s7.1-31.68 15.85-31.68h126.74c8.75 0 15.84 14.2 15.84 31.7s-7.1 31.68-15.84 31.68z" fill="#fff"/><path d="M317.07 451.27l-.92-1.53-2.2-5.47-.86-3.72m-1.2-7.56l-.43-5.74.45-5.74m1.17-7.55l.94-4.02 2.2-5.37.83-1.34m4.9-5.82l1.47-.9 1.36-.55 1.3-.3 1.22-.1h6.33m8.45 0h12.68m8.45 0h12.67m8.45 0h12.67m8.45 0h12.68m8.45 0h12.67m8.45 0h6.34l1.27.1 1.3.32 1.37.56 1.4.87m4.9 5.82l.92 1.53 2.2 5.47.86 3.72m1.2 7.55l.42 5.74-.44 5.73m-1.17 7.55l-.97 4-2.2 5.4-.82 1.32m-4.9 5.82l-1.46.9-1.37.55-1.3.3-1.2.1h-6.35m-8.45 0H426.6m-8.45 0h-12.68m-8.45 0h-12.67m-8.45 0h-12.67m-8.45 0H342.1m-8.45 0h-6.33l-1.28-.1-1.3-.32-1.37-.57-1.4-.87" stroke="#3a414a" stroke-width="4" fill="none"/><path d="M454.06 458.95c-8.75 0-15.84-14.2-15.84-31.7s7.1-31.68 15.84-31.68" fill="none"/><path d="M454.06 458.95l-1.27-.1-1.3-.32-1.38-.57-1.4-.87m-4.9-5.83l-.93-1.53-2.2-5.47-.87-3.72m-1.2-7.56l-.4-5.74.43-5.74m1.17-7.55l.95-4.02 2.2-5.37.83-1.34m4.9-5.82l1.48-.9 1.37-.55 1.3-.3 1.2-.1" stroke="#3a414a" stroke-width="4" fill="none"/><path d="M507.16 433.78a6 6 0 0 1-6 6H475.9a6 6 0 0 1-6-6v-13.05a6 6 0 0 1 6-6h25.26a6 6 0 0 1 6 6z" stroke="#000" stroke-opacity="0" stroke-width="3" fill-opacity="0"/><path d="M478.07 427.26h-4.67" stroke="#3a414a" stroke-width="7" fill="none"/><path d="M495.83 427.26l-14.26 4.63v-9.28z" stroke="#3a414a" stroke-width="7" fill="#3a414a"/><path d="M473.5 430.73h-3.6v-6.95h3.6z" stroke="#3a414a" stroke-width=".05" fill="#3a414a"/><path d="M448.9 437.95a6 6 0 0 1-6-6v-9.5a6 6 0 0 1 6-6h9.5a6 6 0 0 1 6 6v9.5a6 6 0 0 1-6 6z" stroke="#3a414a" stroke-width="3" fill="#fff"/><path d="M400.64 427.26c0 11.52-9.34 20.86-20.86 20.86s-20.86-9.34-20.86-20.86 9.34-20.86 20.86-20.86 20.86 9.34 20.86 20.86z" stroke="#000" stroke-opacity="0" stroke-width="2" fill="#ffe342"/><use xlink:href="#c" transform="matrix(1,0,0,1,363.921864056958,411.40079266997924) translate(-10.671006944444443 21.91362847222222)"/><path d="M274.2 420.68a6 6 0 0 1 6-6h25.27a6 6 0 0 1 6 6v13.05a6 6 0 0 1-6 6H280.2a6 6 0 0 1-6-6z" stroke="#000" stroke-opacity="0" stroke-width="3" fill-opacity="0"/><path d="M277.7 427.2h4.68M277.8 427.2h-3.6" stroke="#3a414a" stroke-width="7" fill="none"/><path d="M300.15 427.2l-14.27 4.64v-9.27z" stroke="#3a414a" stroke-width="7" fill="#3a414a"/><path d="M327.32 575.15c-8.75 0-15.85-14.18-15.85-31.68s7.1-31.7 15.85-31.7h126.74c8.75 0 15.84 14.2 15.84 31.7s-7.1 31.68-15.84 31.68z" fill="#fff"/><path d="M317.07 567.48l-.92-1.53-2.2-5.48-.86-3.72m-1.2-7.55l-.43-5.73.45-5.74m1.17-7.55l.94-4.02 2.2-5.37.83-1.35m4.9-5.82l1.47-.9 1.36-.56 1.3-.3 1.22-.1h6.33m8.45 0h12.68m8.45 0h12.67m8.45 0h12.67m8.45 0h12.68m8.45 0h12.67m8.45 0h6.34l1.27.1 1.3.32 1.37.57 1.4.87m4.9 5.8l.92 1.55 2.2 5.46.86 3.72m1.2 7.55l.42 5.74-.44 5.73m-1.17 7.56l-.97 4-2.2 5.38-.82 1.34m-4.9 5.82l-1.46.9-1.37.56-1.3.3-1.2.1h-6.35m-8.45 0H426.6m-8.45 0h-12.68m-8.45 0h-12.67m-8.45 0h-12.67m-8.45 0H342.1m-8.45 0h-6.33l-1.28-.1-1.3-.32-1.37-.57-1.4-.87" stroke="#3a414a" stroke-width="4" fill="none"/><path d="M454.06 575.15c-8.75 0-15.84-14.18-15.84-31.68s7.1-31.7 15.84-31.7" fill="none"/><path d="M454.06 575.15l-1.28-.1-1.3-.3-1.36-.58-1.4-.87m-4.9-5.82l-.93-1.53-2.2-5.48-.87-3.72m-1.2-7.55l-.4-5.73.43-5.74m1.17-7.55l.95-4.02 2.2-5.37.83-1.35m4.9-5.82l1.48-.9 1.37-.56 1.3-.3 1.2-.1" stroke="#3a414a" stroke-width="4" fill="none"/><path d="M507.16 550a6 6 0 0 1-6 6H475.9a6 6 0 0 1-6-6v-13.06a6 6 0 0 1 6-6h25.26a6 6 0 0 1 6 6z" stroke="#000" stroke-opacity="0" stroke-width="3" fill-opacity="0"/><path d="M478.07 543.47h-4.67" stroke="#3a414a" stroke-width="7" fill="none"/><path d="M495.83 543.47l-14.26 4.63v-9.27z" stroke="#3a414a" stroke-width="7" fill="#3a414a"/><path d="M473.5 546.94h-3.6V540h3.6z" stroke="#3a414a" stroke-width=".05" fill="#3a414a"/><path d="M448.9 554.16a6 6 0 0 1-6-6v-9.5a6 6 0 0 1 6-6h9.5a6 6 0 0 1 6 6v9.5a6 6 0 0 1-6 6z" stroke="#3a414a" stroke-width="3" fill="#fff"/><path d="M400.64 543.47c0 11.5-9.34 20.85-20.86 20.85s-20.86-9.34-20.86-20.85c0-11.52 9.34-20.86 20.86-20.86s20.86 9.35 20.86 20.87z" stroke="#000" stroke-opacity="0" stroke-width="2" fill="#ffe342"/><use xlink:href="#d" transform="matrix(1,0,0,1,363.92186405695804,527.6078300964733) translate(-10.671006944444443 21.91362847222222)"/><path d="M274.2 536.88a6 6 0 0 1 6-6h25.27a6 6 0 0 1 6 6v13.05a6 6 0 0 1-6 6H280.2a6 6 0 0 1-6-6z" stroke="#000" stroke-opacity="0" stroke-width="3" fill-opacity="0"/><path d="M277.7 543.4h4.68M277.8 543.4h-3.6" stroke="#3a414a" stroke-width="7" fill="none"/><path d="M300.15 543.4l-14.27 4.64v-9.27z" stroke="#3a414a" stroke-width="7" fill="#3a414a"/><path d="M922.27 458.95c-8.75 0-15.84-14.2-15.84-31.7s7.1-31.68 15.84-31.68h126.75c8.75 0 15.84 14.2 15.84 31.7s-7.1 31.68-15.84 31.68z" fill="#fff"/><path d="M912.03 451.27l-.92-1.53-2.2-5.47-.85-3.72m-1.2-7.56l-.42-5.74.44-5.74m1.18-7.55l.95-4 2.2-5.4.82-1.33m4.9-5.82l1.48-.9 1.36-.55 1.3-.3 1.2-.1h6.35m8.46 0h12.68m8.44 0h12.68m8.45 0H992m8.45 0h12.68m8.46 0h12.67m8.45 0h6.34l1.27.1 1.3.32 1.36.56 1.4.87m4.9 5.82l.92 1.53 2.2 5.47.86 3.72m1.2 7.55l.42 5.74-.44 5.73m-1.17 7.55l-.96 4-2.22 5.4-.8 1.32m-4.9 5.82l-1.48.9-1.37.55-1.3.3-1.2.1h-6.35m-8.45 0h-12.67m-8.45 0h-12.67m-8.45 0H979.3m-8.44 0h-12.68m-8.44 0h-12.68m-8.45 0h-6.33l-1.27-.1-1.3-.32-1.37-.57-1.4-.87" stroke="#3a414a" stroke-width="4" fill="none"/><path d="M1049.02 458.95c-8.75 0-15.85-14.2-15.85-31.7s7.1-31.68 15.85-31.68" fill="none"/><path d="M1049.02 458.95l-1.28-.1-1.3-.32-1.37-.57-1.4-.87m-4.9-5.83l-.92-1.53-2.2-5.47-.86-3.72m-1.2-7.56l-.43-5.74.45-5.74m1.17-7.55l.94-4 2.2-5.4.83-1.33m4.9-5.82l1.47-.9 1.36-.55 1.3-.3 1.22-.1" stroke="#3a414a" stroke-width="4" fill="none"/><path d="M1102.12 433.78a6 6 0 0 1-6 6h-25.26a6 6 0 0 1-6-6v-13.05a6 6 0 0 1 6-6h25.26a6 6 0 0 1 6 6z" stroke="#000" stroke-opacity="0" stroke-width="3" fill-opacity="0"/><path d="M1073.03 427.26h-4.67" stroke="#3a414a" stroke-width="7" fill="none"/><path d="M1090.8 427.26l-14.27 4.63v-9.28z" stroke="#3a414a" stroke-width="7" fill="#3a414a"/><path d="M1068.45 430.73h-3.6v-6.95h3.6z" stroke="#3a414a" stroke-width=".05" fill="#3a414a"/><path d="M1043.86 437.95a6 6 0 0 1-6-6v-9.5a6 6 0 0 1 6-6h9.5a6 6 0 0 1 6 6v9.5a6 6 0 0 1-6 6z" stroke="#3a414a" stroke-width="3" fill="#fff"/><path d="M995.6 427.26c0 11.52-9.34 20.86-20.86 20.86s-20.86-9.34-20.86-20.86 9.34-20.86 20.86-20.86 20.86 9.34 20.86 20.86z" stroke="#000" stroke-opacity="0" stroke-width="2" fill="#ffe342"/><use xlink:href="#e" transform="matrix(1,0,0,1,958.8794321352481,411.40079266997935) translate(-10.671006944444443 21.91362847222222)"/><path d="M869.17 420.68a6 6 0 0 1 6-6h25.26a6 6 0 0 1 6 6v13.05a6 6 0 0 1-6 6h-25.26a6 6 0 0 1-6-6z" stroke="#000" stroke-opacity="0" stroke-width="3" fill-opacity="0"/><path d="M872.67 427.2h4.67M872.76 427.2h-3.6" stroke="#3a414a" stroke-width="7" fill="none"/><path d="M895.1 427.2l-14.26 4.64v-9.27z" stroke="#3a414a" stroke-width="7" fill="#3a414a"/><path d="M922.27 572.92c-8.75 0-15.84-14.2-15.84-31.7s7.1-31.68 15.84-31.68h126.75c8.75 0 15.84 14.2 15.84 31.7s-7.1 31.68-15.84 31.68z" fill="#fff"/><path d="M912.03 565.24l-.92-1.53-2.2-5.46-.85-3.72m-1.2-7.55l-.42-5.74.44-5.73m1.18-7.56l.95-4 2.2-5.4.82-1.32m4.9-5.82l1.48-.9 1.36-.56 1.3-.3 1.2-.1h6.35m8.46 0h12.67m8.45 0h12.68m8.45 0H992m8.45 0h12.68m8.46 0h12.67m8.45 0h6.34l1.27.1 1.3.32 1.36.57 1.4.87m4.9 5.82l.92 1.53 2.2 5.47.86 3.72m1.2 7.55l.42 5.73-.44 5.73m-1.18 7.56l-.95 4-2.22 5.4-.8 1.32m-4.9 5.82l-1.5.9-1.35.56-1.3.3-1.2.1h-6.35m-8.45 0h-12.67m-8.45 0h-12.67m-8.45 0H979.3m-8.44 0h-12.68m-8.45 0h-12.67m-8.45 0h-6.33l-1.27-.1-1.3-.32-1.37-.57-1.4-.87" stroke="#3a414a" stroke-width="4" fill="none"/><path d="M1049.02 572.92c-8.75 0-15.85-14.2-15.85-31.7s7.1-31.68 15.85-31.68" fill="none"/><path d="M1049.02 572.92l-1.28-.1-1.3-.32-1.37-.57-1.4-.87m-4.9-5.82l-.92-1.53-2.2-5.46-.86-3.72m-1.2-7.55l-.43-5.74.45-5.73m1.17-7.56l.94-4 2.2-5.4.83-1.32m4.9-5.82l1.47-.9 1.36-.56 1.3-.3 1.22-.1" stroke="#3a414a" stroke-width="4" fill="none"/><path d="M1102.12 547.76a6 6 0 0 1-6 6h-25.26a6 6 0 0 1-6-6V534.7a6 6 0 0 1 6-6h25.26a6 6 0 0 1 6 6z" stroke="#000" stroke-opacity="0" stroke-width="3" fill-opacity="0"/><path d="M1073.03 541.23h-4.67" stroke="#3a414a" stroke-width="7" fill="none"/><path d="M1090.8 541.23l-14.27 4.63v-9.26z" stroke="#3a414a" stroke-width="7" fill="#3a414a"/><path d="M1068.45 544.7h-3.6v-6.95h3.6z" stroke="#3a414a" stroke-width=".05" fill="#3a414a"/><g><path d="M1043.86 551.92a6 6 0 0 1-6-6v-9.5a6 6 0 0 1 6-6h9.5a6 6 0 0 1 6 6v9.5a6 6 0 0 1-6 6z" stroke="#3a414a" stroke-width="3" fill="#fff"/></g><path d="M995.6 541.23c0 11.52-9.34 20.86-20.86 20.86s-20.86-9.35-20.86-20.87c0-11.52 9.34-20.86 20.86-20.86s20.86 9.34 20.86 20.86z" stroke="#000" stroke-opacity="0" stroke-width="2" fill="#ffe342"/><g><use xlink:href="#f" transform="matrix(1,0,0,1,958.8794321353132,525.3720942787431) translate(-10.671006944444443 21.91362847222222)"/></g><path d="M869.17 534.65a6 6 0 0 1 6-6h25.26a6 6 0 0 1 6 6v13.05a6 6 0 0 1-6 6h-25.26a6 6 0 0 1-6-6z" stroke="#000" stroke-opacity="0" stroke-width="3" fill-opacity="0"/><path d="M872.67 541.17h4.67M872.76 541.17h-3.6" stroke="#3a414a" stroke-width="7" fill="none"/><path d="M895.1 541.17l-14.26 4.64v-9.26z" stroke="#3a414a" stroke-width="7" fill="#3a414a"/><g><path d="M850.12 508.22a6 6 0 0 1-6-6V470.5a6 6 0 0 1 6-6h13.05a6 6 0 0 1 6 6v31.72a6 6 0 0 1-6 6z" stroke="#000" stroke-opacity="0" stroke-width="3" fill-opacity="0"/></g><g><use xlink:href="#g" transform="matrix(6.123233995736766e-17,-1,1,6.123233995736766e-17,849.1211278234832,503.22344884250435) translate(1.567901234567902 17.77777777777778)"/><use xlink:href="#h" transform="matrix(6.123233995736766e-17,-1,1,6.123233995736766e-17,849.1211278234832,503.22344884250435) translate(13.91358024691358 17.77777777777778)"/><use xlink:href="#i" transform="matrix(6.123233995736766e-17,-1,1,6.123233995736766e-17,849.1211278234832,503.22344884250435) translate(26.25925925925926 17.77777777777778)"/></g><g><path d="M488.1 506.22a6 6 0 0 1-6-6V468.5a6 6 0 0 1 6-6h13.06a6 6 0 0 1 6 6v31.72a6 6 0 0 1-6 6z" stroke="#000" stroke-opacity="0" stroke-width="3" fill-opacity="0"/></g><g><use xlink:href="#g" transform="matrix(6.123233995736766e-17,-1,1,6.123233995736766e-17,487.10863679660173,501.2203991836551) translate(1.567901234567902 17.77777777777778)"/><use xlink:href="#h" transform="matrix(6.123233995736766e-17,-1,1,6.123233995736766e-17,487.10863679660173,501.2203991836551) translate(13.91358024691358 17.77777777777778)"/><use xlink:href="#i" transform="matrix(6.123233995736766e-17,-1,1,6.123233995736766e-17,487.10863679660173,501.2203991836551) translate(26.25925925925926 17.77777777777778)"/></g><path d="M274.2 586.46a6 6 0 0 1 6-6h815.92a6 6 0 0 1 6 6v95a6 6 0 0 1-6 6h-815.9a6 6 0 0 1-6-6z" fill="none"/><g><use xlink:href="#j" transform="matrix(1,0,0,1,274.2153191017188,580.458806869186) translate(1.7763568394002505e-15 34.240017361111114)"/><use xlink:href="#k" transform="matrix(1,0,0,1,274.2153191017188,580.458806869186) translate(30.37109375 34.240017361111114)"/><use xlink:href="#l" transform="matrix(1,0,0,1,274.2153191017188,580.458806869186) translate(217.06814236111117 34.240017361111114)"/><use xlink:href="#m" transform="matrix(1,0,0,1,274.2153191017188,580.458806869186) translate(243.7391493055556 34.240017361111114)"/><use xlink:href="#n" transform="matrix(1,0,0,1,274.2153191017188,580.458806869186) translate(350.42317708333337 34.240017361111114)"/><use xlink:href="#o" transform="matrix(1,0,0,1,274.2153191017188,580.458806869186) translate(563.791232638889 34.240017361111114)"/><use xlink:href="#p" transform="matrix(1,0,0,1,274.2153191017188,580.458806869186) translate(603.7977430555557 34.240017361111114)"/><use xlink:href="#q" transform="matrix(1,0,0,1,274.2153191017188,580.458806869186) translate(643.8042534722223 34.240017361111114)"/><use xlink:href="#r" transform="matrix(1,0,0,1,274.2153191017188,580.458806869186) translate(1.7763568394002505e-15 59.41362847222222)"/><use xlink:href="#s" transform="matrix(1,0,0,1,274.2153191017188,580.458806869186) translate(30.37109375 59.41362847222222)"/><use xlink:href="#t" transform="matrix(1,0,0,1,274.2153191017188,580.458806869186) translate(243.73914930555563 59.41362847222222)"/><use xlink:href="#u" transform="matrix(1,0,0,1,274.2153191017188,580.458806869186) translate(363.75868055555566 59.41362847222222)"/><use xlink:href="#v" transform="matrix(1,0,0,1,274.2153191017188,580.458806869186) translate(430.43619791666674 59.41362847222222)"/><use xlink:href="#w" transform="matrix(1,0,0,1,274.2153191017188,580.458806869186) translate(1.7763568394002505e-15 84.58723958333334)"/><use xlink:href="#x" transform="matrix(1,0,0,1,274.2153191017188,580.458806869186) translate(30.37109375 84.58723958333334)"/><use xlink:href="#y" transform="matrix(1,0,0,1,274.2153191017188,580.458806869186) translate(177.06163194444449 84.58723958333334)"/><use xlink:href="#o" transform="matrix(1,0,0,1,274.2153191017188,580.458806869186) translate(430.4361979166668 84.58723958333334)"/><use xlink:href="#p" transform="matrix(1,0,0,1,274.2153191017188,580.458806869186) translate(470.4427083333335 84.58723958333334)"/><use xlink:href="#z" transform="matrix(1,0,0,1,274.2153191017188,580.458806869186) translate(510.44921875000017 84.58723958333334)"/><use xlink:href="#A" transform="matrix(1,0,0,1,274.2153191017188,580.458806869186) translate(683.8107638888891 84.58723958333334)"/></g><defs><path d="M878-785c2-107-76-132-183-131-119 2-205 19-222 111-16 90 70 102 145 121 212 54 501 76 442 368C1012-80 798 20 511 20 263 20 83-39 68-270l255-37c-3 153 168 150 315 135 82-9 147-41 159-118 16-101-81-113-165-134-152-39-331-58-402-177-56-94-15-240 36-311 90-126 249-191 465-191 227 0 393 72 401 292" id="B"/><use transform="matrix(0.010850694444444444,0,0,0.010850694444444444,0,0)" xlink:href="#B" id="b"/><path d="M726-190h353L1042 0H13l37-190h395l136-702H291l37-190h571zm-70-1087l40-207h281l-40 207H656" id="C"/><path d="M877-1103c184-4 269 96 271 273 0 43-5 91-15 143L999 0H719l120-619c29-130 29-284-118-273-178 13-258 152-289 312L319 0H38c66-362 146-710 202-1082h268c-5 70-17 151-28 215h4c91-138 196-231 393-236" id="D"/><path d="M-153 220l19-96h1238l-19 96H-153" id="E"/><path d="M780-1370c263 0 388 148 378 418-16 425-142 809-453 935-64 26-132 37-203 37-309 0-410-231-371-552 35-288 115-539 265-692 93-96 213-146 384-146zM399-393c0 127 33 192 148 192 155 0 200-119 243-249 44-133 88-342 91-513 2-114-31-189-145-187-160 5-203 115-246 248-42 131-91 340-91 509" id="F"/><g id="c"><use transform="matrix(0.010850694444444444,0,0,0.010850694444444444,0,0)" xlink:href="#C"/><use transform="matrix(0.010850694444444444,0,0,0.010850694444444444,13.335503472222221,0)" xlink:href="#D"/><use transform="matrix(0.010850694444444444,0,0,0.010850694444444444,26.671006944444443,0)" xlink:href="#E"/><use transform="matrix(0.010850694444444444,0,0,0.010850694444444444,40.006510416666664,0)" xlink:href="#F"/></g><g id="d"><use transform="matrix(0.010850694444444444,0,0,0.010850694444444444,0,0)" xlink:href="#C"/><use transform="matrix(0.010850694444444444,0,0,0.010850694444444444,13.335503472222221,0)" xlink:href="#D"/><use transform="matrix(0.010850694444444444,0,0,0.010850694444444444,26.671006944444443,0)" xlink:href="#E"/><use transform="matrix(0.010850694444444444,0,0,0.010850694444444444,40.006510416666664,0)" xlink:href="#C"/></g><path d="M725-1102c305 0 463 153 426 468-36 300-163 518-405 612-72 28-154 42-245 42C201 22 46-148 80-460c32-293 164-506 400-600 72-28 153-42 245-42zM432-707c-57 152-149 543 103 535 249-8 288-238 323-464 24-154-11-278-166-273-150 5-217 88-260 202" id="G"/><path d="M934-19C661 27 215 78 277-280c36-207 80-407 119-612H229l37-190h181l143-282h176l-55 282h385l-37 190H674c-37 191-72 381-110 573-40 205 250 136 406 114" id="H"/><g id="e"><use transform="matrix(0.010850694444444444,0,0,0.010850694444444444,0,0)" xlink:href="#G"/><use transform="matrix(0.010850694444444444,0,0,0.010850694444444444,13.335503472222221,0)" xlink:href="#H"/><use transform="matrix(0.010850694444444444,0,0,0.010850694444444444,26.671006944444443,0)" xlink:href="#E"/><use transform="matrix(0.010850694444444444,0,0,0.010850694444444444,40.006510416666664,0)" xlink:href="#F"/></g><path d="M-21 172c106 26 314 66 407-7 48-39 78-95 93-175l171-882H296l37-190h636L756 13C707 357 322 502-62 382zm747-1449l40-207h281l-40 207H726" id="I"/><g id="f"><use transform="matrix(0.010850694444444444,0,0,0.010850694444444444,0,0)" xlink:href="#G"/><use transform="matrix(0.010850694444444444,0,0,0.010850694444444444,13.335503472222221,0)" xlink:href="#H"/><use transform="matrix(0.010850694444444444,0,0,0.010850694444444444,26.671006944444443,0)" xlink:href="#E"/><use transform="matrix(0.010850694444444444,0,0,0.010850694444444444,40.006510416666664,0)" xlink:href="#I"/></g><path fill="#6f7681" d="M24 0v-54h51V0H24" id="J"/><use transform="matrix(0.06172839506172839,0,0,0.06172839506172839,0,0)" xlink:href="#J" id="g"/><use transform="matrix(0.06172839506172839,0,0,0.06172839506172839,0,0)" xlink:href="#J" id="h"/><use transform="matrix(0.06172839506172839,0,0,0.06172839506172839,0,0)" xlink:href="#J" id="i"/><path d="M148-1120c216-7 379-89 463-229h166v1204h353V0H157v-145h439v-1021c-79 124-254 184-448 194v-148" id="K"/><path d="M496 0v-299h235V0H496" id="L"/><g id="j"><use transform="matrix(0.010850694444444444,0,0,0.010850694444444444,0,0)" xlink:href="#K"/><use transform="matrix(0.010850694444444444,0,0,0.010850694444444444,13.335503472222221,0)" xlink:href="#L"/></g><path d="M677 91c1 136 41 195 171 195h213v139H796c-186-8-294-116-294-303v-351c-3-164-120-222-275-232v-137c155-10 275-69 275-231v-352c6-189 106-303 294-303h265v139H848c-126-3-171 67-171 195v346c-5 158-108 234-231 274 128 36 231 115 231 274V91" id="M"/><path d="M745-142h380V0H143v-142h422v-798H246v-142h499v940zM545-1292v-192h200v192H545" id="N"/><path d="M706-1102c241 0 344 136 343 381V0H868v-695c1-168-57-273-220-268-190 6-283 138-283 336V0H185c-3-360 6-732-6-1082h170c4 54 7 126 8 185h3c63-121 164-204 346-205" id="O"/><path d="M259 363l169-662h265L382 363H259" id="P"/><path d="M615-1102c343 0 484 203 482 560-1 347-147 562-488 562-336 0-475-219-479-562-4-349 156-560 485-560zm-8 989c240 0 301-180 301-429 0-245-55-427-290-427-236 0-299 181-299 427 0 243 61 429 288 429" id="Q"/><path d="M682 16c-209 0-323-80-324-285v-671H190v-142h170l58-282h120v282h432v142H538v652c2 114 60 155 182 155 106 0 209-16 297-34v137C921-4 806 16 682 16" id="R"/><path d="M726 122c-7 187-108 303-294 303H167V286h213c129-2 172-59 172-195v-347c5-160 106-236 230-276-125-36-230-116-230-272v-346c2-128-45-195-172-195H167v-139h265c187 7 294 114 294 303v352c4 162 120 221 275 231v137c-155 10-275 68-275 232v351" id="S"/><path d="M-5 220v-96h1238v96H-5" id="T"/><path d="M873-819c-18-114-119-146-250-146-163 0-245 50-245 151 0 151 170 148 294 185 182 54 388 94 388 320 0 240-189 325-439 329-245 4-410-69-454-268l159-31c24 133 136 168 295 165 144-2 270-31 270-171 0-164-195-160-331-202-167-52-350-87-350-299 0-218 173-315 413-313 220 2 373 77 412 260" id="U"/><path d="M736-142h380V0H134v-142h422v-1200H267v-142h469v1342" id="V"/><g id="k"><use transform="matrix(0.010850694444444444,0,0,0.010850694444444444,0,0)" xlink:href="#M"/><use transform="matrix(0.010850694444444444,0,0,0.010850694444444444,13.335503472222221,0)" xlink:href="#N"/><use transform="matrix(0.010850694444444444,0,0,0.010850694444444444,26.671006944444443,0)" xlink:href="#O"/><use transform="matrix(0.010850694444444444,0,0,0.010850694444444444,40.006510416666664,0)" xlink:href="#P"/><use transform="matrix(0.010850694444444444,0,0,0.010850694444444444,53.342013888888886,0)" xlink:href="#Q"/><use transform="matrix(0.010850694444444444,0,0,0.010850694444444444,66.67751736111111,0)" xlink:href="#R"/><use transform="matrix(0.010850694444444444,0,0,0.010850694444444444,80.01302083333334,0)" xlink:href="#S"/><use transform="matrix(0.010850694444444444,0,0,0.010850694444444444,93.34852430555557,0)" xlink:href="#T"/><use transform="matrix(0.010850694444444444,0,0,0.010850694444444444,106.6840277777778,0)" xlink:href="#U"/><use transform="matrix(0.010850694444444444,0,0,0.010850694444444444,120.01953125000003,0)" xlink:href="#V"/><use transform="matrix(0.010850694444444444,0,0,0.010850694444444444,133.35503472222226,0)" xlink:href="#Q"/><use transform="matrix(0.010850694444444444,0,0,0.010850694444444444,146.69053819444449,0)" xlink:href="#R"/><use transform="matrix(0.010850694444444444,0,0,0.010850694444444444,160.0260416666667,0)" xlink:href="#U"/></g><path d="M116-856v-148h995v148H116zm0 512v-148h995v148H116" id="W"/><use transform="matrix(0.010850694444444444,0,0,0.010850694444444444,0,0)" xlink:href="#W" id="l"/><path d="M1121-976c0 225-142 341-344 379L1177 0H957L591-575H353V0H162v-1349h482c281 3 477 100 477 373zM633-726c181-1 296-73 296-247 0-149-101-223-304-223H353v470h280" id="X"/><path d="M1018 0H810c-67-251-137-496-194-756C558-495 487-250 419 0H211L0-1349h189c48 393 110 772 142 1181 58-262 128-512 197-763h175c69 251 139 500 197 763 37-402 92-789 139-1181h189" id="Y"/><path d="M622-1349c296 4 497 117 497 404 0 282-193 424-485 431H353V0H162v-1349h460zm-15 684c195-3 320-88 320-277 0-184-129-255-328-254H353v531h254" id="Z"/><path d="M162 0v-1349h919v156H353v422h668v154H353v461h769V0H162" id="aa"/><path d="M1003 0L516-638 353-469V0H162v-1349h191v673l572-673h225L646-777 1227 0h-224" id="ab"/><g id="m"><use transform="matrix(0.010850694444444444,0,0,0.010850694444444444,0,0)" xlink:href="#X"/><use transform="matrix(0.010850694444444444,0,0,0.010850694444444444,13.335503472222221,0)" xlink:href="#Y"/><use transform="matrix(0.010850694444444444,0,0,0.010850694444444444,26.671006944444443,0)" xlink:href="#T"/><use transform="matrix(0.010850694444444444,0,0,0.010850694444444444,40.006510416666664,0)" xlink:href="#Z"/><use transform="matrix(0.010850694444444444,0,0,0.010850694444444444,53.342013888888886,0)" xlink:href="#aa"/><use transform="matrix(0.010850694444444444,0,0,0.010850694444444444,66.67751736111111,0)" xlink:href="#aa"/><use transform="matrix(0.010850694444444444,0,0,0.010850694444444444,80.01302083333334,0)" xlink:href="#ab"/></g><g id="n"><use transform="matrix(0.010850694444444444,0,0,0.010850694444444444,0,0)" xlink:href="#M"/><use transform="matrix(0.010850694444444444,0,0,0.010850694444444444,13.335503472222221,0)" xlink:href="#N"/><use transform="matrix(0.010850694444444444,0,0,0.010850694444444444,26.671006944444443,0)" xlink:href="#O"/><use transform="matrix(0.010850694444444444,0,0,0.010850694444444444,40.006510416666664,0)" xlink:href="#P"/><use transform="matrix(0.010850694444444444,0,0,0.010850694444444444,53.342013888888886,0)" xlink:href="#Q"/><use transform="matrix(0.010850694444444444,0,0,0.010850694444444444,66.67751736111111,0)" xlink:href="#R"/><use transform="matrix(0.010850694444444444,0,0,0.010850694444444444,80.01302083333334,0)" xlink:href="#S"/><use transform="matrix(0.010850694444444444,0,0,0.010850694444444444,93.34852430555557,0)" xlink:href="#U"/></g><path d="M5 20l1113-1504h178L187 20H5" id="ac"/><g id="o"><use transform="matrix(0.010850694444444444,0,0,0.010850694444444444,0,0)" xlink:href="#ac"/><use transform="matrix(0.010850694444444444,0,0,0.010850694444444444,13.335503472222221,0)" xlink:href="#ac"/></g><path d="M772 0c2-57 14-121 24-174h-5C708-49 608 26 420 26 203 26 113-90 112-311c0-65 8-138 24-221 74-377 241-566 502-566 165 0 259 55 298 184 37-190 73-380 110-570h180C1133-988 1028-504 944 0H772zm109-648c26-189-33-326-219-317-242 11-291 213-338 427-15 68-22 130-23 201 1 149 51 224 193 224 258 0 321-215 372-441 8-34 12-65 15-94" id="ad"/><path d="M724-1102c292 0 423 159 388 460-35 307-154 537-400 628-65 24-136 34-212 34-254-2-388-131-388-387 0-255 97-480 226-595 103-92 231-140 386-140zM381-747C294-559 211-98 524-113c294-14 359-254 399-525 28-194-32-337-222-331-174 5-260 94-320 222" id="ae"/><g id="p"><use transform="matrix(0.010850694444444444,0,0,0.010850694444444444,0,0)" xlink:href="#ad"/><use transform="matrix(0.010850694444444444,0,0,0.010850694444444444,13.335503472222221,0)" xlink:href="#ae"/></g><path d="M419 20c-186 0-282-64-284-243 0-40 5-86 15-138l140-721h180c-47 251-101 497-144 752-25 145 40 219 181 211 211-12 308-150 344-336l122-627h181C1087-721 1010-369 950 0H780c6-58 18-129 28-185h-3C720-71 616 20 419 20" id="af"/><path d="M815-1102c202-2 311 102 279 314-40 267-101 525-150 788H763l135-695c7-39 11-71 11-98 2-119-62-175-179-170-208 9-312 151-348 336L260 0H80c67-361 144-713 204-1082h170c-6 58-17 130-28 185h3c86-116 194-203 386-205" id="ag"/><path d="M1000-783c14-86 16-180-76-180-43 0-83 29-120 85s-67 140-88 251L594 0H426c49-261 107-518 150-783 14-86 14-191-77-180-103 13-137 116-173 209-17 43-28 93-39 147L169 0H0c67-361 144-713 204-1082h149c-6 55-18 122-28 175h2c54-95 112-192 254-195 127-2 153 72 158 196 61-99 122-196 274-196 124 0 168 64 168 192 0 67-10 125-22 189L1019 0H851c49-261 106-518 149-783" id="ah"/><path d="M948-272c-17 76-19 161 70 161 21 0 42-3 60-7L1056-6c-45 10-88 14-142 16-138 6-175-86-155-217h-6C661-83 550 15 337 20 138 24 42-104 82-302c49-247 238-349 523-354l236-4c9-47 22-94 22-148 0-118-65-155-184-157-151-3-231 57-266 172l-185-17c67-189 220-292 480-292 245 0 377 119 330 364zm-678-27c-21 109 31 185 140 182 176-5 282-102 348-217 37-66 43-123 59-200-145 7-304-9-409 44-71 36-119 96-138 191" id="ai"/><path d="M523-832c93-143 191-271 425-270 69 0 147 7 203 17l-33 167c-114-19-266-34-366 15-148 73-248 213-284 395L369 0H189l136-701c21-116 30-253 22-381h171c8 76 8 174 0 250h5" id="aj"/><path d="M706-965c-176 0-278 51-278 181 0 125 156 122 261 155 163 51 371 93 326 320C971-85 782 18 512 20c-227 2-392-53-402-268l165-31c1 144 117 166 263 165 166-2 306-45 306-201 0-97-96-115-178-141-139-45-315-63-388-174-17-26-26-59-26-98 0-260 204-371 480-371 203 0 355 61 361 260l-166 20c2-122-100-146-221-146" id="ak"/><path d="M909-793c2-119-62-175-179-170-208 9-312 151-348 336L260 0H80l288-1484h181c-40 197-71 402-123 587h3c84-115 190-205 379-205 182 0 290 76 289 259 0 38-4 79-13 122L944 0H763l135-695c7-39 11-71 11-98" id="al"/><path d="M659-142h380L1011 0H29l28-142h422l233-1200H423l27-142h469" id="am"/><path d="M668-142h380L1020 0H38l28-142h422l155-798H324l27-142h499zm23-1150l37-192h200l-37 192H691" id="an"/><path d="M940-897c13-60 29-133 48-185h171c-77 342-140 701-210 1050-56 281-202 456-521 456-206 0-338-74-349-267l189-25c4 106 77 157 192 156 278-2 302-269 347-509h-2C725-106 614-12 421-12c-211 0-301-105-301-316 0-334 99-623 338-734 55-26 121-37 194-37 155 0 253 77 285 202h3zM384-742c-65 178-183 620 124 597 157-12 241-101 302-217 41-78 77-217 77-335 0-159-63-268-216-268-166 0-240 95-287 223" id="ao"/><g id="q"><use transform="matrix(0.010850694444444444,0,0,0.010850694444444444,0,0)" xlink:href="#af"/><use transform="matrix(0.010850694444444444,0,0,0.010850694444444444,13.335503472222221,0)" xlink:href="#ag"/><use transform="matrix(0.010850694444444444,0,0,0.010850694444444444,26.671006944444443,0)" xlink:href="#ah"/><use transform="matrix(0.010850694444444444,0,0,0.010850694444444444,40.006510416666664,0)" xlink:href="#ai"/><use transform="matrix(0.010850694444444444,0,0,0.010850694444444444,53.342013888888886,0)" xlink:href="#aj"/><use transform="matrix(0.010850694444444444,0,0,0.010850694444444444,66.67751736111111,0)" xlink:href="#ak"/><use transform="matrix(0.010850694444444444,0,0,0.010850694444444444,80.01302083333334,0)" xlink:href="#al"/><use transform="matrix(0.010850694444444444,0,0,0.010850694444444444,93.34852430555557,0)" xlink:href="#ai"/><use transform="matrix(0.010850694444444444,0,0,0.010850694444444444,106.6840277777778,0)" xlink:href="#am"/><use transform="matrix(0.010850694444444444,0,0,0.010850694444444444,120.01953125000003,0)" xlink:href="#am"/><use transform="matrix(0.010850694444444444,0,0,0.010850694444444444,133.35503472222226,0)" xlink:href="#an"/><use transform="matrix(0.010850694444444444,0,0,0.010850694444444444,146.69053819444449,0)" xlink:href="#ag"/><use transform="matrix(0.010850694444444444,0,0,0.010850694444444444,160.0260416666667,0)" xlink:href="#ao"/></g><path d="M611-1370c266 0 451 106 451 368 0 147-77 243-154 327-132 144-316 255-451 395-42 44-75 87-96 134h723V0H144v-117c124-264 387-411 582-603 73-72 151-147 151-271 0-161-104-231-266-231-163 0-249 90-268 238l-184-17c35-233 185-369 452-369" id="ap"/><g id="r"><use transform="matrix(0.010850694444444444,0,0,0.010850694444444444,0,0)" xlink:href="#ap"/><use transform="matrix(0.010850694444444444,0,0,0.010850694444444444,13.335503472222221,0)" xlink:href="#L"/></g><path d="M1048-32c-2 300-135 456-433 456-222-1-358-88-400-267l184-25c22 99 100 157 222 156 184-2 248-125 248-315 0-64 3-133-2-194C807-100 706-13 524-12c-306 0-381-228-381-537 0-318 85-550 400-550 164 0 271 83 325 202h3c1-60 3-134 12-185h171c-13 339-4 702-6 1050zM585-145c210-8 284-178 284-406 0-192-52-331-177-392-33-16-69-22-104-22-223 2-259 184-259 414 0 229 31 415 256 406" id="aq"/><path d="M631 20c-350 0-501-215-501-562 0-355 162-560 502-560 250 0 399 118 446 323l-192 14c-23-124-109-196-262-196-242 0-305 171-305 415 1 245 61 427 304 427 151 0 248-77 267-215l190 12C1039-107 883 20 631 20" id="ar"/><path d="M839-1335c-182-6-269 67-259 253h491v142H580V0H400v-940H138v-142h262c-15-293 132-408 418-402 94 2 200 7 281 21v145c-75-10-177-14-260-17" id="as"/><path d="M891-1484c-201 251-362 514-362 954 0 441 161 704 362 955H701C500 176 342-90 342-532c0-440 159-704 359-952h190" id="at"/><g id="s"><use transform="matrix(0.010850694444444444,0,0,0.010850694444444444,0,0)" xlink:href="#aq"/><use transform="matrix(0.010850694444444444,0,0,0.010850694444444444,13.335503472222221,0)" xlink:href="#ar"/><use transform="matrix(0.010850694444444444,0,0,0.010850694444444444,26.671006944444443,0)" xlink:href="#U"/><use transform="matrix(0.010850694444444444,0,0,0.010850694444444444,40.006510416666664,0)" xlink:href="#T"/><use transform="matrix(0.010850694444444444,0,0,0.010850694444444444,53.342013888888886,0)" xlink:href="#as"/><use transform="matrix(0.010850694444444444,0,0,0.010850694444444444,66.67751736111111,0)" xlink:href="#at"/><use transform="matrix(0.010850694444444444,0,0,0.010850694444444444,80.01302083333334,0)" xlink:href="#N"/><use transform="matrix(0.010850694444444444,0,0,0.010850694444444444,93.34852430555557,0)" xlink:href="#O"/><use transform="matrix(0.010850694444444444,0,0,0.010850694444444444,106.6840277777778,0)" xlink:href="#T"/><use transform="matrix(0.010850694444444444,0,0,0.010850694444444444,120.01953125000003,0)" xlink:href="#U"/><use transform="matrix(0.010850694444444444,0,0,0.010850694444444444,133.35503472222226,0)" xlink:href="#V"/><use transform="matrix(0.010850694444444444,0,0,0.010850694444444444,146.69053819444449,0)" xlink:href="#Q"/><use transform="matrix(0.010850694444444444,0,0,0.010850694444444444,160.0260416666667,0)" xlink:href="#R"/><use transform="matrix(0.010850694444444444,0,0,0.010850694444444444,173.36154513888894,0)" xlink:href="#U"/><use transform="matrix(0.010850694444444444,0,0,0.010850694444444444,186.69704861111117,0)" xlink:href="#P"/></g><path d="M528 20c-247 0-343-132-343-381v-721h180v686c-4 177 45 284 224 277 194-8 279-136 279-336v-627h181c3 360-6 732 6 1082H885c-4-54-7-126-8-185h-3C809-64 714 20 528 20" id="au"/><path d="M904-1102c199 0 220 177 220 381V0H956v-686c-3-114 0-215-60-264-70-33-125-4-158 71-26 56-39 140-39 252V0H531v-686c-3-114-1-215-61-264-78-41-136 24-157 84-24 69-39 159-39 259V0H105c-3-360 6-732-6-1082h149c6 50 3 123 8 175 36-100 83-195 216-195 135 0 166 79 196 196 42-105 93-196 236-196" id="av"/><g id="t"><use transform="matrix(0.010850694444444444,0,0,0.010850694444444444,0,0)" xlink:href="#O"/><use transform="matrix(0.010850694444444444,0,0,0.010850694444444444,13.335503472222221,0)" xlink:href="#au"/><use transform="matrix(0.010850694444444444,0,0,0.010850694444444444,26.671006944444443,0)" xlink:href="#av"/><use transform="matrix(0.010850694444444444,0,0,0.010850694444444444,40.006510416666664,0)" xlink:href="#T"/><use transform="matrix(0.010850694444444444,0,0,0.010850694444444444,53.342013888888886,0)" xlink:href="#N"/><use transform="matrix(0.010850694444444444,0,0,0.010850694444444444,66.67751736111111,0)" xlink:href="#O"/><use transform="matrix(0.010850694444444444,0,0,0.010850694444444444,80.01302083333334,0)" xlink:href="#U"/><use transform="matrix(0.010850694444444444,0,0,0.010850694444444444,93.34852430555557,0)" xlink:href="#P"/></g><path d="M839-1102c70 0 148 7 206 17v167c-112-18-268-36-363 15-129 69-208 203-208 395V0H294c-10-367 32-789-52-1082h171c21 75 41 161 48 250h5c67-152 152-270 373-270" id="aw"/><path d="M617-1102c355 0 481 238 477 599H322c5 222 84 388 301 388 144 0 244-59 284-166l158 45C1002-72 854 20 623 20c-342 0-490-220-490-568 0-346 151-554 484-554zm291 461c-18-192-90-328-289-328-194 0-287 128-295 328h584" id="ax"/><g id="u"><use transform="matrix(0.010850694444444444,0,0,0.010850694444444444,0,0)" xlink:href="#aw"/><use transform="matrix(0.010850694444444444,0,0,0.010850694444444444,13.335503472222221,0)" xlink:href="#ax"/><use transform="matrix(0.010850694444444444,0,0,0.010850694444444444,26.671006944444443,0)" xlink:href="#U"/><use transform="matrix(0.010850694444444444,0,0,0.010850694444444444,40.006510416666664,0)" xlink:href="#P"/></g><path d="M528-1484c201 248 357 511 357 952 0 442-156 709-357 957H336C537 174 700-89 700-530c0-440-163-703-364-954h192" id="ay"/><g id="v"><use transform="matrix(0.010850694444444444,0,0,0.010850694444444444,0,0)" xlink:href="#L"/><use transform="matrix(0.010850694444444444,0,0,0.010850694444444444,13.335503472222221,0)" xlink:href="#L"/><use transform="matrix(0.010850694444444444,0,0,0.010850694444444444,26.671006944444443,0)" xlink:href="#L"/><use transform="matrix(0.010850694444444444,0,0,0.010850694444444444,40.006510416666664,0)" xlink:href="#ay"/></g><path d="M1060-1016c0 191-128 285-295 323v4c154 18 262 91 313 209 14 35 21 72 21 110 0 277-194 390-478 390-292 0-457-129-493-382l186-17c24 161 121 250 307 250 172 1 298-80 291-247-8-208-220-239-446-233v-156c217 9 409-34 409-232 0-152-102-225-264-225-159 0-264 88-278 233l-181-14c33-239 196-367 461-367 264 0 447 102 447 354" id="az"/><g id="w"><use transform="matrix(0.010850694444444444,0,0,0.010850694444444444,0,0)" xlink:href="#az"/><use transform="matrix(0.010850694444444444,0,0,0.010850694444444444,13.335503472222221,0)" xlink:href="#L"/></g><path d="M1034 0L896-382H333L196 0H0l510-1349h217L1228 0h-194zM847-531c-77-225-157-447-231-674-69 231-154 451-232 674h463" id="aA"/><path d="M473-1349c438-1 655 221 652 661C1122-268 945-8 532 0H162v-1349h311zm42 1193c308-4 416-205 418-532 2-330-131-509-459-505H353v1037h162" id="aB"/><path d="M713 0H515L10-1349h201C345-955 498-579 615-168c116-411 269-787 402-1181h201" id="aC"/><path d="M912-211c-10-84-18-177-18-274v-864h172V0H836L316-1130c7 79 16 167 16 254V0H162v-1349h222" id="aD"/><path d="M650-1214c-281 0-336 244-336 533 0 295 60 546 347 546 188 0 263-142 322-282l159 65C1058-155 935 20 659 20c-401 0-546-295-546-701 0-407 135-689 536-689 264 0 391 146 466 335l-168 65c-47-129-127-244-297-244" id="aE"/><g id="x"><use transform="matrix(0.010850694444444444,0,0,0.010850694444444444,0,0)" xlink:href="#X"/><use transform="matrix(0.010850694444444444,0,0,0.010850694444444444,13.335503472222221,0)" xlink:href="#Y"/><use transform="matrix(0.010850694444444444,0,0,0.010850694444444444,26.671006944444443,0)" xlink:href="#T"/><use transform="matrix(0.010850694444444444,0,0,0.010850694444444444,40.006510416666664,0)" xlink:href="#aA"/><use transform="matrix(0.010850694444444444,0,0,0.010850694444444444,53.342013888888886,0)" xlink:href="#aB"/><use transform="matrix(0.010850694444444444,0,0,0.010850694444444444,66.67751736111111,0)" xlink:href="#aC"/><use transform="matrix(0.010850694444444444,0,0,0.010850694444444444,80.01302083333334,0)" xlink:href="#aA"/><use transform="matrix(0.010850694444444444,0,0,0.010850694444444444,93.34852430555557,0)" xlink:href="#aD"/><use transform="matrix(0.010850694444444444,0,0,0.010850694444444444,106.6840277777778,0)" xlink:href="#aE"/><use transform="matrix(0.010850694444444444,0,0,0.010850694444444444,120.01953125000003,0)" xlink:href="#aa"/></g><g id="y"><use transform="matrix(0.010850694444444444,0,0,0.010850694444444444,0,0)" xlink:href="#M"/><use transform="matrix(0.010850694444444444,0,0,0.010850694444444444,13.335503472222221,0)" xlink:href="#N"/><use transform="matrix(0.010850694444444444,0,0,0.010850694444444444,26.671006944444443,0)" xlink:href="#O"/><use transform="matrix(0.010850694444444444,0,0,0.010850694444444444,40.006510416666664,0)" xlink:href="#P"/><use transform="matrix(0.010850694444444444,0,0,0.010850694444444444,53.342013888888886,0)" xlink:href="#Q"/><use transform="matrix(0.010850694444444444,0,0,0.010850694444444444,66.67751736111111,0)" xlink:href="#R"/><use transform="matrix(0.010850694444444444,0,0,0.010850694444444444,80.01302083333334,0)" xlink:href="#S"/><use transform="matrix(0.010850694444444444,0,0,0.010850694444444444,93.34852430555557,0)" xlink:href="#U"/></g><path d="M83 363l298-662h265L206 363H83" id="aF"/><g id="z"><use transform="matrix(0.010850694444444444,0,0,0.010850694444444444,0,0)" xlink:href="#ah"/><use transform="matrix(0.010850694444444444,0,0,0.010850694444444444,13.335503472222221,0)" xlink:href="#ai"/><use transform="matrix(0.010850694444444444,0,0,0.010850694444444444,26.671006944444443,0)" xlink:href="#aj"/><use transform="matrix(0.010850694444444444,0,0,0.010850694444444444,40.006510416666664,0)" xlink:href="#ak"/><use transform="matrix(0.010850694444444444,0,0,0.010850694444444444,53.342013888888886,0)" xlink:href="#al"/><use transform="matrix(0.010850694444444444,0,0,0.010850694444444444,66.67751736111111,0)" xlink:href="#ai"/><use transform="matrix(0.010850694444444444,0,0,0.010850694444444444,80.01302083333334,0)" xlink:href="#am"/><use transform="matrix(0.010850694444444444,0,0,0.010850694444444444,93.34852430555557,0)" xlink:href="#am"/><use transform="matrix(0.010850694444444444,0,0,0.010850694444444444,106.6840277777778,0)" xlink:href="#an"/><use transform="matrix(0.010850694444444444,0,0,0.010850694444444444,120.01953125000003,0)" xlink:href="#ag"/><use transform="matrix(0.010850694444444444,0,0,0.010850694444444444,133.35503472222226,0)" xlink:href="#ao"/><use transform="matrix(0.010850694444444444,0,0,0.010850694444444444,146.69053819444449,0)" xlink:href="#aF"/></g><path d="M630-1349c335 0 545 126 545 459 0 418-179 721-489 846C517 24 281-7 57 0l262-1349h311zm346 567c33-285-98-417-375-411H480L278-156h162c141 0 254-45 341-133 100-101 170-285 195-493" id="aG"/><path d="M574 16c-199 5-309-85-269-285l131-671H268l27-142h170l113-282h120l-55 282h432l-27 142H616c-43 233-105 457-132 696-16 144 198 111 324 99 46-6 96-14 136-22L918-30C819-5 700 13 574 16" id="aH"/><path d="M116-856v-148h995v148H116zm0 512v-148h995v148H116" id="aI"/><path d="M726-1102c256 0 385 126 386 379 1 67-11 147-25 220H315c-7 39-13 78-13 121 2 164 74 267 238 267 154 0 260-65 317-166l149 45C916-82 760 20 514 20c-259 0-398-131-398-390 0-357 148-615 421-704 62-20 125-28 189-28zm202 461c22-192-41-335-226-328-212 9-312 142-358 328h584" id="aJ"/><g id="A"><use transform="matrix(0.010850694444444444,0,0,0.010850694444444444,0,0)" xlink:href="#an"/><use transform="matrix(0.010850694444444444,0,0,0.010850694444444444,13.335503472222221,0)" xlink:href="#ag"/><use transform="matrix(0.010850694444444444,0,0,0.010850694444444444,26.671006944444443,0)" xlink:href="#aG"/><use transform="matrix(0.010850694444444444,0,0,0.010850694444444444,40.006510416666664,0)" xlink:href="#ai"/><use transform="matrix(0.010850694444444444,0,0,0.010850694444444444,53.342013888888886,0)" xlink:href="#aH"/><use transform="matrix(0.010850694444444444,0,0,0.010850694444444444,66.67751736111111,0)" xlink:href="#ai"/><use transform="matrix(0.010850694444444444,0,0,0.010850694444444444,80.01302083333334,0)" xlink:href="#aI"/><use transform="matrix(0.010850694444444444,0,0,0.010850694444444444,93.34852430555557,0)" xlink:href="#aj"/><use transform="matrix(0.010850694444444444,0,0,0.010850694444444444,106.6840277777778,0)" xlink:href="#aJ"/><use transform="matrix(0.010850694444444444,0,0,0.010850694444444444,120.01953125000003,0)" xlink:href="#ak"/></g></defs></g></svg>