<svg xmlns="http://www.w3.org/2000/svg" xmlns:xlink="http://www.w3.org/1999/xlink" xmlns:lucid="lucid" width="677.13" height="528.7"><g transform="translate(-521.5 -76.17665140589303)" lucid:page-tab-id="BOzh.Aw1xe9I"><path d="M528.32 143.62a6 6 0 0 1 6-6h117.44a6 6 0 0 1 6 6v103.6a6 6 0 0 1-6 6H534.32a6 6 0 0 1-6-6z" stroke="#3a414a" stroke-width="3" fill="#fff"/><path d="M528.32 143.62a6 6 0 0 1 6-6h117.44a6 6 0 0 1 6 6V158a6 6 0 0 1-6 6H534.32a6 6 0 0 1-6-6z" stroke="#3a414a" stroke-width="3" fill="#6f7681"/><use xlink:href="#a" transform="matrix(1,0,0,1,533.320710482185,142.6150797582909) translate(11.9921875 15.862847222222223)"/><use xlink:href="#b" transform="matrix(1,0,0,1,533.320710482185,142.6150797582909) translate(65.33420138888889 15.862847222222223)"/><path d="M528.32 170a6 6 0 0 1 6-6h117.44a6 6 0 0 1 6 6v50.84a6 6 0 0 1-6 6H534.32a6 6 0 0 1-6-6z" stroke="#3a414a" stroke-width="3" fill="#82755b"/><use xlink:href="#c" transform="matrix(1,0,0,1,533.320710482185,168.9905150574716) translate(17.326388888888886 31.36284722222222)"/><use xlink:href="#d" transform="matrix(1,0,0,1,533.320710482185,168.9905150574716) translate(60 31.36284722222222)"/><path d="M528.32 232.84a6 6 0 0 1 6-6h117.44a6 6 0 0 1 6 6v14.37a6 6 0 0 1-6 6H534.32a6 6 0 0 1-6-6z" stroke="#3a414a" stroke-width="3" fill="#ff80df"/><use xlink:href="#e" transform="matrix(1,0,0,1,533.320710482185,231.83568805428376) translate(33.32899305555556 15.862847222222223)"/><path d="M690.93 143.62a6 6 0 0 1 6-6h117.44a6 6 0 0 1 6 6v129.64a6 6 0 0 1-6 6H696.93a6 6 0 0 1-6-6z" stroke="#3a414a" stroke-width="3" fill="#fff"/><path d="M691.1 143.62a6 6 0 0 1 6-6h117.45a6 6 0 0 1 6 6v50.84a6 6 0 0 1-6 6H697.1a6 6 0 0 1-6-6z" stroke="#3a414a" stroke-width="3" fill="#82755b"/><use xlink:href="#c" transform="matrix(1,0,0,1,696.112495859317,142.61507975829159) translate(17.326388888888886 31.36284722222222)"/><use xlink:href="#d" transform="matrix(1,0,0,1,696.112495859317,142.61507975829159) translate(60 31.36284722222222)"/><path d="M690.58 258.9a6 6 0 0 1 6-6H814a6 6 0 0 1 6 6v14.36a6 6 0 0 1-6 6H696.6a6 6 0 0 1-6-6z" stroke="#3a414a" stroke-width="3" fill="#ff80df"/><use xlink:href="#e" transform="matrix(1,0,0,1,695.5749701962975,257.88550069544976) translate(33.32899305555556 15.862847222222223)"/><path d="M853.73 143.62a6 6 0 0 1 6-6h117.43a6 6 0 0 1 6 6v129.64a6 6 0 0 1-6 6H859.73a6 6 0 0 1-6-6z" stroke="#3a414a" stroke-width="3" fill="#fff"/><path d="M853.9 143.62a6 6 0 0 1 6-6h117.44a6 6 0 0 1 6 6v103.27a6 6 0 0 1-6 6H859.9a6 6 0 0 1-6-6z" stroke="#3a414a" stroke-width="3" fill="#9391ff"/><use xlink:href="#f" transform="matrix(1,0,0,1,858.9042812364492,142.61507975829159) translate(11.9921875 47.92534722222222)"/><use xlink:href="#g" transform="matrix(1,0,0,1,858.9042812364492,142.61507975829159) translate(11.9921875 68.06423611111111)"/><use xlink:href="#d" transform="matrix(1,0,0,1,858.9042812364492,142.61507975829159) translate(65.33420138888889 68.06423611111111)"/><path d="M853.37 258.9a6 6 0 0 1 6-6H976.8a6 6 0 0 1 6 6v14.36a6 6 0 0 1-6 6H859.38a6 6 0 0 1-6-6z" stroke="#3a414a" stroke-width="3" fill="#ff80df"/><use xlink:href="#e" transform="matrix(1,0,0,1,858.3667555734296,257.8855006954502) translate(33.32899305555556 15.862847222222223)"/><path d="M1016.52 143.62a6 6 0 0 1 6-6h117.44a6 6 0 0 1 6 6v129.64a6 6 0 0 1-6 6h-117.44a6 6 0 0 1-6-6z" stroke="#3a414a" stroke-width="3" fill="#fff"/><path d="M1016.7 143.62a6 6 0 0 1 6-6h117.43a6 6 0 0 1 6 6v103.27a6 6 0 0 1-6 6H1022.7a6 6 0 0 1-6-6z" stroke="#3a414a" stroke-width="3" fill="#9391ff"/><use xlink:href="#h" transform="matrix(1,0,0,1,1021.6960666135815,142.61507975829113) translate(-4.010416666666657 47.661458333333336)"/><use xlink:href="#g" transform="matrix(1,0,0,1,1021.6960666135815,142.61507975829113) translate(11.9921875 67.80034722222223)"/><use xlink:href="#d" transform="matrix(1,0,0,1,1021.6960666135815,142.61507975829113) translate(65.33420138888889 67.80034722222223)"/><path d="M1016.16 258.9a6 6 0 0 1 6-6h117.44a6 6 0 0 1 6 6v14.36a6 6 0 0 1-6 6h-117.44a6 6 0 0 1-6-6z" stroke="#3a414a" stroke-width="3" fill="#ff80df"/><use xlink:href="#e" transform="matrix(1,0,0,1,1021.1585409505619,257.88550069544976) translate(33.32899305555556 15.862847222222223)"/><path d="M660.26 169h10.85" stroke="#3a414a" stroke-width="2" fill="none"/><path d="M660.3 168l-.02 1.96h-1.02V168z" stroke="#3a414a" stroke-width=".05" fill="#3a414a"/><path d="M686.38 169.03l-14.28 4.6.02-9.26z" stroke="#3a414a" stroke-width="2" fill="#3a414a"/><path d="M823.05 169.04h10.75" stroke="#3a414a" stroke-width="2" fill="none"/><path d="M823.08 170h-1.03v-1.94h1.03z" stroke="#3a414a" stroke-width=".05" fill="#3a414a"/><path d="M849 168.97l-14.26 4.7-.04-9.27z" stroke="#3a414a" stroke-width="2" fill="#3a414a"/><path d="M985.84 166.9h10.7" stroke="#3a414a" stroke-width="2" fill="none"/><path d="M985.87 167.87h-1.03v-1.95h1.03z" stroke="#3a414a" stroke-width=".05" fill="#3a414a"/><path d="M1011.78 166.88l-14.26 4.65v-9.27z" stroke="#3a414a" stroke-width="2" fill="#3a414a"/><path d="M620.06 407.7c-8.75 0-15.85-14.2-15.85-31.7s7.1-31.7 15.86-31.7H746.8c8.75 0 15.84 14.2 15.84 31.7s-7.1 31.7-15.84 31.7z" fill="#fff"/><path d="M609.8 400l-.9-1.52-2.2-5.47-.87-3.7m-1.2-7.56l-.42-5.74.46-5.73m1.17-7.56l.95-4 2.2-5.38.83-1.33m4.9-5.83l1.48-.9 1.36-.56 1.3-.3 1.22-.1h6.33m8.44 0h12.68m8.45 0h12.67m8.45 0h12.66m8.45 0h12.7m8.44 0H732m8.46 0h6.34l1.27.1 1.3.33 1.37.57 1.4.87m4.9 5.82l.92 1.52 2.2 5.47.86 3.7m1.2 7.56l.42 5.74-.44 5.73m-1.17 7.56l-.96 4-2.2 5.38-.82 1.33m-4.9 5.83l-1.47.9-1.37.56-1.28.3-1.22.1h-6.34m-8.45 0h-12.66m-8.45 0h-12.7m-8.44 0H677.1m-8.46 0h-12.67m-8.45 0h-12.68m-8.45 0h-6.34l-1.28-.1-1.3-.33-1.37-.57-1.4-.87" stroke="#3a414a" stroke-width="4" fill="none"/><path d="M746.8 407.7c-8.75 0-15.84-14.2-15.84-31.7s7.1-31.7 15.84-31.7" fill="none"/><path d="M746.8 407.7l-1.28-.1-1.3-.33-1.36-.57-1.4-.87m-4.9-5.82l-.93-1.52-2.2-5.47-.86-3.7m-1.2-7.56l-.4-5.74.43-5.73m1.17-7.56l.95-4 2.2-5.38.83-1.33m4.9-5.83l1.47-.9 1.37-.56 1.28-.3 1.22-.1" stroke="#3a414a" stroke-width="4" fill="none"/><path d="M799.9 382.53a6 6 0 0 1-6 6h-25.26a6 6 0 0 1-6-6v-13.06a6 6 0 0 1 6-6h25.26a6 6 0 0 1 6 6z" stroke="#000" stroke-opacity="0" stroke-width="3" fill-opacity="0"/><path d="M770.8 376h-4.66" stroke="#ffe342" stroke-width="7" fill="none"/><path d="M788.57 376l-14.26 4.63v-9.26z" stroke="#ffe342" stroke-width="7" fill="#ffe342"/><path d="M766.23 379.48h-3.6v-6.96h3.6z" stroke="#ffe342" stroke-width=".05" fill="#ffe342"/><path d="M741.64 386.7a6 6 0 0 1-6-6v-9.5a6 6 0 0 1 6-6h9.5a6 6 0 0 1 6 6v9.5a6 6 0 0 1-6 6z" stroke="#3a414a" stroke-width="3" fill="#ffe342"/><path d="M693.38 376c0 11.52-9.34 20.86-20.86 20.86s-20.86-9.34-20.86-20.86 9.34-20.86 20.86-20.86 20.86 9.34 20.86 20.86z" stroke="#000" stroke-opacity="0" stroke-width="2" fill="#ffe342"/><use xlink:href="#i" transform="matrix(1,0,0,1,656.6619530042393,360.14194780093584) translate(9.33224826388889 22.50043402777778)"/><path d="M566.96 369.42a6 6 0 0 1 6-6h25.25a6 6 0 0 1 6 6v13.05a6 6 0 0 1-6 6h-25.25a6 6 0 0 1-6-6z" stroke="#000" stroke-opacity="0" stroke-width="3" fill-opacity="0"/><path d="M570.46 375.94h4.66M570.54 375.94h-3.58" stroke="#9391ff" stroke-width="7" fill="none"/><path d="M592.9 375.94l-14.28 4.64v-9.27z" stroke="#9391ff" stroke-width="7" fill="#9391ff"/><path d="M807.17 376.98h-6.27v-1.96h6.27zm17.96 0h-7.3v-1.96h7.3z" stroke="#ff80df" stroke-width=".05" fill="#ff80df"/><path d="M800.93 376.98h-1.03v-1.96h1.03z" fill="#ff80df"/><path stroke="#ff80df" stroke-width=".05" fill="#ff80df"/><path d="M848.28 375.98l-12.48 4.05v-8.1z" fill="#ff80df"/><path d="M851.43 375.98l-15.63 5.08V379l9.32-3.02-9.32-3.03v-2.05z" stroke="#ff80df" stroke-width=".05" fill="#ff80df"/><use xlink:href="#j" transform="matrix(1,0,0,1,825.1272962611777,365.9078631772486) translate(0 14.800347222222223)"/><use xlink:href="#k" transform="matrix(1,0,0,1,807.1657986111111,365.930547256706) translate(0 14.800347222222223)"/><path d="M1029.45 380.94h-27V379h27zm140.02-6.93l-.08 1.06-.26 1.07-.42 1-.58.94-.7.83-.84.72-.93.57-1 .4-1.08.26-1.06.08h-122.42V379h122.34l.83-.07.75-.18.73-.3.67-.42.6-.5.5-.6.42-.68.3-.73.2-.76.06-.83v-83.36h1.94zm-5.88-109.1l1.06.27 1 .42.94.56.83.7.7.84.6.94.4 1 .2.8h-2l-.05-.2-.3-.72-.42-.67-.5-.6-.6-.5-.68-.42-.73-.3-.76-.2-.84-.05h-14v-1.95h14.08z" stroke="#ff80df" stroke-width=".05" fill="#ff80df"/><path d="M1001.45 384.6l-14.26-4.63 14.25-4.64z" fill="#ff80df"/><path d="M1002.43 385.95l-18.4-5.98 18.4-5.98zm-12.1-5.98l10.15 3.3v-6.6z" stroke="#ff80df" stroke-width=".05" fill="#ff80df"/><path d="M1148.48 266.78h-1.02v-1.95h1.02z" fill="#ff80df"/><path stroke="#ff80df" stroke-width=".05" fill="#ff80df"/><use xlink:href="#l" transform="matrix(1,0,0,1,1163.165798611111,270.43055555555554) translate(0 14.800347222222223)"/><use xlink:href="#j" transform="matrix(1,0,0,1,1029.452075582526,369.9008858049304) translate(0 14.800347222222223)"/><path d="M853 344.1a6 6 0 0 1 6-6h117.45a6 6 0 0 1 6 6v37.87a6 6 0 0 1-6 6H859a6 6 0 0 1-6-6z" stroke="#3a414a" stroke-width="3" fill="#fff"/><path d="M853 320.56a6 6 0 0 1 6-6h117.45a6 6 0 0 1 6 6v8.65a6 6 0 0 1-6 6H859a6 6 0 0 1-6-6z" fill="none"/><use xlink:href="#m" transform="matrix(1,0,0,1,853.0137522435291,314.55604509922387) translate(11.657986111111114 15.230902777777779)"/><use xlink:href="#n" transform="matrix(1,0,0,1,853.0137522435291,314.55604509922387) translate(107.67361111111111 15.230902777777779)"/><path d="M853 367.6a6 6 0 0 1 6-6h117.45a6 6 0 0 1 6 6v14.37a6 6 0 0 1-6 6H859a6 6 0 0 1-6-6z" stroke="#3a414a" stroke-width="3" fill="#ff80df"/><use xlink:href="#e" transform="matrix(1,0,0,1,858.0137522435291,366.5903253950494) translate(33.32899305555556 15.862847222222223)"/><path d="M853 341.2a6 6 0 0 1 6-6h117.45a6 6 0 0 1 6 6v14.4a6 6 0 0 1-6 6H859a6 6 0 0 1-6-6z" stroke="#3a414a" stroke-width="3" fill="#fff"/><use xlink:href="#o" transform="matrix(1,0,0,1,858.0137522435291,340.2148900958691) translate(54.665798611111114 15.862847222222223)"/><path d="M657.76 143.62a6 6 0 0 1 6-6h20a6 6 0 0 1 6 6v20.72a6 6 0 0 1-6 6h-20a6 6 0 0 1-6-6z" fill="none"/><use xlink:href="#p" transform="matrix(1,0,0,1,657.7595019395106,137.61507975829159) translate(10.66579861111111 21.23090277777778)"/><path d="M821.37 143.62a6 6 0 0 1 6-6h20a6 6 0 0 1 6 6v20.72a6 6 0 0 1-6 6h-20a6 6 0 0 1-6-6z" fill="none"/><use xlink:href="#q" transform="matrix(1,0,0,1,821.3667555734296,137.61507975829159) translate(10.66579861111111 21.23090277777778)"/><path d="M984.97 143.62a6 6 0 0 1 6-6h20a6 6 0 0 1 6 6v20.72a6 6 0 0 1-6 6h-20a6 6 0 0 1-6-6z" fill="none"/><use xlink:href="#r" transform="matrix(1,0,0,1,984.9740092073486,137.61507975829159) translate(10.66579861111111 21.23090277777778)"/><path d="M906.17 413.98h-47.9l-.83.06-.77.18-.72.3-.68.42-.6.5-.5.6-.42.68-.3.73-.2.76-.05.84v114.8l.06.8.2.78.3.72.4.68.5.6.6.5.7.42.7.3.78.18.82.07h24.54v1.94h-24.6l-1.07-.08-1.06-.26-1-.42-.95-.57-.83-.7-.72-.83-.57-.94-.4-1-.27-1.07-.08-1.06V418.96l.08-1.05.26-1.06.4-1 .58-.94.7-.83.84-.7.94-.6 1-.4 1.07-.26 1.06-.08h47.97zm12.54-6.94l-.08 1.05-.25 1.06-.42 1-.57.94-.54.64v-8.8h-.08v-12.47h1.95z" stroke="#ff80df" stroke-width=".05" fill="#ff80df"/><path d="M898.06 539.86l-14.26 4.64v-9.27z" fill="#ff80df"/><path d="M901.22 539.86l-18.4 5.98V533.9zm-16.45 3.3l10.14-3.3-10.13-3.3z" stroke="#ff80df" stroke-width=".05" fill="#ff80df"/><path d="M918.7 390.5h-1.94v-1.03h1.95z" fill="#ff80df"/><path stroke="#ff80df" stroke-width=".05" fill="#ff80df"/><use xlink:href="#k" transform="matrix(1,0,0,1,906.1662902144171,402.93055555555554) translate(0 14.800347222222223)"/><path d="M950.97 396.1a6 6 0 0 1 6-6H1181a6 6 0 0 1 6 6v22.73a6 6 0 0 1-6 6H956.96a6 6 0 0 1-6-6z" fill="#fff" fill-opacity="0"/><use xlink:href="#s" transform="matrix(1,0,0,1,951.9740092073486,391.0959801930223) translate(0 14.800347222222223)"/><use xlink:href="#t" transform="matrix(1,0,0,1,951.9740092073486,391.0959801930223) translate(64.01041666666667 14.800347222222223)"/><use xlink:href="#u" transform="matrix(1,0,0,1,951.9740092073486,391.0959801930223) translate(0 34.939236111111114)"/><path d="M1170.47 296.33l2.9 2.12.84 2.57h7.4l.82-.06.77-.18.7-.3.7-.42.6-.5.5-.6.23-.4h2.17l-.25.6-.57.94-.7.83-.84.7-.94.6-1 .4-1.07.26-1.06.08h-8.88l-1.1-3.33-2-1.47-1.12-.18-2.43.8-1.47 2-.35 2.18h-625.8l-.82.06-.75.18-.73.3-.67.42-.6.5-.5.6-.43.68-.3.73-.18.76-.06.84v61.86l.06.83.18.76.3.72.42.67.5.6.6.5.68.42.73.3.76.18.84.07h9.9v1.95h-9.98l-1.05-.1-1.06-.24-1-.42-.94-.57-.83-.72-.72-.84-.57-.93-.42-1-.25-1.07-.08-1.05v-62.02l.1-1.05.24-1.06.42-1 .58-.94.7-.83.84-.7.93-.6 1-.4 1.08-.26 1.06-.08h624.2l.17-1 2.12-2.88 3.47-1.14zm12.26-101.97l1.06.25 1 .43.94.57.83.72.7.83.58.93.42 1 .26 1.08.08 1.05v77.23h-1.94V201.3l-.07-.84-.2-.76-.3-.73-.4-.67-.5-.6-.6-.5-.68-.42-.73-.3-.78-.2-.82-.06h-32.96v-1.94h33.03z" stroke="#3a414a" stroke-width=".05" fill="#3a414a"/><path d="M1148.66 196.22h-1.03v-1.94h1.03z" fill="#3a414a"/><path stroke="#3a414a" stroke-width=".05" fill="#3a414a"/><path d="M563.72 375.94l-14.27 4.64v-9.27z" fill="#3a414a"/><path d="M566.88 375.94l-18.4 5.98v-11.96zm-16.45 3.3l10.13-3.3-10.13-3.3z" stroke="#3a414a" stroke-width=".05" fill="#3a414a"/><use xlink:href="#v" transform="matrix(1,0,0,1,1182.3006062246932,278.43055555555554) translate(0 14.800347222222223)"/><path d="M638.93 312.75a6 6 0 0 1 6-6h182.62a6 6 0 0 1 6 6v19.34a6 6 0 0 1-6 6H644.93a6 6 0 0 1-6-6z" fill="#fff" fill-opacity="0"/><use xlink:href="#w" transform="matrix(1,0,0,1,643.9290023738391,311.7529740682591) translate(-24.852430555555515 15.730902777777779)"/><path d="M801.65 375.22l.4.65v85.4l.07.82.18.76.3.73.4.66.52.6.6.5.68.42.72.3.77.2.8.05h3v1.95h-3.06l-1.06-.08-1.06-.25-1-.43-.94-.57-.84-.7-.7-.84-.58-.92-.42-1.02-.26-1.06-.08-1.05v-85.2h.72l.04-.03.34-1.05zm54.13 87.22l2.12 2.9.15 1h24.4v1.94h-26.06l-.36-2.17-1.46-2-2.43-.8-1.12.2-2 1.46-1.1 3.32h-27.16v-1.95h25.75l.84-2.58 2.9-2.1 2.04-.34z" stroke="#3a414a" stroke-width=".05" fill="#3a414a"/><path d="M800.93 376.98h-1.03v-1.96h1.03z" fill="#3a414a"/><path stroke="#3a414a" stroke-width=".05" fill="#3a414a"/><path d="M897.7 467.3l-14.26 4.64v-9.27z" fill="#3a414a"/><path d="M900.86 467.3l-18.4 6V461.3zm-16.45 3.3l10.15-3.3-10.13-3.3z" stroke="#3a414a" stroke-width=".05" fill="#3a414a"/><use xlink:href="#x" transform="matrix(1,0,0,1,810.0964025485674,457.238576553605) translate(0 14.800347222222223)"/><path d="M536.08 479.83a6 6 0 0 1 6-6H847.9a6 6 0 0 1 6 6v51.22a6 6 0 0 1-6 6H542.08a6 6 0 0 1-6-6z" fill="none"/><use xlink:href="#y" transform="matrix(1,0,0,1,536.0829361391848,473.8309786123832) translate(0 14.800347222222223)"/><use xlink:href="#z" transform="matrix(1,0,0,1,536.0829361391848,473.8309786123832) translate(64.01041666666667 14.800347222222223)"/><use xlink:href="#A" transform="matrix(1,0,0,1,536.0829361391848,473.8309786123832) translate(85.34722222222223 14.800347222222223)"/><use xlink:href="#B" transform="matrix(1,0,0,1,536.0829361391848,473.8309786123832) translate(202.69965277777777 14.800347222222223)"/><use xlink:href="#C" transform="matrix(1,0,0,1,536.0829361391848,473.8309786123832) translate(0 34.939236111111114)"/><use xlink:href="#D" transform="matrix(1,0,0,1,536.0829361391848,473.8309786123832) translate(170.6944444444444 34.939236111111114)"/><use xlink:href="#E" transform="matrix(1,0,0,1,536.0829361391848,473.8309786123832) translate(213.36805555555551 34.939236111111114)"/><use xlink:href="#F" transform="matrix(1,0,0,1,536.0829361391848,473.8309786123832) translate(234.7048611111111 34.939236111111114)"/><use xlink:href="#G" transform="matrix(1,0,0,1,536.0829361391848,473.8309786123832) translate(266.7100694444444 34.939236111111114)"/><use xlink:href="#H" transform="matrix(1,0,0,1,536.0829361391848,473.8309786123832) translate(298.7152777777777 34.939236111111114)"/><use xlink:href="#I" transform="matrix(1,0,0,1,536.0829361391848,473.8309786123832) translate(0 55.078125)"/><use xlink:href="#D" transform="matrix(1,0,0,1,536.0829361391848,473.8309786123832) translate(170.6944444444444 55.078125)"/><use xlink:href="#E" transform="matrix(1,0,0,1,536.0829361391848,473.8309786123832) translate(213.36805555555551 55.078125)"/><use xlink:href="#F" transform="matrix(1,0,0,1,536.0829361391848,473.8309786123832) translate(234.7048611111111 55.078125)"/><use xlink:href="#J" transform="matrix(1,0,0,1,536.0829361391848,473.8309786123832) translate(266.7100694444444 55.078125)"/><g fill="none"><path d="M698 130.12a6 6 0 0 1-6-6v-16.94a6 6 0 0 1 6-6h442.5a6 6 0 0 1 6 6v16.94a6 6 0 0 1-6 6z"/><path d="M1146.5 130.12c0-5.52-4.48-10-10-10H929.24c-5.52 0-10-4.47-10-10 0 5.53-4.48 10-10 10H702c-5.5 0-10 4.48-10 10" stroke="#000" stroke-width="5"/></g><g fill="none"><path d="M534.32 130.12a6 6 0 0 1-6-6v-16.94a6 6 0 0 1 6-6h117.44a6 6 0 0 1 6 6v16.94a6 6 0 0 1-6 6z"/><path d="M657.76 130.12c0-5.52-4.48-10-10-10h-44.72c-5.52 0-10-4.47-10-10 0 5.53-4.48 10-10 10h-44.72c-5.52 0-10 4.48-10 10" stroke="#000" stroke-width="5"/></g><path d="M528.32 82.18a6 6 0 0 1 6-6h117.44a6 6 0 0 1 6 6v13a6 6 0 0 1-6 6H534.32a6 6 0 0 1-6-6z" fill="none"/><g><use xlink:href="#K" transform="matrix(1,0,0,1,528.3207104821853,76.17665140589303) translate(18.325737847222214 18.50043402777778)"/></g><path d="M691.47 82.18a6 6 0 0 1 6-6h443.38a6 6 0 0 1 6 6v13a6 6 0 0 1-6 6H697.47a6 6 0 0 1-6-6z" fill="none"/><g><use xlink:href="#L" transform="matrix(1,0,0,1,691.4708463013302,76.17665140589303) translate(134.6514756944444 18.50043402777778)"/></g><path d="M1064.7 441.9a6 6 0 0 1 6-6h117.43a6 6 0 0 1 6 6v103.58a6 6 0 0 1-6 6H1070.7a6 6 0 0 1-6-6z" stroke="#3a414a" stroke-width="3" fill="#fff"/><path d="M1064.7 441.9a6 6 0 0 1 6-6h117.43a6 6 0 0 1 6 6v14.36a6 6 0 0 1-6 6H1070.7a6 6 0 0 1-6-6z" stroke="#3a414a" stroke-width="3" fill="#6f7681"/><g><use xlink:href="#a" transform="matrix(1,0,0,1,1069.6960666135813,440.8854344996414) translate(11.9921875 15.862847222222223)"/><use xlink:href="#b" transform="matrix(1,0,0,1,1069.6960666135813,440.8854344996414) translate(65.33420138888889 15.862847222222223)"/></g><path d="M1064.7 468.26a6 6 0 0 1 6-6h117.43a6 6 0 0 1 6 6v50.85a6 6 0 0 1-6 6H1070.7a6 6 0 0 1-6-6z" stroke="#3a414a" stroke-width="3" fill="#ffe342"/><g><use xlink:href="#M" transform="matrix(1,0,0,1,1069.6960666135813,467.260869798823) translate(6.657986111111114 21.42534722222222)"/><use xlink:href="#N" transform="matrix(1,0,0,1,1069.6960666135813,467.260869798823) translate(11.9921875 41.564236111111114)"/><use xlink:href="#d" transform="matrix(1,0,0,1,1069.6960666135813,467.260869798823) translate(65.33420138888889 41.564236111111114)"/></g><path d="M1064.7 531.1a6 6 0 0 1 6-6h117.43a6 6 0 0 1 6 6v14.38a6 6 0 0 1-6 6H1070.7a6 6 0 0 1-6-6z" stroke="#3a414a" stroke-width="3" fill="#ff80df"/><g><use xlink:href="#e" transform="matrix(1,0,0,1,1069.6960666135813,530.106042795635) translate(33.32899305555556 15.862847222222223)"/></g><path d="M902.44 441.9a6 6 0 0 1 6-6h117.44a6 6 0 0 1 6 6v103.58a6 6 0 0 1-6 6H908.44a6 6 0 0 1-6-6z" stroke="#3a414a" stroke-width="3" fill="#fff"/><path d="M902.44 441.9a6 6 0 0 1 6-6h117.44a6 6 0 0 1 6 6v50.83a6 6 0 0 1-6 6H908.44a6 6 0 0 1-6-6z" stroke="#3a414a" stroke-width="3" fill="#ffe342"/><g><use xlink:href="#M" transform="matrix(1,0,0,1,907.4418068994688,440.885434499643) translate(6.657986111111114 21.42534722222222)"/><use xlink:href="#N" transform="matrix(1,0,0,1,907.4418068994688,440.885434499643) translate(11.9921875 41.564236111111114)"/><use xlink:href="#d" transform="matrix(1,0,0,1,907.4418068994688,440.885434499643) translate(65.33420138888889 41.564236111111114)"/></g><path d="M902.8 532.68a6 6 0 0 1 6-6h117.44a6 6 0 0 1 6 6v14.37a6 6 0 0 1-6 6H908.8a6 6 0 0 1-6-6z" stroke="#3a414a" stroke-width="3" fill="#ff80df"/><g><use xlink:href="#e" transform="matrix(1,0,0,1,907.8001573414818,531.6761516091951) translate(33.32899305555556 15.862847222222223)"/></g><path d="M1034.38 467.3h10.4" stroke="#3a414a" stroke-width="2" fill="none"/><path d="M1034.4 468.28h-1.02v-1.95h1.03z" stroke="#3a414a" stroke-width=".05" fill="#3a414a"/><path d="M1060.03 467.3l-14.26 4.64v-9.27z" stroke="#3a414a" stroke-width="2" fill="#3a414a"/><path d="M1032.7 441.9a6 6 0 0 1 6-6h20a6 6 0 0 1 6 6v20.7a6 6 0 0 1-6 6h-20a6 6 0 0 1-6-6z" fill="none"/><g><use xlink:href="#O" transform="matrix(1,0,0,1,1032.6960666135815,435.8854344996414) translate(10.66579861111111 21.23090277777778)"/></g><g fill="none"><path d="M1187.6 558.07a6 6 0 0 1 6 6v16.95a6 6 0 0 1-6 6h-116.9a6 6 0 0 1-6-6v-16.95a6 6 0 0 1 6-6z"/><path d="M1064.7 558.07c0 5.52 4.47 10 10 10h44.45c5.52 0 10 4.48 10 10 0-5.52 4.47-10 10-10h44.45c5.52 0 10-4.48 10-10" stroke="#000" stroke-width="5"/></g><path d="M1064.7 585.87a6 6 0 0 1 6-6h116.9a6 6 0 0 1 6 6v13a6 6 0 0 1-6 6h-116.9a6 6 0 0 1-6-6z" fill="none"/><g><use xlink:href="#P" transform="matrix(1,0,0,1,1064.6960666135815,579.8717606499428) translate(17.825737847222214 18.50043402777778)"/></g><g fill="none"><path d="M1026.24 558.07a6 6 0 0 1 6 6v16.95a6 6 0 0 1-6 6h-117.8a6 6 0 0 1-6-6v-16.95a6 6 0 0 1 6-6z"/><path d="M902.44 558.07c0 5.52 4.48 10 10 10h44.9c5.52 0 10 4.48 10 10 0-5.52 4.48-10 10-10h44.9c5.52 0 10-4.48 10-10" stroke="#000" stroke-width="5"/></g><path d="M902.44 585.87a6 6 0 0 1 6-6h117.8a6 6 0 0 1 6 6v13a6 6 0 0 1-6 6h-117.8a6 6 0 0 1-6-6z" fill="none"/><g><use xlink:href="#Q" transform="matrix(1,0,0,1,902.4418068994687,579.8717606499428) translate(-21.68077256944447 18.50043402777778)"/></g><defs><path d="M631 20c-350 0-501-215-501-562 0-355 162-560 502-560 250 0 399 118 446 323l-192 14c-23-124-109-196-262-196-242 0-305 171-305 415 1 245 61 427 304 427 151 0 248-77 267-215l190 12C1039-107 883 20 631 20" id="R"/><path d="M615-1102c343 0 484 203 482 560-1 347-147 562-488 562-336 0-475-219-479-562-4-349 156-560 485-560zm-8 989c240 0 301-180 301-429 0-245-55-427-290-427-236 0-299 181-299 427 0 243 61 429 288 429" id="S"/><path d="M904-1102c199 0 220 177 220 381V0H956v-686c-3-114 0-215-60-264-70-33-125-4-158 71-26 56-39 140-39 252V0H531v-686c-3-114-1-215-61-264-78-41-136 24-157 84-24 69-39 159-39 259V0H105c-3-360 6-732-6-1082h149c6 50 3 123 8 175 36-100 83-195 216-195 135 0 166 79 196 196 42-105 93-196 236-196" id="T"/><g id="a"><use transform="matrix(0.008680555555555556,0,0,0.008680555555555556,0,0)" xlink:href="#R"/><use transform="matrix(0.008680555555555556,0,0,0.008680555555555556,10.668402777777779,0)" xlink:href="#S"/><use transform="matrix(0.008680555555555556,0,0,0.008680555555555556,21.336805555555557,0)" xlink:href="#T"/><use transform="matrix(0.008680555555555556,0,0,0.008680555555555556,32.005208333333336,0)" xlink:href="#T"/></g><path d="M745-142h380V0H143v-142h422v-798H246v-142h499v940zM545-1292v-192h200v192H545" id="U"/><path d="M706-1102c241 0 344 136 343 381V0H868v-695c1-168-57-273-220-268-190 6-283 138-283 336V0H185c-3-360 6-732-6-1082h170c4 54 7 126 8 185h3c63-121 164-204 346-205" id="V"/><path d="M839-1335c-182-6-269 67-259 253h491v142H580V0H400v-940H138v-142h262c-15-293 132-408 418-402 94 2 200 7 281 21v145c-75-10-177-14-260-17" id="W"/><g id="b"><use transform="matrix(0.008680555555555556,0,0,0.008680555555555556,0,0)" xlink:href="#U"/><use transform="matrix(0.008680555555555556,0,0,0.008680555555555556,10.668402777777779,0)" xlink:href="#V"/><use transform="matrix(0.008680555555555556,0,0,0.008680555555555556,21.336805555555557,0)" xlink:href="#W"/><use transform="matrix(0.008680555555555556,0,0,0.008680555555555556,32.005208333333336,0)" xlink:href="#S"/></g><path d="M594-1370c273 0 479 100 479 368 0 320-313 334-421 548-13 28-20 60-21 97H456c9-310 312-328 416-543 13-27 19-59 19-94 0-165-127-226-295-226-189 0-295 102-318 272L94-960c39-259 205-410 500-410zM448 0v-201h195V0H448" id="X"/><path d="M-5 220v-96h1238v96H-5" id="Y"/><path d="M682 16c-209 0-323-80-324-285v-671H190v-142h170l58-282h120v282h432v142H538v652c2 114 60 155 182 155 106 0 209-16 297-34v137C921-4 806 16 682 16" id="Z"/><g id="c"><use transform="matrix(0.008680555555555556,0,0,0.008680555555555556,0,0)" xlink:href="#X"/><use transform="matrix(0.008680555555555556,0,0,0.008680555555555556,10.668402777777779,0)" xlink:href="#Y"/><use transform="matrix(0.008680555555555556,0,0,0.008680555555555556,21.336805555555557,0)" xlink:href="#Z"/></g><path d="M865-914c-3-187-2-380-2-570h180v1261c0 76 1 155 6 223H877c-8-49-9-116-10-174h-5C801-44 708 26 530 26c-135 0-234-46-297-139s-95-232-95-419c0-377 131-566 392-566 176 0 271 63 335 184zm-286-51c-222 0-255 197-255 427 0 229 31 425 253 425 237 0 286-195 286-441 0-238-52-411-284-411" id="aa"/><path d="M1000-272c3 95 12 159 101 161 21 0 41-3 59-7V-6c-44 10-86 16-139 16-141 2-191-84-197-217h-6C748-76 648 20 446 20c-207 0-318-120-318-322 0-266 194-348 454-354l236-4c12-191-40-305-222-305-140 0-220 47-232 172l-188-17c33-204 181-292 423-292 255 0 401 118 401 364v466zm-683-27c0 109 63 184 175 182 166-3 259-96 306-217 24-65 20-120 20-200-232 7-501-28-501 235" id="ab"/><g id="d"><use transform="matrix(0.008680555555555556,0,0,0.008680555555555556,0,0)" xlink:href="#aa"/><use transform="matrix(0.008680555555555556,0,0,0.008680555555555556,10.668402777777779,0)" xlink:href="#ab"/><use transform="matrix(0.008680555555555556,0,0,0.008680555555555556,21.336805555555557,0)" xlink:href="#Z"/><use transform="matrix(0.008680555555555556,0,0,0.008680555555555556,32.005208333333336,0)" xlink:href="#ab"/></g><path d="M873-819c-18-114-119-146-250-146-163 0-245 50-245 151 0 151 170 148 294 185 182 54 388 94 388 320 0 240-189 325-439 329-245 4-410-69-454-268l159-31c24 133 136 168 295 165 144-2 270-31 270-171 0-164-195-160-331-202-167-52-350-87-350-299 0-218 173-315 413-313 220 2 373 77 412 260" id="ac"/><path d="M736-142h380V0H134v-142h422v-1200H267v-142h469v1342" id="ad"/><g id="e"><use transform="matrix(0.008680555555555556,0,0,0.008680555555555556,0,0)" xlink:href="#ac"/><use transform="matrix(0.008680555555555556,0,0,0.008680555555555556,10.668402777777779,0)" xlink:href="#W"/><use transform="matrix(0.008680555555555556,0,0,0.008680555555555556,21.336805555555557,0)" xlink:href="#Y"/><use transform="matrix(0.008680555555555556,0,0,0.008680555555555556,32.005208333333336,0)" xlink:href="#ad"/><use transform="matrix(0.008680555555555556,0,0,0.008680555555555556,42.673611111111114,0)" xlink:href="#ac"/></g><path d="M715 0H502L69-1082h202c94 253 197 500 285 758 19 57 36 126 52 183 96-335 234-626 350-941h201" id="ae"/><path d="M617-1102c355 0 481 238 477 599H322c5 222 84 388 301 388 144 0 244-59 284-166l158 45C1002-72 854 20 623 20c-342 0-490-220-490-568 0-346 151-554 484-554zm291 461c-18-192-90-328-289-328-194 0-287 128-295 328h584" id="af"/><path d="M839-1102c70 0 148 7 206 17v167c-112-18-268-36-363 15-129 69-208 203-208 395V0H294c-10-367 32-789-52-1082h171c21 75 41 161 48 250h5c67-152 152-270 373-270" id="ag"/><g id="f"><use transform="matrix(0.008680555555555556,0,0,0.008680555555555556,0,0)" xlink:href="#R"/><use transform="matrix(0.008680555555555556,0,0,0.008680555555555556,10.668402777777779,0)" xlink:href="#S"/><use transform="matrix(0.008680555555555556,0,0,0.008680555555555556,21.336805555555557,0)" xlink:href="#V"/><use transform="matrix(0.008680555555555556,0,0,0.008680555555555556,32.005208333333336,0)" xlink:href="#ae"/><use transform="matrix(0.008680555555555556,0,0,0.008680555555555556,42.673611111111114,0)" xlink:href="#af"/><use transform="matrix(0.008680555555555556,0,0,0.008680555555555556,53.34201388888889,0)" xlink:href="#ag"/><use transform="matrix(0.008680555555555556,0,0,0.008680555555555556,64.01041666666667,0)" xlink:href="#Z"/><use transform="matrix(0.008680555555555556,0,0,0.008680555555555556,74.67881944444446,0)" xlink:href="#af"/><use transform="matrix(0.008680555555555556,0,0,0.008680555555555556,85.34722222222223,0)" xlink:href="#aa"/></g><g id="g"><use transform="matrix(0.008680555555555556,0,0,0.008680555555555556,0,0)" xlink:href="#U"/><use transform="matrix(0.008680555555555556,0,0,0.008680555555555556,10.668402777777779,0)" xlink:href="#V"/><use transform="matrix(0.008680555555555556,0,0,0.008680555555555556,21.336805555555557,0)" xlink:href="#Y"/><use transform="matrix(0.008680555555555556,0,0,0.008680555555555556,32.005208333333336,0)" xlink:href="#Z"/></g><path d="M528 20c-247 0-343-132-343-381v-721h180v686c-4 177 45 284 224 277 194-8 279-136 279-336v-627h181c3 360-6 732 6 1082H885c-4-54-7-126-8-185h-3C809-64 714 20 528 20" id="ah"/><path d="M648-963c-190 6-283 138-283 336V0H185v-1484h181c-2 197 6 404-9 587h3c62-120 159-205 339-205 242 0 351 135 350 381V0H868v-695c1-168-57-273-220-268" id="ai"/><g id="h"><use transform="matrix(0.008680555555555556,0,0,0.008680555555555556,0,0)" xlink:href="#ah"/><use transform="matrix(0.008680555555555556,0,0,0.008680555555555556,10.668402777777779,0)" xlink:href="#V"/><use transform="matrix(0.008680555555555556,0,0,0.008680555555555556,21.336805555555557,0)" xlink:href="#T"/><use transform="matrix(0.008680555555555556,0,0,0.008680555555555556,32.005208333333336,0)" xlink:href="#ab"/><use transform="matrix(0.008680555555555556,0,0,0.008680555555555556,42.673611111111114,0)" xlink:href="#ag"/><use transform="matrix(0.008680555555555556,0,0,0.008680555555555556,53.34201388888889,0)" xlink:href="#ac"/><use transform="matrix(0.008680555555555556,0,0,0.008680555555555556,64.01041666666667,0)" xlink:href="#ai"/><use transform="matrix(0.008680555555555556,0,0,0.008680555555555556,74.67881944444446,0)" xlink:href="#ab"/><use transform="matrix(0.008680555555555556,0,0,0.008680555555555556,85.34722222222223,0)" xlink:href="#ad"/><use transform="matrix(0.008680555555555556,0,0,0.008680555555555556,96.015625,0)" xlink:href="#ad"/><use transform="matrix(0.008680555555555556,0,0,0.008680555555555556,106.68402777777777,0)" xlink:href="#af"/><use transform="matrix(0.008680555555555556,0,0,0.008680555555555556,117.35243055555554,0)" xlink:href="#aa"/></g><path d="M878-785c2-107-76-132-183-131-119 2-205 19-222 111-16 90 70 102 145 121 212 54 501 76 442 368C1012-80 798 20 511 20 263 20 83-39 68-270l255-37c-3 153 168 150 315 135 82-9 147-41 159-118 16-101-81-113-165-134-152-39-331-58-402-177-56-94-15-240 36-311 90-126 249-191 465-191 227 0 393 72 401 292" id="aj"/><use transform="matrix(0.010850694444444444,0,0,0.010850694444444444,0,0)" xlink:href="#aj" id="i"/><path fill="#ff80df" d="M706-1209l235-104 68 197-250 61 186 213-184 121-146-252-149 252-186-123 190-211-250-61 68-197 239 104-18-274h215" id="ak"/><use transform="matrix(0.008680555555555556,0,0,0.008680555555555556,0,0)" xlink:href="#ak" id="j"/><path fill="#333" d="M706-877c265 0 409 163 409 431 0 299-171 466-474 466-381 0-516-302-516-692 0-236 47-410 135-526 112-147 319-207 541-154 154 36 236 149 276 306l-265 37c-22-86-75-139-170-139-76 0-135 36-178 108s-64 179-64 318c54-94 164-155 306-155zm-74 678c138 0 201-98 201-239s-67-232-208-232c-125 0-205 73-205 202 0 149 67 269 212 269" id="al"/><use transform="matrix(0.008680555555555556,0,0,0.008680555555555556,0,0)" xlink:href="#al" id="k"/><path fill="#333" d="M980-287V0H712v-287H71v-211l595-851h314v853h188v209H980zM712-496c2-204-7-417 9-609-118 224-277 405-414 609h405" id="am"/><use transform="matrix(0.008680555555555556,0,0,0.008680555555555556,0,0)" xlink:href="#am" id="l"/><path d="M1109-360C1066-122 902 20 624 20c-347 0-514-209-514-555 0-353 168-567 518-567 270 0 425 136 473 361l-283 14c-16-106-75-183-196-182-75 0-130 31-165 93s-52 152-52 270c0 249 74 374 221 374 120 0 188-82 201-201" id="an"/><path d="M711 13c-250 0-386-99-385-349l2-556H161v-190h181l88-282h176v282h385v190H606v530c-10 130 45 186 174 184 91-2 176-11 255-27v186C933-1 833 13 711 13" id="ao"/><path d="M874 0L612-392 348 0H49l406-559-387-523h303l241 354 240-354h305L770-562 1179 0H874" id="ap"/><path d="M324-409v-244h580v244H324" id="aq"/><path d="M101-125v-227l832-324-832-325v-228l1027 391v322" id="ar"/><path d="M775-193C708-75 621 20 439 20 226 20 106-93 106-306c0-251 170-341 417-346l223-4c4-143-12-264-148-264-103 0-141 58-150 153l-293-14c37-219 194-321 455-321 263 0 418 130 417 390v392c1 84 5 161 89 160 21 0 42-2 62-6v152c-57 15-108 27-180 26-145 0-202-73-217-205h-6zm-256 17c168 0 234-139 227-325-166 4-347-25-347 173 0 94 33 152 120 152" id="as"/><path d="M875-1102c70 0 148 7 206 17v237c-110-17-267-37-359 15-123 69-192 207-192 395V0H250c-10-367 32-789-52-1082h271c19 69 36 149 46 228h4c52-151 151-250 356-248" id="at"/><path d="M1108-33c-3 314-178 467-492 467-243 0-400-94-447-291l281-33c17 79 82 141 174 141 176 0 212-155 205-347-2-40 5-80 0-115C773-85 665-12 501-12c-288 0-377-242-377-538 0-242 65-426 223-510 50-26 108-39 175-39 160 0 253 78 307 191h5c1-58 5-125 14-174h266c-12 335-3 703-6 1049zM811-384c25-82 27-259 1-342-30-99-77-180-190-180-172 0-205 171-205 356 0 116 18 202 54 258 48 76 129 107 221 70 62-25 96-86 119-162" id="au"/><g id="m"><use transform="matrix(0.008680555555555556,0,0,0.008680555555555556,0,0)" xlink:href="#an"/><use transform="matrix(0.008680555555555556,0,0,0.008680555555555556,10.668402777777779,0)" xlink:href="#ao"/><use transform="matrix(0.008680555555555556,0,0,0.008680555555555556,21.336805555555557,0)" xlink:href="#ap"/><use transform="matrix(0.008680555555555556,0,0,0.008680555555555556,32.005208333333336,0)" xlink:href="#aq"/><use transform="matrix(0.008680555555555556,0,0,0.008680555555555556,42.673611111111114,0)" xlink:href="#ar"/><use transform="matrix(0.008680555555555556,0,0,0.008680555555555556,53.34201388888889,0)" xlink:href="#as"/><use transform="matrix(0.008680555555555556,0,0,0.008680555555555556,64.01041666666667,0)" xlink:href="#at"/><use transform="matrix(0.008680555555555556,0,0,0.008680555555555556,74.67881944444446,0)" xlink:href="#au"/></g><path d="M101-842v-223h1027v223H101zm0 551v-221h1027v221H101" id="av"/><use transform="matrix(0.008680555555555556,0,0,0.008680555555555556,0,0)" xlink:href="#av" id="n"/><use transform="matrix(0.008680555555555556,0,0,0.008680555555555556,0,0)" xlink:href="#U" id="o"/><path d="M138-1120c207-4 339-93 415-229h266v1140h323V0H149v-209h389v-891c-70 121-216 187-400 194v-214" id="aw"/><use transform="matrix(0.008680555555555556,0,0,0.008680555555555556,0,0)" xlink:href="#aw" id="p"/><path d="M135-968c34-256 187-402 480-402 217 0 371 75 441 220 45 93 40 219-8 308-114 212-348 323-508 488-38 39-66 80-85 123h654V0H123v-195c112-245 321-399 515-560 57-48 107-96 142-157 14-26 22-53 22-80-1-104-73-156-185-154-131 2-181 74-199 194" id="ax"/><use transform="matrix(0.008680555555555556,0,0,0.008680555555555556,0,0)" xlink:href="#ax" id="q"/><path d="M788-691c191 26 337 112 337 315 0 286-214 399-510 399-306 0-483-128-522-391l286-25c18 124 91 190 235 188 132-2 223-58 223-188 0-176-191-182-378-179v-227c176 5 345-9 345-176 0-115-82-171-200-171s-198 55-206 169l-281-20c34-252 213-373 492-373 224 0 381 74 451 224 20 43 29 89 29 136 0 195-130 279-301 315v4" id="ay"/><use transform="matrix(0.008680555555555556,0,0,0.008680555555555556,0,0)" xlink:href="#ay" id="r"/><path fill="#ff80df" d="M934-1102c199 0 220 177 220 381V0H926c-2-260 10-533-4-785-4-72-14-138-83-138-34 0-61 27-81 81s-29 134-29 241V0H501c-2-260 9-533-5-785-4-72-13-138-82-138-46 0-65 47-80 93-21 67-30 155-30 248V0H75c-3-360 6-732-6-1082h209c6 50 3 123 8 175 36-100 83-195 216-195 135 0 166 79 196 196 42-105 93-196 236-196" id="az"/><path fill="#ff80df" d="M1113-274C1038-96 884 20 626 20c-352 0-526-209-526-566 0-358 185-556 530-556 358 0 496 251 499 615H395c5 180 68 319 245 319 102 0 186-45 208-129zM857-663c-6-177-128-307-315-247-94 30-141 121-145 247h460" id="aA"/><path fill="#ff80df" d="M875-1102c70 0 148 7 206 17v237c-110-17-267-37-359 15-123 69-192 207-192 395V0H250c-10-367 32-789-52-1082h271c19 69 36 149 46 228h4c52-151 151-250 356-248" id="aB"/><path fill="#ff80df" d="M1108-33c-3 314-178 467-492 467-243 0-400-94-447-291l281-33c17 79 82 141 174 141 176 0 212-155 205-347-2-40 5-80 0-115C773-85 665-12 501-12c-288 0-377-242-377-538 0-242 65-426 223-510 50-26 108-39 175-39 160 0 253 78 307 191h5c1-58 5-125 14-174h266c-12 335-3 703-6 1049zM811-384c25-82 27-259 1-342-30-99-77-180-190-180-172 0-205 171-205 356 0 116 18 202 54 258 48 76 129 107 221 70 62-25 96-86 119-162" id="aC"/><g id="s"><use transform="matrix(0.008680555555555556,0,0,0.008680555555555556,0,0)" xlink:href="#az"/><use transform="matrix(0.008680555555555556,0,0,0.008680555555555556,10.668402777777779,0)" xlink:href="#aA"/><use transform="matrix(0.008680555555555556,0,0,0.008680555555555556,21.336805555555557,0)" xlink:href="#aB"/><use transform="matrix(0.008680555555555556,0,0,0.008680555555555556,32.005208333333336,0)" xlink:href="#aC"/><use transform="matrix(0.008680555555555556,0,0,0.008680555555555556,42.673611111111114,0)" xlink:href="#aA"/></g><path fill="#ff80df" d="M685 25c1 134 43 209 172 209h188v191H718c-189-5-295-108-295-299v-328c1-155-78-228-229-229v-195c150-4 229-75 229-231v-328c-2-190 109-299 295-299h327v190H857c-129 1-171 76-172 209v301c-5 144-88 222-207 252v4c118 31 207 107 207 252V25" id="aD"/><path fill="#ff80df" d="M794-190h353V0H118v-190h395v-702H223v-190h571v892zM513-1277v-207h281v207H513" id="aE"/><path fill="#ff80df" d="M768-1103c247 0 336 167 336 416V0H824v-619c-3-164-24-273-171-273-164 0-229 142-229 312V0H143c-4-359 9-736-8-1082h268c7 63 12 146 13 215h4c67-145 160-236 348-236" id="aF"/><path fill="#ff80df" d="M258 363l169-662h315L431 363H258" id="aG"/><path fill="#ff80df" d="M775-193C708-75 621 20 439 20 226 20 106-93 106-306c0-251 170-341 417-346l223-4c4-143-12-264-148-264-103 0-141 58-150 153l-293-14c37-219 194-321 455-321 263 0 418 130 417 390v392c1 84 5 161 89 160 21 0 42-2 62-6v152c-57 15-108 27-180 26-145 0-202-73-217-205h-6zm-256 17c168 0 234-139 227-325-166 4-347-25-347 173 0 94 33 152 120 152" id="aH"/><path fill="#ff80df" d="M806 126c-4 191-105 299-295 299H184V234h188c129-1 171-75 172-209v-301c5-145 89-221 207-252v-4c-119-30-207-108-207-252v-301c-1-133-43-209-172-209H184v-190h327c186 0 295 109 295 299v328c-1 156 79 227 229 231v195c-151 1-229 74-229 229v328" id="aI"/><path fill="#ff80df" d="M470 0v-305h289V0H470" id="aJ"/><path fill="#ff80df" d="M622-916c-112 2-200 14-200 111 0 90 89 101 168 121 234 58 514 77 514 368C1104-4 751 54 434 5 267-21 161-112 121-270l247-37c24 111 113 145 252 141 114-3 226-12 226-124 0-101-103-113-192-134-225-54-490-76-490-351 0-247 201-328 458-328 245 0 413 88 457 292l-249 26c-16-98-92-133-208-131" id="aK"/><path fill="#ff80df" d="M844-1321c-130 0-195 53-191 182v57h443v190H653V0H373v-892H117v-190h256v-83c5-247 162-348 422-349 120-1 232 13 327 28v184c-84-10-183-19-278-19" id="aL"/><path fill="#ff80df" d="M-5 220v-96h1238v96H-5" id="aM"/><path fill="#ff80df" d="M794-190h353V0H118v-190h395v-1104H223v-190h571v1294" id="aN"/><g id="t"><use transform="matrix(0.008680555555555556,0,0,0.008680555555555556,0,0)" xlink:href="#aD"/><use transform="matrix(0.008680555555555556,0,0,0.008680555555555556,10.668402777777779,0)" xlink:href="#aE"/><use transform="matrix(0.008680555555555556,0,0,0.008680555555555556,21.336805555555557,0)" xlink:href="#aF"/><use transform="matrix(0.008680555555555556,0,0,0.008680555555555556,32.005208333333336,0)" xlink:href="#aG"/><use transform="matrix(0.008680555555555556,0,0,0.008680555555555556,42.673611111111114,0)" xlink:href="#aH"/><use transform="matrix(0.008680555555555556,0,0,0.008680555555555556,53.34201388888889,0)" xlink:href="#aB"/><use transform="matrix(0.008680555555555556,0,0,0.008680555555555556,64.01041666666667,0)" xlink:href="#aC"/><use transform="matrix(0.008680555555555556,0,0,0.008680555555555556,74.67881944444446,0)" xlink:href="#aI"/><use transform="matrix(0.008680555555555556,0,0,0.008680555555555556,85.34722222222223,0)" xlink:href="#aJ"/><use transform="matrix(0.008680555555555556,0,0,0.008680555555555556,96.015625,0)" xlink:href="#aK"/><use transform="matrix(0.008680555555555556,0,0,0.008680555555555556,106.68402777777777,0)" xlink:href="#aL"/><use transform="matrix(0.008680555555555556,0,0,0.008680555555555556,117.35243055555554,0)" xlink:href="#aM"/><use transform="matrix(0.008680555555555556,0,0,0.008680555555555556,128.02083333333331,0)" xlink:href="#aN"/><use transform="matrix(0.008680555555555556,0,0,0.008680555555555556,138.6892361111111,0)" xlink:href="#aK"/></g><path fill="#ff80df" d="M1157-949c0 209-118 316-279 368L1227 0H895L605-515H432V0H137v-1349h494c317-2 526 111 526 400zM608-744c158 1 248-51 252-193 5-207-223-184-428-183v376h176" id="aO"/><path fill="#ff80df" d="M496-1349c439 0 656 222 653 664C1146-265 969 0 556 0H135v-1349h361zm36 1121c245-7 319-187 320-457 1-273-91-439-361-436h-61v893h102" id="aP"/><path fill="#ff80df" d="M762-1121V0H467v-1121H61v-228h1107v228H762" id="aQ"/><path fill="#ff80df" d="M609-1161c-125 0-218 36-218 153 0 149 166 161 290 196 235 67 484 129 484 421 0 300-239 408-554 411C302 23 93-114 38-367l285-37c32 128 131 205 296 203 143-2 259-31 259-173 0-164-197-172-333-212-218-64-441-131-441-405 0-276 231-379 511-379 299 0 463 114 513 363l-286 29c-28-115-96-183-233-183" id="aR"/><path fill="#ff80df" d="M872-915c-35-112-84-223-220-223-91 0-156 41-204 116-89 137-87 550 2 688 51 79 116 122 209 122 150 0 197-126 240-244l273 52C1094-168 961 20 656 20 239 20 80-262 80-681c0-418 154-689 568-689 289 0 425 167 496 389" id="aS"/><path fill="#ff80df" d="M621-530c0 421 127 700 301 955H641C466 173 344-110 344-531s122-702 297-953h281c-174 254-301 534-301 954" id="aT"/><path fill="#ff80df" d="M373 425v-1909h602v190H639V234h336v191H373" id="aU"/><path fill="#ff80df" d="M254 425V234h336v-1528H254v-190h602V425H254" id="aV"/><path fill="#ff80df" d="M711 13c-250 0-386-99-385-349l2-556H161v-190h181l88-282h176v282h385v190H606v530c-10 130 45 186 174 184 91-2 176-11 255-27v186C933-1 833 13 711 13" id="aW"/><path fill="#ff80df" d="M885-531c0 421-122 704-297 956H307c174-255 301-534 301-955 0-420-127-700-301-954h281c175 251 297 532 297 953" id="aX"/><g id="u"><use transform="matrix(0.008680555555555556,0,0,0.008680555555555556,0,0)" xlink:href="#aO"/><use transform="matrix(0.008680555555555556,0,0,0.008680555555555556,10.668402777777779,0)" xlink:href="#aP"/><use transform="matrix(0.008680555555555556,0,0,0.008680555555555556,21.336805555555557,0)" xlink:href="#aQ"/><use transform="matrix(0.008680555555555556,0,0,0.008680555555555556,32.005208333333336,0)" xlink:href="#aR"/><use transform="matrix(0.008680555555555556,0,0,0.008680555555555556,42.673611111111114,0)" xlink:href="#aS"/><use transform="matrix(0.008680555555555556,0,0,0.008680555555555556,53.34201388888889,0)" xlink:href="#aT"/><use transform="matrix(0.008680555555555556,0,0,0.008680555555555556,64.01041666666667,0)" xlink:href="#aK"/><use transform="matrix(0.008680555555555556,0,0,0.008680555555555556,74.67881944444446,0)" xlink:href="#aL"/><use transform="matrix(0.008680555555555556,0,0,0.008680555555555556,85.34722222222223,0)" xlink:href="#aM"/><use transform="matrix(0.008680555555555556,0,0,0.008680555555555556,96.015625,0)" xlink:href="#aN"/><use transform="matrix(0.008680555555555556,0,0,0.008680555555555556,106.68402777777777,0)" xlink:href="#aK"/><use transform="matrix(0.008680555555555556,0,0,0.008680555555555556,117.35243055555554,0)" xlink:href="#aU"/><use transform="matrix(0.008680555555555556,0,0,0.008680555555555556,128.02083333333331,0)" xlink:href="#aE"/><use transform="matrix(0.008680555555555556,0,0,0.008680555555555556,138.6892361111111,0)" xlink:href="#aV"/><use transform="matrix(0.008680555555555556,0,0,0.008680555555555556,149.35763888888886,0)" xlink:href="#aJ"/><use transform="matrix(0.008680555555555556,0,0,0.008680555555555556,160.02604166666663,0)" xlink:href="#aK"/><use transform="matrix(0.008680555555555556,0,0,0.008680555555555556,170.6944444444444,0)" xlink:href="#aW"/><use transform="matrix(0.008680555555555556,0,0,0.008680555555555556,181.36284722222217,0)" xlink:href="#aH"/><use transform="matrix(0.008680555555555556,0,0,0.008680555555555556,192.03124999999994,0)" xlink:href="#aB"/><use transform="matrix(0.008680555555555556,0,0,0.008680555555555556,202.69965277777771,0)" xlink:href="#aW"/><use transform="matrix(0.008680555555555556,0,0,0.008680555555555556,213.36805555555546,0)" xlink:href="#aX"/></g><path fill="#333" d="M426-814c58-49 145-93 255-90 282 8 442 169 442 450 0 312-203 474-522 474-288 0-453-130-497-372l281-23c24 104 89 172 219 172 153 0 230-91 230-245 0-144-78-226-224-229-94-2-148 42-191 91H145l49-763h847v209H449" id="aY"/><use transform="matrix(0.008680555555555556,0,0,0.008680555555555556,0,0)" xlink:href="#aY" id="v"/><path fill="#ff80df" d="M424-1484c-2 206 5 424-8 618h4c67-145 160-234 348-236 251-3 335 167 336 416V0H824v-621c0-150-23-276-173-270-163 7-227 142-227 312V0H143v-1484h281" id="aZ"/><g id="w"><use transform="matrix(0.008680555555555556,0,0,0.008680555555555556,0,0)" xlink:href="#aO"/><use transform="matrix(0.008680555555555556,0,0,0.008680555555555556,10.668402777777779,0)" xlink:href="#aP"/><use transform="matrix(0.008680555555555556,0,0,0.008680555555555556,21.336805555555557,0)" xlink:href="#aQ"/><use transform="matrix(0.008680555555555556,0,0,0.008680555555555556,32.005208333333336,0)" xlink:href="#aR"/><use transform="matrix(0.008680555555555556,0,0,0.008680555555555556,42.673611111111114,0)" xlink:href="#aS"/><use transform="matrix(0.008680555555555556,0,0,0.008680555555555556,53.34201388888889,0)" xlink:href="#aT"/><use transform="matrix(0.008680555555555556,0,0,0.008680555555555556,64.01041666666667,0)" xlink:href="#aK"/><use transform="matrix(0.008680555555555556,0,0,0.008680555555555556,74.67881944444446,0)" xlink:href="#aL"/><use transform="matrix(0.008680555555555556,0,0,0.008680555555555556,85.34722222222223,0)" xlink:href="#aM"/><use transform="matrix(0.008680555555555556,0,0,0.008680555555555556,96.015625,0)" xlink:href="#aN"/><use transform="matrix(0.008680555555555556,0,0,0.008680555555555556,106.68402777777777,0)" xlink:href="#aK"/><use transform="matrix(0.008680555555555556,0,0,0.008680555555555556,117.35243055555554,0)" xlink:href="#aU"/><use transform="matrix(0.008680555555555556,0,0,0.008680555555555556,128.02083333333331,0)" xlink:href="#aE"/><use transform="matrix(0.008680555555555556,0,0,0.008680555555555556,138.6892361111111,0)" xlink:href="#aV"/><use transform="matrix(0.008680555555555556,0,0,0.008680555555555556,149.35763888888886,0)" xlink:href="#aJ"/><use transform="matrix(0.008680555555555556,0,0,0.008680555555555556,160.02604166666663,0)" xlink:href="#aL"/><use transform="matrix(0.008680555555555556,0,0,0.008680555555555556,170.6944444444444,0)" xlink:href="#aE"/><use transform="matrix(0.008680555555555556,0,0,0.008680555555555556,181.36284722222217,0)" xlink:href="#aF"/><use transform="matrix(0.008680555555555556,0,0,0.008680555555555556,192.03124999999994,0)" xlink:href="#aE"/><use transform="matrix(0.008680555555555556,0,0,0.008680555555555556,202.69965277777771,0)" xlink:href="#aK"/><use transform="matrix(0.008680555555555556,0,0,0.008680555555555556,213.36805555555546,0)" xlink:href="#aZ"/><use transform="matrix(0.008680555555555556,0,0,0.008680555555555556,224.03645833333326,0)" xlink:href="#aX"/></g><path fill="#333" d="M1092-1126C914-878 744-630 663-296c-23 96-34 194-34 296H336c7-366 145-620 298-854 59-90 126-177 197-264H131v-231h961v223" id="ba"/><use transform="matrix(0.008680555555555556,0,0,0.008680555555555556,0,0)" xlink:href="#ba" id="x"/><path d="M622-916c-112 2-200 14-200 111 0 90 89 101 168 121 234 58 514 77 514 368C1104-4 751 54 434 5 267-21 161-112 121-270l247-37c24 111 113 145 252 141 114-3 226-12 226-124 0-101-103-113-192-134-225-54-490-76-490-351 0-247 201-328 458-328 245 0 413 88 457 292l-249 26c-16-98-92-133-208-131" id="bb"/><path d="M844-1321c-130 0-195 53-191 182v57h443v190H653V0H373v-892H117v-190h256v-83c5-247 162-348 422-349 120-1 232 13 327 28v184c-84-10-183-19-278-19" id="bc"/><path d="M-5 220v-96h1238v96H-5" id="bd"/><path d="M794-190h353V0H118v-190h395v-1104H223v-190h571v1294" id="be"/><g id="y"><use transform="matrix(0.008680555555555556,0,0,0.008680555555555556,0,0)" xlink:href="#bb"/><use transform="matrix(0.008680555555555556,0,0,0.008680555555555556,10.668402777777779,0)" xlink:href="#bc"/><use transform="matrix(0.008680555555555556,0,0,0.008680555555555556,21.336805555555557,0)" xlink:href="#bd"/><use transform="matrix(0.008680555555555556,0,0,0.008680555555555556,32.005208333333336,0)" xlink:href="#be"/><use transform="matrix(0.008680555555555556,0,0,0.008680555555555556,42.673611111111114,0)" xlink:href="#bb"/></g><use transform="matrix(0.008680555555555556,0,0,0.008680555555555556,0,0)" xlink:href="#av" id="z"/><path d="M621-530c0 421 127 700 301 955H641C466 173 344-110 344-531s122-702 297-953h281c-174 254-301 534-301 954" id="bf"/><path d="M794-190h353V0H118v-190h395v-702H223v-190h571v892zM513-1277v-207h281v207H513" id="bg"/><path d="M1113-274C1038-96 884 20 626 20c-352 0-526-209-526-566 0-358 185-556 530-556 358 0 496 251 499 615H395c5 180 68 319 245 319 102 0 186-45 208-129zM857-663c-6-177-128-307-315-247-94 30-141 121-145 247h460" id="bh"/><path d="M885-531c0 421-122 704-297 956H307c174-255 301-534 301-955 0-420-127-700-301-954h281c175 251 297 532 297 953" id="bi"/><g id="A"><use transform="matrix(0.008680555555555556,0,0,0.008680555555555556,0,0)" xlink:href="#bf"/><use transform="matrix(0.008680555555555556,0,0,0.008680555555555556,10.668402777777779,0)" xlink:href="#bg"/><use transform="matrix(0.008680555555555556,0,0,0.008680555555555556,21.336805555555557,0)" xlink:href="#bd"/><use transform="matrix(0.008680555555555556,0,0,0.008680555555555556,32.005208333333336,0)" xlink:href="#bg"/><use transform="matrix(0.008680555555555556,0,0,0.008680555555555556,42.673611111111114,0)" xlink:href="#bb"/><use transform="matrix(0.008680555555555556,0,0,0.008680555555555556,53.34201388888889,0)" xlink:href="#bd"/><use transform="matrix(0.008680555555555556,0,0,0.008680555555555556,64.01041666666667,0)" xlink:href="#bb"/><use transform="matrix(0.008680555555555556,0,0,0.008680555555555556,74.67881944444446,0)" xlink:href="#bh"/><use transform="matrix(0.008680555555555556,0,0,0.008680555555555556,85.34722222222223,0)" xlink:href="#ao"/><use transform="matrix(0.008680555555555556,0,0,0.008680555555555556,96.015625,0)" xlink:href="#bi"/></g><path d="M74-941c43-271 218-429 531-429 230 0 395 77 473 228 37 73 48 181 18 263-67 190-287 233-382 394-14 23-20 50-21 79H426c12-222 175-299 304-402 50-40 100-83 100-166 0-120-96-170-221-170-147 0-229 84-250 215zM418 0v-270h289V0H418" id="bj"/><use transform="matrix(0.008680555555555556,0,0,0.008680555555555556,0,0)" xlink:href="#bj" id="B"/><path d="M373 425v-1909h602v190H639V234h336v191H373" id="bk"/><path d="M258 363l169-662h315L431 363H258" id="bl"/><path d="M470 0v-305h289V0H470" id="bm"/><path d="M802-909c-3-189-2-383-2-575h281v1248c-1 83 4 168 8 236H817c-9-50-14-117-15-176h-4C735-49 651 20 482 20 191 20 97-238 97-539c0-243 66-432 221-519 50-28 108-42 175-42 162 2 253 78 309 191zm-70 658c91-113 93-462 2-584-46-61-145-100-224-53-96 56-119 190-120 349 0 123 17 214 52 275 46 82 130 115 222 74 25-12 46-33 68-61" id="bn"/><g id="C"><use transform="matrix(0.008680555555555556,0,0,0.008680555555555556,0,0)" xlink:href="#bk"/><use transform="matrix(0.008680555555555556,0,0,0.008680555555555556,10.668402777777779,0)" xlink:href="#bf"/><use transform="matrix(0.008680555555555556,0,0,0.008680555555555556,21.336805555555557,0)" xlink:href="#bb"/><use transform="matrix(0.008680555555555556,0,0,0.008680555555555556,32.005208333333336,0)" xlink:href="#ao"/><use transform="matrix(0.008680555555555556,0,0,0.008680555555555556,42.673611111111114,0)" xlink:href="#as"/><use transform="matrix(0.008680555555555556,0,0,0.008680555555555556,53.34201388888889,0)" xlink:href="#at"/><use transform="matrix(0.008680555555555556,0,0,0.008680555555555556,64.01041666666667,0)" xlink:href="#ao"/><use transform="matrix(0.008680555555555556,0,0,0.008680555555555556,74.67881944444446,0)" xlink:href="#bl"/><use transform="matrix(0.008680555555555556,0,0,0.008680555555555556,85.34722222222223,0)" xlink:href="#bb"/><use transform="matrix(0.008680555555555556,0,0,0.008680555555555556,96.015625,0)" xlink:href="#bm"/><use transform="matrix(0.008680555555555556,0,0,0.008680555555555556,106.68402777777777,0)" xlink:href="#bg"/><use transform="matrix(0.008680555555555556,0,0,0.008680555555555556,117.35243055555554,0)" xlink:href="#bn"/><use transform="matrix(0.008680555555555556,0,0,0.008680555555555556,128.02083333333331,0)" xlink:href="#bi"/></g><path d="M616-1102c361 0 521 202 521 560 0 354-171 562-527 562C259 20 92-192 92-542c0-351 169-560 524-560zm-9 930c200-2 236-165 236-370 0-199-27-367-223-367-195 0-233 146-233 367 0 129 18 223 55 282s92 88 165 88" id="bo"/><g id="D"><use transform="matrix(0.008680555555555556,0,0,0.008680555555555556,0,0)" xlink:href="#bc"/><use transform="matrix(0.008680555555555556,0,0,0.008680555555555556,10.668402777777779,0)" xlink:href="#bo"/><use transform="matrix(0.008680555555555556,0,0,0.008680555555555556,21.336805555555557,0)" xlink:href="#at"/></g><use transform="matrix(0.008680555555555556,0,0,0.008680555555555556,0,0)" xlink:href="#bb" id="E"/><path d="M768-1103c247 0 336 167 336 416V0H824v-619c-3-164-24-273-171-273-164 0-229 142-229 312V0H143c-4-359 9-736-8-1082h268c7 63 12 146 13 215h4c67-145 160-236 348-236" id="bp"/><g id="F"><use transform="matrix(0.008680555555555556,0,0,0.008680555555555556,0,0)" xlink:href="#bg"/><use transform="matrix(0.008680555555555556,0,0,0.008680555555555556,10.668402777777779,0)" xlink:href="#bp"/></g><path d="M609-1161c-125 0-218 36-218 153 0 149 166 161 290 196 235 67 484 129 484 421 0 300-239 408-554 411C302 23 93-114 38-367l285-37c32 128 131 205 296 203 143-2 259-31 259-173 0-164-197-172-333-212-218-64-441-131-441-405 0-276 231-379 511-379 299 0 463 114 513 363l-286 29c-28-115-96-183-233-183" id="bq"/><path d="M254 425V234h336v-1528H254v-190h602V425H254" id="br"/><g id="G"><use transform="matrix(0.008680555555555556,0,0,0.008680555555555556,0,0)" xlink:href="#bq"/><use transform="matrix(0.008680555555555556,0,0,0.008680555555555556,10.668402777777779,0)" xlink:href="#br"/></g><path d="M470 0v-305h289V0H470zm0-780v-305h289v305H470" id="bs"/><use transform="matrix(0.008680555555555556,0,0,0.008680555555555556,0,0)" xlink:href="#bs" id="H"/><path d="M424-1484c-2 206 5 424-8 618h4c67-145 160-234 348-236 251-3 335 167 336 416V0H824v-621c0-150-23-276-173-270-163 7-227 142-227 312V0H143v-1484h281" id="bt"/><g id="I"><use transform="matrix(0.008680555555555556,0,0,0.008680555555555556,0,0)" xlink:href="#bk"/><use transform="matrix(0.008680555555555556,0,0,0.008680555555555556,10.668402777777779,0)" xlink:href="#bf"/><use transform="matrix(0.008680555555555556,0,0,0.008680555555555556,21.336805555555557,0)" xlink:href="#bb"/><use transform="matrix(0.008680555555555556,0,0,0.008680555555555556,32.005208333333336,0)" xlink:href="#ao"/><use transform="matrix(0.008680555555555556,0,0,0.008680555555555556,42.673611111111114,0)" xlink:href="#as"/><use transform="matrix(0.008680555555555556,0,0,0.008680555555555556,53.34201388888889,0)" xlink:href="#at"/><use transform="matrix(0.008680555555555556,0,0,0.008680555555555556,64.01041666666667,0)" xlink:href="#ao"/><use transform="matrix(0.008680555555555556,0,0,0.008680555555555556,74.67881944444446,0)" xlink:href="#bl"/><use transform="matrix(0.008680555555555556,0,0,0.008680555555555556,85.34722222222223,0)" xlink:href="#bc"/><use transform="matrix(0.008680555555555556,0,0,0.008680555555555556,96.015625,0)" xlink:href="#bg"/><use transform="matrix(0.008680555555555556,0,0,0.008680555555555556,106.68402777777777,0)" xlink:href="#bp"/><use transform="matrix(0.008680555555555556,0,0,0.008680555555555556,117.35243055555554,0)" xlink:href="#bg"/><use transform="matrix(0.008680555555555556,0,0,0.008680555555555556,128.02083333333331,0)" xlink:href="#bb"/><use transform="matrix(0.008680555555555556,0,0,0.008680555555555556,138.6892361111111,0)" xlink:href="#bt"/><use transform="matrix(0.008680555555555556,0,0,0.008680555555555556,149.35763888888886,0)" xlink:href="#bi"/></g><path d="M479-780v-305h289v305H479zM326 363l169-662h315L499 363H326" id="bu"/><g id="J"><use transform="matrix(0.008680555555555556,0,0,0.008680555555555556,0,0)" xlink:href="#bq"/><use transform="matrix(0.008680555555555556,0,0,0.008680555555555556,10.668402777777779,0)" xlink:href="#br"/><use transform="matrix(0.008680555555555556,0,0,0.008680555555555556,21.336805555555557,0)" xlink:href="#bu"/></g><g id="K"><use transform="matrix(0.010850694444444444,0,0,0.010850694444444444,0,0)" xlink:href="#U"/><use transform="matrix(0.010850694444444444,0,0,0.010850694444444444,13.335503472222221,0)" xlink:href="#V"/><use transform="matrix(0.010850694444444444,0,0,0.010850694444444444,26.671006944444443,0)" xlink:href="#Y"/><use transform="matrix(0.010850694444444444,0,0,0.010850694444444444,40.006510416666664,0)" xlink:href="#ac"/><use transform="matrix(0.010850694444444444,0,0,0.010850694444444444,53.342013888888886,0)" xlink:href="#ad"/><use transform="matrix(0.010850694444444444,0,0,0.010850694444444444,66.67751736111111,0)" xlink:href="#S"/><use transform="matrix(0.010850694444444444,0,0,0.010850694444444444,80.01302083333334,0)" xlink:href="#Z"/></g><g id="L"><use transform="matrix(0.010850694444444444,0,0,0.010850694444444444,0,0)" xlink:href="#T"/><use transform="matrix(0.010850694444444444,0,0,0.010850694444444444,13.335503472222221,0)" xlink:href="#ab"/><use transform="matrix(0.010850694444444444,0,0,0.010850694444444444,26.671006944444443,0)" xlink:href="#ag"/><use transform="matrix(0.010850694444444444,0,0,0.010850694444444444,40.006510416666664,0)" xlink:href="#ac"/><use transform="matrix(0.010850694444444444,0,0,0.010850694444444444,53.342013888888886,0)" xlink:href="#ai"/><use transform="matrix(0.010850694444444444,0,0,0.010850694444444444,66.67751736111111,0)" xlink:href="#ab"/><use transform="matrix(0.010850694444444444,0,0,0.010850694444444444,80.01302083333334,0)" xlink:href="#ad"/><use transform="matrix(0.010850694444444444,0,0,0.010850694444444444,93.34852430555557,0)" xlink:href="#ad"/><use transform="matrix(0.010850694444444444,0,0,0.010850694444444444,106.6840277777778,0)" xlink:href="#Y"/><use transform="matrix(0.010850694444444444,0,0,0.010850694444444444,120.01953125000003,0)" xlink:href="#ac"/><use transform="matrix(0.010850694444444444,0,0,0.010850694444444444,133.35503472222226,0)" xlink:href="#ad"/><use transform="matrix(0.010850694444444444,0,0,0.010850694444444444,146.69053819444449,0)" xlink:href="#S"/><use transform="matrix(0.010850694444444444,0,0,0.010850694444444444,160.0260416666667,0)" xlink:href="#Z"/><use transform="matrix(0.010850694444444444,0,0,0.010850694444444444,173.36154513888894,0)" xlink:href="#ac"/></g><g id="M"><use transform="matrix(0.008680555555555556,0,0,0.008680555555555556,0,0)" xlink:href="#T"/><use transform="matrix(0.008680555555555556,0,0,0.008680555555555556,10.668402777777779,0)" xlink:href="#ab"/><use transform="matrix(0.008680555555555556,0,0,0.008680555555555556,21.336805555555557,0)" xlink:href="#ag"/><use transform="matrix(0.008680555555555556,0,0,0.008680555555555556,32.005208333333336,0)" xlink:href="#ac"/><use transform="matrix(0.008680555555555556,0,0,0.008680555555555556,42.673611111111114,0)" xlink:href="#ai"/><use transform="matrix(0.008680555555555556,0,0,0.008680555555555556,53.34201388888889,0)" xlink:href="#ab"/><use transform="matrix(0.008680555555555556,0,0,0.008680555555555556,64.01041666666667,0)" xlink:href="#ad"/><use transform="matrix(0.008680555555555556,0,0,0.008680555555555556,74.67881944444446,0)" xlink:href="#ad"/><use transform="matrix(0.008680555555555556,0,0,0.008680555555555556,85.34722222222223,0)" xlink:href="#af"/><use transform="matrix(0.008680555555555556,0,0,0.008680555555555556,96.015625,0)" xlink:href="#aa"/></g><g id="N"><use transform="matrix(0.008680555555555556,0,0,0.008680555555555556,0,0)" xlink:href="#S"/><use transform="matrix(0.008680555555555556,0,0,0.008680555555555556,10.668402777777779,0)" xlink:href="#Z"/><use transform="matrix(0.008680555555555556,0,0,0.008680555555555556,21.336805555555557,0)" xlink:href="#Y"/><use transform="matrix(0.008680555555555556,0,0,0.008680555555555556,32.005208333333336,0)" xlink:href="#Z"/></g><path d="M829-709c170 32 291 130 291 327 0 285-207 402-505 402-296 0-506-116-506-400 0-194 122-293 287-327v-4c-145-37-254-130-254-301 0-257 201-358 469-358 275 0 474 97 474 360 0 168-110 262-256 297v4zm-216-99c126 0 184-66 183-187-1-119-62-179-185-178-121 0-182 60-182 178 0 119 60 187 184 187zm4 630c149 0 213-80 212-227-2-138-77-206-220-206-139 1-209 76-211 210-2 147 70 223 219 223" id="bv"/><use transform="matrix(0.008680555555555556,0,0,0.008680555555555556,0,0)" xlink:href="#bv" id="O"/><g id="P"><use transform="matrix(0.010850694444444444,0,0,0.010850694444444444,0,0)" xlink:href="#S"/><use transform="matrix(0.010850694444444444,0,0,0.010850694444444444,13.335503472222221,0)" xlink:href="#Z"/><use transform="matrix(0.010850694444444444,0,0,0.010850694444444444,26.671006944444443,0)" xlink:href="#Y"/><use transform="matrix(0.010850694444444444,0,0,0.010850694444444444,40.006510416666664,0)" xlink:href="#ac"/><use transform="matrix(0.010850694444444444,0,0,0.010850694444444444,53.342013888888886,0)" xlink:href="#ad"/><use transform="matrix(0.010850694444444444,0,0,0.010850694444444444,66.67751736111111,0)" xlink:href="#S"/><use transform="matrix(0.010850694444444444,0,0,0.010850694444444444,80.01302083333334,0)" xlink:href="#Z"/></g><g id="Q"><use transform="matrix(0.010850694444444444,0,0,0.010850694444444444,0,0)" xlink:href="#T"/><use transform="matrix(0.010850694444444444,0,0,0.010850694444444444,13.335503472222221,0)" xlink:href="#ab"/><use transform="matrix(0.010850694444444444,0,0,0.010850694444444444,26.671006944444443,0)" xlink:href="#ag"/><use transform="matrix(0.010850694444444444,0,0,0.010850694444444444,40.006510416666664,0)" xlink:href="#ac"/><use transform="matrix(0.010850694444444444,0,0,0.010850694444444444,53.342013888888886,0)" xlink:href="#ai"/><use transform="matrix(0.010850694444444444,0,0,0.010850694444444444,66.67751736111111,0)" xlink:href="#ab"/><use transform="matrix(0.010850694444444444,0,0,0.010850694444444444,80.01302083333334,0)" xlink:href="#ad"/><use transform="matrix(0.010850694444444444,0,0,0.010850694444444444,93.34852430555557,0)" xlink:href="#ad"/><use transform="matrix(0.010850694444444444,0,0,0.010850694444444444,106.6840277777778,0)" xlink:href="#Y"/><use transform="matrix(0.010850694444444444,0,0,0.010850694444444444,120.01953125000003,0)" xlink:href="#ac"/><use transform="matrix(0.010850694444444444,0,0,0.010850694444444444,133.35503472222226,0)" xlink:href="#ad"/><use transform="matrix(0.010850694444444444,0,0,0.010850694444444444,146.69053819444449,0)" xlink:href="#S"/><use transform="matrix(0.010850694444444444,0,0,0.010850694444444444,160.0260416666667,0)" xlink:href="#Z"/></g></defs></g></svg>