<svg xmlns="http://www.w3.org/2000/svg" xmlns:xlink="http://www.w3.org/1999/xlink" xmlns:lucid="lucid" width="642.62" height="212.77"><g transform="translate(13.402499782088565 -1249.3074536550218)" lucid:page-tab-id="VMpf0a3CB3XB"><path d="M-6.42 1422.35l.07.83.18.76.3.73.42.67.5.6.6.5.68.43.73.3.76.18.83.07h120.5v1.95H-1.42l-1.05-.1-1.07-.24-1-.42-.94-.56-.83-.7-.7-.85-.58-.94-.43-1-.25-1.08-.1-1.05v-78.06h1.96zm196.55 5.07v1.95h-6.97v-1.95z" stroke="#6f7681" stroke-width=".05" fill="#6f7681"/><path d="M191.13 1429.37h-1.03v-1.95h1.03z" stroke="#6f7681" stroke-width=".05" fill="#6f7681"/><path d="M-2.76 1343.37h-9.27l4.64-14.26z" fill="#6f7681"/><path d="M-1.4 1344.35h-11.97l5.98-18.4zm-9.28-1.95h6.58l-3.3-10.14z" stroke="#6f7681" stroke-width=".05" fill="#6f7681"/><use xlink:href="#a" transform="matrix(1,0,0,1,0.6091370539773777,1404.2524883446283) translate(0 14.800347222222223)"/><use xlink:href="#b" transform="matrix(1,0,0,1,0.6091370539773777,1404.2524883446283) translate(64.01041666666667 14.800347222222223)"/><use xlink:href="#c" transform="matrix(1,0,0,1,119.15472644735084,1408.252488344628) translate(0 14.800347222222223)"/><use xlink:href="#d" transform="matrix(1,0,0,1,119.15472644735084,1408.252488344628) translate(0 34.939236111111114)"/><path d="M329.56 1268.83l48.1 43.3" stroke="#6f7681" stroke-width="3" fill="none"/><path d="M330.57 1267.76l-1.97 2.2-.16-.15v-3.96z" stroke="#6f7681" stroke-width=".05" fill="#6f7681"/><path d="M389.37 1322.68l-13.7-6.1 6.2-6.9z" stroke="#6f7681" stroke-width="3" fill="#6f7681"/><path d="M329.94 1325.93h42.42" stroke="#6f7681" stroke-width="3" fill="none"/><path d="M329.98 1327.4h-1.54v-2.95h1.54z" stroke="#6f7681" stroke-width=".05" fill="#6f7681"/><path d="M388.12 1325.93l-14.26 4.63v-9.27z" stroke="#6f7681" stroke-width="3" fill="#6f7681"/><path d="M329.56 1383.03l48.1-43.3" stroke="#6f7681" stroke-width="3" fill="none"/><path d="M330.57 1384.1l-2.13 1.92v-3.97l.16-.14z" stroke="#6f7681" stroke-width=".05" fill="#6f7681"/><path d="M389.37 1329.18l-7.5 13-6.2-6.9z" stroke="#6f7681" stroke-width="3" fill="#6f7681"/><path d="M328.44 1261.3a6 6 0 0 1 6-6h25.26a6 6 0 0 1 6 6v13.05a6 6 0 0 1-6 6h-25.26a6 6 0 0 1-6-6zM328.44 1319.4a6 6 0 0 1 6-6h25.26a6 6 0 0 1 6 6v13.05a6 6 0 0 1-6 6h-25.26a6 6 0 0 1-6-6z" stroke="#000" stroke-opacity="0" stroke-width="3" fill-opacity="0"/><path d="M347.5 1327.8a6 6 0 0 1 6 6v31.7a6 6 0 0 1-6 6h-13.06a6 6 0 0 1-6-6v-31.7a6 6 0 0 1 6-6z" stroke="#000" stroke-opacity="0" stroke-width="3" fill-opacity="0"/><use xlink:href="#e" transform="matrix(6.123233995736766e-17,1,-1,6.123233995736766e-17,348.4946636449265,1332.788108081332) translate(1.567901234567902 17.77777777777778)"/><use xlink:href="#f" transform="matrix(6.123233995736766e-17,1,-1,6.123233995736766e-17,348.4946636449265,1332.788108081332) translate(13.91358024691358 17.77777777777778)"/><use xlink:href="#g" transform="matrix(6.123233995736766e-17,1,-1,6.123233995736766e-17,348.4946636449265,1332.788108081332) translate(26.25925925925926 17.77777777777778)"/><path d="M328.44 1290.35a6 6 0 0 1 6-6h25.26a6 6 0 0 1 6 6v13.05a6 6 0 0 1-6 6h-25.26a6 6 0 0 1-6-6z" stroke="#000" stroke-opacity="0" stroke-width="3" fill-opacity="0"/><use xlink:href="#h" transform="matrix(1,0,0,1,333.44290428828435,1289.3519674708414) translate(14 17.77777777777778)"/><path d="M328.44 1377.5a6 6 0 0 1 6-6h25.26a6 6 0 0 1 6 6v13.06a6 6 0 0 1-6 6h-25.26a6 6 0 0 1-6-6z" stroke="#000" stroke-opacity="0" stroke-width="3" fill-opacity="0"/><path d="M273.64 1370.24l-48.1-43.3" stroke="#6f7681" stroke-width="3" fill="none"/><path d="M285.35 1380.8l-13.7-6.12 6.2-6.88z" stroke="#6f7681" stroke-width="3" fill="#6f7681"/><path d="M225.57 1326.96l-1.14-1.03M268.34 1325.93h-42.4" stroke="#6f7681" stroke-width="3" fill="none"/><path d="M284.1 1325.93l-14.26 4.63v-9.27z" stroke="#6f7681" stroke-width="3" fill="#6f7681"/><path d="M225.97 1325.93h-1.54M273.64 1281.62l-48.1 43.3" stroke="#6f7681" stroke-width="3" fill="none"/><path d="M285.35 1271.07l-7.5 13-6.2-6.9z" stroke="#6f7681" stroke-width="3" fill="#6f7681"/><path d="M225.57 1324.9l-1.14 1.03" stroke="#6f7681" stroke-width="3" fill="none"/><path d="M288.96 1332.46a6 6 0 0 1-6 6H257.7a6 6 0 0 1-6-6v-13.06a6 6 0 0 1 6-6h25.26a6 6 0 0 1 6 6z" stroke="#000" stroke-opacity="0" stroke-width="3" fill-opacity="0"/><path d="M269.9 1371.5a6 6 0 0 1-6-6v-31.7a6 6 0 0 1 6-6h13.06a6 6 0 0 1 6 6v31.7a6 6 0 0 1-6 6z" stroke="#000" stroke-opacity="0" stroke-width="3" fill-opacity="0"/><use xlink:href="#e" transform="matrix(6.123233995736766e-17,-1,1,6.123233995736766e-17,268.9091473005294,1366.5072455407271) translate(1.567901234567902 17.77777777777778)"/><use xlink:href="#f" transform="matrix(6.123233995736766e-17,-1,1,6.123233995736766e-17,268.9091473005294,1366.5072455407271) translate(13.91358024691358 17.77777777777778)"/><use xlink:href="#g" transform="matrix(6.123233995736766e-17,-1,1,6.123233995736766e-17,268.9091473005294,1366.5072455407271) translate(26.25925925925926 17.77777777777778)"/><path d="M291.4 1315.4a6 6 0 0 1 6-6h18.38a6 6 0 0 1 6 6v13.05a6 6 0 0 1-6 6h-18.4a6 6 0 0 1-6-6z" stroke="#000" stroke-opacity="0" stroke-width="3" fill-opacity="0"/><use xlink:href="#e" transform="matrix(1,0,0,1,291.3919583251113,1309.4037268274649) translate(0.06790123456790198 17.77777777777778)"/><use xlink:href="#f" transform="matrix(1,0,0,1,291.3919583251113,1309.4037268274649) translate(12.41358024691358 17.77777777777778)"/><use xlink:href="#g" transform="matrix(1,0,0,1,291.3919583251113,1309.4037268274649) translate(24.75925925925926 17.77777777777778)"/><path d="M291.4 1256.8a6 6 0 0 1 6-6h18.38a6 6 0 0 1 6 6v13.06a6 6 0 0 1-6 6h-18.4a6 6 0 0 1-6-6z" stroke="#000" stroke-opacity="0" stroke-width="3" fill-opacity="0"/><use xlink:href="#e" transform="matrix(1,0,0,1,291.3919583251113,1250.8074536550218) translate(0.06790123456790198 17.77777777777778)"/><use xlink:href="#f" transform="matrix(1,0,0,1,291.3919583251113,1250.8074536550218) translate(12.41358024691358 17.77777777777778)"/><use xlink:href="#g" transform="matrix(1,0,0,1,291.3919583251113,1250.8074536550218) translate(24.75925925925926 17.77777777777778)"/><path d="M291.4 1374.14a6 6 0 0 1 6-6h18.38a6 6 0 0 1 6 6v13.05a6 6 0 0 1-6 6h-18.4a6 6 0 0 1-6-6z" stroke="#000" stroke-opacity="0" stroke-width="3" fill-opacity="0"/><use xlink:href="#e" transform="matrix(1,0,0,1,291.3919583251113,1368.1407869883553) translate(0.06790123456790198 17.77777777777778)"/><use xlink:href="#f" transform="matrix(1,0,0,1,291.3919583251113,1368.1407869883553) translate(12.41358024691358 17.77777777777778)"/><use xlink:href="#g" transform="matrix(1,0,0,1,291.3919583251113,1368.1407869883553) translate(24.75925925925926 17.77777777777778)"/><path d="M45.7 1357.62c-8.74 0-15.83-14.2-15.83-31.7s7.1-31.68 15.84-31.68h126.75c8.75 0 15.85 14.2 15.85 31.7s-7.1 31.68-15.85 31.68z" fill="#fff"/><path d="M35.46 1349.94l-.9-1.53-2.22-5.46-.86-3.72m-1.2-7.56l-.4-5.73.43-5.73m1.18-7.56l.96-4 2.2-5.4.82-1.33m4.9-5.8l1.47-.9 1.37-.56 1.3-.3 1.2-.1h6.35m8.45 0h12.67m8.45 0H94.3m8.44 0h12.68m8.45 0h12.67m8.45 0h12.67m8.45 0h6.33l1.28.1 1.3.32 1.37.57 1.4.87m4.9 5.82l.92 1.53 2.2 5.47.86 3.72m1.2 7.55l.42 5.73-.45 5.73m-1.17 7.56l-.95 4-2.2 5.4-.83 1.32m-4.9 5.82l-1.47.9-1.36.56-1.3.3-1.22.1h-6.33m-8.45 0H145m-8.46 0h-12.67m-8.45 0h-12.68m-8.44 0H81.62m-8.45 0H60.5m-8.45 0H45.7l-1.26-.1-1.3-.32-1.37-.57-1.4-.87" stroke="#3a414a" stroke-width="4" fill="none"/><path d="M172.45 1357.62c-8.75 0-15.84-14.2-15.84-31.7s7.1-31.68 15.85-31.68" fill="none"/><path d="M172.45 1357.62l-1.27-.1-1.3-.32-1.37-.57-1.4-.87m-4.9-5.82l-.9-1.53-2.22-5.46-.85-3.72m-1.2-7.56l-.42-5.73.45-5.73m1.18-7.56l.95-4 2.2-5.4.82-1.33m4.9-5.8l1.47-.9 1.37-.56 1.3-.3 1.2-.1" stroke="#3a414a" stroke-width="4" fill="none"/><path d="M225.55 1332.46a6 6 0 0 1-6 6H194.3a6 6 0 0 1-6-6v-13.06a6 6 0 0 1 6-6h25.25a6 6 0 0 1 6 6z" stroke="#000" stroke-opacity="0" stroke-width="3" fill-opacity="0"/><path d="M196.46 1325.93h-4.66" stroke="#3a414a" stroke-width="7" fill="none"/><path d="M214.23 1325.93l-14.27 4.63v-9.27z" stroke="#3a414a" stroke-width="7" fill="#3a414a"/><path d="M191.9 1329.4h-3.6v-6.95h3.6z" stroke="#3a414a" stroke-width=".05" fill="#3a414a"/><path d="M167.3 1336.62a6 6 0 0 1-6-6v-9.5a6 6 0 0 1 6-6h9.5a6 6 0 0 1 6 6v9.5a6 6 0 0 1-6 6z" stroke="#3a414a" stroke-width="3" fill-opacity="0"/><path d="M119.03 1325.93c0 11.52-9.34 20.86-20.86 20.86s-20.85-9.35-20.85-20.87c0-11.52 9.33-20.86 20.85-20.86 11.52 0 20.86 9.34 20.86 20.86z" stroke="#000" stroke-opacity="0" stroke-width="2" fill="#ffe342"/><use xlink:href="#i" transform="matrix(1,0,0,1,82.31563200928514,1310.0715626055717) translate(9.33224826388889 22.50043402777778)"/><path d="M-7.4 1319.35a6 6 0 0 1 6-6h25.27a6 6 0 0 1 6 6v13.05a6 6 0 0 1-6 6H-1.4a6 6 0 0 1-6-6z" stroke="#000" stroke-opacity="0" stroke-width="3" fill-opacity="0"/><path d="M-3.9 1325.87H.8M-3.8 1325.87h-3.6" stroke="#3a414a" stroke-width="7" fill="none"/><path d="M18.54 1325.87l-14.26 4.64v-9.26z" stroke="#3a414a" stroke-width="7" fill="#3a414a"/><path d="M445.87 1357.56c-8.75 0-15.84-14.2-15.84-31.7s7.1-31.68 15.84-31.68H572.6c8.76 0 15.86 14.2 15.86 31.7s-7.1 31.68-15.85 31.68z" fill="#fff"/><path d="M435.62 1349.88l-.9-1.53-2.22-5.47-.86-3.72m-1.2-7.55l-.4-5.73.43-5.73m1.17-7.56l.96-4 2.2-5.4.82-1.32m4.9-5.82l1.47-.9 1.36-.56 1.3-.3 1.2-.1h6.35m8.46 0h12.67m8.45 0h12.68m8.44 0h12.68m8.45 0h12.67m8.45 0h12.68m8.45 0h6.33l1.3.1 1.3.32 1.36.57 1.4.87m4.9 5.82l.92 1.53 2.2 5.46.86 3.72m1.2 7.56l.42 5.73-.45 5.74m-1.16 7.56l-.95 4-2.22 5.4-.82 1.33m-4.9 5.8l-1.47.9-1.37.56-1.3.3-1.22.1h-6.32m-8.45 0h-12.68m-8.45 0h-12.67m-8.45 0H502.9m-8.44 0h-12.68m-8.45 0h-12.67m-8.45 0h-6.33l-1.27-.1-1.3-.32-1.37-.57-1.4-.87" stroke="#3a414a" stroke-width="4" fill="none"/><path d="M572.6 1357.56c-8.74 0-15.83-14.2-15.83-31.7s7.1-31.68 15.84-31.68" fill="none"/><path d="M572.6 1357.56l-1.26-.1-1.3-.32-1.37-.57-1.4-.87m-4.9-5.82l-.92-1.53-2.2-5.47-.86-3.72m-1.2-7.55l-.43-5.73.44-5.73m1.2-7.56l.94-4 2.2-5.4.82-1.32m4.9-5.82l1.47-.9 1.37-.56 1.3-.3 1.2-.1" stroke="#3a414a" stroke-width="4" fill="none"/><path d="M625.7 1332.4a6 6 0 0 1-6 6h-25.24a6 6 0 0 1-6-6v-13.05a6 6 0 0 1 6-6h25.25a6 6 0 0 1 6 6z" stroke="#000" stroke-opacity="0" stroke-width="3" fill-opacity="0"/><path d="M596.62 1325.87h-4.66" stroke="#3a414a" stroke-width="7" fill="none"/><path d="M614.4 1325.87l-14.28 4.64v-9.26z" stroke="#3a414a" stroke-width="7" fill="#3a414a"/><path d="M592.04 1329.35h-3.58v-6.95h3.58z" stroke="#3a414a" stroke-width=".05" fill="#3a414a"/><path d="M567.46 1336.56a6 6 0 0 1-6-6v-9.5a6 6 0 0 1 6-6h9.5a6 6 0 0 1 6 6v9.5a6 6 0 0 1-6 6z" stroke="#3a414a" stroke-width="3" fill-opacity="0"/><path d="M519.2 1325.87c0 11.52-9.35 20.86-20.87 20.86-11.52 0-20.85-9.34-20.85-20.86s9.33-20.86 20.85-20.86c11.52 0 20.86 9.35 20.86 20.87z" stroke="#000" stroke-opacity="0" stroke-width="2" fill="#ffe342"/><use xlink:href="#j" transform="matrix(1,0,0,1,482.4755858098975,1310.0135187053882) translate(9.33224826388889 22.50043402777778)"/><path d="M392.77 1319.3a6 6 0 0 1 6-6h25.26a6 6 0 0 1 6 6v13.04a6 6 0 0 1-6 6h-25.26a6 6 0 0 1-6-6z" stroke="#000" stroke-opacity="0" stroke-width="3" fill-opacity="0"/><path d="M396.27 1325.8h4.67M396.36 1325.8h-3.6" stroke="#3a414a" stroke-width="7" fill="none"/><path d="M418.7 1325.8l-14.26 4.65v-9.27z" stroke="#3a414a" stroke-width="7" fill="#3a414a"/><path d="M368.14 1396.7c8.75 0 15.84 14.2 15.84 31.7s-7.1 31.68-15.84 31.68H241.4c-8.75 0-15.85-14.2-15.85-31.7s7.1-31.68 15.85-31.68z" fill="#fff"/><path d="M378.4 1404.38l.9 1.53 2.2 5.48.86 3.72m1.2 7.56l.42 5.73-.44 5.73m-1.17 7.55l-.96 4-2.2 5.4-.8 1.33m-4.9 5.83l-1.48.9-1.37.55-1.3.3-1.2.1h-6.35m-8.45 0h-12.67m-8.45 0h-12.68m-8.44 0h-12.67m-8.45 0H277.3m-8.44 0h-12.68m-8.45 0h-6.33l-1.28-.1-1.3-.32-1.37-.57-1.4-.88m-4.9-5.82l-.92-1.53-2.2-5.47-.86-3.72m-1.2-7.55l-.42-5.74.45-5.74m1.17-7.56l.95-4 2.2-5.4.83-1.32m4.9-5.82l1.47-.9 1.36-.56 1.3-.3 1.22-.1h6.33m8.45 0h12.68m8.45 0H290m8.45 0h12.68m8.45 0h12.68m8.45 0h12.67m8.45 0h6.34l1.27.1 1.3.32 1.38.57 1.4.86" stroke="#3a414a" stroke-width="4" fill="none"/><path d="M241.4 1396.7c8.75 0 15.84 14.2 15.84 31.7s-7.1 31.68-15.84 31.68" fill="none"/><path d="M241.4 1396.7l1.27.1 1.3.32 1.37.57 1.4.86m4.9 5.82l.92 1.53 2.2 5.48.86 3.72m1.2 7.56l.42 5.73-.44 5.73m-1.18 7.55l-.95 4-2.2 5.4-.82 1.33m-4.9 5.83l-1.48.9-1.36.55-1.3.3-1.2.1" stroke="#3a414a" stroke-width="4" fill="none"/><path d="M188.3 1421.87a6 6 0 0 1 6-6h25.25a6 6 0 0 1 6 6v13.05a6 6 0 0 1-6 6H194.3a6 6 0 0 1-6-6z" stroke="#000" stroke-opacity="0" stroke-width="3" fill-opacity="0"/><path d="M217.4 1428.4h4.65" stroke="#ff80df" stroke-width="7" fill="none"/><path d="M199.62 1428.4l14.27-4.64v9.27z" stroke="#ff80df" stroke-width="7" fill="#ff80df"/><path d="M225.55 1431.87h-3.6v-6.95h3.6z" stroke="#ff80df" stroke-width=".05" fill="#ff80df"/><g><path d="M246.55 1417.7a6 6 0 0 1 6 6v9.5a6 6 0 0 1-6 6h-9.5a6 6 0 0 1-6-6v-9.5a6 6 0 0 1 6-6z" stroke="#3a414a" stroke-width="3" fill="#ff80df"/></g><path d="M336.53 1428.4c0 11.5-9.33 20.85-20.85 20.85-11.52 0-20.86-9.34-20.86-20.86 0-11.53 9.34-20.87 20.86-20.87s20.85 9.34 20.85 20.86z" stroke="#000" stroke-opacity="0" stroke-width="2" fill="#ff80df"/><g><use xlink:href="#k" transform="matrix(1,0,0,1,299.8181744295519,1412.5333333333028) translate(-17.338758680555557 21.91362847222222)"/></g><g><path d="M421.24 1434.97a6 6 0 0 1-6 6h-25.26a6 6 0 0 1-6-6v-13.05a6 6 0 0 1 6-6h25.26a6 6 0 0 1 6 6z" stroke="#000" stroke-opacity="0" stroke-width="3" fill-opacity="0"/></g><path d="M417.74 1428.45h-4.67" stroke="#ff80df" stroke-width="7" fill="none"/><path d="M421.24 1431.92h-3.6v-6.95h3.6z" stroke="#ff80df" stroke-width=".05" fill="#ff80df"/><path d="M395.3 1428.45l14.27-4.64v9.3z" stroke="#ff80df" stroke-width="7" fill="#ff80df"/><path d="M449.8 1429.42h-10.06v-1.95h10.07zm174.83-104.74l.38.1.36.13.32.2.3.26.25.3.2.32.14.35.1.38.02.35v95.44l-.1 1.04-.25 1.07-.42 1.02-.57.93-.7.83-.84.7-.94.6-1 .4-1.07.26-1.05.08H513.82v-1.95h105.86l.82-.06.77-.17.72-.3.67-.42.6-.5.5-.6.42-.67.3-.73.17-.77.07-.82v-95.39l-.03-.06-.02-.07-.04-.07-.05-.06-.06-.04-.07-.04-.07-.03-.07-.02h-.16l.16-1.95z" stroke="#6f7681" stroke-width=".05" fill="#6f7681"/><path d="M624.28 1326.6h-1.03v-1.95h1.03z" stroke="#6f7681" stroke-width=".05" fill="#6f7681"/><path d="M438.74 1433.1l-14.26-4.65 14.26-4.64z" fill="#6f7681"/><path d="M439.72 1434.43l-18.4-5.98 18.4-5.98zm-12.1-5.98l10.15 3.3v-6.6z" stroke="#6f7681" stroke-width=".05" fill="#6f7681"/><g><use xlink:href="#a" transform="matrix(1,0,0,1,527.3717845283937,1404.3105322448116) translate(0 14.800347222222223)"/><use xlink:href="#b" transform="matrix(1,0,0,1,527.3717845283937,1404.3105322448116) translate(64.01041666666667 14.800347222222223)"/></g><g><use xlink:href="#c" transform="matrix(1,0,0,1,449.8058257451951,1408.3105322448116) translate(0 14.800347222222223)"/><use xlink:href="#l" transform="matrix(1,0,0,1,449.8058257451951,1408.3105322448116) translate(0 34.939236111111114)"/></g><defs><path fill="#333" d="M775-193C708-75 621 20 439 20 226 20 106-93 106-306c0-251 170-341 417-346l223-4c4-143-12-264-148-264-103 0-141 58-150 153l-293-14c37-219 194-321 455-321 263 0 418 130 417 390v392c1 84 5 161 89 160 21 0 42-2 62-6v152c-57 15-108 27-180 26-145 0-202-73-217-205h-6zm-256 17c168 0 234-139 227-325-166 4-347-25-347 173 0 94 33 152 120 152" id="m"/><path fill="#333" d="M622-916c-112 2-200 14-200 111 0 90 89 101 168 121 234 58 514 77 514 368C1104-4 751 54 434 5 267-21 161-112 121-270l247-37c24 111 113 145 252 141 114-3 226-12 226-124 0-101-103-113-192-134-225-54-490-76-490-351 0-247 201-328 458-328 245 0 413 88 457 292l-249 26c-16-98-92-133-208-131" id="n"/><path fill="#333" d="M143 212c82 12 185 12 233-31 50-45 83-117 110-192L38-1082h297c100 284 211 557 291 861 72-305 176-578 270-861h294L742 57c-80 192-156 368-417 368-60 0-131-4-182-13V212" id="o"/><path fill="#333" d="M768-1103c247 0 336 167 336 416V0H824v-619c-3-164-24-273-171-273-164 0-229 142-229 312V0H143c-4-359 9-736-8-1082h268c7 63 12 146 13 215h4c67-145 160-236 348-236" id="p"/><path fill="#333" d="M1109-360C1066-122 902 20 624 20c-347 0-514-209-514-555 0-353 168-567 518-567 270 0 425 136 473 361l-283 14c-16-106-75-183-196-182-75 0-130 31-165 93s-52 152-52 270c0 249 74 374 221 374 120 0 188-82 201-201" id="q"/><g id="a"><use transform="matrix(0.008680555555555556,0,0,0.008680555555555556,0,0)" xlink:href="#m"/><use transform="matrix(0.008680555555555556,0,0,0.008680555555555556,10.668402777777779,0)" xlink:href="#n"/><use transform="matrix(0.008680555555555556,0,0,0.008680555555555556,21.336805555555557,0)" xlink:href="#o"/><use transform="matrix(0.008680555555555556,0,0,0.008680555555555556,32.005208333333336,0)" xlink:href="#p"/><use transform="matrix(0.008680555555555556,0,0,0.008680555555555556,42.673611111111114,0)" xlink:href="#q"/></g><path fill="#333" d="M1113-274C1038-96 884 20 626 20c-352 0-526-209-526-566 0-358 185-556 530-556 358 0 496 251 499 615H395c5 180 68 319 245 319 102 0 186-45 208-129zM857-663c-6-177-128-307-315-247-94 30-141 121-145 247h460" id="r"/><path fill="#333" d="M427-171c3 195 2 397 2 596H148V-846c1-83-4-168-8-236h272c10 49 14 118 15 176h4c59-114 151-197 316-197 291 0 385 259 385 560 0 243-65 433-220 521-50 28-109 42-176 42-162-2-253-78-309-191zm69-661c-91 113-92 463-1 586 46 62 145 101 225 54 96-57 118-191 119-351 0-123-18-215-53-276-46-82-128-115-220-74-25 12-48 33-70 61" id="s"/><g id="b"><use transform="matrix(0.008680555555555556,0,0,0.008680555555555556,0,0)" xlink:href="#r"/><use transform="matrix(0.008680555555555556,0,0,0.008680555555555556,10.668402777777779,0)" xlink:href="#s"/></g><path fill="#ff80df" d="M622-916c-112 2-200 14-200 111 0 90 89 101 168 121 234 58 514 77 514 368C1104-4 751 54 434 5 267-21 161-112 121-270l247-37c24 111 113 145 252 141 114-3 226-12 226-124 0-101-103-113-192-134-225-54-490-76-490-351 0-247 201-328 458-328 245 0 413 88 457 292l-249 26c-16-98-92-133-208-131" id="t"/><path fill="#ff80df" d="M844-1321c-130 0-195 53-191 182v57h443v190H653V0H373v-892H117v-190h256v-83c5-247 162-348 422-349 120-1 232 13 327 28v184c-84-10-183-19-278-19" id="u"/><path fill="#ff80df" d="M-5 220v-96h1238v96H-5" id="v"/><path fill="#ff80df" d="M794-190h353V0H118v-190h395v-1104H223v-190h571v1294" id="w"/><path fill="#ff80df" d="M470 0v-305h289V0H470zm0-780v-305h289v305H470" id="x"/><g id="c"><use transform="matrix(0.008680555555555556,0,0,0.008680555555555556,0,0)" xlink:href="#t"/><use transform="matrix(0.008680555555555556,0,0,0.008680555555555556,10.668402777777779,0)" xlink:href="#u"/><use transform="matrix(0.008680555555555556,0,0,0.008680555555555556,21.336805555555557,0)" xlink:href="#v"/><use transform="matrix(0.008680555555555556,0,0,0.008680555555555556,32.005208333333336,0)" xlink:href="#w"/><use transform="matrix(0.008680555555555556,0,0,0.008680555555555556,42.673611111111114,0)" xlink:href="#t"/><use transform="matrix(0.008680555555555556,0,0,0.008680555555555556,53.34201388888889,0)" xlink:href="#x"/></g><path fill="#ff80df" d="M1113-274C1038-96 884 20 626 20c-352 0-526-209-526-566 0-358 185-556 530-556 358 0 496 251 499 615H395c5 180 68 319 245 319 102 0 186-45 208-129zM857-663c-6-177-128-307-315-247-94 30-141 121-145 247h460" id="y"/><path fill="#ff80df" d="M934-1102c199 0 220 177 220 381V0H926c-2-260 10-533-4-785-4-72-14-138-83-138-34 0-61 27-81 81s-29 134-29 241V0H501c-2-260 9-533-5-785-4-72-13-138-82-138-46 0-65 47-80 93-21 67-30 155-30 248V0H75c-3-360 6-732-6-1082h209c6 50 3 123 8 175 36-100 83-195 216-195 135 0 166 79 196 196 42-105 93-196 236-196" id="z"/><path fill="#ff80df" d="M427-171c3 195 2 397 2 596H148V-846c1-83-4-168-8-236h272c10 49 14 118 15 176h4c59-114 151-197 316-197 291 0 385 259 385 560 0 243-65 433-220 521-50 28-109 42-176 42-162-2-253-78-309-191zm69-661c-91 113-92 463-1 586 46 62 145 101 225 54 96-57 118-191 119-351 0-123-18-215-53-276-46-82-128-115-220-74-25 12-48 33-70 61" id="A"/><path fill="#ff80df" d="M711 13c-250 0-386-99-385-349l2-556H161v-190h181l88-282h176v282h385v190H606v530c-10 130 45 186 174 184 91-2 176-11 255-27v186C933-1 833 13 711 13" id="B"/><path fill="#ff80df" d="M143 212c82 12 185 12 233-31 50-45 83-117 110-192L38-1082h297c100 284 211 557 291 861 72-305 176-578 270-861h294L742 57c-80 192-156 368-417 368-60 0-131-4-182-13V212" id="C"/><g id="d"><use transform="matrix(0.008680555555555556,0,0,0.008680555555555556,0,0)" xlink:href="#y"/><use transform="matrix(0.008680555555555556,0,0,0.008680555555555556,10.668402777777779,0)" xlink:href="#z"/><use transform="matrix(0.008680555555555556,0,0,0.008680555555555556,21.336805555555557,0)" xlink:href="#A"/><use transform="matrix(0.008680555555555556,0,0,0.008680555555555556,32.005208333333336,0)" xlink:href="#B"/><use transform="matrix(0.008680555555555556,0,0,0.008680555555555556,42.673611111111114,0)" xlink:href="#C"/></g><path fill="#6f7681" d="M24 0v-54h51V0H24" id="D"/><use transform="matrix(0.06172839506172839,0,0,0.06172839506172839,0,0)" xlink:href="#D" id="e"/><use transform="matrix(0.06172839506172839,0,0,0.06172839506172839,0,0)" xlink:href="#D" id="f"/><use transform="matrix(0.06172839506172839,0,0,0.06172839506172839,0,0)" xlink:href="#D" id="g"/><path d="M878-785c2-107-76-132-183-131-119 2-205 19-222 111-16 90 70 102 145 121 212 54 501 76 442 368C1012-80 798 20 511 20 263 20 83-39 68-270l255-37c-3 153 168 150 315 135 82-9 147-41 159-118 16-101-81-113-165-134-152-39-331-58-402-177-56-94-15-240 36-311 90-126 249-191 465-191 227 0 393 72 401 292" id="E"/><use transform="matrix(0.010850694444444444,0,0,0.010850694444444444,0,0)" xlink:href="#E" id="i"/><path d="M934-19C661 27 215 78 277-280c36-207 80-407 119-612H229l37-190h181l143-282h176l-55 282h385l-37 190H674c-37 191-72 381-110 573-40 205 250 136 406 114" id="F"/><use transform="matrix(0.010850694444444444,0,0,0.010850694444444444,0,0)" xlink:href="#F" id="j"/><path d="M356-176c-12 58-30 126-49 176H35c16-68 38-154 54-236l242-1248h281c-38 191-72 384-113 572h2c73-110 181-188 354-191 248-4 322 202 293 457-33 283-138 514-343 624-54 29-114 42-177 42-150-2-235-73-268-196h-4zm483-364c32-163 38-378-131-372-124 4-181 90-228 188-68 142-150 552 86 552 64 0 120-31 167-92s82-154 106-276" id="G"/><path d="M1061-274C957-107 790 19 517 20 218 21 54-146 88-462c35-319 185-528 448-611 67-21 135-29 203-29 270 2 398 150 401 417 0 72-9 133-21 198H385c-33 166 14 324 183 319 116-3 193-49 233-129zM881-663c35-185-91-308-267-247-105 37-165 127-193 247h460" id="H"/><path d="M877-1103c184-4 269 96 271 273 0 43-5 91-15 143L999 0H719l120-619c29-130 29-284-118-273-178 13-258 152-289 312L319 0H38c66-362 146-710 202-1082h268c-5 70-17 151-28 215h4c91-138 196-231 393-236" id="I"/><path d="M1074-360C991-138 813 15 515 20 220 25 64-146 97-454c33-303 170-518 413-610 69-26 145-38 227-38 250 0 397 117 403 361l-286 14c6-112-45-182-160-182-75 0-135 32-183 93-64 81-123 271-123 431 0 142 55 213 166 213 129 0 207-88 241-201" id="J"/><path d="M840-621c27-126 31-283-121-270-178 15-256 153-287 312L319 0H38l288-1484h281c-42 207-76 422-128 618h4c93-140 195-226 394-236 239-12 300 182 255 416L999 0H719" id="K"/><g id="k"><use transform="matrix(0.010850694444444444,0,0,0.010850694444444444,0,0)" xlink:href="#G"/><use transform="matrix(0.010850694444444444,0,0,0.010850694444444444,13.335503472222221,0)" xlink:href="#H"/><use transform="matrix(0.010850694444444444,0,0,0.010850694444444444,26.671006944444443,0)" xlink:href="#I"/><use transform="matrix(0.010850694444444444,0,0,0.010850694444444444,40.006510416666664,0)" xlink:href="#J"/><use transform="matrix(0.010850694444444444,0,0,0.010850694444444444,53.342013888888886,0)" xlink:href="#K"/></g><path fill="#ff80df" d="M794-190h353V0H118v-190h395v-702H223v-190h571v892zM513-1277v-207h281v207H513" id="L"/><path fill="#ff80df" d="M802-909c-3-189-2-383-2-575h281v1248c-1 83 4 168 8 236H817c-9-50-14-117-15-176h-4C735-49 651 20 482 20 191 20 97-238 97-539c0-243 66-432 221-519 50-28 108-42 175-42 162 2 253 78 309 191zm-70 658c91-113 93-462 2-584-46-61-145-100-224-53-96 56-119 190-120 349 0 123 17 214 52 275 46 82 130 115 222 74 25-12 46-33 68-61" id="M"/><g id="l"><use transform="matrix(0.008680555555555556,0,0,0.008680555555555556,0,0)" xlink:href="#u"/><use transform="matrix(0.008680555555555556,0,0,0.008680555555555556,10.668402777777779,0)" xlink:href="#L"/><use transform="matrix(0.008680555555555556,0,0,0.008680555555555556,21.336805555555557,0)" xlink:href="#w"/><use transform="matrix(0.008680555555555556,0,0,0.008680555555555556,32.005208333333336,0)" xlink:href="#w"/><use transform="matrix(0.008680555555555556,0,0,0.008680555555555556,42.673611111111114,0)" xlink:href="#y"/><use transform="matrix(0.008680555555555556,0,0,0.008680555555555556,53.34201388888889,0)" xlink:href="#M"/></g></defs></g></svg>