<svg xmlns="http://www.w3.org/2000/svg" xmlns:xlink="http://www.w3.org/1999/xlink" xmlns:lucid="lucid" width="712.82" height="530.05"><g transform="translate(-468.9223292970784 -13.642800478641618)" lucid:page-tab-id="URPhxbXziIgc"><path d="M844.16 117.47a6 6 0 0 1 6-6h324.58a6 6 0 0 1 6 6V536.7a6 6 0 0 1-6 6H850.16a6 6 0 0 1-6-6z" stroke="#4c535d" stroke-width="2" fill="#dedeff"/><path d="M469.92 117.47a6 6 0 0 1 6-6h362.24a6 6 0 0 1 6 6V536.7a6 6 0 0 1-6 6H475.92a6 6 0 0 1-6-6z" stroke="#4c535d" stroke-width="2" fill="#ffd6f5"/><path d="M766.43 311.57c8.75 0 15.84 14.2 15.84 31.7s-7.1 31.68-15.84 31.68H639.68c-8.75 0-15.84-14.2-15.84-31.7s7.1-31.68 15.84-31.68z" fill="#fff"/><path d="M776.67 319.25l.92 1.53 2.2 5.47.85 3.72m1.2 7.55l.42 5.74-.44 5.73m-1.18 7.55l-.95 4-2.2 5.4-.82 1.32m-4.9 5.82l-1.48.9-1.36.55-1.3.3-1.2.1h-6.35m-8.46 0h-12.67m-8.45 0h-12.68m-8.45 0H696.7m-8.45 0H675.6m-8.46 0h-12.67m-8.45 0h-6.34l-1.27-.1-1.3-.32-1.36-.57-1.4-.87m-4.9-5.83l-.92-1.53-2.2-5.47-.86-3.72m-1.2-7.55l-.42-5.74.44-5.73m1.18-7.56l.95-4 2.22-5.4.8-1.32m4.9-5.82l1.5-.9 1.35-.56 1.3-.3 1.2-.1h6.35m8.45 0h12.67m8.45 0h12.67m8.45 0h12.67m8.44 0h12.68m8.45 0h12.67m8.45 0h6.33l1.27.1 1.3.32 1.37.56 1.4.87" stroke="#3a414a" stroke-width="4" fill="none"/><path d="M639.68 311.57c8.75 0 15.85 14.2 15.85 31.7s-7.1 31.68-15.85 31.68" fill="none"/><path d="M639.68 311.57l1.28.1 1.3.32 1.37.56 1.4.87m4.9 5.82l.92 1.53 2.2 5.47.86 3.72m1.2 7.55l.43 5.74-.45 5.73m-1.17 7.55l-.94 4-2.2 5.4-.83 1.32m-4.9 5.82l-1.47.9-1.36.55-1.3.3-1.22.1" stroke="#3a414a" stroke-width="4" fill="none"/><path d="M586.58 336.73a6 6 0 0 1 6-6h25.26a6 6 0 0 1 6 6v13.06a6 6 0 0 1-6 6h-25.26a6 6 0 0 1-6-6z" stroke="#000" stroke-opacity="0" stroke-width="3" fill-opacity="0"/><path d="M615.67 343.26h4.67" stroke="#3a414a" stroke-width="7" fill="none"/><path d="M597.9 343.26l14.27-4.63v9.26z" stroke="#3a414a" stroke-width="7" fill="#3a414a"/><path d="M623.84 346.74h-3.6v-6.95h3.6z" stroke="#3a414a" stroke-width=".05" fill="#3a414a"/><path d="M644.84 332.57a6 6 0 0 1 6 6v9.5a6 6 0 0 1-6 6h-9.5a6 6 0 0 1-6-6v-9.5a6 6 0 0 1 6-6z" stroke="#3a414a" stroke-width="3" fill-opacity="0"/><path d="M734.82 343.26c0 11.52-9.34 20.86-20.86 20.86s-20.86-9.34-20.86-20.86 9.34-20.86 20.86-20.86 20.86 9.34 20.86 20.86z" stroke="#000" stroke-opacity="0" stroke-width="2" fill="#82755b"/><use xlink:href="#a" transform="matrix(1,0,0,1,698.1053177754416,327.40179463174394) translate(9.33224826388889 22.50043402777778)"/><path d="M819.53 349.84a6 6 0 0 1-6 6h-25.26a6 6 0 0 1-6-6V336.8a6 6 0 0 1 6-6h25.26a6 6 0 0 1 6 6z" stroke="#000" stroke-opacity="0" stroke-width="3" fill-opacity="0"/><path d="M816.03 343.32h-4.67" stroke="#82755b" stroke-width="7" fill="none"/><path d="M819.53 346.8h-3.6v-6.96h3.6z" stroke="#82755b" stroke-width=".05" fill="#82755b"/><path d="M793.6 343.32l14.26-4.64v9.27z" stroke="#82755b" stroke-width="7" fill="#82755b"/><path d="M639.68 223.57c-8.75 0-15.84-14.2-15.84-31.7s7.1-31.67 15.84-31.67h126.75c8.75 0 15.84 14.18 15.84 31.68s-7.1 31.7-15.84 31.7z" fill="#fff"/><path d="M629.44 215.9l-.92-1.54-2.2-5.47-.86-3.73m-1.2-7.55l-.42-5.74.44-5.73m1.18-7.55l.95-4.02 2.22-5.37.8-1.33m4.9-5.82l1.5-.9 1.35-.56 1.3-.3 1.2-.1h6.35m8.45 0h12.67m8.45 0h12.67m8.45 0h12.67m8.44 0h12.68m8.45 0h12.67m8.45 0h6.33l1.27.1 1.3.3 1.37.58 1.4.88m4.9 5.8l.92 1.54 2.2 5.48.85 3.72m1.2 7.55l.42 5.73-.44 5.74m-1.18 7.55l-.95 4.02-2.2 5.36-.82 1.34m-4.9 5.82l-1.48.9-1.36.56-1.3.3-1.2.1h-6.35m-8.46 0h-12.67m-8.45 0h-12.68m-8.45 0H696.7m-8.45 0H675.6m-8.46 0h-12.67m-8.45 0h-6.34l-1.27-.1-1.3-.32-1.36-.58-1.4-.87" stroke="#3a414a" stroke-width="4" fill="none"/><path d="M766.43 223.57c-8.75 0-15.85-14.2-15.85-31.7s7.1-31.67 15.85-31.67" fill="none"/><path d="M766.43 223.57l-1.28-.1-1.3-.3-1.37-.6-1.4-.86m-4.9-5.8l-.92-1.54-2.2-5.47-.86-3.73m-1.2-7.55l-.42-5.74.45-5.73m1.17-7.55l.95-4.02 2.2-5.37.83-1.33m4.9-5.82l1.47-.9 1.36-.56 1.3-.3 1.23-.1" stroke="#3a414a" stroke-width="4" fill="none"/><path d="M819.53 198.4a6 6 0 0 1-6 6h-25.26a6 6 0 0 1-6-6v-13.04a6 6 0 0 1 6-6h25.26a6 6 0 0 1 6 6z" stroke="#000" stroke-opacity="0" stroke-width="3" fill-opacity="0"/><path d="M790.44 191.88h-4.67" stroke="#82755b" stroke-width="7" fill="none"/><path d="M808.2 191.88l-14.26 4.64v-9.27z" stroke="#82755b" stroke-width="7" fill="#82755b"/><path d="M785.86 195.36h-3.6v-6.95h3.6z" stroke="#82755b" stroke-width=".05" fill="#82755b"/><path d="M761.27 202.57a6 6 0 0 1-6-6v-9.5a6 6 0 0 1 6-6h9.5a6 6 0 0 1 6 6v9.5a6 6 0 0 1-6 6z" stroke="#3a414a" stroke-width="3" fill="#82755b"/><path d="M713 191.88c0 11.52-9.33 20.86-20.85 20.86-11.52 0-20.86-9.34-20.86-20.86s9.33-20.85 20.85-20.85c11.52 0 20.86 9.33 20.86 20.85z" stroke="#000" stroke-opacity="0" stroke-width="2" fill="#82755b"/><use xlink:href="#b" transform="matrix(1,0,0,1,676.2894184348751,176.02543047340004) translate(9.33224826388889 22.50043402777778)"/><path d="M586.58 185.3a6 6 0 0 1 6-6h25.26a6 6 0 0 1 6 6v13.05a6 6 0 0 1-6 6h-25.26a6 6 0 0 1-6-6z" stroke="#000" stroke-opacity="0" stroke-width="3" fill-opacity="0"/><path d="M590.08 191.82h4.67M590.17 191.82h-3.6" stroke="#3a414a" stroke-width="7" fill="none"/><path d="M612.5 191.82l-14.25 4.64v-9.27z" stroke="#3a414a" stroke-width="7" fill="#3a414a"/><path d="M766.43 462.95c8.75 0 15.84 14.2 15.84 31.7s-7.1 31.67-15.84 31.67H639.68c-8.75 0-15.84-14.18-15.84-31.68s7.1-31.7 15.84-31.7z" fill="#fff"/><path d="M776.67 470.62l.92 1.54 2.2 5.47.85 3.72m1.2 7.55l.42 5.74-.44 5.73m-1.17 7.55l-.96 4.02-2.2 5.37-.82 1.35m-4.9 5.82l-1.47.9-1.36.56-1.3.3-1.2.1h-6.35m-8.46 0h-12.67m-8.45 0h-12.68m-8.45 0H696.7m-8.45 0H675.6m-8.45 0h-12.68m-8.45 0h-6.34l-1.27-.1-1.3-.32-1.36-.56-1.4-.88m-4.9-5.8l-.92-1.54-2.2-5.48-.86-3.72m-1.2-7.55l-.42-5.73.44-5.74m1.18-7.55l.95-4.02 2.22-5.37.8-1.34m4.9-5.82l1.5-.9 1.35-.56 1.3-.3 1.2-.1h6.35m8.45 0h12.68m8.44 0h12.67m8.45 0h12.67m8.44 0h12.68m8.45 0h12.67m8.45 0h6.33l1.27.1 1.3.32 1.37.58 1.4.87" stroke="#3a414a" stroke-width="4" fill="none"/><path d="M639.68 462.95c8.75 0 15.85 14.2 15.85 31.7s-7.1 31.67-15.85 31.67" fill="none"/><path d="M639.68 462.95l1.28.1 1.3.3 1.37.6 1.4.86m4.9 5.82l.92 1.54 2.2 5.47.86 3.72m1.2 7.55l.43 5.74-.45 5.73m-1.17 7.55l-.94 4.02-2.2 5.37-.83 1.35m-4.9 5.82l-1.47.9-1.36.56-1.3.3-1.22.1" stroke="#3a414a" stroke-width="4" fill="none"/><path d="M586.58 488.1a6 6 0 0 1 6-6h25.26a6 6 0 0 1 6 6v13.06a6 6 0 0 1-6 6h-25.26a6 6 0 0 1-6-6z" stroke="#000" stroke-opacity="0" stroke-width="3" fill-opacity="0"/><path d="M615.67 494.64h4.67" stroke="#3a414a" stroke-width="7" fill="none"/><path d="M597.9 494.64l14.27-4.64v9.27z" stroke="#3a414a" stroke-width="7" fill="#3a414a"/><path d="M623.84 498.1h-3.6v-6.94h3.6z" stroke="#3a414a" stroke-width=".05" fill="#3a414a"/><path d="M644.84 483.94a6 6 0 0 1 6 6v9.5a6 6 0 0 1-6 6h-9.5a6 6 0 0 1-6-6v-9.5a6 6 0 0 1 6-6z" stroke="#3a414a" stroke-width="3" fill-opacity="0"/><path d="M734.82 494.64c0 11.52-9.34 20.85-20.86 20.85s-20.86-9.34-20.86-20.86 9.34-20.86 20.86-20.86 20.86 9.34 20.86 20.86z" stroke="#000" stroke-opacity="0" stroke-width="2" fill="#82755b"/><use xlink:href="#c" transform="matrix(1,0,0,1,698.1053177754416,478.7781587900876) translate(9.33224826388889 22.50043402777778)"/><path d="M819.53 501.22a6 6 0 0 1-6 6h-25.26a6 6 0 0 1-6-6v-13.05a6 6 0 0 1 6-6h25.26a6 6 0 0 1 6 6z" stroke="#000" stroke-opacity="0" stroke-width="3" fill-opacity="0"/><path d="M816.03 494.7h-4.67" stroke="#82755b" stroke-width="7" fill="none"/><path d="M819.53 498.17h-3.6v-6.95h3.6z" stroke="#82755b" stroke-width=".05" fill="#82755b"/><path d="M793.6 494.7l14.26-4.64v9.27z" stroke="#82755b" stroke-width="7" fill="#82755b"/><path d="M545.33 401.8c0 8.74-14.2 15.83-31.7 15.83s-31.68-7.1-31.68-15.84V275.04c0-8.75 14.2-15.85 31.7-15.85s31.68 7.1 31.68 15.85z" fill="#fff"/><path d="M537.65 412.04l-1.53.9-5.47 2.22-3.72.85m-7.55 1.2l-5.74.43-5.73-.44m-7.55-1.18l-4-.96-5.4-2.2-1.32-.82m-5.82-4.9l-.9-1.47-.55-1.37-.3-1.3-.1-1.2v-6.35m0-8.45v-12.67m0-8.45V353.2m0-8.44v-12.68m0-8.45v-12.67m0-8.45v-12.67m0-8.45v-6.33l.1-1.28.32-1.3.57-1.37.87-1.4m5.83-4.9l1.53-.92 5.47-2.2 3.73-.86m7.55-1.2l5.74-.42 5.74.45m7.55 1.17l4.02.95 5.37 2.2 1.34.83m5.82 4.9l.9 1.47.55 1.36.3 1.3.1 1.22v6.33m0 8.45v12.68m0 8.46v12.67m0 8.45v12.68m0 8.44v12.68m0 8.45V387m0 8.45v6.34l-.1 1.26-.3 1.3-.6 1.37-.86 1.4" stroke="#3a414a" stroke-width="4" fill="none"/><path d="M545.33 275.05c0 8.75-14.2 15.84-31.7 15.84s-31.68-7.1-31.68-15.85" fill="none"/><path d="M545.33 275.05l-.1 1.27-.3 1.3-.6 1.37-.86 1.4m-5.82 4.9l-1.53.9-5.47 2.22-3.72.85m-7.55 1.2l-5.74.42-5.73-.45m-7.55-1.18l-4-.95-5.4-2.2-1.32-.82m-5.82-4.9l-.9-1.47-.55-1.37-.3-1.3-.1-1.2" stroke="#3a414a" stroke-width="4" fill="none"/><path d="M520.17 221.95a6 6 0 0 1 6 6v25.25a6 6 0 0 1-6 6h-13.05a6 6 0 0 1-6-6v-25.25a6 6 0 0 1 6-6z" stroke="#000" stroke-opacity="0" stroke-width="3" fill-opacity="0"/><path d="M513.64 251.04v4.66" stroke="#ff80df" stroke-width="7" fill="none"/><path d="M513.64 233.27l4.64 14.27H509z" stroke="#ff80df" stroke-width="7" fill="#ff80df"/><path d="M517.12 259.2h-6.95v-3.6h6.95z" stroke="#ff80df" stroke-width=".05" fill="#ff80df"/><path d="M524.33 280.2a6 6 0 0 1-6 6h-9.5a6 6 0 0 1-6-6v-9.5a6 6 0 0 1 6-6h9.5a6 6 0 0 1 6 6z" stroke="#3a414a" stroke-width="3" fill="#ff80df"/><path d="M534.5 349.33c0 11.52-9.34 20.85-20.86 20.85s-20.85-9.33-20.85-20.85c0-11.52 9.32-20.86 20.84-20.86s20.86 9.34 20.86 20.86z" stroke="#000" stroke-opacity="0" stroke-width="2" fill="#ff80df"/><use xlink:href="#d" transform="matrix(1,0,0,1,497.7848511726935,333.4677811269791) translate(-17.338758680555557 21.91362847222222)"/><path d="M507.06 454.9a6 6 0 0 1-6-6v-25.27a6 6 0 0 1 6-6h13.05a6 6 0 0 1 6 6v25.26a6 6 0 0 1-6 6z" stroke="#000" stroke-opacity="0" stroke-width="3" fill-opacity="0"/><path d="M513.6 451.4v-4.68" stroke="#ff80df" stroke-width="7" fill="none"/><path d="M517.06 454.9h-6.95v-3.6h6.96z" stroke="#ff80df" stroke-width=".05" fill="#ff80df"/><path d="M513.6 428.96l4.62 14.26h-9.27z" stroke="#ff80df" stroke-width="7" fill="#ff80df"/><path d="M573.1 258.33a6 6 0 0 1 6-6h226.1a6 6 0 0 1 6 6v29.26c-39.77-5.9-64.53-5.9-79.53-5.9-23.8 0-55.47 5.9-79.28 5.9-14.78 0-39.78 0-79.3-5.9z" stroke="#3a414a" stroke-width="2" fill="#fff"/><use xlink:href="#e" transform="matrix(1,0,0,1,578.0980412013273,257.33077050135756) translate(7.815972222222186 18.50043402777778)"/><path d="M819.53 192.88v27.9a6 6 0 0 0 6 6h321.13a6 6 0 0 1 6 6v91.93" stroke="#6db1ff" stroke-width="2" fill="none"/><path d="M819.53 192.9h-.98v-4.02h.98z" stroke="#6db1ff" stroke-width=".05" fill="#6db1ff"/><path d="M1152.66 339.98l-4.64-14.27h9.28z" stroke="#6db1ff" stroke-width="2" fill="#6db1ff"/><path d="M918.7 343.16h-80.67" stroke="#6db1ff" stroke-width="2" fill="none"/><path d="M919.7 344.13h-1v-1.95h1z" stroke="#6db1ff" stroke-width=".05" fill="#6db1ff"/><path d="M822.76 343.16l14.27-4.64v9.27z" stroke="#6db1ff" stroke-width="2" fill="#6db1ff"/><path d="M692.15 250.33v-19.1" stroke="#000" stroke-width="2" fill="none"/><path d="M693.12 251.33h-1.95v-1.03h1.95z" stroke="#000" stroke-width=".05"/><path d="M692.15 215.98l4.63 14.26h-9.27z" stroke="#000" stroke-width="2"/><path d="M1099.56 311.47c8.75 0 15.84 14.2 15.84 31.7s-7.1 31.67-15.84 31.67H972.82c-8.75 0-15.85-14.18-15.85-31.68s7.1-31.7 15.85-31.7z" fill="#fff"/><path d="M1109.8 319.14l.92 1.54 2.2 5.47.86 3.72m1.2 7.55l.42 5.74-.44 5.73m-1.17 7.55l-.97 4-2.2 5.38-.82 1.34m-4.9 5.82l-1.46.9-1.37.55-1.3.3-1.2.1h-6.35m-8.45 0h-12.67m-8.45 0h-12.68m-8.45 0h-12.67m-8.45 0h-12.67m-8.45 0H987.6m-8.45 0h-6.33l-1.28-.1-1.3-.32-1.37-.57-1.4-.87m-4.9-5.83l-.92-1.53-2.2-5.48-.86-3.72m-1.2-7.55l-.43-5.74.45-5.74m1.17-7.55l.94-4.02 2.2-5.37.82-1.34m4.9-5.82l1.48-.9 1.36-.56 1.3-.3 1.22-.1h6.33m8.45 0h12.68m8.45 0h12.67m8.45 0h12.67m8.45 0h12.68m8.45 0h12.67m8.45 0h6.34l1.27.1 1.3.32 1.37.58 1.4.87" stroke="#3a414a" stroke-width="4" fill="none"/><path d="M972.82 311.47c8.75 0 15.84 14.2 15.84 31.7s-7.1 31.67-15.84 31.67" fill="none"/><path d="M972.82 311.47l1.27.1 1.3.3 1.36.6 1.4.86m4.9 5.8l.92 1.55 2.2 5.47.86 3.72m1.2 7.55l.42 5.74-.44 5.73m-1.18 7.55l-.95 4-2.22 5.38-.8 1.34m-4.9 5.82l-1.5.9-1.35.55-1.3.3-1.2.1" stroke="#3a414a" stroke-width="4" fill="none"/><path d="M919.7 336.63a6 6 0 0 1 6-6H951a6 6 0 0 1 6 6v13.05a6 6 0 0 1-6 6h-25.25a6 6 0 0 1-6-6z" stroke="#000" stroke-opacity="0" stroke-width="3" fill-opacity="0"/><path d="M948.8 343.16h4.67" stroke="#ffe342" stroke-width="7" fill="none"/><path d="M931.04 343.16l14.27-4.64v9.27z" stroke="#ffe342" stroke-width="7" fill="#ffe342"/><path d="M956.97 346.63h-3.6v-6.95h3.6z" stroke="#ffe342" stroke-width=".05" fill="#ffe342"/><path d="M977.97 332.46a6 6 0 0 1 6 6v9.5a6 6 0 0 1-6 6h-9.5a6 6 0 0 1-6-6v-9.5a6 6 0 0 1 6-6z" stroke="#3a414a" stroke-width="3" fill="#ffe342"/><path d="M1067.95 343.16c0 11.52-9.34 20.85-20.86 20.85s-20.86-9.32-20.86-20.84 9.34-20.86 20.86-20.86 20.85 9.34 20.85 20.86z" stroke="#000" stroke-opacity="0" stroke-width="2" fill="#ffe342"/><use xlink:href="#f" transform="matrix(1,0,0,1,1031.2369821144885,327.2981355577853) translate(9.33224826388889 22.50043402777778)"/><path d="M1152.66 349.74a6 6 0 0 1-6 6h-25.26a6 6 0 0 1-6-6V336.7a6 6 0 0 1 6-6h25.26a6 6 0 0 1 6 6z" stroke="#000" stroke-opacity="0" stroke-width="3" fill-opacity="0"/><path d="M1149.16 343.2h-4.67" stroke="#ffe342" stroke-width="7" fill="none"/><path d="M1152.66 346.7h-3.6v-6.96h3.6z" stroke="#ffe342" stroke-width=".05" fill="#ffe342"/><path d="M1126.73 343.2l14.26-4.62v9.27z" stroke="#ffe342" stroke-width="7" fill="#ffe342"/><path d="M1114.56 462.84c8.75 0 15.84 14.2 15.84 31.7s-7.1 31.68-15.84 31.68H987.82c-8.75 0-15.85-14.2-15.85-31.7s7.1-31.68 15.85-31.68z" fill="#fff"/><path d="M1124.8 470.52l.92 1.53 2.2 5.47.86 3.72m1.2 7.56l.42 5.73-.44 5.74m-1.17 7.55l-.97 4.02-2.2 5.37-.82 1.35m-4.9 5.82l-1.46.9-1.37.55-1.3.3-1.2.1h-6.35m-8.45 0h-12.67m-8.45 0h-12.68m-8.45 0h-12.67m-8.45 0h-12.67m-8.45 0h-12.68m-8.45 0h-6.33l-1.28-.1-1.3-.3-1.37-.6-1.4-.86m-4.9-5.82l-.92-1.53-2.2-5.46-.86-3.72m-1.2-7.55l-.43-5.74.45-5.73m1.17-7.56l.94-4 2.2-5.4.83-1.32m4.9-5.82l1.47-.9 1.36-.56 1.3-.3 1.22-.1h6.33m8.45 0h12.68m8.45 0h12.67m8.45 0h12.67m8.45 0h12.68m8.45 0h12.67m8.45 0h6.34l1.27.1 1.3.32 1.37.57 1.4.87" stroke="#3a414a" stroke-width="4" fill="none"/><path d="M987.82 462.84c8.75 0 15.84 14.2 15.84 31.7s-7.1 31.68-15.84 31.68" fill="none"/><path d="M987.82 462.84l1.27.1 1.3.32 1.36.57 1.4.87m4.9 5.82l.92 1.53 2.2 5.47.86 3.72m1.2 7.56l.42 5.73-.44 5.74m-1.18 7.55l-.95 4.02-2.22 5.37-.8 1.35m-4.9 5.82l-1.5.9-1.35.55-1.3.3-1.2.1" stroke="#3a414a" stroke-width="4" fill="none"/><path d="M934.7 488a6 6 0 0 1 6-6H966a6 6 0 0 1 6 6v13.06a6 6 0 0 1-6 6h-25.25a6 6 0 0 1-6-6z" stroke="#000" stroke-opacity="0" stroke-width="3" fill-opacity="0"/><path d="M963.8 494.53h4.67" stroke="#ffe342" stroke-width="7" fill="none"/><path d="M946.04 494.53l14.27-4.63v9.27z" stroke="#ffe342" stroke-width="7" fill="#ffe342"/><path d="M971.97 498h-3.6v-6.94h3.6z" stroke="#ffe342" stroke-width=".05" fill="#ffe342"/><path d="M992.97 483.84a6 6 0 0 1 6 6v9.5a6 6 0 0 1-6 6h-9.5a6 6 0 0 1-6-6v-9.5a6 6 0 0 1 6-6z" stroke="#3a414a" stroke-width="3" fill="#ffe342"/><path d="M1082.95 494.53c0 11.52-9.34 20.86-20.86 20.86s-20.86-9.35-20.86-20.87c0-11.52 9.34-20.86 20.86-20.86s20.85 9.34 20.85 20.86z" stroke="#000" stroke-opacity="0" stroke-width="2" fill="#ffe342"/><use xlink:href="#g" transform="matrix(1,0,0,1,1046.2369821144885,478.674499716129) translate(9.33224826388889 22.50043402777778)"/><path d="M1167.66 501.12a6 6 0 0 1-6 6h-25.26a6 6 0 0 1-6-6v-13.05a6 6 0 0 1 6-6h25.26a6 6 0 0 1 6 6z" stroke="#000" stroke-opacity="0" stroke-width="3" fill-opacity="0"/><path d="M1164.16 494.6h-4.67" stroke="#ffe342" stroke-width="7" fill="none"/><path d="M1167.66 498.07h-3.6v-6.95h3.6z" stroke="#ffe342" stroke-width=".05" fill="#ffe342"/><path d="M1141.73 494.6l14.26-4.65v9.28z" stroke="#ffe342" stroke-width="7" fill="#ffe342"/><path d="M919.16 344l-89.43 135.26" stroke="#6db1ff" stroke-width="2" fill="none"/><path d="M919.7 344.4l-1.36-.93 1.38-2.08z" stroke="#6db1ff" stroke-width=".05" fill="#6db1ff"/><path d="M821.3 492l4-14.46 7.75 5.1z" stroke="#6db1ff" stroke-width="2" fill="#6db1ff"/><path d="M933.7 494.53h-95.56" stroke="#6db1ff" stroke-width="2" fill="none"/><path d="M934.7 495.5h-1v-1.94h1z" stroke="#6db1ff" stroke-width=".05" fill="#6db1ff"/><path d="M822.87 494.53l14.27-4.63v9.27z" stroke="#6db1ff" stroke-width="2" fill="#6db1ff"/><path d="M934.1 493.74l-57.96-76.1c2.2-1.68 2.62-4.82.94-7.02-1.67-2.2-4.8-2.62-7-.94l-39.34-51.64" stroke="#6db1ff" stroke-width="2" fill="none"/><path d="M934.7 496.14l-1.38-1.83 1.4-1.06z" stroke="#6db1ff" stroke-width=".05" fill="#6db1ff"/><path d="M821.5 345.9l12.32 8.53-7.37 5.62z" stroke="#6db1ff" stroke-width="2" fill="#6db1ff"/><path d="M910.53 487.02c0 10.3-7.95 18.63-17.77 18.63s-17.78-8.34-17.78-18.63c0-10.3 7.96-18.63 17.78-18.63s17.77 8.33 17.77 18.62z" stroke="#3a414a" stroke-width="2" fill="#6db1ff"/><path d="M888.67 473.53a4.1 4.1 0 0 1 4.1-4.1 4.1 4.1 0 0 1 4.08 4.1 4.1 4.1 0 0 1-4.1 4.1 4.1 4.1 0 0 1-4.08-4.1zM899.74 474.38a4.1 4.1 0 0 1 5.8 0 4.1 4.1 0 0 1 0 5.8 4.1 4.1 0 0 1-5.8 0 4.1 4.1 0 0 1 0-5.8zM901.85 487.15a4.1 4.1 0 0 1 4.1-4.1 4.1 4.1 0 0 1 4.08 4.1 4.1 4.1 0 0 1-4.1 4.1 4.1 4.1 0 0 1-4.08-4.1zM905.53 494.14a4.1 4.1 0 0 1 0 5.78 4.1 4.1 0 0 1-5.8 0 4.1 4.1 0 0 1 0-5.78 4.1 4.1 0 0 1 5.8 0zM896.85 500.77a4.1 4.1 0 0 1-4.1 4.1 4.1 4.1 0 0 1-4.08-4.1 4.1 4.1 0 0 1 4.1-4.1 4.1 4.1 0 0 1 4.08 4.1zM885.77 499.92a4.1 4.1 0 0 1-5.78 0 4.1 4.1 0 0 1 0-5.78 4.1 4.1 0 0 1 5.77 0 4.1 4.1 0 0 1 0 5.78zM883.67 487.15a4.1 4.1 0 0 1-4.1 4.1 4.1 4.1 0 0 1-4.1-4.1 4.1 4.1 0 0 1 4.1-4.1 4.1 4.1 0 0 1 4.1 4.1zM880 480.17a4.1 4.1 0 0 1 0-5.8 4.1 4.1 0 0 1 5.77 0 4.1 4.1 0 0 1 0 5.8 4.1 4.1 0 0 1-5.78 0z" stroke="#3a414a" stroke-width="3" fill="#cfe4ff"/><path d="M901.85 487.15c0 5.26-4.07 9.53-9.1 9.53-5 0-9.1-4.27-9.1-9.53s4.1-9.53 9.1-9.53c5.03 0 9.1 4.27 9.1 9.53z" stroke="#3a414a" stroke-width="2" fill="#fff"/><path d="M910.53 444.26c0 10.3-7.95 18.63-17.77 18.63s-17.78-8.35-17.78-18.64c0-10.3 7.96-18.63 17.78-18.63s17.77 8.34 17.77 18.63z" stroke="#3a414a" stroke-width="2" fill="#6db1ff"/><path d="M888.67 430.77a4.1 4.1 0 0 1 4.1-4.1 4.1 4.1 0 0 1 4.08 4.1 4.1 4.1 0 0 1-4.1 4.1 4.1 4.1 0 0 1-4.08-4.1zM899.74 431.62a4.1 4.1 0 0 1 5.8 0 4.1 4.1 0 0 1 0 5.8 4.1 4.1 0 0 1-5.8 0 4.1 4.1 0 0 1 0-5.8zM901.85 444.4a4.1 4.1 0 0 1 4.1-4.1 4.1 4.1 0 0 1 4.08 4.1 4.1 4.1 0 0 1-4.1 4.08 4.1 4.1 0 0 1-4.08-4.1zM905.53 451.38a4.1 4.1 0 0 1 0 5.78 4.1 4.1 0 0 1-5.8 0 4.1 4.1 0 0 1 0-5.8 4.1 4.1 0 0 1 5.8.02zM896.85 458a4.1 4.1 0 0 1-4.1 4.1 4.1 4.1 0 0 1-4.08-4.1 4.1 4.1 0 0 1 4.1-4.08 4.1 4.1 0 0 1 4.08 4.1zM885.77 457.16a4.1 4.1 0 0 1-5.78 0 4.1 4.1 0 0 1 0-5.78 4.1 4.1 0 0 1 5.77 0 4.1 4.1 0 0 1 0 5.78zM883.67 444.4a4.1 4.1 0 0 1-4.1 4.08 4.1 4.1 0 0 1-4.1-4.1 4.1 4.1 0 0 1 4.1-4.08 4.1 4.1 0 0 1 4.1 4.1zM880 437.4a4.1 4.1 0 0 1 0-5.78 4.1 4.1 0 0 1 5.77 0 4.1 4.1 0 0 1 0 5.8 4.1 4.1 0 0 1-5.78-.02z" stroke="#3a414a" stroke-width="3" fill="#cfe4ff"/><path d="M901.85 444.4c0 5.25-4.07 9.52-9.1 9.52-5 0-9.1-4.27-9.1-9.53 0-5.27 4.1-9.54 9.1-9.54 5.03 0 9.1 4.27 9.1 9.53z" stroke="#3a414a" stroke-width="2" fill="#fff"/><path d="M910.53 386.4c0 10.28-7.95 18.62-17.77 18.62s-17.78-8.34-17.78-18.63c0-10.3 7.96-18.64 17.78-18.64s17.77 8.34 17.77 18.63z" stroke="#3a414a" stroke-width="2" fill="#6db1ff"/><path d="M888.67 372.9a4.1 4.1 0 0 1 4.1-4.1 4.1 4.1 0 0 1 4.08 4.1 4.1 4.1 0 0 1-4.1 4.1 4.1 4.1 0 0 1-4.08-4.1zM899.74 373.75a4.1 4.1 0 0 1 5.8 0 4.1 4.1 0 0 1 0 5.8 4.1 4.1 0 0 1-5.8 0 4.1 4.1 0 0 1 0-5.8zM901.85 386.52a4.1 4.1 0 0 1 4.1-4.1 4.1 4.1 0 0 1 4.08 4.1 4.1 4.1 0 0 1-4.1 4.1 4.1 4.1 0 0 1-4.08-4.1zM905.53 393.5a4.1 4.1 0 0 1 0 5.8 4.1 4.1 0 0 1-5.8 0 4.1 4.1 0 0 1 0-5.8 4.1 4.1 0 0 1 5.8 0zM896.85 400.15a4.1 4.1 0 0 1-4.1 4.1 4.1 4.1 0 0 1-4.08-4.1 4.1 4.1 0 0 1 4.1-4.1 4.1 4.1 0 0 1 4.08 4.1zM885.77 399.3a4.1 4.1 0 0 1-5.78 0 4.1 4.1 0 0 1 0-5.8 4.1 4.1 0 0 1 5.77 0 4.1 4.1 0 0 1 0 5.8zM883.67 386.52a4.1 4.1 0 0 1-4.1 4.1 4.1 4.1 0 0 1-4.1-4.1 4.1 4.1 0 0 1 4.1-4.1 4.1 4.1 0 0 1 4.1 4.1zM880 379.54a4.1 4.1 0 0 1 0-5.8 4.1 4.1 0 0 1 5.77 0 4.1 4.1 0 0 1 0 5.8 4.1 4.1 0 0 1-5.78 0z" stroke="#3a414a" stroke-width="3" fill="#cfe4ff"/><path d="M901.85 386.52c0 5.27-4.07 9.53-9.1 9.53-5 0-9.1-4.26-9.1-9.53 0-5.26 4.1-9.52 9.1-9.52 5.03 0 9.1 4.26 9.1 9.52z" stroke="#3a414a" stroke-width="2" fill="#fff"/><path d="M910.53 343.63c0 10.3-7.95 18.63-17.77 18.63s-17.78-8.34-17.78-18.63c0-10.3 7.96-18.63 17.78-18.63s17.77 8.34 17.77 18.63z" stroke="#3a414a" stroke-width="2" fill="#6db1ff"/><path d="M888.67 330.14a4.1 4.1 0 0 1 4.1-4.1 4.1 4.1 0 0 1 4.08 4.1 4.1 4.1 0 0 1-4.1 4.1 4.1 4.1 0 0 1-4.08-4.1zM899.74 331a4.1 4.1 0 0 1 5.8 0 4.1 4.1 0 0 1 0 5.78 4.1 4.1 0 0 1-5.8 0 4.1 4.1 0 0 1 0-5.8zM901.85 343.76a4.1 4.1 0 0 1 4.1-4.1 4.1 4.1 0 0 1 4.08 4.1 4.1 4.1 0 0 1-4.1 4.1 4.1 4.1 0 0 1-4.08-4.1zM905.53 350.75a4.1 4.1 0 0 1 0 5.8 4.1 4.1 0 0 1-5.8 0 4.1 4.1 0 0 1 0-5.8 4.1 4.1 0 0 1 5.8 0zM896.85 357.4a4.1 4.1 0 0 1-4.1 4.08 4.1 4.1 0 0 1-4.08-4.1 4.1 4.1 0 0 1 4.1-4.1 4.1 4.1 0 0 1 4.08 4.1zM885.77 356.54a4.1 4.1 0 0 1-5.78 0 4.1 4.1 0 0 1 0-5.8 4.1 4.1 0 0 1 5.77 0 4.1 4.1 0 0 1 0 5.8zM883.67 343.76a4.1 4.1 0 0 1-4.1 4.1 4.1 4.1 0 0 1-4.1-4.1 4.1 4.1 0 0 1 4.1-4.1 4.1 4.1 0 0 1 4.1 4.1zM880 336.78a4.1 4.1 0 0 1 0-5.8 4.1 4.1 0 0 1 5.77 0 4.1 4.1 0 0 1 0 5.8 4.1 4.1 0 0 1-5.78 0z" stroke="#3a414a" stroke-width="3" fill="#cfe4ff"/><path d="M901.85 343.76c0 5.27-4.07 9.53-9.1 9.53-5 0-9.1-4.27-9.1-9.54 0-5.26 4.1-9.52 9.1-9.52 5.03 0 9.1 4.26 9.1 9.52z" stroke="#3a414a" stroke-width="2" fill="#fff"/><path d="M513.64 220.94v-23.12a6 6 0 0 1 6-6h48.44" stroke="#6db1ff" stroke-width="2" fill="none"/><path d="M514.62 221.94h-1.95v-1.02h1.95z" stroke="#6db1ff" stroke-width=".05" fill="#6db1ff"/><path d="M583.35 191.82l-14.27 4.64v-9.27z" stroke="#6db1ff" stroke-width="2" fill="#6db1ff"/><path d="M532.33 183.57a6 6 0 0 1 6-6h16a6 6 0 0 1 6 6v16a6 6 0 0 1-6 6h-16a6 6 0 0 1-6-6z" stroke="#3a414a" stroke-width="3" fill="#3a414a"/><path d="M532.33 197.57a6 6 0 0 1 6-6h2a6 6 0 0 1 6 6v2a6 6 0 0 1-6 6h-2a6 6 0 0 1-6-6zM532.33 183.57a6 6 0 0 1 6-6h2a6 6 0 0 1 6 6v2a6 6 0 0 1-6 6h-2a6 6 0 0 1-6-6zM546.33 183.57a6 6 0 0 1 6-6h2a6 6 0 0 1 6 6v2a6 6 0 0 1-6 6h-2a6 6 0 0 1-6-6zM546.33 197.57a6 6 0 0 1 6-6h2a6 6 0 0 1 6 6v2a6 6 0 0 1-6 6h-2a6 6 0 0 1-6-6z" stroke="#3a414a" stroke-width="3" fill="#cfe4ff"/><path d="M585.58 494.9h-66a6 6 0 0 1-6-6v-15.5" stroke="#6db1ff" stroke-width="2" fill="none"/><path d="M586.58 495.87h-1.02v-1.95h1.02z" stroke="#6db1ff" stroke-width=".05" fill="#6db1ff"/><path d="M513.6 458.13l4.62 14.26h-9.27z" stroke="#6db1ff" stroke-width="2" fill="#6db1ff"/><path d="M544.33 485.54a6 6 0 0 1 6-6h16a6 6 0 0 1 6 6v16a6 6 0 0 1-6 6h-16a6 6 0 0 1-6-6z" stroke="#3a414a" stroke-width="3" fill="#3a414a"/><path d="M544.33 499.54a6 6 0 0 1 6-6h2a6 6 0 0 1 6 6v2a6 6 0 0 1-6 6h-2a6 6 0 0 1-6-6zM544.33 485.54a6 6 0 0 1 6-6h2a6 6 0 0 1 6 6v2a6 6 0 0 1-6 6h-2a6 6 0 0 1-6-6zM558.33 485.54a6 6 0 0 1 6-6h2a6 6 0 0 1 6 6v2a6 6 0 0 1-6 6h-2a6 6 0 0 1-6-6zM558.33 499.54a6 6 0 0 1 6-6h2a6 6 0 0 1 6 6v2a6 6 0 0 1-6 6h-2a6 6 0 0 1-6-6z" stroke="#3a414a" stroke-width="3" fill="#cfe4ff"/><path d="M586.58 344.26V448.9a6 6 0 0 1-6 6h-48.5" stroke="#6db1ff" stroke-width="2" fill="none"/><path d="M586.58 344.3h-.97v-4.04h.98z" stroke="#6db1ff" stroke-width=".05" fill="#6db1ff"/><path d="M516.82 454.9l14.27-4.64v9.27z" stroke="#6db1ff" stroke-width="2" fill="#6db1ff"/><path d="M544.33 446.43a6 6 0 0 1 6-6h16a6 6 0 0 1 6 6v16a6 6 0 0 1-6 6h-16a6 6 0 0 1-6-6z" stroke="#3a414a" stroke-width="3" fill="#3a414a"/><path d="M544.33 460.43a6 6 0 0 1 6-6h2a6 6 0 0 1 6 6v2a6 6 0 0 1-6 6h-2a6 6 0 0 1-6-6zM544.33 446.43a6 6 0 0 1 6-6h2a6 6 0 0 1 6 6v2a6 6 0 0 1-6 6h-2a6 6 0 0 1-6-6zM558.33 446.43a6 6 0 0 1 6-6h2a6 6 0 0 1 6 6v2a6 6 0 0 1-6 6h-2a6 6 0 0 1-6-6zM558.33 460.43a6 6 0 0 1 6-6h2a6 6 0 0 1 6 6v2a6 6 0 0 1-6 6h-2a6 6 0 0 1-6-6z" stroke="#3a414a" stroke-width="3" fill="#cfe4ff"/><path d="M820.53 191.88h38.97a.03.03 0 0 0 .03-.03.03.03 0 0 1 .03-.03H1162a6 6 0 0 1 6 6v278.62" stroke="#6db1ff" stroke-width="2" fill="none"/><path d="M820.55 192.86h-1.02v-1.95h1.02z" stroke="#6db1ff" stroke-width=".05" fill="#6db1ff"/><path d="M1167.72 491.36l-4.36-14.36 9.27.18z" stroke="#6db1ff" stroke-width="2" fill="#6db1ff"/><path d="M910.53 230.7c0 10.3-7.95 18.63-17.77 18.63s-17.78-8.34-17.78-18.63c0-10.3 7.96-18.63 17.78-18.63s17.77 8.34 17.77 18.63z" stroke="#3a414a" stroke-width="2" fill="#6db1ff"/><path d="M888.67 217.2a4.1 4.1 0 0 1 4.1-4.08 4.1 4.1 0 0 1 4.08 4.1 4.1 4.1 0 0 1-4.1 4.08 4.1 4.1 0 0 1-4.08-4.1zM899.74 218.06a4.1 4.1 0 0 1 5.8 0 4.1 4.1 0 0 1 0 5.8 4.1 4.1 0 0 1-5.8 0 4.1 4.1 0 0 1 0-5.8zM901.85 230.83a4.1 4.1 0 0 1 4.1-4.1 4.1 4.1 0 0 1 4.08 4.1 4.1 4.1 0 0 1-4.1 4.1 4.1 4.1 0 0 1-4.08-4.1zM905.53 237.82a4.1 4.1 0 0 1 0 5.78 4.1 4.1 0 0 1-5.8 0 4.1 4.1 0 0 1 0-5.78 4.1 4.1 0 0 1 5.8 0zM896.85 244.45a4.1 4.1 0 0 1-4.1 4.1 4.1 4.1 0 0 1-4.08-4.1 4.1 4.1 0 0 1 4.1-4.1 4.1 4.1 0 0 1 4.08 4.1zM885.77 243.6a4.1 4.1 0 0 1-5.78 0 4.1 4.1 0 0 1 0-5.78 4.1 4.1 0 0 1 5.77 0 4.1 4.1 0 0 1 0 5.78zM883.67 230.83a4.1 4.1 0 0 1-4.1 4.1 4.1 4.1 0 0 1-4.1-4.1 4.1 4.1 0 0 1 4.1-4.1 4.1 4.1 0 0 1 4.1 4.1zM880 223.85a4.1 4.1 0 0 1 0-5.8 4.1 4.1 0 0 1 5.77 0 4.1 4.1 0 0 1 0 5.8 4.1 4.1 0 0 1-5.78 0z" stroke="#3a414a" stroke-width="3" fill="#cfe4ff"/><path d="M901.85 230.83c0 5.26-4.07 9.53-9.1 9.53-5 0-9.1-4.27-9.1-9.53s4.1-9.53 9.1-9.53c5.03 0 9.1 4.27 9.1 9.53z" stroke="#3a414a" stroke-width="2" fill="#fff"/><path d="M910.53 187.94c0 10.3-7.95 18.63-17.77 18.63s-17.78-8.34-17.78-18.63c0-10.3 7.96-18.63 17.78-18.63s17.77 8.35 17.77 18.64z" stroke="#3a414a" stroke-width="2" fill="#6db1ff"/><path d="M888.67 174.45a4.1 4.1 0 0 1 4.1-4.1 4.1 4.1 0 0 1 4.08 4.1 4.1 4.1 0 0 1-4.1 4.1 4.1 4.1 0 0 1-4.08-4.1zM899.74 175.3a4.1 4.1 0 0 1 5.8 0 4.1 4.1 0 0 1 0 5.8 4.1 4.1 0 0 1-5.8 0 4.1 4.1 0 0 1 0-5.8zM901.85 188.07a4.1 4.1 0 0 1 4.1-4.1 4.1 4.1 0 0 1 4.08 4.1 4.1 4.1 0 0 1-4.1 4.1 4.1 4.1 0 0 1-4.08-4.1zM905.53 195.06a4.1 4.1 0 0 1 0 5.78 4.1 4.1 0 0 1-5.8 0 4.1 4.1 0 0 1 0-5.78 4.1 4.1 0 0 1 5.8 0zM896.85 201.7a4.1 4.1 0 0 1-4.1 4.08 4.1 4.1 0 0 1-4.08-4.1 4.1 4.1 0 0 1 4.1-4.08 4.1 4.1 0 0 1 4.08 4.1zM885.77 200.84a4.1 4.1 0 0 1-5.78 0 4.1 4.1 0 0 1 0-5.78 4.1 4.1 0 0 1 5.77 0 4.1 4.1 0 0 1 0 5.78zM883.67 188.07a4.1 4.1 0 0 1-4.1 4.1 4.1 4.1 0 0 1-4.1-4.1 4.1 4.1 0 0 1 4.1-4.1 4.1 4.1 0 0 1 4.1 4.1zM880 181.1a4.1 4.1 0 0 1 0-5.8 4.1 4.1 0 0 1 5.77 0 4.1 4.1 0 0 1 0 5.8 4.1 4.1 0 0 1-5.78 0z" stroke="#3a414a" stroke-width="3" fill="#cfe4ff"/><path d="M901.85 188.07c0 5.26-4.07 9.53-9.1 9.53-5 0-9.1-4.27-9.1-9.53s4.1-9.53 9.1-9.53c5.03 0 9.1 4.27 9.1 9.53z" stroke="#3a414a" stroke-width="2" fill="#fff"/><path d="M588.15 83a6 6 0 0 1 6-6h226.13a6 6 0 0 1 6 6v13.4a6 6 0 0 1-6 6H594.15a6 6 0 0 1-6-6z" fill="#ffd6f5"/><use xlink:href="#h" transform="matrix(1,0,0,1,588.1491464140694,77.00258211332124) translate(4.01 18.50043402777778)"/><path d="M469.92 83a6 6 0 0 1 6-6h106.23a6 6 0 0 1 6 6v13.4a6 6 0 0 1-6 6H475.92a6 6 0 0 1-6-6z" fill-opacity="0"/><use xlink:href="#i" transform="matrix(1,0,0,1,469.9223292970785,77.00258211332124) translate(7.315972222222209 18.50043402777778)"/><use xlink:href="#j" transform="matrix(1,0,0,1,469.9223292970785,77.00258211332124) translate(87.32899305555556 18.50043402777778)"/><path d="M826.28 83a6 6 0 0 1 6-6h81.44a6 6 0 0 1 6 6v13.4a6 6 0 0 1-6 6h-81.44a6 6 0 0 1-6-6z" fill="#ced4db"/><g><use xlink:href="#k" transform="matrix(1,0,0,1,826.2765700066373,77.00258211332124) translate(0 18.50043402777778)"/></g><path d="M469.92 19.64a6 6 0 0 1 6-6h106.23a6 6 0 0 1 6 6v13.4a6 6 0 0 1-6 6H475.92a6 6 0 0 1-6-6z" fill-opacity="0"/><g><use xlink:href="#i" transform="matrix(1,0,0,1,469.9223292970785,13.642800478641618) translate(7.315972222222209 18.50043402777778)"/><use xlink:href="#l" transform="matrix(1,0,0,1,469.9223292970785,13.642800478641618) translate(87.32899305555556 18.50043402777778)"/></g><path d="M587.15 48.54a6 6 0 0 1 6-6h281.8a6 6 0 0 1 6 6v13.4a6 6 0 0 1-6 6h-281.8a6 6 0 0 1-6-6z" fill="#ffd6f5"/><g><use xlink:href="#m" transform="matrix(1,0,0,1,587.1523531776731,42.540505467979244) translate(0 18.50043402777778)"/></g><path d="M588.15 19.64a6 6 0 0 1 6-6h296.7a6 6 0 0 1 6 6v13.4a6 6 0 0 1-6 6h-296.7a6 6 0 0 1-6-6z" fill="#ffd6f5"/><g><use xlink:href="#n" transform="matrix(1,0,0,1,588.1491464140695,13.642800478641618) translate(0 18.50043402777778)"/></g><path d="M896.85 19.64a6 6 0 0 1 6-6h255.08a6 6 0 0 1 6 6v13.4a6 6 0 0 1-6 6H902.85a6 6 0 0 1-6-6z" fill="#dedeff"/><g><use xlink:href="#o" transform="matrix(1,0,0,1,896.8496358599863,13.642800478641618) translate(0 18.50043402777778)"/></g><path d="M880.95 48.54a6 6 0 0 1 6-6h175a6 6 0 0 1 6 6v13.4a6 6 0 0 1-6 6h-175a6 6 0 0 1-6-6z" fill="#ced4db"/><g><use xlink:href="#p" transform="matrix(1,0,0,1,880.9486494739693,42.540505467979244) translate(0 18.50043402777778)"/></g><path d="M901.85 117.47a6 6 0 0 1 6-6h209.78a6 6 0 0 1 6 6v33.5a6 6 0 0 1-6 6H907.85a6 6 0 0 1-6-6z" fill="none"/><g><use xlink:href="#q" transform="matrix(1,0,0,1,901.85072404571,111.46465875866323) translate(57.657986111111114 17.661458333333336)"/><use xlink:href="#r" transform="matrix(1,0,0,1,901.85072404571,111.46465875866323) translate(89.66319444444446 17.661458333333336)"/><use xlink:href="#s" transform="matrix(1,0,0,1,901.85072404571,111.46465875866323) translate(121.66840277777779 17.661458333333336)"/><use xlink:href="#t" transform="matrix(1,0,0,1,901.85072404571,111.46465875866323) translate(153.67361111111111 17.661458333333336)"/><use xlink:href="#u" transform="matrix(1,0,0,1,901.85072404571,111.46465875866323) translate(41.65538194444444 37.80034722222222)"/><use xlink:href="#v" transform="matrix(1,0,0,1,901.85072404571,111.46465875866323) translate(127.00260416666667 37.80034722222222)"/></g><path d="M546.33 117.47a6 6 0 0 1 6-6H762.1a6 6 0 0 1 6 6v33.5a6 6 0 0 1-6 6H552.34a6 6 0 0 1-6-6z" fill="none"/><g><use xlink:href="#q" transform="matrix(1,0,0,1,546.3310727014796,111.46465875866329) translate(57.657986111111114 17.661458333333336)"/><use xlink:href="#r" transform="matrix(1,0,0,1,546.3310727014796,111.46465875866329) translate(89.66319444444446 17.661458333333336)"/><use xlink:href="#s" transform="matrix(1,0,0,1,546.3310727014796,111.46465875866329) translate(121.66840277777779 17.661458333333336)"/><use xlink:href="#w" transform="matrix(1,0,0,1,546.3310727014796,111.46465875866329) translate(153.67361111111111 17.661458333333336)"/><use xlink:href="#u" transform="matrix(1,0,0,1,546.3310727014796,111.46465875866329) translate(41.65538194444444 37.80034722222222)"/><use xlink:href="#x" transform="matrix(1,0,0,1,546.3310727014796,111.46465875866329) translate(127.00260416666667 37.80034722222222)"/></g><defs><path d="M106 0l262-1349h295L445-228h616L1017 0H106" id="y"/><use transform="matrix(0.010850694444444444,0,0,0.010850694444444444,0,0)" xlink:href="#y" id="a"/><path d="M1124 0H830l-28-330H346L190 0h-295l705-1349h344zM737-1167c-87 211-191 412-286 615h332c-17-203-41-400-46-615" id="z"/><use transform="matrix(0.010850694444444444,0,0,0.010850694444444444,0,0)" xlink:href="#z" id="b"/><path d="M1246-1043c0 260-154 397-360 462L1122 0H790L600-515H427L327 0H32l262-1349c391 21 952-105 952 306zM648-744c184 0 294-72 294-239 0-169-225-132-397-137l-73 376h176" id="A"/><use transform="matrix(0.010850694444444444,0,0,0.010850694444444444,0,0)" xlink:href="#A" id="c"/><path d="M356-176c-12 58-30 126-49 176H35c16-68 38-154 54-236l242-1248h281c-38 191-72 384-113 572h2c73-110 181-188 354-191 248-4 322 202 293 457-33 283-138 514-343 624-54 29-114 42-177 42-150-2-235-73-268-196h-4zm483-364c32-163 38-378-131-372-124 4-181 90-228 188-68 142-150 552 86 552 64 0 120-31 167-92s82-154 106-276" id="B"/><path d="M1061-274C957-107 790 19 517 20 218 21 54-146 88-462c35-319 185-528 448-611 67-21 135-29 203-29 270 2 398 150 401 417 0 72-9 133-21 198H385c-33 166 14 324 183 319 116-3 193-49 233-129zM881-663c35-185-91-308-267-247-105 37-165 127-193 247h460" id="C"/><path d="M877-1103c184-4 269 96 271 273 0 43-5 91-15 143L999 0H719l120-619c29-130 29-284-118-273-178 13-258 152-289 312L319 0H38c66-362 146-710 202-1082h268c-5 70-17 151-28 215h4c91-138 196-231 393-236" id="D"/><path d="M1074-360C991-138 813 15 515 20 220 25 64-146 97-454c33-303 170-518 413-610 69-26 145-38 227-38 250 0 397 117 403 361l-286 14c6-112-45-182-160-182-75 0-135 32-183 93-64 81-123 271-123 431 0 142 55 213 166 213 129 0 207-88 241-201" id="E"/><path d="M840-621c27-126 31-283-121-270-178 15-256 153-287 312L319 0H38l288-1484h281c-42 207-76 422-128 618h4c93-140 195-226 394-236 239-12 300 182 255 416L999 0H719" id="F"/><g id="d"><use transform="matrix(0.010850694444444444,0,0,0.010850694444444444,0,0)" xlink:href="#B"/><use transform="matrix(0.010850694444444444,0,0,0.010850694444444444,13.335503472222221,0)" xlink:href="#C"/><use transform="matrix(0.010850694444444444,0,0,0.010850694444444444,26.671006944444443,0)" xlink:href="#D"/><use transform="matrix(0.010850694444444444,0,0,0.010850694444444444,40.006510416666664,0)" xlink:href="#E"/><use transform="matrix(0.010850694444444444,0,0,0.010850694444444444,53.342013888888886,0)" xlink:href="#F"/></g><path d="M148-1120c216-7 379-89 463-229h166v1204h353V0H157v-145h439v-1021c-79 124-254 184-448 194v-148" id="G"/><path d="M914 0L548-499l-132 98V0H236v-1484h180v927l475-525h211L663-617 1125 0H914" id="H"/><path d="M648-963c-190 6-283 138-283 336V0H185v-1484h181c-2 197 6 404-9 587h3c62-120 159-205 339-205 242 0 351 135 350 381V0H868v-695c1-168-57-273-220-268" id="I"/><path d="M147 0v-137l681-806H187v-139h844v137L349-139h719V0H147" id="J"/><path d="M-5 220v-96h1238v96H-5" id="K"/><path d="M528 20c-247 0-343-132-343-381v-721h180v686c-4 177 45 284 224 277 194-8 279-136 279-336v-627h181c3 360-6 732 6 1082H885c-4-54-7-126-8-185h-3C809-64 714 20 528 20" id="L"/><path d="M672-881c271 0 424 163 424 435 0 291-160 466-455 466-367 0-490-287-490-662 0-324 85-568 293-680 129-70 351-59 460 16 73 50 125 123 153 223l-172 31c-31-108-107-172-232-172-259 0-316 252-323 529 59-113 178-186 342-186zm-37 756c186 0 278-124 278-313s-96-304-284-304c-163 0-281 93-281 261 0 157 65 270 168 327 35 19 75 29 119 29" id="M"/><path d="M873-819c-18-114-119-146-250-146-163 0-245 50-245 151 0 151 170 148 294 185 182 54 388 94 388 320 0 240-189 325-439 329-245 4-410-69-454-268l159-31c24 133 136 168 295 165 144-2 270-31 270-171 0-164-195-160-331-202-167-52-350-87-350-299 0-218 173-315 413-313 220 2 373 77 412 260" id="N"/><path d="M745-142h380V0H143v-142h422v-798H246v-142h499v940zM545-1292v-192h200v192H545" id="O"/><path d="M706-1102c241 0 344 136 343 381V0H868v-695c1-168-57-273-220-268-190 6-283 138-283 336V0H185c-3-360 6-732-6-1082h170c4 54 7 126 8 185h3c63-121 164-204 346-205" id="P"/><path d="M617-1102c355 0 481 238 477 599H322c5 222 84 388 301 388 144 0 244-59 284-166l158 45C1002-72 854 20 623 20c-342 0-490-220-490-568 0-346 151-554 484-554zm291 461c-18-192-90-328-289-328-194 0-287 128-295 328h584" id="Q"/><path d="M496 0v-299h235V0H496" id="R"/><path d="M839-1102c70 0 148 7 206 17v167c-112-18-268-36-363 15-129 69-208 203-208 395V0H294c-10-367 32-789-52-1082h171c21 75 41 161 48 250h5c67-152 152-270 373-270" id="S"/><path d="M1000-272c3 95 12 159 101 161 21 0 41-3 59-7V-6c-44 10-86 16-139 16-141 2-191-84-197-217h-6C748-76 648 20 446 20c-207 0-318-120-318-322 0-266 194-348 454-354l236-4c12-191-40-305-222-305-140 0-220 47-232 172l-188-17c33-204 181-292 423-292 255 0 401 118 401 364v466zm-683-27c0 109 63 184 175 182 166-3 259-96 306-217 24-65 20-120 20-200-232 7-501-28-501 235" id="T"/><path d="M1018 0H814c-67-224-138-444-200-673C552-442 476-224 407 0H204L21-1082h178c43 310 105 601 126 933 54-225 128-425 193-638h193c63 212 134 415 185 638 22-336 90-622 136-933h176" id="U"/><g id="e"><use transform="matrix(0.010850694444444444,0,0,0.010850694444444444,0,0)" xlink:href="#G"/><use transform="matrix(0.010850694444444444,0,0,0.010850694444444444,13.335503472222221,0)" xlink:href="#H"/><use transform="matrix(0.010850694444444444,0,0,0.010850694444444444,26.671006944444443,0)" xlink:href="#I"/><use transform="matrix(0.010850694444444444,0,0,0.010850694444444444,40.006510416666664,0)" xlink:href="#J"/><use transform="matrix(0.010850694444444444,0,0,0.010850694444444444,53.342013888888886,0)" xlink:href="#K"/><use transform="matrix(0.010850694444444444,0,0,0.010850694444444444,66.67751736111111,0)" xlink:href="#L"/><use transform="matrix(0.010850694444444444,0,0,0.010850694444444444,80.01302083333334,0)" xlink:href="#G"/><use transform="matrix(0.010850694444444444,0,0,0.010850694444444444,93.34852430555557,0)" xlink:href="#M"/><use transform="matrix(0.010850694444444444,0,0,0.010850694444444444,106.6840277777778,0)" xlink:href="#N"/><use transform="matrix(0.010850694444444444,0,0,0.010850694444444444,120.01953125000003,0)" xlink:href="#O"/><use transform="matrix(0.010850694444444444,0,0,0.010850694444444444,133.35503472222226,0)" xlink:href="#P"/><use transform="matrix(0.010850694444444444,0,0,0.010850694444444444,146.69053819444449,0)" xlink:href="#Q"/><use transform="matrix(0.010850694444444444,0,0,0.010850694444444444,160.0260416666667,0)" xlink:href="#R"/><use transform="matrix(0.010850694444444444,0,0,0.010850694444444444,173.36154513888894,0)" xlink:href="#S"/><use transform="matrix(0.010850694444444444,0,0,0.010850694444444444,186.69704861111117,0)" xlink:href="#T"/><use transform="matrix(0.010850694444444444,0,0,0.010850694444444444,200.0325520833334,0)" xlink:href="#U"/></g><path d="M869-709c191 18 328 116 287 324C1106-131 911 0 614 0H32l262-1349h525c212 4 385 55 385 261 0 222-137 338-335 379zM696-811c124 2 196-74 201-206 6-158-206-103-350-113l-62 319h211zm-69 592c156-1 242-87 242-238 0-188-251-125-427-136l-72 374h257" id="V"/><use transform="matrix(0.010850694444444444,0,0,0.010850694444444444,0,0)" xlink:href="#V" id="f"/><path d="M945-915c-13-119-52-223-177-223-91 0-164 41-226 116-82 99-156 334-156 536 0 164 55 274 209 274 161 0 224-131 288-244l263 52C1025-182 874 20 547 20 236 20 83-141 83-449c0-420 155-750 465-876 120-49 313-64 440-16 146 55 221 182 242 360" id="W"/><use transform="matrix(0.010850694444444444,0,0,0.010850694444444444,0,0)" xlink:href="#W" id="g"/><path d="M237 0v-1349h191v1193h672V0H237" id="X"/><path d="M259 363l169-662h265L382 363H259" id="Y"/><path d="M1121-976c0 225-142 341-344 379L1177 0H957L591-575H353V0H162v-1349h482c281 3 477 100 477 373zM633-726c181-1 296-73 296-247 0-149-101-223-304-223H353v470h280" id="Z"/><path d="M531 425v-1909h166V425H531" id="aa"/><path d="M365-904c58-129 161-200 334-200 130 0 228 46 293 138s98 233 98 420c0 189-34 331-102 425S824 20 698 20c-170 0-275-64-336-184 0 55-3 116-9 164H179c5-68 6-147 6-223v-1261h180c-2 193 4 394-4 580h4zm283 791c221 0 256-197 256-427 0-229-34-425-254-425-236 0-285 195-285 441 0 237 53 411 283 411" id="ab"/><path d="M631 20c-350 0-501-215-501-562 0-355 162-560 502-560 250 0 399 118 446 323l-192 14c-23-124-109-196-262-196-242 0-305 171-305 415 1 245 61 427 304 427 151 0 248-77 267-215l190 12C1039-107 883 20 631 20" id="ac"/><path d="M496 0v-299h235V0H496zm0-783v-299h235v299H496" id="ad"/><path d="M1034 0L896-382H333L196 0H0l510-1349h217L1228 0h-194zM847-531c-77-225-157-447-231-674-69 231-154 451-232 674h463" id="ae"/><g id="h"><use transform="matrix(0.010850694444444444,0,0,0.010850694444444444,0,0)" xlink:href="#X"/><use transform="matrix(0.010850694444444444,0,0,0.010850694444444444,13.335503472222221,0)" xlink:href="#Y"/><use transform="matrix(0.010850694444444444,0,0,0.010850694444444444,26.671006944444443,0)" xlink:href="#Z"/><use transform="matrix(0.010850694444444444,0,0,0.010850694444444444,40.006510416666664,0)" xlink:href="#aa"/><use transform="matrix(0.010850694444444444,0,0,0.010850694444444444,53.342013888888886,0)" xlink:href="#ab"/><use transform="matrix(0.010850694444444444,0,0,0.010850694444444444,66.67751736111111,0)" xlink:href="#Q"/><use transform="matrix(0.010850694444444444,0,0,0.010850694444444444,80.01302083333334,0)" xlink:href="#P"/><use transform="matrix(0.010850694444444444,0,0,0.010850694444444444,93.34852430555557,0)" xlink:href="#ac"/><use transform="matrix(0.010850694444444444,0,0,0.010850694444444444,106.6840277777778,0)" xlink:href="#I"/><use transform="matrix(0.010850694444444444,0,0,0.010850694444444444,120.01953125000003,0)" xlink:href="#ad"/><use transform="matrix(0.010850694444444444,0,0,0.010850694444444444,133.35503472222226,0)" xlink:href="#ab"/><use transform="matrix(0.010850694444444444,0,0,0.010850694444444444,146.69053819444449,0)" xlink:href="#Q"/><use transform="matrix(0.010850694444444444,0,0,0.010850694444444444,160.0260416666667,0)" xlink:href="#P"/><use transform="matrix(0.010850694444444444,0,0,0.010850694444444444,173.36154513888894,0)" xlink:href="#ac"/><use transform="matrix(0.010850694444444444,0,0,0.010850694444444444,186.69704861111117,0)" xlink:href="#I"/><use transform="matrix(0.010850694444444444,0,0,0.010850694444444444,200.0325520833334,0)" xlink:href="#aa"/><use transform="matrix(0.010850694444444444,0,0,0.010850694444444444,213.36805555555563,0)" xlink:href="#ae"/></g><path d="M615-1370c385 0 542 273 542 691 0 358-114 602-378 679 41 115 114 187 266 186 41 0 86-7 123-13v202c-117 27-296 45-408-1C608 311 534 171 482 7 194-58 72-308 72-679c0-419 158-691 543-691zM797-330c77-133 78-564 0-695-44-73-101-113-182-113s-139 40-183 114c-79 133-78 560 0 694 45 77 102 118 183 118s138-41 182-118" id="af"/><path d="M471 20c-247 0-336-169-336-415v-687h281v607c4 148 31 285 172 285 152 0 207-150 207-312v-580h281c4 359-9 736 8 1082H816c-7-63-11-146-12-215h-5C736-76 644 20 471 20" id="ag"/><path d="M1113-274C1038-96 884 20 626 20c-352 0-526-209-526-566 0-358 185-556 530-556 358 0 496 251 499 615H395c5 180 68 319 245 319 102 0 186-45 208-129zM857-663c-6-177-128-307-315-247-94 30-141 121-145 247h460" id="ah"/><path d="M875-1102c70 0 148 7 206 17v237c-110-17-267-37-359 15-123 69-192 207-192 395V0H250c-10-367 32-789-52-1082h271c19 69 36 149 46 228h4c52-151 151-250 356-248" id="ai"/><path d="M143 212c82 12 185 12 233-31 50-45 83-117 110-192L38-1082h297c100 284 211 557 291 861 72-305 176-578 270-861h294L742 57c-80 192-156 368-417 368-60 0-131-4-182-13V212" id="aj"/><g id="i"><use transform="matrix(0.010850694444444444,0,0,0.010850694444444444,0,0)" xlink:href="#af"/><use transform="matrix(0.010850694444444444,0,0,0.010850694444444444,13.335503472222221,0)" xlink:href="#ag"/><use transform="matrix(0.010850694444444444,0,0,0.010850694444444444,26.671006944444443,0)" xlink:href="#ah"/><use transform="matrix(0.010850694444444444,0,0,0.010850694444444444,40.006510416666664,0)" xlink:href="#ai"/><use transform="matrix(0.010850694444444444,0,0,0.010850694444444444,53.342013888888886,0)" xlink:href="#aj"/></g><path d="M135-968c34-256 187-402 480-402 217 0 371 75 441 220 45 93 40 219-8 308-114 212-348 323-508 488-38 39-66 80-85 123h654V0H123v-195c112-245 321-399 515-560 57-48 107-96 142-157 14-26 22-53 22-80-1-104-73-156-185-154-131 2-181 74-199 194" id="ak"/><path d="M470 0v-305h289V0H470zm0-780v-305h289v305H470" id="al"/><g id="j"><use transform="matrix(0.010850694444444444,0,0,0.010850694444444444,0,0)" xlink:href="#ak"/><use transform="matrix(0.010850694444444444,0,0,0.010850694444444444,13.335503472222221,0)" xlink:href="#al"/></g><path d="M410 425v-1909h547v139H590V286h367v139H410" id="am"/><path d="M1065-1013c47 164 49 500-1 665C999-130 875 20 611 20c-377 0-484-300-487-695-2-245 41-425 141-551 77-98 191-144 352-144 261 0 386 140 448 357zM741-155c199-92 203-504 159-785-26-168-96-284-283-284-281 0-308 256-311 549-2 181 18 324 80 428 46 77 115 118 227 120 47 0 90-10 128-28" id="an"/><path d="M270 425V286h367v-1631H270v-139h547V425H270" id="ao"/><g id="k"><use transform="matrix(0.010850694444444444,0,0,0.010850694444444444,0,0)" xlink:href="#am"/><use transform="matrix(0.010850694444444444,0,0,0.010850694444444444,13.335503472222221,0)" xlink:href="#aa"/><use transform="matrix(0.010850694444444444,0,0,0.010850694444444444,26.671006944444443,0)" xlink:href="#G"/><use transform="matrix(0.010850694444444444,0,0,0.010850694444444444,40.006510416666664,0)" xlink:href="#R"/><use transform="matrix(0.010850694444444444,0,0,0.010850694444444444,53.342013888888886,0)" xlink:href="#an"/><use transform="matrix(0.010850694444444444,0,0,0.010850694444444444,66.67751736111111,0)" xlink:href="#Y"/><use transform="matrix(0.010850694444444444,0,0,0.010850694444444444,80.01302083333334,0)" xlink:href="#ao"/></g><path d="M138-1120c207-4 339-93 415-229h266v1140h323V0H149v-209h389v-891c-70 121-216 187-400 194v-214" id="ap"/><g id="l"><use transform="matrix(0.010850694444444444,0,0,0.010850694444444444,0,0)" xlink:href="#ap"/><use transform="matrix(0.010850694444444444,0,0,0.010850694444444444,13.335503472222221,0)" xlink:href="#al"/></g><path d="M677 91c1 136 41 195 171 195h213v139H796c-186-8-294-116-294-303v-351c-3-164-120-222-275-232v-137c155-10 275-69 275-231v-352c6-189 106-303 294-303h265v139H848c-126-3-171 67-171 195v346c-5 158-108 234-231 274 128 36 231 115 231 274V91" id="aq"/><path d="M116-154v-153l858-367-858-366v-154l995 418v205" id="ar"/><path d="M611-1370c266 0 451 106 451 368 0 147-77 243-154 327-132 144-316 255-451 395-42 44-75 87-96 134h723V0H144v-117c124-264 387-411 582-603 73-72 151-147 151-271 0-161-104-231-266-231-163 0-249 90-268 238l-184-17c35-233 185-369 452-369" id="as"/><path d="M726 122c-7 187-108 303-294 303H167V286h213c129-2 172-59 172-195v-347c5-160 106-236 230-276-125-36-230-116-230-272v-346c2-128-45-195-172-195H167v-139h265c187 7 294 114 294 303v352c4 162 120 221 275 231v137c-155 10-275 68-275 232v351" id="at"/><path d="M839-1335c-182-6-269 67-259 253h491v142H580V0H400v-940H138v-142h262c-15-293 132-408 418-402 94 2 200 7 281 21v145c-75-10-177-14-260-17" id="au"/><path d="M736-142h380V0H134v-142h422v-1200H267v-142h469v1342" id="av"/><path d="M865-914c-3-187-2-380-2-570h180v1261c0 76 1 155 6 223H877c-8-49-9-116-10-174h-5C801-44 708 26 530 26c-135 0-234-46-297-139s-95-232-95-419c0-377 131-566 392-566 176 0 271 63 335 184zm-286-51c-222 0-255 197-255 427 0 229 31 425 253 425 237 0 286-195 286-441 0-238-52-411-284-411" id="aw"/><path d="M615-1102c343 0 484 203 482 560-1 347-147 562-488 562-336 0-475-219-479-562-4-349 156-560 485-560zm-8 989c240 0 301-180 301-429 0-245-55-427-290-427-236 0-299 181-299 427 0 243 61 429 288 429" id="ax"/><g id="m"><use transform="matrix(0.010850694444444444,0,0,0.010850694444444444,0,0)" xlink:href="#aa"/><use transform="matrix(0.010850694444444444,0,0,0.010850694444444444,13.335503472222221,0)" xlink:href="#aq"/><use transform="matrix(0.010850694444444444,0,0,0.010850694444444444,26.671006944444443,0)" xlink:href="#G"/><use transform="matrix(0.010850694444444444,0,0,0.010850694444444444,40.006510416666664,0)" xlink:href="#ar"/><use transform="matrix(0.010850694444444444,0,0,0.010850694444444444,53.342013888888886,0)" xlink:href="#X"/><use transform="matrix(0.010850694444444444,0,0,0.010850694444444444,66.67751736111111,0)" xlink:href="#Y"/><use transform="matrix(0.010850694444444444,0,0,0.010850694444444444,80.01302083333334,0)" xlink:href="#as"/><use transform="matrix(0.010850694444444444,0,0,0.010850694444444444,93.34852430555557,0)" xlink:href="#ar"/><use transform="matrix(0.010850694444444444,0,0,0.010850694444444444,106.6840277777778,0)" xlink:href="#Z"/><use transform="matrix(0.010850694444444444,0,0,0.010850694444444444,120.01953125000003,0)" xlink:href="#at"/><use transform="matrix(0.010850694444444444,0,0,0.010850694444444444,133.35503472222226,0)" xlink:href="#ad"/><use transform="matrix(0.010850694444444444,0,0,0.010850694444444444,146.69053819444449,0)" xlink:href="#au"/><use transform="matrix(0.010850694444444444,0,0,0.010850694444444444,160.0260416666667,0)" xlink:href="#av"/><use transform="matrix(0.010850694444444444,0,0,0.010850694444444444,173.36154513888894,0)" xlink:href="#L"/><use transform="matrix(0.010850694444444444,0,0,0.010850694444444444,186.69704861111117,0)" xlink:href="#N"/><use transform="matrix(0.010850694444444444,0,0,0.010850694444444444,200.0325520833334,0)" xlink:href="#I"/><use transform="matrix(0.010850694444444444,0,0,0.010850694444444444,213.36805555555563,0)" xlink:href="#K"/><use transform="matrix(0.010850694444444444,0,0,0.010850694444444444,226.70355902777786,0)" xlink:href="#T"/><use transform="matrix(0.010850694444444444,0,0,0.010850694444444444,240.03906250000006,0)" xlink:href="#L"/><use transform="matrix(0.010850694444444444,0,0,0.010850694444444444,253.37456597222234,0)" xlink:href="#aw"/><use transform="matrix(0.010850694444444444,0,0,0.010850694444444444,266.7100694444445,0)" xlink:href="#O"/><use transform="matrix(0.010850694444444444,0,0,0.010850694444444444,280.04557291666674,0)" xlink:href="#ax"/></g><g id="n"><use transform="matrix(0.010850694444444444,0,0,0.010850694444444444,0,0)" xlink:href="#G"/><use transform="matrix(0.010850694444444444,0,0,0.010850694444444444,13.335503472222221,0)" xlink:href="#H"/><use transform="matrix(0.010850694444444444,0,0,0.010850694444444444,26.671006944444443,0)" xlink:href="#I"/><use transform="matrix(0.010850694444444444,0,0,0.010850694444444444,40.006510416666664,0)" xlink:href="#J"/><use transform="matrix(0.010850694444444444,0,0,0.010850694444444444,53.342013888888886,0)" xlink:href="#K"/><use transform="matrix(0.010850694444444444,0,0,0.010850694444444444,66.67751736111111,0)" xlink:href="#L"/><use transform="matrix(0.010850694444444444,0,0,0.010850694444444444,80.01302083333334,0)" xlink:href="#G"/><use transform="matrix(0.010850694444444444,0,0,0.010850694444444444,93.34852430555557,0)" xlink:href="#M"/><use transform="matrix(0.010850694444444444,0,0,0.010850694444444444,106.6840277777778,0)" xlink:href="#N"/><use transform="matrix(0.010850694444444444,0,0,0.010850694444444444,120.01953125000003,0)" xlink:href="#O"/><use transform="matrix(0.010850694444444444,0,0,0.010850694444444444,133.35503472222226,0)" xlink:href="#P"/><use transform="matrix(0.010850694444444444,0,0,0.010850694444444444,146.69053819444449,0)" xlink:href="#Q"/><use transform="matrix(0.010850694444444444,0,0,0.010850694444444444,160.0260416666667,0)" xlink:href="#R"/><use transform="matrix(0.010850694444444444,0,0,0.010850694444444444,173.36154513888894,0)" xlink:href="#S"/><use transform="matrix(0.010850694444444444,0,0,0.010850694444444444,186.69704861111117,0)" xlink:href="#T"/><use transform="matrix(0.010850694444444444,0,0,0.010850694444444444,200.0325520833334,0)" xlink:href="#U"/><use transform="matrix(0.010850694444444444,0,0,0.010850694444444444,213.36805555555563,0)" xlink:href="#ar"/><use transform="matrix(0.010850694444444444,0,0,0.010850694444444444,226.70355902777786,0)" xlink:href="#ae"/><use transform="matrix(0.010850694444444444,0,0,0.010850694444444444,240.03906250000006,0)" xlink:href="#ad"/><use transform="matrix(0.010850694444444444,0,0,0.010850694444444444,253.37456597222234,0)" xlink:href="#S"/><use transform="matrix(0.010850694444444444,0,0,0.010850694444444444,266.7100694444445,0)" xlink:href="#Q"/><use transform="matrix(0.010850694444444444,0,0,0.010850694444444444,280.04557291666674,0)" xlink:href="#T"/><use transform="matrix(0.010850694444444444,0,0,0.010850694444444444,293.38107638888897,0)" xlink:href="#aw"/></g><path d="M684-845H543l-41-639h224" id="ay"/><path d="M802-711c201 25 350 118 350 331C1152-95 921 0 634 0H162v-1349c401 9 908-74 908 327 0 184-111 275-268 311zm-224-69c174-2 300-51 300-218 0-163-124-198-302-198H353v416h225zM353-153c281-2 612 44 606-244-5-271-329-233-606-234v478" id="az"/><path d="M682 16c-209 0-323-80-324-285v-671H190v-142h170l58-282h120v282h432v142H538v652c2 114 60 155 182 155 106 0 209-16 297-34v137C921-4 806 16 682 16" id="aA"/><path d="M650-1214c-281 0-336 244-336 533 0 295 60 546 347 546 188 0 263-142 322-282l159 65C1058-155 935 20 659 20c-401 0-546-295-546-701 0-407 135-689 536-689 264 0 391 146 466 335l-168 65c-47-129-127-244-297-244" id="aB"/><path d="M530 26c-303-6-392-228-392-558 0-187 33-329 98-424s162-142 293-142c178 0 273 69 334 184 1-56 3-122 12-169h175c-6 88-6 180-6 282V425H863c1-202-4-411 4-607h-2C805-59 713 29 530 26zm47-139c234 0 286-193 286-441 0-238-55-411-284-411-223 0-255 198-255 427 0 227 33 425 253 425" id="aC"/><g id="o"><use transform="matrix(0.010850694444444444,0,0,0.010850694444444444,0,0)" xlink:href="#aa"/><use transform="matrix(0.010850694444444444,0,0,0.010850694444444444,13.335503472222221,0)" xlink:href="#G"/><use transform="matrix(0.010850694444444444,0,0,0.010850694444444444,26.671006944444443,0)" xlink:href="#ay"/><use transform="matrix(0.010850694444444444,0,0,0.010850694444444444,40.006510416666664,0)" xlink:href="#az"/><use transform="matrix(0.010850694444444444,0,0,0.010850694444444444,53.342013888888886,0)" xlink:href="#ad"/><use transform="matrix(0.010850694444444444,0,0,0.010850694444444444,66.67751736111111,0)" xlink:href="#N"/><use transform="matrix(0.010850694444444444,0,0,0.010850694444444444,80.01302083333334,0)" xlink:href="#T"/><use transform="matrix(0.010850694444444444,0,0,0.010850694444444444,93.34852430555557,0)" xlink:href="#aA"/><use transform="matrix(0.010850694444444444,0,0,0.010850694444444444,106.6840277777778,0)" xlink:href="#L"/><use transform="matrix(0.010850694444444444,0,0,0.010850694444444444,120.01953125000003,0)" xlink:href="#S"/><use transform="matrix(0.010850694444444444,0,0,0.010850694444444444,133.35503472222226,0)" xlink:href="#T"/><use transform="matrix(0.010850694444444444,0,0,0.010850694444444444,146.69053819444449,0)" xlink:href="#aA"/><use transform="matrix(0.010850694444444444,0,0,0.010850694444444444,160.0260416666667,0)" xlink:href="#Q"/><use transform="matrix(0.010850694444444444,0,0,0.010850694444444444,173.36154513888894,0)" xlink:href="#Y"/><use transform="matrix(0.010850694444444444,0,0,0.010850694444444444,186.69704861111117,0)" xlink:href="#G"/><use transform="matrix(0.010850694444444444,0,0,0.010850694444444444,200.0325520833334,0)" xlink:href="#ay"/><use transform="matrix(0.010850694444444444,0,0,0.010850694444444444,213.36805555555563,0)" xlink:href="#aB"/><use transform="matrix(0.010850694444444444,0,0,0.010850694444444444,226.70355902777786,0)" xlink:href="#ad"/><use transform="matrix(0.010850694444444444,0,0,0.010850694444444444,240.03906250000006,0)" xlink:href="#Q"/><use transform="matrix(0.010850694444444444,0,0,0.010850694444444444,253.37456597222234,0)" xlink:href="#aC"/></g><path d="M937-319V0H757v-319H103v-140l635-890h199v888h188v142H937zm-180-835L257-461h500v-693" id="aD"/><path d="M353-779c69-51 166-92 291-90 218 3 357 100 423 255 21 52 32 109 32 170 0 305-189 464-500 464-268 0-424-116-471-335l182-21c35 130 124 212 293 209 198-4 309-114 309-313 0-182-118-282-305-282-120 0-198 45-262 101H169l47-728h801v145H382" id="aE"/><g id="p"><use transform="matrix(0.010850694444444444,0,0,0.010850694444444444,0,0)" xlink:href="#am"/><use transform="matrix(0.010850694444444444,0,0,0.010850694444444444,13.335503472222221,0)" xlink:href="#aD"/><use transform="matrix(0.010850694444444444,0,0,0.010850694444444444,26.671006944444443,0)" xlink:href="#aD"/><use transform="matrix(0.010850694444444444,0,0,0.010850694444444444,40.006510416666664,0)" xlink:href="#G"/><use transform="matrix(0.010850694444444444,0,0,0.010850694444444444,53.342013888888886,0)" xlink:href="#an"/><use transform="matrix(0.010850694444444444,0,0,0.010850694444444444,66.67751736111111,0)" xlink:href="#an"/><use transform="matrix(0.010850694444444444,0,0,0.010850694444444444,80.01302083333334,0)" xlink:href="#aa"/><use transform="matrix(0.010850694444444444,0,0,0.010850694444444444,93.34852430555557,0)" xlink:href="#an"/><use transform="matrix(0.010850694444444444,0,0,0.010850694444444444,106.6840277777778,0)" xlink:href="#R"/><use transform="matrix(0.010850694444444444,0,0,0.010850694444444444,120.01953125000003,0)" xlink:href="#an"/><use transform="matrix(0.010850694444444444,0,0,0.010850694444444444,133.35503472222226,0)" xlink:href="#Y"/><use transform="matrix(0.010850694444444444,0,0,0.010850694444444444,146.69053819444449,0)" xlink:href="#as"/><use transform="matrix(0.010850694444444444,0,0,0.010850694444444444,160.0260416666667,0)" xlink:href="#aE"/><use transform="matrix(0.010850694444444444,0,0,0.010850694444444444,173.36154513888894,0)" xlink:href="#ao"/></g><path d="M865-312c-44-312-23-686-28-1037h257V0H748L364-1010c44 304 24 668 28 1010H135v-1349h337" id="aF"/><path d="M496-1349c439 0 656 222 653 664C1146-265 969 0 556 0H135v-1349h361zm36 1121c245-7 319-187 320-457 1-273-91-439-361-436h-61v893h102" id="aG"/><g id="q"><use transform="matrix(0.008680555555555556,0,0,0.008680555555555556,0,0)" xlink:href="#aF"/><use transform="matrix(0.008680555555555556,0,0,0.008680555555555556,10.668402777777779,0)" xlink:href="#aG"/></g><path d="M127-675c0-405 101-695 492-695 382 0 482 297 482 695 0 324-79 561-295 658-59 27-124 37-195 37-378 0-484-300-484-695zm580 451c143-96 121-451 101-680-12-138-46-246-191-246-149 0-184 107-199 248-19 180-21 469 36 598 29 67 72 101 159 103 37 0 69-6 94-23" id="aH"/><path d="M258 363l169-662h315L431 363H258" id="aI"/><g id="r"><use transform="matrix(0.008680555555555556,0,0,0.008680555555555556,0,0)" xlink:href="#aH"/><use transform="matrix(0.008680555555555556,0,0,0.008680555555555556,10.668402777777779,0)" xlink:href="#aI"/></g><path d="M609-1161c-125 0-218 36-218 153 0 149 166 161 290 196 235 67 484 129 484 421 0 300-239 408-554 411C302 23 93-114 38-367l285-37c32 128 131 205 296 203 143-2 259-31 259-173 0-164-197-172-333-212-218-64-441-131-441-405 0-276 231-379 511-379 299 0 463 114 513 363l-286 29c-28-115-96-183-233-183" id="aJ"/><path d="M836-709c204 20 350 118 350 324C1186-112 992 0 719 0H137v-1349h525c258 3 443 87 443 339 0 176-107 269-269 301zM643-811c107 0 165-53 165-159 0-113-61-160-167-160H432v319h211zm46 592c128-1 201-59 200-191-1-128-80-183-207-183H432v374h257" id="aK"/><g id="s"><use transform="matrix(0.008680555555555556,0,0,0.008680555555555556,0,0)" xlink:href="#aJ"/><use transform="matrix(0.008680555555555556,0,0,0.008680555555555556,10.668402777777779,0)" xlink:href="#aK"/></g><use transform="matrix(0.008680555555555556,0,0,0.008680555555555556,0,0)" xlink:href="#ap" id="t"/><path d="M622-916c-112 2-200 14-200 111 0 90 89 101 168 121 234 58 514 77 514 368C1104-4 751 54 434 5 267-21 161-112 121-270l247-37c24 111 113 145 252 141 114-3 226-12 226-124 0-101-103-113-192-134-225-54-490-76-490-351 0-247 201-328 458-328 245 0 413 88 457 292l-249 26c-16-98-92-133-208-131" id="aL"/><path d="M711 13c-250 0-386-99-385-349l2-556H161v-190h181l88-282h176v282h385v190H606v530c-10 130 45 186 174 184 91-2 176-11 255-27v186C933-1 833 13 711 13" id="aM"/><path d="M324-409v-244h580v244H324" id="aN"/><path d="M766 0H467L3-1349h308c102 347 212 687 307 1041 91-356 204-694 304-1041h305" id="aO"/><g id="u"><use transform="matrix(0.008680555555555556,0,0,0.008680555555555556,0,0)" xlink:href="#af"/><use transform="matrix(0.008680555555555556,0,0,0.008680555555555556,10.668402777777779,0)" xlink:href="#ag"/><use transform="matrix(0.008680555555555556,0,0,0.008680555555555556,21.336805555555557,0)" xlink:href="#ah"/><use transform="matrix(0.008680555555555556,0,0,0.008680555555555556,32.005208333333336,0)" xlink:href="#aL"/><use transform="matrix(0.008680555555555556,0,0,0.008680555555555556,42.673611111111114,0)" xlink:href="#aM"/><use transform="matrix(0.008680555555555556,0,0,0.008680555555555556,53.34201388888889,0)" xlink:href="#aN"/><use transform="matrix(0.008680555555555556,0,0,0.008680555555555556,64.01041666666667,0)" xlink:href="#aO"/></g><path d="M211 0v-1349h295v1121h616V0H211" id="aP"/><path d="M794-190h353V0H118v-190h395v-702H223v-190h571v892zM513-1277v-207h281v207H513" id="aQ"/><path d="M768-1103c247 0 336 167 336 416V0H824v-619c-3-164-24-273-171-273-164 0-229 142-229 312V0H143c-4-359 9-736-8-1082h268c7 63 12 146 13 215h4c67-145 160-236 348-236" id="aR"/><path d="M874 0L612-392 348 0H49l406-559-387-523h303l241 354 240-354h305L770-562 1179 0H874" id="aS"/><g id="v"><use transform="matrix(0.008680555555555556,0,0,0.008680555555555556,0,0)" xlink:href="#aP"/><use transform="matrix(0.008680555555555556,0,0,0.008680555555555556,10.668402777777779,0)" xlink:href="#aQ"/><use transform="matrix(0.008680555555555556,0,0,0.008680555555555556,21.336805555555557,0)" xlink:href="#aR"/><use transform="matrix(0.008680555555555556,0,0,0.008680555555555556,32.005208333333336,0)" xlink:href="#ag"/><use transform="matrix(0.008680555555555556,0,0,0.008680555555555556,42.673611111111114,0)" xlink:href="#aS"/></g><use transform="matrix(0.008680555555555556,0,0,0.008680555555555556,0,0)" xlink:href="#aH" id="w"/><g id="x"><use transform="matrix(0.008680555555555556,0,0,0.008680555555555556,0,0)" xlink:href="#af"/><use transform="matrix(0.008680555555555556,0,0,0.008680555555555556,10.668402777777779,0)" xlink:href="#ag"/><use transform="matrix(0.008680555555555556,0,0,0.008680555555555556,21.336805555555557,0)" xlink:href="#ah"/><use transform="matrix(0.008680555555555556,0,0,0.008680555555555556,32.005208333333336,0)" xlink:href="#aL"/><use transform="matrix(0.008680555555555556,0,0,0.008680555555555556,42.673611111111114,0)" xlink:href="#aM"/></g></defs></g></svg>