<svg xmlns="http://www.w3.org/2000/svg" xmlns:xlink="http://www.w3.org/1999/xlink" xmlns:lucid="lucid" width="683.96" height="262.73"><g transform="translate(535.1106934224913 -486.11130952383985)" lucid:page-tab-id="UcE9SlJiMO_X"><path d="M-350.8 492.1a6 6 0 0 1 6-6h228a6 6 0 0 1 6 6v15a6 6 0 0 1-6 6h-228a6 6 0 0 1-6-6z" fill="none"/><use xlink:href="#a" transform="matrix(1,0,0,1,-350.81069342249134,486.11130952383985) translate(19.983723958333314 19.41362847222222)"/><use xlink:href="#b" transform="matrix(1,0,0,1,-350.81069342249134,486.11130952383985) translate(180.00976562500003 19.41362847222222)"/><g fill="none"><path d="M-134.8 486.1a6 6 0 0 1 6 6v68a6 6 0 0 1-6 6h-192a6 6 0 0 1-6-6v-68a6 6 0 0 1 6-6z"/><path d="M-332.8 566.1c0-5.5 4.47-10 10-10h82c5.5 0 10-4.47 10-10 0 5.53 4.47 10 10 10h82c5.5 0 10 4.5 10 10" stroke="#00c2a8" stroke-width="3"/></g><path d="M-350.8 502.1a6 6 0 0 1 6-6h228a6 6 0 0 1 6 6v48a6 6 0 0 1-6 6h-228a6 6 0 0 1-6-6z" fill="none"/><use xlink:href="#c" transform="matrix(1,0,0,1,-350.81069342249134,496.11130952383985) translate(66.6579861111111 35.91362847222222)"/><use xlink:href="#d" transform="matrix(1,0,0,1,-350.81069342249134,496.11130952383985) translate(160.00651041666669 35.91362847222222)"/><path d="M-126.25 606.14l24.07-24.07" stroke="#00c2a8" stroke-width="3" fill="none"/><path d="M-125.18 607.15l-2.13 2.14v-4.2l.03-.03z" stroke="#00c2a8" stroke-width=".05" fill="#00c2a8"/><path d="M-91.03 570.92l-6.8 13.37-6.57-6.57z" stroke="#00c2a8" stroke-width="3" fill="#00c2a8"/><path d="M-125.8 641.73h17.58" stroke="#00c2a8" stroke-width="3" fill="none"/><path d="M-125.77 643.2h-1.54v-2.94h1.53z" stroke="#00c2a8" stroke-width=".05" fill="#00c2a8"/><path d="M-92.45 641.73l-14.27 4.63v-9.27z" stroke="#00c2a8" stroke-width="3" fill="#00c2a8"/><path d="M-126.25 677.06l24.07 24.07" stroke="#00c2a8" stroke-width="3" fill="none"/><path d="M-125.18 676.04l-2.1 2.1-.03-.05v-4.2z" stroke="#00c2a8" stroke-width=".05" fill="#00c2a8"/><path d="M-91.03 712.28l-13.37-6.8 6.56-6.57z" stroke="#00c2a8" stroke-width="3" fill="#00c2a8"/><path d="M-533.6 595.1a6 6 0 0 1 6-6h392.8a6 6 0 0 1 6 6v93.35a6 6 0 0 1-6 6h-392.8a6 6 0 0 1-6-6z" stroke="#3a414a" stroke-width="3" fill="#3a414a"/><path d="M-184 595.1a6 6 0 0 1 6-6h43.2a6 6 0 0 1 6 6v20.8a6 6 0 0 1-6 6H-178a6 6 0 0 1-6-6z" stroke="#3a414a" stroke-width="3" fill="#b8f5ed"/><use xlink:href="#e" transform="matrix(1,0,0,1,-179.01069342249127,594.11130952384) translate(15.665473090277777 21.787977430555557)"/><path d="M-249.6 627.9a6 6 0 0 1 6-6h53.6a6 6 0 0 1 6 6v20.8a6 6 0 0 1-6 6h-53.6a6 6 0 0 1-6-6z" stroke="#3a414a" stroke-width="3" fill="#b8f5ed"/><use xlink:href="#f" transform="matrix(1,0,0,1,-244.6106934224913,626.9113095238397) translate(20.66547309027778 21.787977430555557)"/><path d="M-304 666.7a6 6 0 0 1 6-6h23.2a6 6 0 0 1 6 6v20.8a6 6 0 0 1-6 6H-298a6 6 0 0 1-6-6z" stroke="#3a414a" stroke-width="3" fill="#b8f5ed"/><use xlink:href="#g" transform="matrix(1,0,0,1,-299.0106934224912,665.7113095238396) translate(6.332248263888889 19.93793402777778)"/><path d="M-304 667.64a6 6 0 0 1 6-6h23.2a6 6 0 0 1 6 6v20.8a6 6 0 0 1-6 6H-298a6 6 0 0 1-6-6z" stroke="#3a414a" stroke-width="3" fill="#b8f5ed"/><use xlink:href="#h" transform="matrix(1,0,0,1,-299.0106934224912,666.6446428571737) translate(5.665473090277777 21.787977430555557)"/><path d="M-404.4 595.1a6 6 0 0 1 6-6h43.2a6 6 0 0 1 6 6v20.8a6 6 0 0 1-6 6h-43.2a6 6 0 0 1-6-6z" stroke="#3a414a" stroke-width="3" fill="#b8f5ed"/><use xlink:href="#e" transform="matrix(1,0,0,1,-399.41069342249125,594.1113095238404) translate(15.665473090277777 21.787977430555557)"/><path d="M-530 627.9a6 6 0 0 1 6-6h53.6a6 6 0 0 1 6 6v20.8a6 6 0 0 1-6 6H-524a6 6 0 0 1-6-6z" stroke="#3a414a" stroke-width="3" fill="#b8f5ed"/><use xlink:href="#f" transform="matrix(1,0,0,1,-525.0106934224913,626.9113095238401) translate(20.66547309027778 21.787977430555557)"/><path d="M-444.4 667.64a6 6 0 0 1 6-6h23.2a6 6 0 0 1 6 6v20.8a6 6 0 0 1-6 6h-23.2a6 6 0 0 1-6-6z" stroke="#3a414a" stroke-width="3" fill="#b8f5ed"/><use xlink:href="#h" transform="matrix(1,0,0,1,-439.41069342249125,666.6446428571742) translate(5.665473090277777 21.787977430555557)"/><path d="M-331.2 694.45v-6.6m0-13.15v-13.17m0-13.17V635.2m0-13.17v-13.17m0-13.16v-6.6" stroke="#00c2a8" stroke-width="3" fill="none"/><path d="M-329.74 695.95h-2.95v-1.54h2.96zM-329.74 589.15h-2.95v-1.54h2.96z" stroke="#00c2a8" stroke-width=".05" fill="#00c2a8"/><path d="M-34.5 600.1c-8.75 0-15.84-14.2-15.84-31.7s7.1-31.7 15.84-31.7H92.24c8.75 0 15.85 14.2 15.85 31.7s-7.1 31.7-15.86 31.7z" fill="#fff"/><path d="M-44.75 592.4l-.9-1.52-2.22-5.47-.85-3.7m-1.2-7.56l-.42-5.74.44-5.73m1.17-7.56l.96-4 2.2-5.38.82-1.33m4.9-5.83l1.47-.9 1.37-.56 1.3-.3 1.2-.1h6.34m8.45 0h12.66m8.45 0h12.7m8.44 0H35.2m8.46 0h12.67m8.45 0h12.68m8.45 0h6.34l1.28.1 1.3.33 1.37.57 1.4.87m4.9 5.82l.9 1.52 2.2 5.47.87 3.7m1.2 7.57l.42 5.73-.46 5.74m-1.17 7.55l-.95 4-2.2 5.38-.83 1.34m-4.9 5.82l-1.48.9-1.36.55-1.3.3-1.22.1H85.9m-8.44 0H64.78m-8.45 0H43.66m-8.45 0H22.55m-8.45 0H1.4m-8.44 0H-19.7m-8.46 0h-6.34l-1.27-.1-1.3-.33-1.37-.57-1.4-.87" stroke="#3a414a" stroke-width="4" fill="none"/><path d="M92.24 600.1c-8.75 0-15.84-14.2-15.84-31.7s7.1-31.7 15.84-31.7" fill="none"/><path d="M92.24 600.1l-1.27-.1-1.3-.33-1.37-.57-1.4-.87M82 592.4l-.92-1.52-2.2-5.47-.86-3.7m-1.2-7.56l-.42-5.74.44-5.73m1.18-7.56l.95-4 2.2-5.38.82-1.33m4.9-5.83l1.47-.9 1.36-.56 1.3-.3 1.2-.1" stroke="#3a414a" stroke-width="4" fill="none"/><path d="M145.34 574.93a6 6 0 0 1-6 6H114.1a6 6 0 0 1-6-6v-13.05a6 6 0 0 1 6-6h25.24a6 6 0 0 1 6 6z" stroke="#000" stroke-opacity="0" stroke-width="3" fill-opacity="0"/><path d="M116.25 568.4h-4.66" stroke="#3a414a" stroke-width="7" fill="none"/><path d="M134.02 568.4l-14.27 4.64v-9.27z" stroke="#3a414a" stroke-width="7" fill="#3a414a"/><path d="M111.68 571.88h-3.6v-6.95h3.6z" stroke="#3a414a" stroke-width=".05" fill="#3a414a"/><path d="M87.1 579.1a6 6 0 0 1-6-6v-9.5a6 6 0 0 1 6-6h9.5a6 6 0 0 1 6 6v9.5a6 6 0 0 1-6 6z" stroke="#3a414a" stroke-width="3" fill="#fff"/><path d="M38.82 568.4c0 11.52-9.34 20.86-20.86 20.86S-2.9 579.92-2.9 568.4s9.35-20.86 20.86-20.86c11.52 0 20.86 9.34 20.86 20.86z" stroke="#000" stroke-opacity="0" stroke-width="2" fill="#ffe342"/><use xlink:href="#i" transform="matrix(1,0,0,1,2.10654495520658,552.5435681319486) translate(9.33224826388889 22.50043402777778)"/><path d="M-87.6 561.82a6 6 0 0 1 6-6h25.26a6 6 0 0 1 6 6v13.05a6 6 0 0 1-6 6H-81.6a6 6 0 0 1-6-6z" stroke="#000" stroke-opacity="0" stroke-width="3" fill-opacity="0"/><path d="M-84.1 568.34h4.67M-84 568.34h-3.6" stroke="#3a414a" stroke-width="7" fill="none"/><path d="M-61.67 568.34l-14.26 4.64v-9.27z" stroke="#3a414a" stroke-width="7" fill="#3a414a"/><path d="M-34.5 673.47c-8.75 0-15.84-14.2-15.84-31.7s7.1-31.68 15.84-31.68H92.24c8.75 0 15.85 14.18 15.85 31.68s-7.1 31.7-15.86 31.7z" fill="#fff"/><path d="M-44.75 665.8l-.9-1.54-2.22-5.47-.85-3.73m-1.2-7.56l-.42-5.72.44-5.74m1.17-7.55l.96-4.03 2.2-5.37.82-1.34m4.9-5.82l1.47-.9 1.37-.55 1.28-.32 1.22-.1h6.34m8.45 0h12.66m8.45 0h12.7m8.44 0H35.2m8.46 0h12.67m8.45 0h12.68m8.45 0h6.34l1.28.1 1.3.33 1.37.58 1.4.87m4.9 5.82l.9 1.53 2.2 5.47.87 3.72m1.2 7.54l.42 5.74-.46 5.73m-1.17 7.57l-.95 4-2.2 5.4-.83 1.32m-4.9 5.8l-1.48.9-1.36.57-1.3.3-1.22.1H85.9m-8.44 0H64.78m-8.45 0H43.66m-8.45 0H22.55m-8.45 0H1.4m-8.44 0H-19.7m-8.46 0h-6.34l-1.27-.1-1.3-.32-1.37-.57-1.4-.87" stroke="#3a414a" stroke-width="4" fill="none"/><path d="M92.24 673.47c-8.75 0-15.84-14.2-15.84-31.7s7.1-31.68 15.84-31.68" fill="none"/><path d="M92.24 673.47l-1.27-.1-1.3-.32-1.37-.57-1.4-.87m-4.9-5.8l-.92-1.54-2.2-5.47-.86-3.73m-1.2-7.56l-.42-5.72.44-5.74m1.18-7.55l.95-4.03 2.2-5.37.82-1.34m4.9-5.82l1.47-.9 1.36-.55 1.3-.32 1.2-.1" stroke="#3a414a" stroke-width="4" fill="none"/><path d="M145.34 648.3a6 6 0 0 1-6 6H114.1a6 6 0 0 1-6-6v-13.05a6 6 0 0 1 6-6h25.24a6 6 0 0 1 6 6z" stroke="#000" stroke-opacity="0" stroke-width="3" fill-opacity="0"/><path d="M116.25 641.78h-4.66" stroke="#3a414a" stroke-width="7" fill="none"/><path d="M134.02 641.78l-14.27 4.63v-9.26z" stroke="#3a414a" stroke-width="7" fill="#3a414a"/><path d="M111.68 645.25h-3.6v-6.95h3.6z" stroke="#3a414a" stroke-width=".05" fill="#3a414a"/><path d="M87.1 652.47a6 6 0 0 1-6-6v-9.5a6 6 0 0 1 6-6h9.5a6 6 0 0 1 6 6v9.5a6 6 0 0 1-6 6z" stroke="#3a414a" stroke-width="3" fill="#fff"/><path d="M38.82 641.78c0 11.52-9.34 20.86-20.86 20.86S-2.9 653.3-2.9 641.78s9.35-20.86 20.86-20.86c11.52 0 20.86 9.34 20.86 20.86z" stroke="#000" stroke-opacity="0" stroke-width="2" fill="#ffe342"/><use xlink:href="#j" transform="matrix(1,0,0,1,2.10654495520658,625.9199322902926) translate(9.33224826388889 22.50043402777778)"/><path d="M-87.6 635.2a6 6 0 0 1 6-6h25.26a6 6 0 0 1 6 6v13.05a6 6 0 0 1-6 6H-81.6a6 6 0 0 1-6-6z" stroke="#000" stroke-opacity="0" stroke-width="3" fill-opacity="0"/><path d="M-84.1 641.72h4.67M-84 641.72h-3.6" stroke="#3a414a" stroke-width="7" fill="none"/><path d="M-61.67 641.72l-14.26 4.63v-9.26z" stroke="#3a414a" stroke-width="7" fill="#3a414a"/><path d="M-34.5 746.84c-8.75 0-15.84-14.2-15.84-31.7s7.1-31.67 15.84-31.67H92.24c8.75 0 15.85 14.18 15.85 31.68s-7.1 31.7-15.86 31.7z" fill="#fff"/><path d="M-44.75 739.17l-.9-1.54-2.22-5.47-.85-3.72m-1.2-7.55l-.42-5.75.44-5.73m1.17-7.55l.96-4.02 2.2-5.37.82-1.34m4.9-5.82l1.47-.9 1.37-.56 1.28-.3 1.22-.1h6.34m8.45 0h12.66m8.45 0h12.7m8.44 0H35.2m8.46 0h12.67m8.45 0h12.68m8.45 0h6.34l1.28.1 1.3.32 1.37.57 1.4.88m4.9 5.8l.9 1.54 2.2 5.48.87 3.72m1.2 7.55l.42 5.73-.46 5.74m-1.17 7.54l-.95 4.02-2.2 5.37-.83 1.34M97.6 745l-1.48.9-1.36.55-1.3.3-1.22.1H85.9m-8.44 0H64.78m-8.45 0H43.66m-8.45 0H22.55m-8.45 0H1.4m-8.44 0H-19.7m-8.46 0h-6.34l-1.27-.1-1.3-.32-1.37-.58-1.4-.87" stroke="#3a414a" stroke-width="4" fill="none"/><path d="M92.24 746.84c-8.75 0-15.84-14.2-15.84-31.7s7.1-31.67 15.84-31.67" fill="none"/><path d="M92.24 746.84l-1.27-.1-1.3-.3-1.37-.6-1.4-.86m-4.9-5.8l-.92-1.55-2.2-5.47-.86-3.72m-1.2-7.55l-.42-5.75.44-5.73m1.18-7.55l.95-4.02 2.2-5.37.82-1.34m4.9-5.82l1.47-.9 1.36-.56 1.3-.3 1.2-.1" stroke="#3a414a" stroke-width="4" fill="none"/><path d="M145.34 721.68a6 6 0 0 1-6 6H114.1a6 6 0 0 1-6-6v-13.05a6 6 0 0 1 6-6h25.24a6 6 0 0 1 6 6z" stroke="#000" stroke-opacity="0" stroke-width="3" fill-opacity="0"/><path d="M116.25 715.15h-4.66" stroke="#3a414a" stroke-width="7" fill="none"/><path d="M134.02 715.15l-14.27 4.64v-9.28z" stroke="#3a414a" stroke-width="7" fill="#3a414a"/><path d="M111.68 718.63h-3.6v-6.95h3.6z" stroke="#3a414a" stroke-width=".05" fill="#3a414a"/><g><path d="M87.1 725.85a6 6 0 0 1-6-6v-9.5a6 6 0 0 1 6-6h9.5a6 6 0 0 1 6 6v9.5a6 6 0 0 1-6 6z" stroke="#3a414a" stroke-width="3" fill="#fff"/></g><path d="M38.82 715.15c0 11.52-9.34 20.86-20.86 20.86S-2.9 726.68-2.9 715.16c0-11.5 9.35-20.85 20.86-20.85 11.52 0 20.86 9.34 20.86 20.85z" stroke="#000" stroke-opacity="0" stroke-width="2" fill="#ffe342"/><g><use xlink:href="#k" transform="matrix(1,0,0,1,2.10654495520658,699.2962964486366) translate(9.33224826388889 22.50043402777778)"/></g><path d="M-87.6 708.57a6 6 0 0 1 6-6h25.26a6 6 0 0 1 6 6v13.05a6 6 0 0 1-6 6H-81.6a6 6 0 0 1-6-6z" stroke="#000" stroke-opacity="0" stroke-width="3" fill-opacity="0"/><path d="M-84.1 715.1h4.67M-84 715.1h-3.6" stroke="#3a414a" stroke-width="7" fill="none"/><path d="M-61.67 715.1l-14.26 4.63v-9.27z" stroke="#3a414a" stroke-width="7" fill="#3a414a"/><defs><path d="M157-1349h916v228H757v893h316V0H157v-228h316v-893H157v-228" id="l"/><path d="M622-916c-112 2-200 14-200 111 0 90 89 101 168 121 234 58 514 77 514 368C1104-4 751 54 434 5 267-21 161-112 121-270l247-37c24 111 113 145 252 141 114-3 226-12 226-124 0-101-103-113-192-134-225-54-490-76-490-351 0-247 201-328 458-328 245 0 413 88 457 292l-249 26c-16-98-92-133-208-131" id="m"/><path d="M616-1102c361 0 521 202 521 560 0 354-171 562-527 562C259 20 92-192 92-542c0-351 169-560 524-560zm-9 930c200-2 236-165 236-370 0-199-27-367-223-367-195 0-233 146-233 367 0 129 18 223 55 282s92 88 165 88" id="n"/><path d="M1109-360C1066-122 902 20 624 20c-347 0-514-209-514-555 0-353 168-567 518-567 270 0 425 136 473 361l-283 14c-16-106-75-183-196-182-75 0-130 31-165 93s-52 152-52 270c0 249 74 374 221 374 120 0 188-82 201-201" id="o"/><path d="M424-1484c-2 206 5 424-8 618h4c67-145 160-234 348-236 251-3 335 167 336 416V0H824v-621c0-150-23-276-173-270-163 7-227 142-227 312V0H143v-1484h281" id="p"/><path d="M875-1102c70 0 148 7 206 17v237c-110-17-267-37-359 15-123 69-192 207-192 395V0H250c-10-367 32-789-52-1082h271c19 69 36 149 46 228h4c52-151 151-250 356-248" id="q"/><path d="M768-1103c247 0 336 167 336 416V0H824v-619c-3-164-24-273-171-273-164 0-229 142-229 312V0H143c-4-359 9-736-8-1082h268c7 63 12 146 13 215h4c67-145 160-236 348-236" id="r"/><path d="M471 20c-247 0-336-169-336-415v-687h281v607c4 148 31 285 172 285 152 0 207-150 207-312v-580h281c4 359-9 736 8 1082H816c-7-63-11-146-12-215h-5C736-76 644 20 471 20" id="s"/><g id="a"><use transform="matrix(0.010850694444444444,0,0,0.010850694444444444,0,0)" xlink:href="#l"/><use transform="matrix(0.010850694444444444,0,0,0.010850694444444444,13.335503472222221,0)" xlink:href="#m"/><use transform="matrix(0.010850694444444444,0,0,0.010850694444444444,26.671006944444443,0)" xlink:href="#n"/><use transform="matrix(0.010850694444444444,0,0,0.010850694444444444,40.006510416666664,0)" xlink:href="#o"/><use transform="matrix(0.010850694444444444,0,0,0.010850694444444444,53.342013888888886,0)" xlink:href="#p"/><use transform="matrix(0.010850694444444444,0,0,0.010850694444444444,66.67751736111111,0)" xlink:href="#q"/><use transform="matrix(0.010850694444444444,0,0,0.010850694444444444,80.01302083333334,0)" xlink:href="#n"/><use transform="matrix(0.010850694444444444,0,0,0.010850694444444444,93.34852430555557,0)" xlink:href="#r"/><use transform="matrix(0.010850694444444444,0,0,0.010850694444444444,106.6840277777778,0)" xlink:href="#n"/><use transform="matrix(0.010850694444444444,0,0,0.010850694444444444,120.01953125000003,0)" xlink:href="#s"/><use transform="matrix(0.010850694444444444,0,0,0.010850694444444444,133.35503472222226,0)" xlink:href="#m"/></g><path d="M1100-543c2 361-147 563-501 563-342 0-470-199-470-548v-821h295v818c3 172 13 322 183 320 173-2 198-150 198-330v-808h295v806" id="t"/><path d="M609-1161c-125 0-218 36-218 153 0 149 166 161 290 196 235 67 484 129 484 421 0 300-239 408-554 411C302 23 93-114 38-367l285-37c32 128 131 205 296 203 143-2 259-31 259-173 0-164-197-172-333-212-218-64-441-131-441-405 0-276 231-379 511-379 299 0 463 114 513 363l-286 29c-28-115-96-183-233-183" id="u"/><path d="M836-709c204 20 350 118 350 324C1186-112 992 0 719 0H137v-1349h525c258 3 443 87 443 339 0 176-107 269-269 301zM643-811c107 0 165-53 165-159 0-113-61-160-167-160H432v319h211zm46 592c128-1 201-59 200-191-1-128-80-183-207-183H432v374h257" id="v"/><g id="b"><use transform="matrix(0.010850694444444444,0,0,0.010850694444444444,0,0)" xlink:href="#t"/><use transform="matrix(0.010850694444444444,0,0,0.010850694444444444,13.335503472222221,0)" xlink:href="#u"/><use transform="matrix(0.010850694444444444,0,0,0.010850694444444444,26.671006944444443,0)" xlink:href="#v"/></g><path d="M622-1349c296 4 497 117 497 404 0 282-193 424-485 431H353V0H162v-1349h460zm-15 684c195-3 320-88 320-277 0-184-129-255-328-254H353v531h254" id="w"/><path d="M617-1102c355 0 481 238 477 599H322c5 222 84 388 301 388 144 0 244-59 284-166l158 45C1002-72 854 20 623 20c-342 0-490-220-490-568 0-346 151-554 484-554zm291 461c-18-192-90-328-289-328-194 0-287 128-295 328h584" id="x"/><path d="M839-1102c70 0 148 7 206 17v167c-112-18-268-36-363 15-129 69-208 203-208 395V0H294c-10-367 32-789-52-1082h171c21 75 41 161 48 250h5c67-152 152-270 373-270" id="y"/><path d="M745-142h380V0H143v-142h422v-798H246v-142h499v940zM545-1292v-192h200v192H545" id="z"/><path d="M615-1102c343 0 484 203 482 560-1 347-147 562-488 562-336 0-475-219-479-562-4-349 156-560 485-560zm-8 989c240 0 301-180 301-429 0-245-55-427-290-427-236 0-299 181-299 427 0 243 61 429 288 429" id="A"/><path d="M865-914c-3-187-2-380-2-570h180v1261c0 76 1 155 6 223H877c-8-49-9-116-10-174h-5C801-44 708 26 530 26c-135 0-234-46-297-139s-95-232-95-419c0-377 131-566 392-566 176 0 271 63 335 184zm-286-51c-222 0-255 197-255 427 0 229 31 425 253 425 237 0 286-195 286-441 0-238-52-411-284-411" id="B"/><g id="c"><use transform="matrix(0.010850694444444444,0,0,0.010850694444444444,0,0)" xlink:href="#w"/><use transform="matrix(0.010850694444444444,0,0,0.010850694444444444,13.335503472222221,0)" xlink:href="#x"/><use transform="matrix(0.010850694444444444,0,0,0.010850694444444444,26.671006944444443,0)" xlink:href="#y"/><use transform="matrix(0.010850694444444444,0,0,0.010850694444444444,40.006510416666664,0)" xlink:href="#z"/><use transform="matrix(0.010850694444444444,0,0,0.010850694444444444,53.342013888888886,0)" xlink:href="#A"/><use transform="matrix(0.010850694444444444,0,0,0.010850694444444444,66.67751736111111,0)" xlink:href="#B"/></g><path d="M709-1193V0H519v-1193H76v-156h1076v156H709" id="C"/><use transform="matrix(0.010850694444444444,0,0,0.010850694444444444,0,0)" xlink:href="#C" id="d"/><path d="M1124 0H830l-28-330H346L190 0h-295l705-1349h344zM737-1167c-87 211-191 412-286 615h332c-17-203-41-400-46-615" id="D"/><use transform="matrix(0.01193576388888889,0,0,0.01193576388888889,0,0)" xlink:href="#D" id="e"/><path d="M869-709c191 18 328 116 287 324C1106-131 911 0 614 0H32l262-1349h525c212 4 385 55 385 261 0 222-137 338-335 379zM696-811c124 2 196-74 201-206 6-158-206-103-350-113l-62 319h211zm-69 592c156-1 242-87 242-238 0-188-251-125-427-136l-72 374h257" id="E"/><use transform="matrix(0.01193576388888889,0,0,0.01193576388888889,0,0)" xlink:href="#E" id="f"/><path d="M650-1214c-281 0-336 244-336 533 0 295 60 546 347 546 188 0 263-142 322-282l159 65C1058-155 935 20 659 20c-401 0-546-295-546-701 0-407 135-689 536-689 264 0 391 146 466 335l-168 65c-47-129-127-244-297-244" id="F"/><use transform="matrix(0.010850694444444444,0,0,0.010850694444444444,0,0)" xlink:href="#F" id="g"/><path d="M945-915c-13-119-52-223-177-223-91 0-164 41-226 116-82 99-156 334-156 536 0 164 55 274 209 274 161 0 224-131 288-244l263 52C1025-182 874 20 547 20 236 20 83-141 83-449c0-420 155-750 465-876 120-49 313-64 440-16 146 55 221 182 242 360" id="G"/><use transform="matrix(0.01193576388888889,0,0,0.01193576388888889,0,0)" xlink:href="#G" id="h"/><use transform="matrix(0.010850694444444444,0,0,0.010850694444444444,0,0)" xlink:href="#D" id="i"/><use transform="matrix(0.010850694444444444,0,0,0.010850694444444444,0,0)" xlink:href="#E" id="j"/><use transform="matrix(0.010850694444444444,0,0,0.010850694444444444,0,0)" xlink:href="#G" id="k"/></defs></g></svg>