<svg xmlns="http://www.w3.org/2000/svg" role="img" viewBox="250.95 138.45 341.59 379.34"><style>svg {enable-background:new 0 0 1000 1000}</style><style>.st2,.st4{stroke-miterlimit:10}.st2{fill:#f9df91;stroke:#f9df91}.st4{stroke:#050404}.st5{fill:#050404}</style><g id="Layer_2"><path fill="#e2e9f0" stroke="#e2e9f0" stroke-miterlimit="10" d="M345.74,272.15c-3.3,2.98-2.89,8.17-2.39,12.59c3.52,30.89-1.31,62.08-1.31,93.18c0,2.52,0.05,5.13,1.08,7.43 c1.04,2.3,3.32,4.23,5.84,4.06c2.21-0.15,3.98-1.8,5.57-3.33c14.37-13.92,29.67-26.87,45.77-38.75l-28.36,0.57l-1.04-62.74 l17.81-3.52l56.95-3.73l45.56,2.28l5.38,14.08l-1.66,47.63l-0.62,10.15l-7.25,0.62l-62.33-4.35l-5.8,1.45 c0,0-39.97,41.42-39.09,42.25c16.94,3.25,34.14-2.49,51.26-4.6c7.62-0.94,15.31-1.16,22.98-1.38c11.9-0.34,23.81-0.68,35.71-1.03 c4.5-0.13,9.06-0.25,13.44,0.74c5.41,1.23,11.3,4.08,16.14,1.36c1.73-0.97,3.02-2.54,4.33-4.02 c10.62-11.98,24.69-20.26,38.61-28.18c6.06-3.45,12.67-7.5,14.61-14.2c0.65-2.23,0.71-4.59,0.76-6.92 c0.79-34.73,1.59-69.45,2.38-104.18c0.03-1.52,0-3.23-1.1-4.29c-0.86-0.84-2.15-1.02-3.35-1.12c-9.16-0.75-18.3,1.03-27.44,2.03 c-14.26,1.56-28.65,1.22-43,0.87c-26.96-0.65-53.93-1.3-80.89-1.95c-7.97-0.19-16.18-0.34-23.61,2.55 c-9.78,3.81-16.79,12.28-24.66,19.23c-6.42,5.66-13.62,10.44-21.34,14.14c-4.03,1.93-8.39,3.73-11.05,7.31 C340.98,271.98,341.09,278.04,345.74,272.15z"/><path d="M413.81,333.51c2.58-2.01,5.3-4.1,8.52-4.65c3.22-0.56,7.07,0.99,7.92,4.15c0.89,3.31-1.69,6.46-4.07,8.92 c-4.87,5.03-9.75,10.07-14.96,14.76c-5.43,4.87-11.22,9.35-16.4,14.49c-9.09,8.99-16.26,19.9-26.24,27.89 c-3.49,2.8-7.29,5.21-10.74,8.06c-5.47,4.53-9.97,10.11-14.42,15.65c-7.92,9.85-15.84,19.71-23.22,29.98 c-2.02,2.81-4.12,5.76-7.22,7.29c-3.1,1.53-7.5,1.04-9.17-1.99c-0.66-1.2-1.05-2.86-2.38-3.18c-1.08-0.26-2.08,0.58-3.12,0.99 c-2.79,1.1-6.07-1.3-6.65-4.24c-0.58-2.94,0.92-5.97,3.03-8.1s4.79-3.59,7.29-5.25c6.73-4.48,12.22-10.53,17.79-16.38 c4.28-4.49,8.66-8.9,13.06-13.27C360.32,381.34,387.81,353.83,413.81,333.51z" class="st2"/><path d="M315.14 439.47c-3.27-1.78-7.3-1.93-10.56-.31-2.21-.26-4.57.09-6.81 1.13-2.88.7-4.89 2.49-6.71 4.01-.78.57-1.55 1.18-2.31 1.77-2.87 3.13-4.31 8.09-2.27 12.02 1.14 3.12 4.05 5.56 7.3 6.41.33.31.67.61 1.06.88 1.24 1.12 3.2 1.93 4.99 2.28 4.17 2.36 9.83 2.07 13.77-1.99 2.4-2.23 3.56-5.01 3.7-7.76.43-.89.88-1.78 1.35-2.65C322.25 450.14 320.58 442.56 315.14 439.47zM534.4 184.48c-5.02 2.44-7.11 8.39-10.98 12.41-2.12 2.2-4.76 3.81-7.3 5.51-7.8 5.21-14.88 11.5-20.97 18.62-1.18 1.38-2.26 3.65-.83 4.77.49.38 1.15.47 1.77.54 3.61.41 7.22.81 10.83 1.22 1.29.15 2.66.28 3.84-.26.68-.32 1.25-.84 1.8-1.35 13.27-12.29 26.55-24.58 39.82-36.87.71-.65 1.44-1.36 1.7-2.29.42-1.55-.71-3.18-2.15-3.88-1.45-.7-3.12-.69-4.72-.66-3.19.05-6.43.1-9.49 1.01S531.75 186.04 534.4 184.48z" class="st2"/><path fill="#b3c8e1" stroke="#b3c8e1" stroke-miterlimit="10" d="M387.26 282.95L370.33 285.31 371.43 348.3 399.73 347.2 414.75 332 419.39 332 431.59 335.19 422.31 347.39 493.71 353.03 495.08 283.13 488.52 280.22 461.67 278.94"/></g><g id="Layer_1"><path d="M344.58 387.23c0-.01-.01-.03-.01-.04-.05-3.71-.02-11.83.01-17.05.77-24.75.48-49.51.35-74.27-.08-7.81.01-15.62.19-23.43-.01-1.88-2.96-2.04-3 0-.48 23.47.06 46.96-.01 70.43.11 15.15-1.16 30.35-.35 45.48.28 1.3 2.04 2.26 3.1 1.22C345.54 388.92 345.38 387.72 344.58 387.23zM516.17 387.68c-.8-.01-1.6 0-2.39-.08-.25-.06-.5-.13-.73-.23-.19-.08-.43-.18-.56-.22-.2 0-.8-.17-1.02-.22-1.07-.53-2.28-.37-3.45-.45-2.96-.04-6.47-1.82-10.42-2.14-3.71-.23-7.39.42-11.08.71-3.83.41-7.69.37-11.53.26-6.23-.54-12.48-.61-18.73-.3-4.72.51-9.44 1.08-14.19 1.34-6.46.4-12.96-.03-19.41.62-5.29.51-10.4 2.05-15.65 2.87-8.96 2.21-19.45.5-29.58-.53-.28.43-.6.83-.96 1.23-.1.15-.22.3-.36.44-.26.33-.55.57-.89.76-.03.04-.07.07-.1.1-.05.06-.11.12-.17.17-.02.02-.03.04-.05.05 1.44.14 2.89.27 4.33.42 8.5.89 17.17 2.33 25.67.79 5.44-.84 13.03-2.75 17.08-3.22 6.61-.76 13.28-.28 19.92-.69 4.8-.25 9.57-.84 14.35-1.35 5.56-.21 11.14-.36 16.68.18 3.78.23 7.58.28 11.36.05 4.38-.28 8.74-1.11 13.14-.92 2.03 0 6.73 1.94 10.08 2.12.81.06 1.62.07 2.43.09.03.01.05.02.1.03.03.02.07.03.1.05.48.25 1.02.35 1.54.43.12.04.25.09.37.14-.12-.05-.24-.1-.36-.15 1.06.55 2.26.63 3.44.64.89.04 2.05.1 2.41-.91C517.99 388.83 517.2 387.64 516.17 387.68zM352.55 390.21c.1-.08.2-.15.31-.21.84-.78 1.54-1.44 2.38-2.15.12-.1.23-.2.35-.3-2.13-.14-4.26-.28-6.39-.43-1.08.1-2.36-.35-3.23.43-.91.88-.25 2.6 1.06 2.56 1.78.06 3.55.16 5.33.25C352.42 390.31 352.49 390.26 352.55 390.21z" class="st4"/><path d="M521.15,360.25c-0.65-7.9-0.68-15.82-0.64-23.74c-0.1-3.45,0.59-6.87,0.29-10.32 c-0.93-7.25-2.59-12.38-2.47-19.55c0.56-4.27,0.49-8.58,0.47-12.88c0.01-1.68-0.12-2.02,0.29-2.93c0.1-0.36,0.14-0.74,0.19-1.11 c0.78-1.23,0.63-2.78,0.66-4.19c0-4.55,0-9.1,0-13.64c0.01-0.01,0.01-0.01,0.02-0.02c-0.01,0.01-0.01,0.01-0.02,0.02v0 c0.67-0.5,0.69-1.58,0.44-2.3c-0.16-0.47-0.61-0.78-1.1-0.88c-0.06-0.03-0.34-0.1-0.55-0.16c-0.79-0.2-1.61-0.27-2.43-0.35 c-7.76-1.02-15.59-0.49-23.39-0.76c-3.39-0.33-9.33-1.52-14-2.08c-4.48-0.6-9.01-0.61-13.51-0.84c-5.42-0.42-11.76-2.1-18.27-2.09 c-6.38-0.2-12.73,0.5-19.1,0.88c-5.06,0.33-10.14,0.18-15.21,0.21c-2.91-0.13-5.75,0.49-8.58,1.09c-4.1,0.77-7.83,1.24-12.75,1.66 c-3.49,0.32-6.97,0.83-10.39,1.56c-3.45,0.85-6.27,1.76-8.99,1.83c-3.24,0.12-6.48,0.18-9.72,0c-4.52-0.5-9.1-0.6-13.56,0.43 c0.67-0.07-2.04,0.26-2.79,0.23c-1.93,0.14-3.9-0.07-5.82,0.05c-0.34-0.08-0.74-0.06-1.17,0.12c0,0,0,0,0,0c0,0,0,0,0,0 c-0.36,0.14-0.6,0.39-0.74,0.68c-0.02,0.05-0.03,0.09-0.05,0.14c-0.02,0.06-0.04,0.11-0.05,0.17c-0.07,0.25-0.09,0.52-0.02,0.77 c0.06,0.21,0.16,0.4,0.3,0.56c0.23,0.31,0.58,0.52,1.04,0.54c0.14,0.02,0.28,0.02,0.42,0.01c3.82,0,7.68,0.14,11.44-0.68 c2.85-0.67,7.3-0.36,11.3,0c3.59,0.17,7.21,0.14,10.8-0.11c3.57-0.34,6.96-1.65,10.49-2.26c4.84-0.9,7.68-0.98,12.5-1.53 c6.11-0.39,11.09-2.35,16.37-2.25c4.84-0.01,9.69,0.09,14.52-0.16c6.79-0.41,13.57-1.16,20.38-0.92 c5.76-0.02,11.18,1.53,17.69,2.07c4.25,0.21,8.51,0.25,12.75,0.74c5.07,0.59,9.22,1.58,14.92,2.19c7.75,0.23,17.08-0.28,23.88,0.85 c-0.01,0.13-0.02,0.27-0.02,0.4v5.06c-0.03,3.62,0.06,7.24-0.05,10.86c-0.06,0.22-0.05,0.25-0.03,0.21 c-0.01,0.06-0.03,0.12-0.05,0.18c-0.01-0.04-0.31,0.51-0.38,0.72c-0.23,0.86,0.04,0.66-0.49,1.97c-0.35,2.97-0.03,6.02-0.15,9.02 c0.1,3.56-0.84,7.09-0.35,10.64c0.39,5.04,1.71,11.67,2.32,15.28c0.35,4.77-0.5,9.52-0.25,14.3c-0.3,10.97,1.17,21.88,0.67,32.85 c-0.04,3.07-0.17,6.14-0.4,9.21c0.01,1.06-0.46,2.17-0.14,3.19c0.5,1.45,2.95,1.03,2.87-0.58 C521.32,376.54,521.43,368.37,521.15,360.25z" class="st4"/><path d="M582.62,271.38c-0.49-9.4-2.43-18.71-2.3-28.14c0.05-3.41-0.01-7.57,0.51-9.75c0.17-0.72,0.28-1.46,0.46-2.18 c0.04-0.2,0.18-0.58,0.27-0.81c0-0.01,0.01-0.01,0.01-0.02c0.26-0.12,0.49-0.29,0.64-0.57c0.61-1-0.25-2.39-1.44-2.26 c-0.33-0.02-0.64,0.07-0.91,0.26c-1.29,0.41-2.49,1.1-3.7,1.7c-6.33,3.7-12.37,7.85-18.28,12.19 c-10.91,7.77-21.78,15.6-32.47,23.69c-1.86,1.42-3.69,2.91-5.42,4.48c-0.55,0.55-1.36,1.04-1.33,1.9c-0.03,1.3,1.67,1.99,2.56,1.06 c8.95-8.03,19.89-15.17,30.32-22.95c8.75-6.02,17.1-12.77,26.45-17.85c-1.42,7.49-0.25,22.04,0.25,24.91 c0.89,8.02,1.78,16.06,1.91,24.14c-0.58,11.58-2.03,23.11-1.68,34.73c0.03,4.56,0.08,9.13-0.59,13.66c-0.42,2.25-1.7,9.1-2.15,12.9 c-0.01,0.05-0.02,0.11-0.02,0.16c-0.23,0.17-0.44,0.36-0.62,0.58c-0.13,0.11-0.38,0.34-0.43,0.39c-3.78,3.1-6.97,5.29-11.38,8.45 c-3.92,2.72-7.76,5.58-11.96,7.86c-4.14,2.26-7.84,5.24-11.91,7.63c-3.84,2.57-8.04,4.86-11.12,8.37 c-1.66,2.65-3.94,3.75-8.02,6.76c-0.09,0.1-0.28,0.34-0.4,0.51c-0.35,0.38-0.74,0.72-0.99,1.18c-0.24,0.41-0.51,0.82-0.77,1.22 c-0.04,0.06-0.13,0.2-0.2,0.31c-0.42,0.44-0.9,0.85-0.87,1.51c-0.02,0.95,0.97,1.72,1.9,1.45c0.76-0.25,1.25-1,1.69-1.64 c0.8-1.39,1.5-2.05,1.84-2.5c0.71-0.5,6.74-4.47,6.96-5.44c2.25-3.31,6.36-5.84,10.93-8.79c5.41-3.43,10.67-7.07,16.25-10.22 c5.65-3.89,13.85-9.39,17.98-12.88c0.96-0.77,1.99-1.45,2.85-2.32c0.61-0.35,1.22-0.78,1.19-1.59c0.32-4.4,2.02-10.96,2.55-16.6 c0.64-7.48,0.07-15.01,0.39-22.51C582.02,293.36,583.93,282.39,582.62,271.38z" class="st4"/><g><path d="M582.72,226.96c-0.22-0.23-0.54-0.39-0.86-0.41c-0.17-0.02-0.42-0.04-0.6-0.05c-0.01,0-0.03-0.01-0.04-0.01 c-1.69-1.27-4.87-1.21-7.7-2.04c-4.06-0.66-8.66,0.33-11.55,0.36c-8.68-0.06-16.58-0.21-24.24,1.53 c-11.78,2.58-24.49,1.03-37.3-0.35c-3.05-0.29-8.41-2.13-12.83-1.74c-10.19-0.04-18.11,2.39-28.27,2.74 c-4.11,0.18-6.12-0.5-10.17-0.97c-12.29-0.24-24.59,0.13-36.89-0.19c-1.44,0.06-2.33-0.31-3.46-0.39 c-0.45-0.12-0.96-0.09-1.38,0.07c-0.02,0-0.03,0-0.04,0.01c-0.23,0.08-0.4,0.21-0.54,0.37c-0.03,0.03-0.05,0.06-0.08,0.09 c-0.01,0.01-0.01,0.02-0.02,0.03c-0.13,0.16-0.22,0.36-0.25,0.59c-1.26,0.97-2.04,1.53-3.67,2.62c-1.25,0.96-2.06,1.59-3.46,2.59 c-1.38,0.9-2.92,1.51-4.16,2.6c-0.06,0.13-0.43,0.35-0.43,0.33c-3.41,2.48-8.29,6.06-10.34,7.9c-3.52,2.35-7.13,4.54-10.69,6.82 c-9.57,5.37-18.34,11.96-27.18,18.45c-1.23,0.9-2.46,1.78-3.7,2.68c-0.34,0.2-0.58,0.52-0.69,0.9c-0.35,1.23,1.07,2.39,2.2,1.69 c7.61-5.49,15.08-11.16,22.9-16.35c6.61-4.19,16.39-9.39,21.16-13.69c2.79-2.21,7.67-5.56,9.37-6.97c2.58-1.33,4.37-2.69,5.96-3.9 c0.78-0.77,1.38-0.93,2.76-1.93c0.25-0.21,2.87-2.24,1.98-1.56c0.11-0.1,0.23-0.19,0.36-0.28c1.22,0.23,4.81,0.45,6.76,0.42 c5.56,0.04,11.12,0.03,16.68,0.03c5.83,0.13,13.81-0.3,18.22,0.25c6.93,1.53,13.97,0.42,20.92-0.38 c7.3-1.02,12.81-2.02,20.44-1.43c1.12-0.01,4,0.99,6.27,1.3c3.58,0.5,7.17,0.82,10.76,1.22c4.95,0.39,9.88,0.88,14.85,0.75 c2.93-0.04,5.89,0.21,8.78-0.42c5.5-0.86,10.09-1.86,14.13-2.23c5.4-0.37,10.82-0.11,16.23-0.19c3.96-0.37,7.97-1.12,11.89,0.03 c2.12,0.51,2.64,0.19,4.39,0.91c0.02,0.01,0.04,0.01,0.06,0.02c0.08,0.08,0.09,0.07,0.04,0.02l0,0c0.28,0.23,0.6,0.41,0.94,0.53 c0.34,0.15,0.73,0.17,1.1,0.2C582.66,229.92,583.91,227.96,582.72,226.96z" class="st4"/><path d="M394.77,234.73c0.09-0.07,0.18-0.13,0.27-0.2C394.83,234.67,394.77,234.72,394.77,234.73z" class="st4"/></g><path d="M496.29,283.31c-0.22-1.81-1.74-2.98-3.36-3.57c-6.68-3.1-14.33-1.95-21.47-2.19 c-7.94,0.13-15.87-0.31-23.82-0.26c-12.31,0.97-24.63,1.5-36.9,2.94c-8.67,1.19-19.83,0.13-27.03,1.38 c-4.89,0.26-8.44,1.03-10.94,1.57c-0.67,0.04-1.33,0.14-1.99,0.25c-0.02,0-0.06,0-0.17,0.02c-1.02-0.06-2.23,0.3-2.22,1.54 c-0.06,0.16,0.04,0.5,0.13,0.73c0.02,0.14,0.06,0.31,0.08,0.41c0.02,0.17,0.03,0.35,0.02,0.52c-0.09,0.7-0.44,2.12-0.49,4.36 c0,0.06-0.01,0.09-0.01,0.12c0,0,0,0,0,0c-0.12,0.41-0.2,0.83-0.23,1.26c-0.08,1.73-0.11,3.46,0.59,5.08 c0.04,0.12,0.08,0.25,0.11,0.38c-0.11,9.26-0.27,18.52-0.21,27.79c0.19,7.16-0.8,17.62,1.6,22.97c0.06,0.26,0.18,0.46,0.35,0.62 c0.01,0.01,0.02,0.03,0.03,0.04c0-0.01-0.01-0.02-0.01-0.03c1.1,0.99,4.04,0.24,5.34,0.46c3.65,0.03,7.3-0.27,10.95-0.32 c4.89-0.4,9.76-1.02,14.67-0.99c0.01-0.02,0.03-0.03,0.04-0.05c0.02-0.05,0.04-0.1,0.07-0.15c0.08-0.1,0.16-0.2,0.23-0.31 c0.16-0.22,0.32-0.38,0.48-0.53c0.4-0.48,0.86-0.89,1.35-1.29c0.28-0.23,0.58-0.47,0.9-0.68c-3.88-0.02-7.76,0.04-11.61,0.46 c-6.76,0.72-13.57,0.88-20.37,0.87c-1-2.68-1-7.44-1.02-11.76c0-9.39-0.03-18.78,0.09-28.17c-0.07-4.52,0.42-9.13,0.04-13.61 c-0.12-0.35-0.34-0.58-0.61-0.72c0.07-0.36,0.18-0.6,0.23-1.59c-0.07-1.32,0.42-3.1,0.47-4.54c1.41-0.16,2.1-0.27,3.58-0.56 c4.25-1.05,8.55-1.11,14.62-1.79c5.19-0.24,10.39,0.14,15.57-0.26c9.71-0.9,19.38-2.04,29.13-2.44c8.26-0.79,16.55-1.29,24.85-0.81 c8.82,0.33,17.67-0.3,26.47,0.38c0.07,0.01,0.13,0.02,0.2,0.03c1.09,0.16,2.18,0.32,3.25,0.61c0.48,0.13,0.93,0.34,1.39,0.53 c0.41,0.17,0.83,0.35,1.24,0.52c0.15,0.07,0.3,0.14,0.45,0.22c0.17,0.07,0.57,0.35,0.7,0.44c0.04,0.04,0.08,0.07,0.11,0.11 c0.69,1.62,0.37,6.2,0.89,9.83c0.88,12.73-0.11,25.48-0.21,38.21c-0.08,6.98-0.75,15.02-1.4,20.71c0,0.01,0,0.01,0,0.02 c-1.01-0.16-2.2-0.59-3.72-0.87c-2.04-0.26-4.12,0.03-6.17-0.23c-0.41-0.09-1.28-0.27-1.47-0.3c-1.24-0.25-2.49-0.45-3.74-0.59 c-3.27-0.05-6.55,0.04-9.8-0.4c-1.21-0.23-6.59-1.34-9.33-1.47c-3.31-0.31-6.65-0.25-9.95-0.65c-2.35-0.1-4.52-0.7-7.65-1.08 c-5.1-0.09-10.2,0.02-15.3-0.05c-1.93,0.01-3.51-0.11-5-0.28c-0.02,0.02-0.04,0.04-0.06,0.06c-0.22,0.37-0.51,0.66-0.87,0.9 c-0.09,0.09-0.19,0.19-0.28,0.28c-0.01,0.01-0.01,0.01-0.02,0.02c-0.02,0.03-0.04,0.07-0.08,0.13c-0.17,0.25-0.37,0.51-0.59,0.73 c-0.09,0.09-0.37,0.23-0.57,0.37c-0.01,0.01-0.01,0.01-0.02,0.02c0,0.01-0.02,0.01-0.02,0.02c-0.04,0.05-0.08,0.11-0.14,0.18 c7.93,1.19,17.8,0.07,24.27,0.82c5.92,1.2,11.97,1.1,17.96,1.7c0,0,1.12,0.12,1.42,0.18c2.44,0.28,4.79,1.03,7.24,1.23 c2.93,0.3,5.88,0.24,8.82,0.28c0.32-0.16,4.07,0.84,5.77,0.95c1.75,0.14,4.88-0.01,5.27,0.13c1.99,0.32,5.51,2.16,6.67-0.17 c1-3.77,0.93-8.35,1.35-13.18c0.7-5.95,0.24-11.94,0.65-17.9C497.54,309.73,497.67,296.46,496.29,283.31z" class="st4"/><path d="M391.5,300.45c0.02-0.76-0.19-1.49-0.56-2.12c-0.25-0.67-0.63-1.3-1.17-1.82c-0.54-0.58-1.34-1.01-2.13-0.75 c-0.29,0.08-0.52,0.23-0.69,0.4c-0.06,0.01-0.11,0-0.17,0.01c-1.85,0.44-2.35,2.63-2.29,4.29c0.01,0.17,0.02,0.3,0.04,0.44 c-0.21,1.29-0.07,2.63,0.54,3.68c0.17,0.51,0.43,0.98,0.81,1.35c0.92,0.83,2.26,0.54,3.26-0.09c0.31-0.07,0.61-0.23,0.88-0.5 C391.3,304.1,391.39,302.13,391.5,300.45z" class="st4"/><g><path d="M475.1,298.34c-0.23-2.38-1.95-4.83-4.48-5.01c-1.3,0.09-2.06,1.03-2.49,2.14c-1.18,1.24-1.51,3.49-1.15,5.09 c-0.12,0.78-0.21,1.55-0.3,2.3c0,0.04-0.01,0.06-0.01,0.09c0.01-0.04,0.01-0.08,0.02-0.14c-0.01,0.06-0.02,0.12-0.02,0.18 c-0.02,0.14-0.02,0.17-0.02,0.11c-0.01,0.08-0.02,0.17-0.03,0.25c-0.23,1.38,0.03,3.17,1.42,3.82c1.03,0.51,2.2-0.49,2.05-1.56 c0.25,0.01,0.51,0.01,0.79-0.03c1.71-0.48,2.65-1.97,3.11-3.61C474.63,300.88,475.12,299.62,475.1,298.34z" class="st4"/><path d="M466.68,302.96c-0.01,0.07-0.02,0.12-0.02,0.15c0.01-0.04,0.01-0.08,0.02-0.11 C466.68,302.98,466.68,302.97,466.68,302.96z" class="st4"/></g><path d="M476.59 299.84c-.23-.52-.52-.98-.86-1.42-.39-1.3-1.09-2.52-1.98-3.45-.51-.4-1.11-.71-1.73-.92-.34-.16-.69-.28-1.1-.34-.28.01-.55.07-.8.13-.04.01-.08.02-.11.03-.17.05-.33.11-.48.18-.01.01-.03.01-.04.02-.3.14-.57.32-.82.53-.06.05-.13.09-.19.15-.41.38-.75.84-1.05 1.33-.51.46-.91 1.04-1.12 1.71-.59 1.87-.9 4.1-.58 6.16-.02.37-.03.75-.04 1.11.05 1.19.06 2.46.58 3.55.43.78 1.36 1.42 2.2 1.19.75.2 1.52-.03 2.21-.46 1.12-.01 2.2-.52 2.94-1.66.1-.17.17-.35.25-.53 1.17-.66 2.18-1.68 2.87-2.8C477.44 302.96 477.09 301.26 476.59 299.84zM391.83 297.12c-.02-.03-.06-.06-.09-.09-.47-1.16-.98-2.32-1.89-3.19-2.29-2.04-4.47-1.18-5.54 1.54-.47 1.37-.75 2.92-.78 4.49-.26.73-.42 1.5-.44 2.27-.03.44.03.87.14 1.3-.16 1.94.28 3.87 2 4.51.58.79 1.4 1.42 2.28 1.75C392.57 310.8 394.39 300.1 391.83 297.12zM450.89 319.71c.03-.24-.01-.47-.12-.72-.16-.43-.46-.68-.81-.81-.17-.07-.35-.12-.56-.11-.36 0-.69.14-.96.36-2.62.69-5.18 1.6-7.75 2.45-4.73 1.41-7.15 1.49-10.73 2.02-4.36.95-8.09 1-13.18.41-1.63-.04-2.73-.68-4.98-1.72-2.26-.72-2.85-.76-4.69-1.53-1.16-.45-2.85.32-2.84 1.56-.78.46-1.08 1.67-.34 2.36.11.1.22.19.33.28 0 .25.06.5.19.72.35.62 1.04.73 1.67.9.06.02.12.03.17.05 1.83 1.38 3.81 2.57 5.92 3.45 1.98 1.93 4.67 3.01 7.08 4.29 2.49 1.14 3.36 1.04 5.61 1.59 1.92.52 6 .14 9.16-.21 2.04-.16 4.22-.24 6.02-1.32 2.9-2.35 5.15-5.38 7.72-8.09.34-.27.67-.56.97-.88.33-.22.63-.48.84-.8.17-.09.33-.21.43-.38.38-.45.39-.99.19-1.45.16-.6.29-1.2.48-1.79C450.82 320.14 450.88 319.93 450.89 319.71z" class="st4"/><path d="M401.43 348.2c.08-.1.16-.2.23-.31.16-.22.32-.38.48-.53.4-.48.86-.89 1.35-1.29.39-.32.82-.67 1.26-.93.07-.06.13-.1.17-.13.07-.07.14-.14.21-.21.09-.12.18-.23.28-.35.12-.14.26-.25.4-.35.48-.5.96-1.01 1.41-1.52 2.97-3.1 5.92-6.22 8.64-9.54.76-1.13 2.18-2.22 1.93-3.56-.32-1.23-2.12-1.5-2.74-.36-3.32 4.68-9.14 10.52-14.01 15.47-3.53 3.4-6.09 4.96-9.91 8.06-9.52 7.42-18.72 15.22-27.62 23.36-9.5 9.1-19.48 17.69-28.81 26.96-13.48 13.59-26.39 27.76-40.38 40.83-1.62 1.29-2.97 2.87-4.12 4.58-.21.35-.25.77-.15 1.16.2.78 1.08 1.27 1.85 1.05.37-.13.71-.34.9-.69.8-1.14.61-.91 1.63-2.1 2.25-2.19 4.65-4.25 6.89-6.45 12.52-12.3 24.49-25.14 36.85-37.59 4.41-4.37 9.01-8.54 13.59-12.72.19-.32.45-.6.79-.84.1-.08.2-.15.31-.21.84-.78 1.54-1.44 2.38-2.15.15-.13.3-.26.45-.39 1.93-1.78 3.84-3.57 5.73-5.39 10.25-9.65 20.95-18.79 32.04-27.45 2.3-1.75 5.14-3.92 7.92-6.34C401.41 348.26 401.42 348.24 401.43 348.2zM430.27 334.51c-2.89 3.16-5.54 6.53-8.39 9.72-.21.49-.56.93-1.02 1.27.23-.17-.27.32-.31.37-.11.12-.22.24-.33.35-.22.37-.51.66-.87.9-.09.09-.19.19-.28.28-.01.01-.01.01-.02.02-.02.03-.04.07-.08.13-.17.25-.37.51-.59.73-.09.09-.37.23-.57.37-.01.01-.01.01-.02.02 0 .01-.02.01-.02.02-.07.09-.16.21-.31.41-.12.13-.63.56-.62.53-.16.12-.31.24-.47.36-.13.08-.26.15-.39.21-5.14 4.99-10.15 10.11-14.99 15.38-4.77 4.5-9.79 8.74-14.36 13.46-2.5 2.72-4.65 5.74-7.24 8.38-.68.7-1.37 1.39-2.08 2.06-.25.36-.53.71-.83 1.05-.1.15-.22.3-.36.44-.26.33-.55.57-.89.76-.03.04-.07.07-.1.1-.05.06-.11.12-.17.17-.03.02-.05.05-.08.07-.24.21-.5.4-.78.54-.15.07-.29.13-.45.18-4.16 3.62-8.51 7.02-12.49 10.84-6.39 6.97-13.15 13.58-19.36 20.71-3.88 3.87-7.08 8.34-11.08 12.1-3.09 3.23-5.97 7.64-8.2 10.09-2.36 1.89-3.75 4.64-5.57 7-.01.02-.02.03-.03.05-.2.25-.4.5-.63.73-.06.06-.17.15-.25.22-.76.57-1.04 1.54-1.36 2.41-.01.02-.02.03-.03.07-.9 1.04-.31 2.86 1.26 2.64.57-.06.94-.39 1.13-.81 0 0 .01.01.01.01.37-.57.55-1.22.8-1.85.02-.05.04-.1.07-.15 0-.01.01-.01.01-.01.26-.2.52-.41.73-.66 1.03-1.22 1.92-2.55 2.83-3.86 1.39-2.04 1.7-2.33 3.47-3.97 1.79-2.16 4.22-5.47 6.68-8.44 3.22-3.4 6.53-6.72 9.43-10.41 5.24-5.7 10.48-11.4 15.9-16.95 3.18-3.46 6.33-6.94 9.88-10.02 4.68-4.11 9.67-7.88 14.05-12.32 3.94-4 7.12-8.69 11.33-12.44 3.56-3.48 7.39-6.66 10.97-10.11 2.57-2.52 4.79-5.37 7.37-7.88 4-4 8.09-7.9 12.1-11.88 3.35-3.67 6.42-7.59 9.76-11.27C433.68 335.34 431.8 333.08 430.27 334.51zM484.24 223.85c-1.96.01-1.96 2.99 0 3C486.2 226.85 486.2 223.87 484.24 223.85zM534.66 181.38c-.31.1-.55.29-.75.52-.03.02-.08.04-.16.09-2.56 1.71-4.25 4.33-6.41 6.47-3.48 3.42-7.09 6.7-10.57 10.13-2.75 2.66-4.44 3.54-7.11 6.18-3.62 3.7-7.52 7.1-11.47 10.44-3.21 3.01-6.3 6.15-9.34 9.33-1.36 1.37.71 3.51 2.12 2.12 4.92-5.29 10.22-10.18 15.72-14.86 2.42-2.15 4.58-4.56 7.01-6.7.46-.33 2.78-2.17 4.1-3.39 4.22-4.03 8.51-7.98 12.63-12.12 1.81-2.17 3.94-4.56 5.47-5.45C537.2 183.11 536.38 180.97 534.66 181.38zM554.13 188.45c-.74-.44-1.6-.07-2.25.37-3.22 2.49-5.55 3.98-9.02 6.81-5.78 5.2-11.23 10.74-16.81 16.14-5.84 4.71-10.97 10.21-16.4 15.38-.44.56-1.12 1.04-1.1 1.82-.04 1.28 1.67 2.01 2.56 1.06 3.53-3.8 7.47-7.22 11.1-10.93 2.72-2.69 5.86-4.92 8.53-7.67 4.43-4.55 9.09-8.89 13.72-13.22 2.5-2.17 7.42-5.61 9.21-6.98C554.98 190.98 555.31 189.09 554.13 188.45zM554.46 170.16c-1.96.01-1.96 2.99 0 3C556.42 173.16 556.41 170.17 554.46 170.16zM564.78 162.42c-1.96.01-1.96 2.99 0 3C566.74 165.41 566.74 162.43 564.78 162.42zM583.37 146.41c-1.96.01-1.96 2.99 0 3C585.33 149.41 585.32 146.43 583.37 146.41zM290.13 470.62c-1.96.01-1.96 2.99 0 3C292.09 473.62 292.09 470.64 290.13 470.62zM273.09 489.21c-1.96.01-1.96 2.99 0 3C275.06 492.2 275.05 489.22 273.09 489.21zM260.19 507.28c-1.96.01-1.96 2.99 0 3C262.15 510.27 262.14 507.29 260.19 507.28zM317.53 442.73c-1.46-.89-2.73-1.16-4.88-2.28-1.2-.48-2.3-1.32-3.54-1.67-1.56-.31-2.35 2.02-.96 2.77 2.58 1.35 5.21 2.6 7.91 3.69C317.5 445.68 318.61 443.77 317.53 442.73zM333.35 420.99c-.97-.75-2.15-1.41-3.38-1.55-2.85.05-5.44 2.13-6.51 4.7-.32.65-.05 1.32.43 1.72.07.16.16.32.31.45 1.84 1.56 5.78 3.62 8.08 2.17 1.22-.93 1.94-2.53 2.15-4.02C334.34 423.27 334.21 421.89 333.35 420.99zM330.63 425.98c-.01 0-.01.01-.02.01-.58.02-.18.04-1.27-.23-1.21-.41-1.19-.4-2.62-1.22-.03-.02-.05-.05-.08-.07 1.11-1.29 1.68-1.64 2.09-1.76.19-.08.79-.21 1.03-.27.04 0 .07 0 .1 0 .25.08.55.26 1.31.65.23.89.26.87.24 1.35-.02.06-.04.12-.06.19-.03.07-.07.17-.12.28C330.96 425.56 330.71 425.89 330.63 425.98zM348.13 411.11c-.34-1.05-1.61-1.28-2.41-1.9-1.62-.87-3.1-2.15-4.86-2.71-1.56-.31-2.35 2.02-.96 2.77 2.28 1.05 4.24 2.84 6.58 3.71C347.5 413.2 348.43 412.09 348.13 411.11z" class="st4"/><path d="M361.24 397.16c-.03-.03-.18-.13-.29-.19-1.75-1.4-3.19-3.24-4.98-4.55-1.44-.7-2.8 1.35-1.64 2.43 1.32 1.3 2.66 2.59 4.03 3.85.7.56 1.46 1.42 2.43 1.28C362.29 399.85 362.46 397.74 361.24 397.16zM377.25 382.28c-.33-2.13-2.42-3.41-4.47-3.37-1.34.2-2.96.81-3.62 2.07-.09.17-.12.35-.12.52-1.27 1.06-1.65 3.27-.73 4.64.89 1.23 2.62 1.61 4.06 1.72 1.28-.09 2.28-.99 3.31-1.65C376.92 385.4 377.44 383.71 377.25 382.28zM372.19 384.87c-.24-.07-.88-.22-1.09-.3-.07-.02-.13-.04-.19-.06-.04-.02-.07-.04-.11-.06-.01-.04-.02-.08-.03-.11 0 0 0 0 0 0 .01-.04.02-.08.04-.15.02-.05.03-.11.05-.16 0 0 0 0 0 0 .03-.06.06-.12.1-.18.18-.07.39-.16.47-.26.48-.33.63-.82.57-1.29.2-.11.41-.2.62-.29.07-.03.17-.06.27-.09.03 0 .06 0 .09 0 .19.04.58.12.79.19.04.02.08.04.12.06.07.06.13.13.2.2.05.1.13.22.18.31.02.05.03.1.04.15 0 .02 0 .03 0 .05-.15.57-.18.69-.22.79-.02.02-.04.04-.07.06-.11.08-.23.16-.35.24C372.87 384.49 372.47 384.78 372.19 384.87zM398.68 359.5c-1.37-.77-2.61-1.96-4.12-2.42-1.56-.31-2.35 2.02-.96 2.77 1.82 1.02 3.51 2.25 5.29 3.34.82.51 1.96.03 2.2-.9C401.5 360.76 399.64 360.24 398.68 359.5zM410.66 348.52c-2.31-1.28-2.18-1.76-3.64-2.28-1.56-.31-2.35 2.02-.96 2.77.05.04.09.07.16.12-.73-.55 1.06.83 1.44 1.04.83.44 1.63 1.37 2.65 1.09C411.54 350.96 411.78 349.13 410.66 348.52zM388.97 373.23c-.13-.37-.34-.7-.69-.9-1.34-1.01-1.14-.86-2.48-1.92-1.05-.63-2.04-2.13-3.23-2.23-1.29-.04-2 1.68-1.06 2.56 1.3 1.14 2.67 2.19 4.03 3.26.59.36 1.07 1.03 1.79 1.11C388.35 375.32 389.28 374.21 388.97 373.23zM513.1 215.71c-1.32-1.18-3.31-1.48-5.02-1.19-1.5.19-3.75 1.49-2.32 3.15.05.05.1.08.15.12-.17.07-.33.17-.5.32-.84.58-1.29 1.78-.47 2.57.07.07.16.18.23.27.63.84 1.24 1.76 2.21 2.22 1.15.53 2.59.71 3.74.11.94-.72 1.7-1.71 2.37-2.68.37-.68.78-1.38.83-2.18C514.31 217.4 513.78 216.45 513.1 215.71zM510.55 219.61c.47-.61-.43.49-.93 1.03-.97 0-.76-.05-1.29-.48-.18-.19-.29-.34-.43-.53.19-.61-.08-1.26-.55-1.63.2-.07.4-.17.57-.31.08-.04.15-.07.23-.11.01-.01.02-.01.04-.01.74-.36 2.29-.01 2.71.2.01.01.01.01.02.01.03.02.05.05.07.07.11.16.21.33.29.5C511.12 218.68 510.73 219.44 510.55 219.61zM520.01 212.28c-.15-.62-.75-.92-1.15-1.37-1.09-.97-1.92-2.32-3.11-3.13-1.44-.7-2.8 1.35-1.64 2.43.93 1.07 1.93 2.1 2.93 3.12.43.41.89.88 1.52.85C519.53 214.21 520.28 213.21 520.01 212.28zM534.15 198.18c-.35-.99-1.11-1.83-1.96-2.42-.89-.48-1.91-.54-2.9-.6-1.24-.14-2.87.9-2.24 2.27.14.41.47.68.86.81-.14.03-.28.09-.42.17-1.68.98-2.13 3.74-.76 5.15.63.61 1.55.68 2.39.62 1.24.14 2.38-.37 3.25-1.25C533.85 201.9 534.44 199.91 534.15 198.18zM530.34 200.73c-.09.08-.25.22-.36.31-.07.05-.15.1-.23.14 0 0-.01 0-.01 0-.15.01-.47.01-.77 0 .01-.06.03-.11.05-.17 0-.01.01-.01.01-.02.16-.11.34-.27.4-.38.72-.84.17-1.97-.69-2.32.15-.03.29-.07.43-.15.33.01.66.03.98.06.18.04.4.1.53.13.44.43.5.51.57.64 0 .03 0 .06 0 .08-.11.65-.19.93-.26 1.07C530.78 200.36 530.56 200.55 530.34 200.73zM544.41 187.68c-1.57-1.32-3.69-2.67-5.81-2.34-1.85.52-1.12 3.29.71 2.91.02 0 .03.01.05.01 1.52.37 2.15 1 3.42 1.85C544.21 190.82 545.57 188.76 544.41 187.68z" class="st4"/><path d="M421.01 372.71c-2.43 2.53-4.24 3.31-5.6 2.37-1.04-.63-1.66-4.38-.56-7.74.4-1.21 1.21-1.78 2.14-1.81 1.38 0 1.58.05 2.23.35.29.55.62 1.15 1.26 1.31 1.24.39 2.39-1.1 1.69-2.2-.93-2.33-3.82-2.67-6.02-2.36-5.18.88-5.58 8.64-4.2 12.64 2.43 5.5 8.81 2.96 11.49-.91C424.14 372.91 422.09 371.55 421.01 372.71zM432.9 367.73c-1.39-2.01-4.09-3.9-6.54-2.67-1.38.75-1.38 2.64.09 3.02-.34.64-.61 1.31-.87 1.97-.54 1.54-1.2 3.34-.39 4.9.64 1.11 1.74 2.14 3.08 2.14 1.91-.07 3.59-1.18 4.44-2.89C434.24 372.38 433.97 369.72 432.9 367.73zM429.04 373.88c-.15.07-.51.15-.71.2-.01 0-.01 0-.02 0 0 0-.01 0-.01-.01-.06-.05-.13-.11-.19-.17-.41-.65-.52-.03.04-2.17.48-1.42.96-2.49 1.52-3.16.15.15.34.35.6.62.06.09.12.19.18.29.01.02.02.04.03.08.42 1.42.3 1.85.29 2.03C429.72 373.5 429.33 373.82 429.04 373.88zM445.24 372.62c-.67-1.21-.8-3.1-1.08-5.14-.07-1.76-.56-3.2-1.38-3.63-1.69-.89-2.42 1.1-2.79 2.38-.29.87-.57 2.1-.81 3.04-.01-.03-.03-.06-.04-.08-.57-1.66-1.19-3.32-1.6-5.03.01-1.44-1.48-2.46-2.64-1.39-.38.39-.49.92-.43 1.45.09 1.47.16 2.94.25 4.41.18 2.82.28 5.65.56 8.46 0 .39.16.78.44 1.06.88.94 2.6.23 2.56-1.06-.13-1.35-.22-2.7-.31-4.06.69.72 1.51 1.01 2.46.27.52-.51.92-1.23 1.24-2.03.21 1.21.56 2.36 1.36 3.27C444.25 375.6 446.09 373.97 445.24 372.62zM452.83 363.43c-1.63-2.24-4.16-2.74-5.91-.34-.71.81-1.13 1.83-1.12 2.91-.3 3.25.47 6.41 1.12 9.57.31 1.06.31 2.28.87 3.23.78 1.14 2.73.47 2.68-.91-.02-.13-.04-.27-.06-.4 0 0 0 0 0 0 0-.02-.01-.03-.01-.05-.28-2-.58-3.99-.86-5.99 1.36-.22 2.67-.85 3.53-1.89.64-.91 1.08-2.04 1.11-3.15C454.1 365.3 453.53 364.27 452.83 363.43zM451.06 366.96c-.2.96-.97 1.32-1.95 1.53-.05-.37-.15-.72-.35-1.01.02-.85.06-1.59.03-1.6.14-.63.14-.58.83-1.33.03-.01.05-.03.08-.04C450.63 365.28 451.43 366.36 451.06 366.96zM464.73 375.22c-.01 0-.01 0-.02 0-.02-.03-.03-.06-.05-.09-.2-.53-.34-1.08-.42-1.63 0-.09-.01-.63-.02-1.4.4-1.15.63-2.36.62-3.6-.01-1.26.43-2.63-.12-3.82-.41-.84-1.55-1.28-2.37-.79-1.58 1.39-.97 4.04-1.12 5.94.02.56.01 1.16 0 1.77-.22.46-.51.96-.93 1.56-.07.13-.25.38-.34.51-.08.09-.17.17-.24.24-.01.01-.02.01-.03.02-.23.04-.36.06-.53.03-.19-.68-.16-2.95-.05-4.63.17-1.55.02-1.09.36-2.45.2-.55.35-1.18.02-1.71-.61-1.13-2.44-.89-2.74.36-.67 2.13-.71 4.41-.72 6.62.01 1.38.01 2.94.99 4.03 1.24 1.12 3.47 1.05 4.71-.04.03-.03.05-.06.08-.09.3.71.75 1.34 1.44 1.81 1.07.64 2.59.18 2.61-1.2C465.84 376.01 465.37 375.39 464.73 375.22zM476.06 361.74c-2.25-.01-4.45 1.01-6.62 1.56-.74.29-1.71.37-2.15 1.12-.69 1.1.45 2.59 1.69 2.2 1.64-.58 3.31-1.04 4.98-1.53.85-.26 1.86-.22 2.61-.73C477.57 363.69 477.21 362.02 476.06 361.74z" class="st5"/><path d="M475.95 373.4c-.07-2.68-.17-5.37-.37-8.04-.01-1.96-2.99-1.96-3 0 .21 2.78.3 5.56.38 8.35-.02 1.22-.13 2.8 1.51 2.86C476.17 376.53 476.02 374.63 475.95 373.4zM490.86 373.41c-1.1-2.63-4 .28-5.55.99-.03.01-.05.02-.07.03-.22.07-.49.14-.63.18-.12.01-.23.02-.35.03-.23-1.14-.77-4.61-.54-7.76 0-1.96-2.99-1.96-3 0-.23 1.91.28 7.02.46 7.34.12 3.23 2.21 4.05 5.05 3.03 1.1-.42 2.01-1.2 3.07-1.71C489.99 375.1 491.06 375.09 490.86 373.41z" class="st5"/><path d="M484.94 367.48c-1.12-.17-2.2.53-3.26.81-.66.28-1.51.36-1.89 1.04-.69 1.1.45 2.59 1.69 2.2 1.15-.41 2.29-.83 3.46-1.16C486.38 370.02 486.38 367.84 484.94 367.48zM487.86 360.93c-2.6 1.06-5.15 2.21-7.73 3.32-.33.2-.59.52-.69.9-.39 1.24 1.1 2.39 2.2 1.69 1.5-.65 5.9-2.58 6.02-2.61.65-.32 1.5-.42 1.88-1.1C490.25 362.04 489.11 360.55 487.86 360.93z" class="st5"/><g><path d="M501.48 373.77c.01 0 .03 0 .04 0-.01 0-.01 0-.02 0C501.49 373.77 501.48 373.77 501.48 373.77zM505.04 372.22c-.34-.59-1.01-.72-1.59-.97-1.9-.75-3.96-.55-5.98-.61 1.82-1.48 3.46-3.19 3.7-5.6.09-1.74-1.08-4-3.05-3.91-2.08-.19-3.55 1.5-4.6 3.08-.13.2-.23.41-.34.62-.69.12-1.32.68-1.29 1.46 0 .88.01 1.77.03 2.65-.23 1.81-.16 3.69-.03 5.46.15 1.16-.09 2.88 1.31 3.3.92.28 1.92-.49 1.9-1.45-.01-.93-.04-1.85-.06-2.78 2.11.18 4.22.14 6.33.27.05 0 .08.01.12.01-.07-.01-.17-.02-.24-.03.09 0 .18.02.27.04.13.01.1.01.02 0 .83.16 1.58.76 2.43.68C504.98 374.39 505.58 373.08 505.04 372.22zM497.56 364.17c.01 0 .03-.01.04-.01.05-.01.08-.01.11-.02.07-.01.14 0 .22 0 .08.13.16.28.22.41.01.03.02.07.04.12 0 .07.01.14.01.22-.01.11-.02.14-.01.14-.17 1.13-1.72 2.62-3.21 3.82.07-.48.16-.92.28-1.28C495.48 366.33 496.85 364.6 497.56 364.17z" class="st5"/></g></g></svg>